<svg width="936" height="393" viewBox="0 0 936 393" fill="none" xmlns="http://www.w3.org/2000/svg">
<path opacity="0.3" d="M405.277 199.6C288.941 160.61 169.98 228.971 169.98 271.807C169.98 314.642 207.759 361.797 346.099 349.369C463.444 338.826 555.465 249.935 405.277 199.6Z" fill="#EBE8F2"/>
<path opacity="0.1" d="M643.58 286.436C542.511 298.88 422.3 158.352 536.158 85.2127C614.065 35.1687 795.702 71.5246 765.48 156.402C748.237 204.829 729.579 180.87 696.764 230.486C678.997 257.354 678.082 282.187 643.58 286.436Z" fill="#EBE8F2"/>
<path opacity="0.1" d="M760.179 324.702L752.749 327.222L750.272 319.921C748.892 315.851 751.093 311.413 755.18 310.027L762.592 307.513L765.075 314.833C766.452 318.893 764.257 323.319 760.179 324.702Z" fill="#9F94C6"/>
<path opacity="0.3" d="M935.498 76.4863L935.498 83.97L927.93 83.97C923.833 83.97 920.498 80.6112 920.498 76.4863C920.498 72.3194 923.861 68.9279 927.995 68.9279C932.134 68.9279 935.498 72.3194 935.498 76.4863Z" fill="#F39324"/>
<path d="M838.508 248.907C837.653 249.926 836.079 249.911 835.246 248.874C833.535 246.735 829.887 243.392 825.186 239.457C820.485 235.518 816.918 232.818 814.512 231.509C813.344 230.873 813.05 229.326 813.906 228.307C814.545 227.544 815.631 227.329 816.513 227.797C818.837 229.036 823.018 231.981 827.972 236.132C832.926 240.282 836.92 244.184 838.549 246.255C839.166 247.036 839.148 248.145 838.508 248.907Z" fill="#EBE8F2"/>
<path d="M843.083 256.279C844.35 256.279 845.377 255.251 845.377 253.984C845.377 252.717 844.35 251.689 843.083 251.689C841.815 251.689 840.788 252.717 840.788 253.984C840.788 255.251 841.815 256.279 843.083 256.279Z" fill="#EBE8F2"/>
<path opacity="0.2" d="M903.786 250.879L899.398 246.491L903.786 242.103C905.127 240.762 905.128 238.591 903.786 237.249C902.445 235.908 900.274 235.908 898.933 237.249L894.545 241.637L890.157 237.249C888.815 235.908 886.644 235.908 885.303 237.249C883.962 238.591 883.962 240.762 885.303 242.103L889.691 246.491L885.303 250.879C883.962 252.22 883.962 254.391 885.303 255.732C886.644 257.074 888.816 257.074 890.157 255.732L894.545 251.345L898.933 255.732C900.274 257.074 902.445 257.074 903.786 255.732C905.128 254.391 905.128 252.22 903.786 250.879Z" fill="#EBE8F2"/>
<path opacity="0.2" d="M213.786 82.8788L209.398 78.4909L213.786 74.1029C215.127 72.7617 215.127 70.5905 213.786 69.2493C212.445 67.9081 210.274 67.908 208.932 69.2493L204.545 73.6372L200.157 69.2493C198.815 67.908 196.644 67.908 195.303 69.2493C193.962 70.5905 193.962 72.7617 195.303 74.1029L199.691 78.4909L195.303 82.8788C193.962 84.22 193.962 86.3912 195.303 87.7325C196.644 89.0737 198.815 89.0737 200.157 87.7325L204.545 83.3445L208.932 87.7325C210.274 89.0737 212.445 89.0737 213.786 87.7325C215.127 86.3912 215.127 84.22 213.786 82.8788Z" fill="#EBE8F2"/>
<path d="M110.056 18.5352C132.361 20.78 129.577 7.41653 126.613 3.52221C121.993 -2.45568 112.952 -0.26668 110.676 5.90965C109.523 8.29709 110.236 16.0981 110.056 18.5352Z" fill="#EBE8F2"/>
<path d="M11.9347 222.553C11.9347 222.774 11.8518 222.995 11.6821 223.161L3.14907 231.752C2.81359 232.092 2.26499 232.096 1.92556 231.76C1.58614 231.425 1.58614 230.877 1.92161 230.537L10.4546 221.946C10.7901 221.607 11.3387 221.607 11.6781 221.942C11.8478 222.108 11.9347 222.329 11.9347 222.553Z" fill="#F39324"/>
<path d="M12.6534 226.167C12.6534 226.388 12.5705 226.609 12.4008 226.774L6.69369 232.526C6.35821 232.865 5.80961 232.865 5.47018 232.53C5.13076 232.194 5.13076 231.646 5.46624 231.307L11.1773 225.555C11.5127 225.216 12.0614 225.216 12.4008 225.551C12.5665 225.725 12.6534 225.946 12.6534 226.167Z" fill="#F39324"/>
<path d="M8.26452 221.717C8.26452 221.938 8.18164 222.158 8.01587 222.324L2.08382 228.304C1.74834 228.644 1.19974 228.644 0.860311 228.308C0.520885 227.973 0.516939 227.425 0.856364 227.085L6.78447 221.105C7.11995 220.766 7.66855 220.762 8.00798 221.101C8.17769 221.271 8.26452 221.492 8.26452 221.717Z" fill="#F39324"/>
<path d="M929.935 221.553C929.935 221.774 929.852 221.995 929.682 222.161L921.149 230.752C920.814 231.091 920.265 231.095 919.926 230.76C919.586 230.425 919.586 229.876 919.922 229.537L928.455 220.946C928.79 220.606 929.339 220.606 929.678 220.942C929.848 221.107 929.935 221.328 929.935 221.553Z" fill="#F39324"/>
<path d="M930.653 225.167C930.653 225.387 930.57 225.608 930.401 225.774L924.694 231.525C924.358 231.865 923.81 231.865 923.47 231.529C923.131 231.194 923.131 230.646 923.466 230.306L929.177 224.555C929.513 224.216 930.061 224.216 930.401 224.551C930.567 224.725 930.653 224.946 930.653 225.167Z" fill="#F39324"/>
<path d="M926.265 220.716C926.265 220.937 926.182 221.158 926.016 221.324L920.084 227.304C919.748 227.643 919.2 227.643 918.86 227.308C918.521 226.973 918.517 226.424 918.856 226.085L924.784 220.105C925.12 219.766 925.669 219.762 926.008 220.101C926.178 220.271 926.265 220.492 926.265 220.716Z" fill="#F39324"/>
</svg>
