<svg width="826" height="544" viewBox="0 0 826 544" fill="none" xmlns="http://www.w3.org/2000/svg">
<path opacity="0.1" d="M533.58 226.436C432.511 238.88 312.3 98.3525 426.157 25.2129C504.064 -24.8311 685.701 11.5248 655.48 96.4027C638.236 144.829 619.579 120.87 586.764 170.486C568.996 197.354 568.082 222.188 533.58 226.436Z" fill="#EBE8F2"/>
<path opacity="0.1" d="M650.179 264.702L642.749 267.222L640.272 259.921C638.891 255.851 641.093 251.413 645.18 250.027L652.592 247.513L655.075 254.833C656.452 258.893 654.257 263.319 650.179 264.702Z" fill="#9F94C6"/>
<path opacity="0.3" d="M825.498 16.4866L825.498 23.9702L817.93 23.9702C813.833 23.9702 810.498 20.6114 810.498 16.4866C810.498 12.3196 813.861 8.92817 817.996 8.92817C822.135 8.92817 825.498 12.3196 825.498 16.4866Z" fill="#F39324"/>
<path d="M728.508 208.907C727.653 209.926 726.08 209.911 725.246 208.874C723.536 206.735 719.887 203.392 715.186 199.457C710.485 195.518 706.918 192.818 704.512 191.509C703.344 190.873 703.05 189.326 703.906 188.307C704.546 187.544 705.632 187.329 706.513 187.797C708.837 189.036 713.018 191.981 717.972 196.132C722.926 200.283 726.92 204.184 728.549 206.256C729.166 207.037 729.148 208.145 728.508 208.907Z" fill="#EBE8F2"/>
<path d="M733.083 216.279C734.35 216.279 735.378 215.251 735.378 213.984C735.378 212.717 734.35 211.689 733.083 211.689C731.815 211.689 730.788 212.717 730.788 213.984C730.788 215.251 731.815 216.279 733.083 216.279Z" fill="#EBE8F2"/>
<path opacity="0.2" d="M793.787 190.879L789.399 186.491L793.786 182.103C795.128 180.762 795.128 178.591 793.787 177.249C792.445 175.908 790.274 175.908 788.933 177.249L784.545 181.637L780.157 177.249C778.816 175.908 776.645 175.908 775.303 177.249C773.962 178.591 773.962 180.762 775.303 182.103L779.691 186.491L775.303 190.879C773.962 192.22 773.962 194.391 775.303 195.733C776.645 197.074 778.816 197.074 780.157 195.733L784.545 191.345L788.933 195.733C790.274 197.074 792.445 197.074 793.787 195.733C795.128 194.391 795.128 192.22 793.787 190.879Z" fill="#EBE8F2"/>
<path opacity="0.2" d="M103.787 22.8789L99.3986 18.491L103.786 14.1031C105.128 12.7618 105.128 10.5907 103.787 9.24941C102.445 7.90817 100.274 7.90815 98.9328 9.24939L94.5449 13.6373L90.157 9.24938C88.8157 7.90814 86.6446 7.90817 85.3033 9.24941C83.9621 10.5906 83.9621 12.7618 85.3033 14.1031L89.6912 18.491L85.3033 22.8789C83.9621 24.2201 83.9621 26.3914 85.3033 27.7326C86.6446 29.0738 88.8157 29.0738 90.157 27.7326L94.5449 23.3447L98.9328 27.7326C100.274 29.0738 102.445 29.0738 103.787 27.7326C105.128 26.3914 105.128 24.2202 103.787 22.8789Z" fill="#EBE8F2"/>
<path d="M0.055834 28.5353C22.3613 30.7801 19.577 17.4166 16.6129 13.5223C11.993 7.54444 2.95176 9.73344 0.675947 15.9098C-0.477464 18.2972 0.235667 26.0982 0.055834 28.5353Z" fill="#EBE8F2"/>
<g opacity="0.3">
<path opacity="0.2" d="M306.585 141.204C278.592 69.8232 328.24 2.22106 389.834 10.8106C451.429 19.4001 513.052 73.3385 550.307 49.1957C587.563 25.053 668.647 55.6674 665.856 120.309C663.065 184.951 660.637 325.537 558.078 301.232C455.52 276.928 373.612 312.117 306.585 141.204Z" fill="#D0CAE1"/>
<path d="M656.806 303.291C653.496 304.748 650.099 303.776 649.78 301.276C649.126 296.131 647.394 287.368 642.824 276.972C638.25 266.571 632.963 259.375 629.617 255.415C627.991 253.49 629.57 250.333 632.88 248.877C635.36 247.786 638.021 248.026 639.261 249.455C642.533 253.234 648.803 261.265 653.626 272.224C658.444 283.183 660.125 293.233 660.696 298.201C660.912 300.075 659.286 302.201 656.806 303.291Z" fill="#FCF8F5"/>
<path d="M214.596 12.0467C217.033 14.7236 217.194 18.2507 214.927 19.349C210.258 21.6086 202.507 26.0411 194.107 33.6898C185.706 41.3385 180.569 48.6447 177.884 53.0812C176.577 55.2384 173.082 54.7463 170.645 52.0695C168.822 50.0658 168.2 47.4677 169.157 45.8379C171.696 41.5314 177.309 33.0285 186.163 24.9664C195.016 16.9044 204.007 12.1097 208.53 9.98398C210.242 9.18093 212.774 10.047 214.596 12.0467Z" fill="white"/>
<path d="M163.216 69.0163L157.697 70.8114L155.902 65.2924C155.355 63.6075 153.54 62.6824 151.855 63.2335C150.171 63.7847 149.245 65.5955 149.797 67.2803L151.592 72.7993L146.073 74.5944C144.388 75.1416 143.463 76.9563 144.014 78.6411C144.561 80.326 146.376 81.2511 148.061 80.7L153.58 78.9049L155.375 84.4239C155.922 86.1087 157.737 87.0338 159.421 86.4827C161.106 85.9355 162.031 84.1208 161.48 82.436L159.685 76.9169L165.204 75.1219C166.889 74.5747 167.814 72.76 167.263 71.0751C166.716 69.3903 164.905 68.4691 163.216 69.0163Z" fill="#FBE5CA"/>
<path d="M278.981 123.108H235.573C232.841 123.108 230.629 120.892 230.629 118.164V117.806C230.629 115.074 232.845 112.861 235.573 112.861H278.977C281.709 112.861 283.922 115.078 283.922 117.806V118.164C283.926 120.896 281.709 123.108 278.981 123.108Z" fill="#EBE8F2"/>
<path d="M399.309 123.108H355.901C353.169 123.108 350.957 120.892 350.957 118.164V117.806C350.957 115.074 353.173 112.861 355.901 112.861H399.306C402.038 112.861 404.25 115.078 404.25 117.806V118.164C404.254 120.896 402.038 123.108 399.309 123.108Z" fill="#EBE8F2"/>
<path d="M521.126 123.108H477.722C474.99 123.108 472.777 120.892 472.777 118.164V117.806C472.777 115.074 474.994 112.861 477.722 112.861H521.126C523.858 112.861 526.07 115.078 526.07 117.806V118.164C526.07 120.896 523.858 123.108 521.126 123.108Z" fill="#EBE8F2"/>
<path d="M554.094 59.1985C556.101 59.1985 557.728 57.5717 557.728 55.5651C557.728 53.5584 556.101 51.9316 554.094 51.9316C552.088 51.9316 550.461 53.5584 550.461 55.5651C550.461 57.5717 552.088 59.1985 554.094 59.1985Z" fill="#EBE8F2"/>
<path d="M566.069 59.1985C568.076 59.1985 569.702 57.5717 569.702 55.5651C569.702 53.5584 568.076 51.9316 566.069 51.9316C564.062 51.9316 562.436 53.5584 562.436 55.5651C562.436 57.5717 564.062 59.1985 566.069 59.1985Z" fill="#EBE8F2"/>
</g>
</svg>
