<svg width="177" height="42" viewBox="0 0 177 42" fill="none" xmlns="http://www.w3.org/2000/svg">
<rect x="116.825" y="29.6794" width="59.7289" height="11.4515" rx="5" fill="#F39324"/>
<path d="M123.345 38.5139H122.521V33.0791H123.345V38.5139ZM122.452 31.6064C122.452 31.4179 122.498 31.2807 122.591 31.1948C122.683 31.1055 122.799 31.0609 122.938 31.0609C123.07 31.0609 123.184 31.1055 123.28 31.1948C123.376 31.2841 123.424 31.4212 123.424 31.6064C123.424 31.7915 123.376 31.9303 123.28 32.0229C123.184 32.1122 123.07 32.1568 122.938 32.1568C122.799 32.1568 122.683 32.1122 122.591 32.0229C122.498 31.9303 122.452 31.7915 122.452 31.6064ZM128.809 38.5139V34.9982C128.809 34.5552 128.708 34.2246 128.507 34.0064C128.305 33.7882 127.989 33.6791 127.56 33.6791C126.991 33.6791 126.574 33.8329 126.31 34.1403C126.046 34.4477 125.913 34.9552 125.913 35.6626V38.5139H125.09V33.0791H125.76L125.893 33.8229H125.933C126.102 33.5552 126.338 33.3485 126.642 33.2031C126.946 33.0543 127.285 32.9799 127.659 32.9799C128.313 32.9799 128.806 33.1386 129.136 33.456C129.467 33.77 129.632 34.2742 129.632 34.9684V38.5139H128.809ZM134.834 37.0312C134.834 37.537 134.646 37.9271 134.269 38.2015C133.892 38.4759 133.363 38.6131 132.682 38.6131C131.961 38.6131 131.399 38.499 130.996 38.2709V37.5073C131.257 37.6395 131.536 37.7437 131.834 37.8197C132.135 37.8957 132.424 37.9337 132.702 37.9337C133.132 37.9337 133.462 37.866 133.694 37.7304C133.925 37.5916 134.041 37.3817 134.041 37.1007C134.041 36.8891 133.948 36.7089 133.763 36.5602C133.581 36.4081 133.224 36.2296 132.692 36.0246C132.186 35.8362 131.826 35.6726 131.611 35.5337C131.399 35.3916 131.241 35.2312 131.135 35.0527C131.032 34.8742 130.981 34.661 130.981 34.413C130.981 33.97 131.161 33.6213 131.522 33.3667C131.882 33.1089 132.376 32.9799 133.004 32.9799C133.589 32.9799 134.161 33.099 134.72 33.337L134.427 34.0064C133.882 33.7816 133.388 33.6692 132.945 33.6692C132.555 33.6692 132.26 33.7304 132.062 33.8527C131.864 33.975 131.765 34.1436 131.765 34.3585C131.765 34.5039 131.801 34.6279 131.874 34.7304C131.95 34.8329 132.07 34.9304 132.236 35.023C132.401 35.1155 132.718 35.2494 133.188 35.4246C133.832 35.6593 134.267 35.8957 134.492 36.1337C134.72 36.3717 134.834 36.6709 134.834 37.0312ZM138.707 38.6131C138.353 38.6131 138.029 38.5486 137.735 38.4197C137.444 38.2875 137.199 38.0858 137.001 37.8147H136.942C136.981 38.1321 137.001 38.4329 137.001 38.7172V40.9536H136.178V33.0791H136.847L136.961 33.8229H137.001C137.213 33.5254 137.459 33.3105 137.74 33.1783C138.021 33.0461 138.343 32.9799 138.707 32.9799C139.428 32.9799 139.983 33.2262 140.373 33.7188C140.766 34.2114 140.963 34.9023 140.963 35.7916C140.963 36.6841 140.763 37.3784 140.363 37.8742C139.966 38.3668 139.414 38.6131 138.707 38.6131ZM138.588 33.6791C138.032 33.6791 137.631 33.8329 137.383 34.1403C137.135 34.4477 137.008 34.937 137.001 35.6081V35.7916C137.001 36.5552 137.128 37.1023 137.383 37.4329C137.637 37.7602 138.046 37.9238 138.608 37.9238C139.077 37.9238 139.444 37.7337 139.709 37.3536C139.976 36.9734 140.11 36.4494 140.11 35.7816C140.11 35.1039 139.976 34.5849 139.709 34.2246C139.444 33.861 139.07 33.6791 138.588 33.6791ZM143.229 38.5139H142.406V33.0791H143.229V38.5139ZM142.337 31.6064C142.337 31.4179 142.383 31.2807 142.476 31.1948C142.568 31.1055 142.684 31.0609 142.823 31.0609C142.955 31.0609 143.069 31.1055 143.165 31.1948C143.261 31.2841 143.309 31.4212 143.309 31.6064C143.309 31.7915 143.261 31.9303 143.165 32.0229C143.069 32.1122 142.955 32.1568 142.823 32.1568C142.684 32.1568 142.568 32.1122 142.476 32.0229C142.383 31.9303 142.337 31.7915 142.337 31.6064ZM147.454 32.9799C147.695 32.9799 147.912 32.9998 148.104 33.0395L147.99 33.8031C147.765 33.7535 147.566 33.7287 147.395 33.7287C146.955 33.7287 146.578 33.9072 146.264 34.2643C145.953 34.6213 145.798 35.0659 145.798 35.5982V38.5139H144.975V33.0791H145.654L145.748 34.0858H145.788C145.99 33.732 146.233 33.4593 146.517 33.2676C146.801 33.0758 147.114 32.9799 147.454 32.9799ZM152.462 38.5139L152.299 37.7404H152.259C151.988 38.0809 151.717 38.3123 151.446 38.4346C151.178 38.5536 150.843 38.6131 150.439 38.6131C149.9 38.6131 149.477 38.4742 149.17 38.1966C148.866 37.9189 148.714 37.5238 148.714 37.0114C148.714 35.9139 149.591 35.3387 151.347 35.2858L152.269 35.256V34.9188C152.269 34.4924 152.176 34.1783 151.991 33.9767C151.81 33.7717 151.517 33.6692 151.114 33.6692C150.661 33.6692 150.148 33.8081 149.576 34.0858L149.324 33.456C149.591 33.3105 149.884 33.1965 150.201 33.1138C150.522 33.0312 150.843 32.9899 151.163 32.9899C151.811 32.9899 152.291 33.1337 152.601 33.4213C152.915 33.7089 153.072 34.17 153.072 34.8048V38.5139H152.462ZM150.603 37.9337C151.115 37.9337 151.517 37.7932 151.808 37.5122C152.102 37.2313 152.249 36.8379 152.249 36.3321V35.8411L151.426 35.8759C150.771 35.899 150.299 36.0015 150.008 36.1833C149.72 36.3618 149.576 36.6412 149.576 37.0213C149.576 37.3189 149.666 37.5453 149.844 37.7007C150.026 37.8561 150.279 37.9337 150.603 37.9337ZM156.529 37.9337C156.674 37.9337 156.815 37.9238 156.95 37.904C157.086 37.8808 157.193 37.8577 157.272 37.8346V38.4643C157.183 38.5073 157.051 38.542 156.876 38.5685C156.704 38.5982 156.548 38.6131 156.41 38.6131C155.358 38.6131 154.833 38.0594 154.833 36.9519V33.7188H154.054V33.3221L154.833 32.9799L155.18 31.8196H155.656V33.0791H157.233V33.7188H155.656V36.9172C155.656 37.2445 155.734 37.4957 155.889 37.6709C156.044 37.8461 156.258 37.9337 156.529 37.9337ZM159.186 38.5139H158.363V33.0791H159.186V38.5139ZM158.294 31.6064C158.294 31.4179 158.34 31.2807 158.433 31.1948C158.525 31.1055 158.641 31.0609 158.78 31.0609C158.912 31.0609 159.026 31.1055 159.122 31.1948C159.218 31.2841 159.266 31.4212 159.266 31.6064C159.266 31.7915 159.218 31.9303 159.122 32.0229C159.026 32.1122 158.912 32.1568 158.78 32.1568C158.641 32.1568 158.525 32.1122 158.433 32.0229C158.34 31.9303 158.294 31.7915 158.294 31.6064ZM165.623 35.7916C165.623 36.6775 165.4 37.3701 164.954 37.8693C164.507 38.3652 163.891 38.6131 163.104 38.6131C162.618 38.6131 162.187 38.499 161.81 38.2709C161.433 38.0428 161.142 37.7156 160.937 37.2891C160.732 36.8627 160.629 36.3635 160.629 35.7916C160.629 34.9056 160.851 34.2163 161.294 33.7238C161.737 33.2279 162.352 32.9799 163.139 32.9799C163.899 32.9799 164.502 33.2328 164.949 33.7386C165.398 34.2444 165.623 34.9287 165.623 35.7916ZM161.482 35.7916C161.482 36.4858 161.621 37.0147 161.899 37.3784C162.177 37.742 162.585 37.9238 163.124 37.9238C163.663 37.9238 164.071 37.7437 164.349 37.3833C164.63 37.0197 164.77 36.4891 164.77 35.7916C164.77 35.1006 164.63 34.5767 164.349 34.2196C164.071 33.8593 163.659 33.6791 163.114 33.6791C162.575 33.6791 162.168 33.856 161.894 34.2097C161.62 34.5634 161.482 35.0907 161.482 35.7916ZM170.79 38.5139V34.9982C170.79 34.5552 170.689 34.2246 170.487 34.0064C170.286 33.7882 169.97 33.6791 169.54 33.6791C168.972 33.6791 168.555 33.8329 168.291 34.1403C168.026 34.4477 167.894 34.9552 167.894 35.6626V38.5139H167.071V33.0791H167.74L167.874 33.8229H167.914C168.082 33.5552 168.319 33.3485 168.623 33.2031C168.927 33.0543 169.266 32.9799 169.64 32.9799C170.294 32.9799 170.787 33.1386 171.117 33.456C171.448 33.77 171.613 34.2742 171.613 34.9684V38.5139H170.79Z" fill="white"/>
<path d="M135.739 21.4425C132.734 23.7686 128.205 22.2238 127.658 18.269C127.379 16.2607 127.741 14.4863 129.317 13.0959C130.257 12.2661 131.378 11.9263 132.61 11.9748C135.148 11.8468 137.651 13.9566 137.69 16.9845C137.712 18.7766 137.183 20.3258 135.739 21.4425ZM137.514 9.81644C136.825 9.3265 136.234 8.81008 135.563 8.44814C133.806 7.49916 131.943 7.28288 129.975 7.69779C126.973 8.32897 124.877 10.0592 123.57 12.7914C122.741 14.5304 122.555 16.371 122.688 18.2778C123.019 23.058 126.991 27.3968 132.557 26.929C134.194 26.7921 135.651 26.2007 136.869 25.0751C137.064 24.8942 137.275 24.7353 137.571 24.4881V26.4699C138.56 26.4699 141.526 26.4655 142.47 26.4655V8.00675C140.912 8.00675 139.209 8.00234 137.518 8.00234V9.81644H137.514Z" fill="#1F006E"/>
<path d="M66.1902 15.5412C66.2431 13.4446 68.3706 11.7276 70.9218 11.7452C73.8085 11.7629 75.4063 13.7845 75.4328 15.5412H66.1902ZM73.4598 7.79043C71.8664 7.41084 70.2642 7.39319 68.6443 7.71981C65.7047 8.3201 63.5154 9.9444 62.2177 12.606C60.8406 15.4396 60.7832 18.4013 61.9794 21.3366C62.9107 23.6229 64.5835 25.1854 66.8523 26.1432C68.5869 26.8759 70.3922 27.0613 72.2327 26.9157C74.8943 26.7082 77.1586 25.6312 78.9242 23.592C79.4097 23.0315 79.8466 22.4268 80.1115 21.5926C80.1115 21.5926 79.9084 21.5352 79.8908 21.5308C78.9948 21.2748 78.1032 21.0143 77.2072 20.7583C76.7834 20.6348 76.3597 20.4935 75.9271 20.392C75.7903 20.3567 75.7859 20.3964 75.6932 20.5023C75.6226 20.5862 75.552 20.6657 75.4769 20.7451C75.3269 20.9128 75.168 21.0761 75.0046 21.235C74.7089 21.5219 74.3911 21.8486 74.0424 22.0693C73.8041 22.2193 73.5304 22.3297 73.2656 22.418C72.6565 22.621 72.0121 22.7137 71.372 22.7269C70.1362 22.7534 68.7458 22.5106 67.7527 21.725C66.8434 21.0011 66.2564 20.0786 66.124 18.7677H80.2571C80.341 18.5293 80.3807 14.7952 79.6745 13.0915C78.5048 10.2578 76.4215 8.50107 73.4598 7.79043Z" fill="#1F006E"/>
<path d="M160.205 17.1125C159.574 16.68 158.868 16.3092 158.144 16.0709C156.162 15.4176 154.154 14.8526 152.159 14.2391C151.916 14.1641 151.669 14.067 151.461 13.9213C150.782 13.4446 150.733 12.5795 151.395 12.0807C151.762 11.8071 152.207 11.5423 152.644 11.4805C154.353 11.2289 155.858 11.6349 156.979 13.0562C157.076 13.1798 157.195 13.2901 157.38 13.4888C158.74 13.0915 160.121 12.6899 161.485 12.2926C161.485 12.1161 161.503 12.041 161.481 11.9792C161.437 11.8468 161.379 11.7188 161.313 11.5908C160.607 10.1872 159.477 9.19408 158.096 8.54966C155.182 7.19902 152.207 7.07985 149.259 8.47462C148.019 9.06167 147.021 9.95768 146.447 11.2245C145.834 12.5839 145.834 13.9522 146.593 15.272C147.339 16.5608 148.5 17.3332 149.872 17.7834C151.409 18.291 152.971 18.7059 154.52 19.1826C155.169 19.3813 155.836 19.5711 156.427 19.8889C157.464 20.4406 157.504 21.6014 156.564 22.3032C156.432 22.4003 156.286 22.4798 156.14 22.5504C154.295 23.442 151.064 22.7181 150.031 20.7716C149.89 20.5068 149.714 20.2596 149.515 19.9418C148.041 20.242 146.637 20.7275 145.15 21.1865C145.229 21.4514 145.273 21.6544 145.348 21.8398C146.169 23.8481 147.714 25.159 149.625 26.0065C152.508 27.2865 155.465 27.335 158.374 26.0903C160.338 25.2517 161.715 23.826 162.019 21.6103C162.271 19.7829 161.794 18.1895 160.205 17.1125Z" fill="#1F006E"/>
<path d="M175.535 22.4842C175.018 22.5901 174.634 22.7049 174.241 22.7446C173.822 22.7844 173.398 22.7755 172.975 22.7535C172.176 22.7093 171.483 22.1973 171.289 21.4867C171.191 21.1292 171.116 20.7496 171.116 20.3788C171.103 17.9865 171.081 12.3721 171.121 12.1602C172.869 12.094 172.997 12.169 174.705 12.0852V8.07739C172.948 8.05091 172.855 8.02884 171.108 8.00236C171.081 7.61394 171.134 2.84697 171.103 2.52917H166.319C166.274 4.48451 166.336 5.99846 166.279 8.01118H163.251C163.171 9.46334 163.202 10.8052 163.224 12.2573H166.305C166.305 12.6501 166.305 13.3255 166.305 13.5991C166.305 15.9694 166.323 18.3396 166.301 20.7098C166.292 21.6632 166.451 22.5857 166.778 23.4685C167.325 24.9471 168.296 26.0594 169.828 26.567C172.101 27.3218 174.303 26.9908 176.554 26.0418C176.214 24.85 175.879 23.6936 175.535 22.4842Z" fill="#1F006E"/>
<path d="M52.8913 20.9129C51.9158 22.0605 50.2385 22.6343 48.6893 22.5019H44.0945V17.1787C44.0945 14.6011 45.6481 12.5354 48.0537 12.0719C50.6579 11.5687 52.984 12.6501 53.8579 15.1042C54.5862 17.1655 54.3743 19.1694 52.8913 20.9129ZM55.7603 9.5825C54.5332 8.53642 53.1252 7.90965 51.5318 7.6404C49.2145 7.25199 47.1003 7.65806 45.2067 9.07932C44.9154 9.30001 44.6329 9.53836 44.2092 9.87823V0.0088501H39.3098V24.0379H39.3054V26.9952H49.8589V26.9907C50.6358 26.9952 51.4259 26.8936 52.2248 26.6862C55.6897 25.7902 57.7951 23.4332 58.7617 20.0522C59.2605 18.3087 59.234 16.5123 58.8456 14.7511C58.3909 12.6987 57.3713 10.9552 55.7603 9.5825Z" fill="#1F006E"/>
<path d="M87.4605 15.5412C87.5135 13.4446 89.641 11.7276 92.1922 11.7452C95.0789 11.7629 96.6767 13.7845 96.7032 15.5412H87.4605ZM94.7346 7.79043C93.1412 7.41084 91.539 7.39319 89.9191 7.71981C86.9794 8.3201 84.7902 9.9444 83.4925 12.606C82.1154 15.4396 82.058 18.4013 83.2541 21.3366C84.1855 23.6229 85.8583 25.1854 88.127 26.1432C89.8617 26.8759 91.667 27.0613 93.5075 26.9157C96.1691 26.7082 98.4334 25.6312 100.199 23.592C100.684 23.0315 101.121 22.4268 101.386 21.5926C101.386 21.5926 101.183 21.5352 101.166 21.5308C100.27 21.2748 99.378 21.0143 98.482 20.7583C98.0582 20.6348 97.6345 20.4935 97.2019 20.392C97.0651 20.3567 97.0607 20.3964 96.968 20.5023C96.8974 20.5862 96.8268 20.6657 96.7517 20.7451C96.6016 20.9128 96.4428 21.0761 96.2794 21.235C95.9837 21.5219 95.6659 21.8486 95.3172 22.0693C95.0789 22.2193 94.8052 22.3297 94.5404 22.418C93.9313 22.621 93.2868 22.7137 92.6468 22.7269C91.411 22.7534 90.0206 22.5106 89.0275 21.725C88.1182 21.0011 87.5268 20.0786 87.3988 18.7677H101.532C101.616 18.5293 101.656 14.7952 100.949 13.0915C99.7796 10.2578 97.6963 8.50107 94.7346 7.79043Z" fill="#1F006E"/>
<path d="M116.283 14.4774C118 12.553 119.721 10.6286 121.438 8.69971L121.443 8.69529C122.101 7.96259 121.39 8.00673 121.39 8.00673H121.05C119.58 8.00232 118.106 8.00673 116.636 7.9979C116.283 7.99349 116.08 8.19653 115.877 8.43046C114.518 9.98414 113.154 11.5334 111.794 13.0871C111.167 13.7977 110.541 14.5127 109.914 15.2234C109.874 15.2057 109.834 15.1837 109.795 15.166V14.4024C109.795 9.89586 109.795 4.51096 109.79 0.00441385C109 0.00441385 106.502 0 104.886 0V26.4655C106.144 26.4655 108.064 26.4522 109.795 26.4522V25.5209C109.795 24.466 109.79 23.4067 109.799 22.3518C109.799 22.1222 109.786 21.8353 109.914 21.6764C110.492 20.9526 111.119 20.264 111.777 19.5136C112.033 19.8094 112.227 20.0036 112.394 20.2243C113.842 22.1311 115.294 24.029 116.716 25.9535C117.003 26.3463 117.303 26.4611 117.762 26.4522C119.099 26.4346 121.681 26.4478 122.749 26.4478C120.216 23.0359 117.515 19.4077 114.963 15.9737C115.453 15.4264 115.864 14.9497 116.283 14.4774Z" fill="#1F006E"/>
<path d="M18.2292 23.9942H15.3514C16.6932 22.4581 17.5098 20.4498 17.5098 18.2562V12.4652H18.2292C21.4072 12.4652 23.9937 15.0517 23.9937 18.2297C23.9981 21.4076 21.4116 23.9942 18.2292 23.9942ZM14.5348 15.6829L11.1715 12.4652H14.5348V15.6829ZM3.00142 20.4631L6.58106 23.9898H3.00142V20.4631ZM12.2131 22.8642C11.529 23.3762 10.7301 23.7426 9.85614 23.9103L3.07204 17.2233C3.21329 16.4112 3.52226 15.6564 3.97247 14.9987L12.2131 22.8642ZM7.83901 12.5402L14.4907 18.9006C14.4024 19.6907 14.1508 20.4366 13.7712 21.0987L5.66739 13.3612C6.31623 12.9507 7.05334 12.6638 7.83901 12.5402ZM8.76592 2.99746C11.9439 2.99746 14.5304 5.58398 14.5304 8.76195V9.48141H8.74385C6.55016 9.48141 4.54186 10.298 3.00584 11.6398V8.76195C3.00142 5.58398 5.58794 2.99746 8.76592 2.99746ZM18.2292 9.48583H17.5098V8.76637C17.5098 3.94644 13.5859 0.022522 8.76592 0.022522C3.94599 0.022522 0.0264831 3.94202 0.0264831 8.76637V17.5985C0.00882771 17.8059 0 18.0178 0 18.2297V26.9735H0.0264831V27H8.77033C8.9822 27 9.18965 26.9912 9.40151 26.9735H18.2292C23.0492 26.9735 26.9731 23.0496 26.9731 18.2297C26.9731 13.4097 23.0536 9.48583 18.2292 9.48583Z" fill="#F39324"/>
</svg>
