<svg width="179" height="42" viewBox="0 0 179 42" fill="none" xmlns="http://www.w3.org/2000/svg">
<rect x="113.141" y="30.1174" width="65.73" height="11.4515" rx="5" fill="#F39324"/>
<path d="M119.66 38.9519H118.837V33.5171H119.66V38.9519ZM118.767 32.0444C118.767 31.8559 118.813 31.7187 118.906 31.6328C118.999 31.5435 119.114 31.4989 119.253 31.4989C119.385 31.4989 119.499 31.5435 119.595 31.6328C119.691 31.722 119.739 31.8592 119.739 32.0444C119.739 32.2295 119.691 32.3683 119.595 32.4609C119.499 32.5502 119.385 32.5948 119.253 32.5948C119.114 32.5948 118.999 32.5502 118.906 32.4609C118.813 32.3683 118.767 32.2295 118.767 32.0444ZM125.124 38.9519V35.4361C125.124 34.9932 125.023 34.6626 124.822 34.4444C124.62 34.2262 124.304 34.1171 123.875 34.1171C123.306 34.1171 122.89 34.2708 122.625 34.5783C122.361 34.8857 122.228 35.3932 122.228 36.1006V38.9519H121.405V33.5171H122.075L122.209 34.2609H122.248C122.417 33.9932 122.653 33.7865 122.957 33.6411C123.261 33.4923 123.6 33.4179 123.974 33.4179C124.628 33.4179 125.121 33.5766 125.452 33.894C125.782 34.208 125.947 34.7122 125.947 35.4064V38.9519H125.124ZM131.149 37.4692C131.149 37.975 130.961 38.3651 130.584 38.6395C130.207 38.9139 129.678 39.0511 128.997 39.0511C128.276 39.0511 127.714 38.937 127.311 38.7089V37.9453C127.572 38.0775 127.852 38.1816 128.149 38.2577C128.45 38.3337 128.739 38.3717 129.017 38.3717C129.447 38.3717 129.777 38.304 130.009 38.1684C130.24 38.0296 130.356 37.8197 130.356 37.5387C130.356 37.3271 130.263 37.1469 130.078 36.9982C129.896 36.8461 129.539 36.6676 129.007 36.4626C128.501 36.2742 128.141 36.1105 127.926 35.9717C127.714 35.8295 127.556 35.6692 127.45 35.4907C127.347 35.3122 127.296 35.099 127.296 34.851C127.296 34.408 127.476 34.0593 127.837 33.8047C128.197 33.5469 128.691 33.4179 129.319 33.4179C129.905 33.4179 130.476 33.5369 131.035 33.775L130.743 34.4444C130.197 34.2196 129.703 34.1072 129.26 34.1072C128.87 34.1072 128.576 34.1684 128.377 34.2907C128.179 34.413 128.08 34.5816 128.08 34.7965C128.08 34.9419 128.116 35.0659 128.189 35.1684C128.265 35.2709 128.386 35.3684 128.551 35.4609C128.716 35.5535 129.033 35.6874 129.503 35.8626C130.148 36.0973 130.582 36.3337 130.807 36.5717C131.035 36.8097 131.149 37.1089 131.149 37.4692ZM135.022 39.0511C134.668 39.0511 134.344 38.9866 134.05 38.8577C133.759 38.7255 133.515 38.5238 133.316 38.2527H133.257C133.296 38.5701 133.316 38.8709 133.316 39.1552V41.3916H132.493V33.5171H133.162L133.276 34.2609H133.316C133.528 33.9634 133.774 33.7485 134.055 33.6163C134.336 33.4841 134.658 33.4179 135.022 33.4179C135.743 33.4179 136.298 33.6642 136.688 34.1568C137.082 34.6494 137.278 35.3403 137.278 36.2295C137.278 37.1221 137.078 37.8164 136.678 38.3122C136.281 38.8048 135.729 39.0511 135.022 39.0511ZM134.903 34.1171C134.348 34.1171 133.946 34.2708 133.698 34.5783C133.45 34.8857 133.323 35.375 133.316 36.0461V36.2295C133.316 36.9932 133.443 37.5403 133.698 37.8709C133.953 38.1982 134.361 38.3618 134.923 38.3618C135.392 38.3618 135.759 38.1717 136.024 37.7916C136.291 37.4114 136.425 36.8874 136.425 36.2196C136.425 35.5419 136.291 35.0229 136.024 34.6626C135.759 34.2989 135.386 34.1171 134.903 34.1171ZM139.544 38.9519H138.721V33.5171H139.544V38.9519ZM138.652 32.0444C138.652 31.8559 138.698 31.7187 138.791 31.6328C138.883 31.5435 138.999 31.4989 139.138 31.4989C139.27 31.4989 139.384 31.5435 139.48 31.6328C139.576 31.722 139.624 31.8592 139.624 32.0444C139.624 32.2295 139.576 32.3683 139.48 32.4609C139.384 32.5502 139.27 32.5948 139.138 32.5948C138.999 32.5948 138.883 32.5502 138.791 32.4609C138.698 32.3683 138.652 32.2295 138.652 32.0444ZM143.769 33.4179C144.011 33.4179 144.227 33.4378 144.419 33.4774L144.305 34.2411C144.08 34.1915 143.882 34.1667 143.71 34.1667C143.27 34.1667 142.893 34.3452 142.579 34.7023C142.268 35.0593 142.113 35.5039 142.113 36.0362V38.9519H141.29V33.5171H141.969L142.063 34.5237H142.103C142.305 34.17 142.548 33.8973 142.832 33.7055C143.116 33.5138 143.429 33.4179 143.769 33.4179ZM148.778 38.9519L148.614 38.1783H148.574C148.303 38.5188 148.032 38.7502 147.761 38.8726C147.493 38.9916 147.158 39.0511 146.754 39.0511C146.216 39.0511 145.792 38.9122 145.485 38.6345C145.181 38.3569 145.029 37.9618 145.029 37.4494C145.029 36.3519 145.906 35.7767 147.662 35.7238L148.584 35.694V35.3568C148.584 34.9304 148.492 34.6163 148.306 34.4146C148.125 34.2097 147.832 34.1072 147.429 34.1072C146.976 34.1072 146.463 34.246 145.892 34.5237L145.639 33.894C145.906 33.7485 146.199 33.6345 146.516 33.5518C146.837 33.4692 147.158 33.4279 147.478 33.4279C148.126 33.4279 148.606 33.5717 148.916 33.8593C149.23 34.1469 149.387 34.608 149.387 35.2428V38.9519H148.778ZM146.918 38.3717C147.43 38.3717 147.832 38.2312 148.123 37.9502C148.417 37.6692 148.564 37.2758 148.564 36.7701V36.2791L147.741 36.3138C147.087 36.337 146.614 36.4395 146.323 36.6213C146.035 36.7998 145.892 37.0791 145.892 37.4593C145.892 37.7568 145.981 37.9833 146.159 38.1387C146.341 38.294 146.594 38.3717 146.918 38.3717ZM152.844 38.3717C152.989 38.3717 153.13 38.3618 153.265 38.342C153.401 38.3188 153.508 38.2957 153.588 38.2726V38.9023C153.498 38.9453 153.366 38.98 153.191 39.0065C153.019 39.0362 152.864 39.0511 152.725 39.0511C151.673 39.0511 151.148 38.4974 151.148 37.3899V34.1568H150.369V33.7601L151.148 33.4179L151.495 32.2576H151.971V33.5171H153.548V34.1568H151.971V37.3552C151.971 37.6825 152.049 37.9337 152.204 38.1089C152.359 38.2841 152.573 38.3717 152.844 38.3717ZM155.502 38.9519H154.678V33.5171H155.502V38.9519ZM154.609 32.0444C154.609 31.8559 154.655 31.7187 154.748 31.6328C154.84 31.5435 154.956 31.4989 155.095 31.4989C155.227 31.4989 155.341 31.5435 155.437 31.6328C155.533 31.722 155.581 31.8592 155.581 32.0444C155.581 32.2295 155.533 32.3683 155.437 32.4609C155.341 32.5502 155.227 32.5948 155.095 32.5948C154.956 32.5948 154.84 32.5502 154.748 32.4609C154.655 32.3683 154.609 32.2295 154.609 32.0444ZM161.938 36.2295C161.938 37.1155 161.715 37.8081 161.269 38.3073C160.822 38.8031 160.206 39.0511 159.419 39.0511C158.933 39.0511 158.502 38.937 158.125 38.7089C157.748 38.4808 157.457 38.1535 157.252 37.7271C157.047 37.3006 156.945 36.8015 156.945 36.2295C156.945 35.3436 157.166 34.6543 157.609 34.1617C158.052 33.6659 158.667 33.4179 159.454 33.4179C160.214 33.4179 160.817 33.6708 161.264 34.1766C161.713 34.6824 161.938 35.3667 161.938 36.2295ZM157.798 36.2295C157.798 36.9238 157.936 37.4527 158.214 37.8164C158.492 38.18 158.9 38.3618 159.439 38.3618C159.978 38.3618 160.386 38.1816 160.664 37.8213C160.945 37.4577 161.085 36.9271 161.085 36.2295C161.085 35.5386 160.945 35.0147 160.664 34.6576C160.386 34.2973 159.974 34.1171 159.429 34.1171C158.89 34.1171 158.483 34.294 158.209 34.6477C157.935 35.0014 157.798 35.5287 157.798 36.2295ZM167.105 38.9519V35.4361C167.105 34.9932 167.004 34.6626 166.803 34.4444C166.601 34.2262 166.285 34.1171 165.855 34.1171C165.287 34.1171 164.87 34.2708 164.606 34.5783C164.341 34.8857 164.209 35.3932 164.209 36.1006V38.9519H163.386V33.5171H164.055L164.189 34.2609H164.229C164.398 33.9932 164.634 33.7865 164.938 33.6411C165.242 33.4923 165.581 33.4179 165.955 33.4179C166.609 33.4179 167.102 33.5766 167.432 33.894C167.763 34.208 167.928 34.7122 167.928 35.4064V38.9519H167.105ZM173.13 37.4692C173.13 37.975 172.942 38.3651 172.565 38.6395C172.188 38.9139 171.659 39.0511 170.978 39.0511C170.257 39.0511 169.695 38.937 169.292 38.7089V37.9453C169.553 38.0775 169.832 38.1816 170.13 38.2577C170.431 38.3337 170.72 38.3717 170.998 38.3717C171.427 38.3717 171.758 38.304 171.989 38.1684C172.221 38.0296 172.337 37.8197 172.337 37.5387C172.337 37.3271 172.244 37.1469 172.059 36.9982C171.877 36.8461 171.52 36.6676 170.988 36.4626C170.482 36.2742 170.122 36.1105 169.907 35.9717C169.695 35.8295 169.537 35.6692 169.431 35.4907C169.328 35.3122 169.277 35.099 169.277 34.851C169.277 34.408 169.457 34.0593 169.818 33.8047C170.178 33.5469 170.672 33.4179 171.3 33.4179C171.885 33.4179 172.457 33.5369 173.016 33.775L172.723 34.4444C172.178 34.2196 171.684 34.1072 171.241 34.1072C170.851 34.1072 170.556 34.1684 170.358 34.2907C170.16 34.413 170.061 34.5816 170.061 34.7965C170.061 34.9419 170.097 35.0659 170.17 35.1684C170.246 35.2709 170.366 35.3684 170.532 35.4609C170.697 35.5535 171.014 35.6874 171.484 35.8626C172.128 36.0973 172.563 36.3337 172.788 36.5717C173.016 36.8097 173.13 37.1089 173.13 37.4692Z" fill="white"/>
<path d="M136.055 21.8804C133.049 24.2065 128.521 22.6616 127.973 18.7068C127.695 16.6985 128.057 14.9242 129.633 13.5338C130.573 12.704 131.694 12.3641 132.926 12.4127C135.464 12.2847 137.966 14.3945 138.006 17.4224C138.028 19.2144 137.498 20.7637 136.055 21.8804ZM137.829 10.2543C137.141 9.76436 136.549 9.24794 135.878 8.88601C134.122 7.93703 132.259 7.72075 130.29 8.13565C127.289 8.76683 125.192 10.4971 123.886 13.2292C123.056 14.9683 122.871 16.8089 123.003 18.7157C123.334 23.4959 127.307 27.8347 132.873 27.3668C134.51 27.23 135.967 26.6385 137.185 25.513C137.379 25.332 137.591 25.1731 137.887 24.926V26.9078C138.875 26.9078 141.842 26.9034 142.786 26.9034V8.44462C141.228 8.44462 139.524 8.44021 137.834 8.44021V10.2543H137.829Z" fill="#1F006E"/>
<path d="M66.5056 15.9792C66.5586 13.8826 68.686 12.1656 71.2373 12.1832C74.1239 12.2009 75.7217 14.2224 75.7482 15.9792H66.5056ZM73.7752 8.22842C72.1818 7.84883 70.5796 7.83118 68.9597 8.1578C66.0201 8.75809 63.8308 10.3824 62.5331 13.0439C61.156 15.8776 61.0986 18.8393 62.2948 21.7745C63.2261 24.0609 64.899 25.6234 67.1677 26.5812C68.9023 27.3139 70.7076 27.4993 72.5482 27.3537C75.2097 27.1462 77.474 26.0692 79.2396 24.03C79.7251 23.4695 80.1621 22.8648 80.4269 22.0305C80.4269 22.0305 80.2239 21.9732 80.2062 21.9688C79.3102 21.7128 78.4186 21.4523 77.5226 21.1963C77.0989 21.0727 76.6751 20.9315 76.2426 20.83C76.1057 20.7947 76.1013 20.8344 76.0086 20.9403C75.938 21.0242 75.8674 21.1036 75.7924 21.1831C75.6423 21.3508 75.4834 21.5141 75.3201 21.673C75.0243 21.9599 74.7066 22.2866 74.3579 22.5072C74.1195 22.6573 73.8459 22.7677 73.581 22.8559C72.9719 23.059 72.3275 23.1517 71.6875 23.1649C70.4516 23.1914 69.0612 22.9486 68.0681 22.163C67.1589 21.4391 66.5718 20.5166 66.4394 19.2057H80.5726C80.6564 18.9673 80.6961 15.2332 79.9899 13.5295C78.8203 10.6958 76.7369 8.93905 73.7752 8.22842Z" fill="#1F006E"/>
<path d="M160.521 17.5504C159.889 17.1178 159.183 16.7471 158.459 16.5087C156.477 15.8555 154.469 15.2905 152.474 14.677C152.231 14.602 151.984 14.5048 151.777 14.3592C151.097 13.8825 151.048 13.0174 151.71 12.5186C152.077 12.245 152.523 11.9801 152.96 11.9183C154.668 11.6667 156.173 12.0728 157.294 13.4941C157.391 13.6177 157.51 13.728 157.696 13.9266C159.055 13.5294 160.437 13.1277 161.801 12.7305C161.801 12.5539 161.818 12.4789 161.796 12.4171C161.752 12.2847 161.695 12.1567 161.628 12.0287C160.922 10.6251 159.792 9.63195 158.411 8.98753C155.498 7.63689 152.523 7.51771 149.574 8.91249C148.334 9.49953 147.336 10.3955 146.763 11.6623C146.149 13.0218 146.149 14.3901 146.908 15.7098C147.654 16.9987 148.815 17.7711 150.188 18.2213C151.724 18.7289 153.286 19.1438 154.835 19.6205C155.484 19.8191 156.151 20.0089 156.742 20.3267C157.78 20.8785 157.819 22.0393 156.879 22.7411C156.747 22.8382 156.601 22.9177 156.455 22.9883C154.61 23.8799 151.379 23.156 150.347 21.2095C150.205 20.9447 150.029 20.6975 149.83 20.3797C148.356 20.6798 146.952 21.1654 145.465 21.6244C145.544 21.8892 145.588 22.0923 145.663 22.2776C146.484 24.286 148.029 25.5969 149.941 26.4443C152.823 27.7243 155.78 27.7729 158.689 26.5282C160.653 25.6896 162.03 24.2639 162.335 22.0481C162.586 20.2208 162.11 18.6274 160.521 17.5504Z" fill="#1F006E"/>
<path d="M175.85 22.9221C175.334 23.028 174.95 23.1428 174.557 23.1825C174.138 23.2222 173.714 23.2134 173.29 23.1913C172.491 23.1472 171.798 22.6352 171.604 21.9245C171.507 21.567 171.432 21.1874 171.432 20.8167C171.419 18.4244 171.397 12.8099 171.436 12.5981C173.184 12.5319 173.312 12.6069 175.02 12.523V8.51526C173.264 8.48877 173.171 8.4667 171.423 8.44022C171.397 8.0518 171.45 3.28484 171.419 2.96704H166.634C166.59 4.92238 166.652 6.43633 166.594 8.44905H163.566C163.487 9.90121 163.518 11.243 163.54 12.6952H166.621C166.621 13.088 166.621 13.7633 166.621 14.037C166.621 16.4072 166.639 18.7775 166.616 21.1477C166.608 22.1011 166.767 23.0236 167.093 23.9064C167.64 25.385 168.612 26.4973 170.143 27.0049C172.416 27.7597 174.619 27.4286 176.87 26.4796C176.53 25.2879 176.194 24.1315 175.85 22.9221Z" fill="#1F006E"/>
<path d="M53.2065 21.3508C52.231 22.4984 50.5537 23.0722 49.0045 22.9398H44.4096V17.6167C44.4096 15.039 45.9633 12.9733 48.3689 12.5098C50.973 12.0067 53.2991 13.0881 54.1731 15.5422C54.9014 17.6034 54.6895 19.6073 53.2065 21.3508ZM56.0755 10.0204C54.8484 8.97434 53.4404 8.34758 51.847 8.07833C49.5297 7.68991 47.4155 8.09599 45.5219 9.51725C45.2306 9.73794 44.9481 9.97629 44.5244 10.3162V0.446777H39.625V24.4758H39.6206V27.4331H50.1741V27.4287C50.951 27.4331 51.7411 27.3316 52.54 27.1241C56.0048 26.2281 58.1103 23.8711 59.0769 20.4901C59.5757 18.7466 59.5492 16.9502 59.1607 15.1891C58.7061 13.1366 57.6865 11.3931 56.0755 10.0204Z" fill="#1F006E"/>
<path d="M87.7761 15.9792C87.8291 13.8826 89.9565 12.1656 92.5078 12.1832C95.3944 12.2009 96.9922 14.2224 97.0187 15.9792H87.7761ZM95.0501 8.22842C93.4567 7.84883 91.8545 7.83118 90.2346 8.1578C87.295 8.75809 85.1057 10.3824 83.808 13.0439C82.4309 15.8776 82.3735 18.8393 83.5697 21.7745C84.501 24.0609 86.1739 25.6234 88.4426 26.5812C90.1772 27.3139 91.9825 27.4993 93.8231 27.3537C96.4846 27.1462 98.749 26.0692 100.514 24.03C101 23.4695 101.437 22.8648 101.702 22.0305C101.702 22.0305 101.499 21.9732 101.481 21.9688C100.585 21.7128 99.6935 21.4523 98.7975 21.1963C98.3738 21.0727 97.95 20.9315 97.5175 20.83C97.3807 20.7947 97.3762 20.8344 97.2836 20.9403C97.2129 21.0242 97.1423 21.1036 97.0673 21.1831C96.9172 21.3508 96.7583 21.5141 96.595 21.673C96.2993 21.9599 95.9815 22.2866 95.6328 22.5072C95.3944 22.6573 95.1208 22.7677 94.8559 22.8559C94.2468 23.059 93.6024 23.1517 92.9624 23.1649C91.7265 23.1914 90.3361 22.9486 89.343 22.163C88.4338 21.4391 87.8423 20.5166 87.7143 19.2057H101.847C101.931 18.9673 101.971 15.2332 101.265 13.5295C100.095 10.6958 98.0118 8.93905 95.0501 8.22842Z" fill="#1F006E"/>
<path d="M116.599 14.9154C118.316 12.991 120.037 11.0665 121.754 9.13769L121.759 9.13328C122.416 8.40058 121.706 8.44472 121.706 8.44472H121.366C119.896 8.4403 118.422 8.44472 116.952 8.43589C116.599 8.43148 116.396 8.63451 116.193 8.86845C114.833 10.4221 113.469 11.9714 112.11 13.5251C111.483 14.2357 110.856 14.9507 110.23 15.6614C110.19 15.6437 110.15 15.6216 110.11 15.604V14.8404C110.11 10.3338 110.11 4.94895 110.106 0.442402C109.316 0.442402 106.818 0.437988 105.202 0.437988V26.9035C106.46 26.9035 108.38 26.8902 110.11 26.8902V25.9589C110.11 24.904 110.106 23.8447 110.115 22.7897C110.115 22.5602 110.102 22.2733 110.23 22.1144C110.808 21.3906 111.435 20.702 112.092 19.9516C112.348 20.2474 112.542 20.4416 112.71 20.6623C114.158 22.569 115.61 24.467 117.031 26.3914C117.318 26.7843 117.618 26.899 118.077 26.8902C119.415 26.8726 121.997 26.8858 123.065 26.8858C120.531 23.4739 117.83 19.8457 115.279 16.4117C115.769 15.8644 116.179 15.3877 116.599 14.9154Z" fill="#1F006E"/>
<path d="M18.5447 24.4321H15.6668C17.0086 22.8961 17.8252 20.8878 17.8252 18.6941V12.9031H18.5447C21.7226 12.9031 24.3092 15.4896 24.3092 18.6676C24.3136 21.8456 21.727 24.4321 18.5447 24.4321ZM14.8503 16.1208L11.4869 12.9031H14.8503V16.1208ZM3.31685 20.901L6.89649 24.4277H3.31685V20.901ZM12.5286 23.3021C11.8444 23.8142 11.0455 24.1805 10.1716 24.3482L3.38747 17.6612C3.52872 16.8491 3.83769 16.0943 4.2879 15.4367L12.5286 23.3021ZM8.15444 12.9781L14.8061 19.3385C14.7178 20.1286 14.4663 20.8745 14.0867 21.5366L5.98282 13.7991C6.63166 13.3886 7.36877 13.1017 8.15444 12.9781ZM9.08135 3.43539C12.2593 3.43539 14.8458 6.02191 14.8458 9.19988V9.91934H9.05928C6.86559 9.91934 4.85729 10.7359 3.32127 12.0777V9.19988C3.31685 6.02191 5.90337 3.43539 9.08135 3.43539ZM18.5447 9.92375H17.8252V9.2043C17.8252 4.38437 13.9013 0.460449 9.08135 0.460449C4.26142 0.460449 0.341913 4.37995 0.341913 9.2043V18.0364C0.324257 18.2439 0.31543 18.4557 0.31543 18.6676V27.4114H0.341913V27.4379H9.08576C9.29763 27.4379 9.50508 27.4291 9.71694 27.4114H18.5447C23.3646 27.4114 27.2885 23.4875 27.2885 18.6676C27.2885 13.8477 23.369 9.92375 18.5447 9.92375Z" fill="#F39324"/>
</svg>
