<svg width="130" height="20" viewBox="0 0 130 20" fill="none" xmlns="http://www.w3.org/2000/svg">
<path d="M99.9472 15.7888C97.7339 17.5016 94.3994 16.3641 93.9964 13.4521C93.7917 11.9733 94.0582 10.6668 95.2184 9.64307C95.9107 9.03207 96.7362 8.78182 97.6429 8.81757C99.5117 8.72332 101.354 10.2768 101.384 12.5063C101.4 13.8258 101.01 14.9666 99.9472 15.7888ZM101.254 7.22832C100.747 6.86757 100.311 6.48732 99.8172 6.22082C98.5237 5.52207 97.1522 5.36282 95.7027 5.66832C93.4927 6.13307 91.9489 7.40707 90.9869 9.41882C90.3759 10.6993 90.2394 12.0546 90.3369 13.4586C90.5807 16.9783 93.5057 20.1731 97.6039 19.8286C98.8097 19.7278 99.8822 19.2923 100.779 18.4636C100.922 18.3303 101.078 18.2133 101.296 18.0313V19.4906C102.024 19.4906 104.208 19.4873 104.903 19.4873V5.89582C103.756 5.89582 102.502 5.89257 101.257 5.89257V7.22832H101.254Z" fill="white"/>
<path d="M48.737 11.4435C48.776 9.89978 50.3425 8.63553 52.221 8.64853C54.3465 8.66153 55.523 10.15 55.5425 11.4435H48.737ZM54.0897 5.73653C52.9165 5.45703 51.7367 5.44403 50.544 5.68453C48.3795 6.12653 46.7675 7.32253 45.812 9.28228C44.798 11.3688 44.7557 13.5495 45.6365 15.7108C46.3222 17.3943 47.554 18.5448 49.2245 19.25C50.5017 19.7895 51.831 19.926 53.1862 19.8188C55.146 19.666 56.8132 18.873 58.1132 17.3715C58.4707 16.9588 58.7925 16.5135 58.9875 15.8993C58.9875 15.8993 58.838 15.857 58.825 15.8538C58.1652 15.6653 57.5087 15.4735 56.849 15.285C56.537 15.194 56.225 15.09 55.9065 15.0153C55.8057 14.9893 55.8025 15.0185 55.7342 15.0965C55.6822 15.1583 55.6302 15.2168 55.575 15.2753C55.4645 15.3988 55.3475 15.519 55.2272 15.636C55.0095 15.8473 54.7755 16.0878 54.5187 16.2503C54.3432 16.3608 54.1417 16.442 53.9467 16.507C53.4982 16.6565 53.0237 16.7248 52.5525 16.7345C51.6425 16.754 50.6187 16.5753 49.8875 15.9968C49.218 15.4638 48.7857 14.7845 48.6882 13.8193H59.0947C59.1565 13.6438 59.1857 10.8943 58.6657 9.63978C57.8045 7.55328 56.2705 6.25978 54.0897 5.73653Z" fill="white"/>
<path d="M117.962 12.6005C117.497 12.282 116.977 12.009 116.444 11.8335C114.985 11.3525 113.506 10.9365 112.037 10.4848C111.858 10.4295 111.676 10.358 111.524 10.2508C111.023 9.8998 110.987 9.2628 111.475 8.89555C111.745 8.69405 112.073 8.49905 112.395 8.45355C113.652 8.2683 114.761 8.5673 115.586 9.6138C115.658 9.7048 115.745 9.78605 115.882 9.9323C116.883 9.6398 117.9 9.34405 118.905 9.05155C118.905 8.92155 118.918 8.8663 118.901 8.8208C118.869 8.7233 118.827 8.62905 118.778 8.5348C118.258 7.5013 117.426 6.77005 116.408 6.29555C114.263 5.30105 112.073 5.2133 109.902 6.2403C108.989 6.67255 108.254 7.3323 107.832 8.26505C107.38 9.26605 107.38 10.2735 107.939 11.2453C108.488 12.1943 109.343 12.763 110.354 13.0945C111.485 13.4683 112.635 13.7738 113.776 14.1248C114.254 14.271 114.744 14.4108 115.18 14.6448C115.944 15.051 115.973 15.9058 115.281 16.4225C115.183 16.494 115.076 16.5525 114.969 16.6045C113.61 17.261 111.231 16.728 110.471 15.2948C110.367 15.0998 110.237 14.9178 110.09 14.6838C109.005 14.9048 107.971 15.2623 106.876 15.6003C106.935 15.7953 106.967 15.9448 107.022 16.0813C107.627 17.56 108.764 18.5253 110.172 19.1493C112.294 20.0918 114.471 20.1275 116.613 19.211C118.06 18.5935 119.074 17.5438 119.298 15.9123C119.483 14.5668 119.132 13.3935 117.962 12.6005Z" fill="white"/>
<path d="M129.249 16.5558C128.869 16.6338 128.586 16.7183 128.297 16.7475C127.988 16.7768 127.676 16.7703 127.364 16.754C126.776 16.7215 126.266 16.3445 126.123 15.8213C126.051 15.558 125.996 15.2785 125.996 15.0055C125.986 13.244 125.97 9.11005 125.999 8.95405C127.286 8.9053 127.381 8.96055 128.638 8.8988V5.9478C127.345 5.9283 127.277 5.91205 125.99 5.89255C125.97 5.60655 126.009 2.09655 125.986 1.86255H122.463C122.431 3.3023 122.476 4.41705 122.434 5.89905H120.205C120.146 6.9683 120.169 7.9563 120.185 9.02555H122.454C122.454 9.3148 122.454 9.81205 122.454 10.0135C122.454 11.7588 122.467 13.504 122.45 15.2493C122.444 15.9513 122.561 16.6305 122.801 17.2805C123.204 18.3693 123.919 19.1883 125.047 19.562C126.721 20.1178 128.343 19.874 130 19.1753C129.75 18.2978 129.503 17.4463 129.249 16.5558Z" fill="white"/>
<path d="M38.9448 15.3987C38.2265 16.2437 36.9915 16.6662 35.8508 16.5687H32.4675V12.6492C32.4675 10.7512 33.6115 9.23021 35.3828 8.88896C37.3003 8.51846 39.013 9.31471 39.6565 11.1217C40.1928 12.6395 40.0368 14.115 38.9448 15.3987ZM41.0573 7.05596C40.1538 6.28571 39.117 5.82421 37.9438 5.62596C36.2375 5.33996 34.6808 5.63896 33.2865 6.68546C33.072 6.84796 32.864 7.02346 32.552 7.27371V0.00671387H28.9445V17.6997H28.9413V19.8772H36.712V19.874C37.284 19.8772 37.8658 19.8025 38.454 19.6497C41.0053 18.99 42.5555 17.2545 43.2673 14.765C43.6345 13.4812 43.615 12.1585 43.329 10.8617C42.9943 9.35046 42.2435 8.06671 41.0573 7.05596Z" fill="white"/>
<path d="M64.3987 11.4435C64.4377 9.89978 66.0042 8.63553 67.8827 8.64853C70.0082 8.66153 71.1847 10.15 71.2042 11.4435H64.3987ZM69.7547 5.73653C68.5815 5.45703 67.4017 5.44403 66.209 5.68453C64.0445 6.12653 62.4325 7.32253 61.477 9.28228C60.463 11.3688 60.4207 13.5495 61.3015 15.7108C61.9872 17.3943 63.219 18.5448 64.8895 19.25C66.1667 19.7895 67.496 19.926 68.8512 19.8188C70.811 19.666 72.4782 18.873 73.7782 17.3715C74.1357 16.9588 74.4575 16.5135 74.6525 15.8993C74.6525 15.8993 74.503 15.857 74.49 15.8538C73.8302 15.6653 73.1737 15.4735 72.514 15.285C72.202 15.194 71.89 15.09 71.5715 15.0153C71.4707 14.9893 71.4675 15.0185 71.3992 15.0965C71.3472 15.1583 71.2952 15.2168 71.24 15.2753C71.1295 15.3988 71.0125 15.519 70.8922 15.636C70.6745 15.8473 70.4405 16.0878 70.1837 16.2503C70.0082 16.3608 69.8067 16.442 69.6117 16.507C69.1632 16.6565 68.6887 16.7248 68.2175 16.7345C67.3075 16.754 66.2837 16.5753 65.5525 15.9968C64.883 15.4638 64.4475 14.7845 64.3532 13.8193H74.7597C74.8215 13.6438 74.8507 10.8943 74.3307 9.63978C73.4695 7.55328 71.9355 6.25978 69.7547 5.73653Z" fill="white"/>
<path d="M85.6213 10.6602C86.8855 9.24324 88.153 7.82624 89.4173 6.40599L89.4205 6.40274C89.9048 5.86324 89.3815 5.89574 89.3815 5.89574H89.1313C88.049 5.89249 86.9635 5.89574 85.8812 5.88924C85.6212 5.88599 85.4717 6.03549 85.3222 6.20774C84.3212 7.35174 83.317 8.49249 82.316 9.63649C81.8545 10.1597 81.393 10.6862 80.9315 11.2095C80.9022 11.1965 80.873 11.1802 80.8437 11.1672V10.605C80.8437 7.28674 80.8437 3.32174 80.8405 0.00349414C80.2587 0.00349414 78.4192 0.000244141 77.2297 0.000244141V19.4872C78.156 19.4872 79.5697 19.4775 80.8437 19.4775V18.7917C80.8437 18.015 80.8405 17.235 80.847 16.4582C80.847 16.2892 80.8372 16.078 80.9315 15.961C81.3572 15.428 81.8187 14.921 82.303 14.3685C82.4915 14.5862 82.6345 14.7292 82.758 14.8917C83.824 16.2957 84.8932 17.6932 85.9397 19.1102C86.151 19.3995 86.372 19.484 86.71 19.4775C87.6947 19.4645 89.596 19.4742 90.3825 19.4742C88.517 16.962 86.528 14.2905 84.6495 11.762C85.0102 11.359 85.3125 11.008 85.6213 10.6602Z" fill="white"/>
<path d="M13.4225 17.6675H11.3035C12.2915 16.5365 12.8927 15.0577 12.8927 13.4425V9.17847H13.4225C15.7625 9.17847 17.667 11.083 17.667 13.423C17.6702 15.763 15.7657 17.6675 13.4225 17.6675ZM10.7022 11.5477L8.22575 9.17847H10.7022V11.5477ZM2.21 15.0675L4.84575 17.6642H2.21V15.0675ZM8.99275 16.8355C8.489 17.2125 7.90075 17.4822 7.25725 17.6057L2.262 12.682C2.366 12.084 2.5935 11.5282 2.925 11.044L8.99275 16.8355ZM5.772 9.23372L10.6698 13.917C10.6048 14.4987 10.4195 15.048 10.14 15.5355L4.173 9.83822C4.65075 9.53597 5.1935 9.32472 5.772 9.23372ZM6.4545 2.20722C8.7945 2.20722 10.699 4.11172 10.699 6.45172V6.98147H6.43825C4.823 6.98147 3.34425 7.58272 2.21325 8.57072V6.45172C2.21 4.11172 4.1145 2.20722 6.4545 2.20722ZM13.4225 6.98472H12.8927V6.45497C12.8927 2.90597 10.0035 0.0167236 6.4545 0.0167236C2.9055 0.0167236 0.0195 2.90272 0.0195 6.45497V12.9582C0.0065 13.111 0 13.267 0 13.423V19.8612H0.0195V19.8807H6.45775C6.61375 19.8807 6.7665 19.8742 6.9225 19.8612H13.4225C16.9715 19.8612 19.8608 16.972 19.8608 13.423C19.8608 9.87397 16.9747 6.98472 13.4225 6.98472Z" fill="#F39324"/>
</svg>
