<svg width="13" height="13" viewBox="0 0 13 13" fill="none" xmlns="http://www.w3.org/2000/svg">
<path d="M11.9344 2.55391C11.9344 2.77481 11.8515 2.99572 11.6818 3.16139L3.14883 11.7529C2.81335 12.0921 2.26474 12.0961 1.92532 11.7608C1.58589 11.4255 1.58589 10.8772 1.92137 10.5379L10.4544 1.94643C10.7898 1.60719 11.3385 1.60719 11.6779 1.94249C11.8476 2.10817 11.9344 2.32907 11.9344 2.55391Z" fill="#F39324"/>
<path d="M12.6531 6.16732C12.6531 6.38822 12.5702 6.60912 12.4005 6.7748L6.69345 12.5261C6.35797 12.8654 5.80936 12.8654 5.46994 12.5301C5.13051 12.1948 5.13051 11.6465 5.46599 11.3072L11.177 5.55589C11.5125 5.21665 12.0611 5.21665 12.4005 5.55195C12.5663 5.72551 12.6531 5.94642 12.6531 6.16732Z" fill="#F39324"/>
<path d="M8.26428 1.7172C8.26428 1.9381 8.1814 2.159 8.01563 2.32468L2.08358 8.3048C1.7481 8.64404 1.19949 8.64404 0.860067 8.30874C0.520641 7.97344 0.516694 7.42514 0.85612 7.08589L6.78423 1.10578C7.1197 0.766536 7.66831 0.762591 8.00774 1.10183C8.17745 1.27145 8.26428 1.49236 8.26428 1.7172Z" fill="#F39324"/>
</svg>
