<svg width="583" height="889" viewBox="0 0 583 889" fill="none" xmlns="http://www.w3.org/2000/svg">
<path opacity="0.2" d="M224.846 379.889L183.888 363.94C181.302 362.946 179.406 360.696 178.93 358.065L171.398 316.431C170.922 313.8 171.936 311.168 174.051 309.558L207.473 283.845C209.583 282.208 212.493 281.826 215.084 282.846L260.235 300.438L268.532 346.304C269.008 348.935 267.995 351.567 265.88 353.177L232.458 378.889C230.315 380.504 227.432 380.882 224.846 379.889Z" fill="#EBE8F2"/>
<path opacity="0.2" d="M441.286 888.642L420.859 880.688C419.569 880.192 418.624 879.07 418.386 877.758L414.63 856.994C414.393 855.682 414.898 854.369 415.953 853.566L432.622 840.743C433.674 839.926 435.125 839.736 436.418 840.244L458.936 849.018L463.074 871.892C463.311 873.204 462.805 874.517 461.751 875.32L445.082 888.144C444.013 888.949 442.576 889.137 441.286 888.642Z" fill="#EBE8F2"/>
<path opacity="0.2" d="M426.781 198.447L342.585 169.45C337.268 167.645 333.436 163.424 332.567 158.43L318.807 79.4008C317.937 74.4068 320.155 69.3607 324.612 66.223L395.039 16.1392C399.486 12.95 405.536 12.1249 410.862 13.9813L503.678 45.9663L518.836 133.027C519.706 138.021 517.488 143.067 513.031 146.205L442.604 196.289C438.089 199.434 432.098 200.251 426.781 198.447Z" fill="#EBE8F2"/>
<path opacity="0.2" d="M51.6612 549.143L15.1054 536.627C12.797 535.848 11.1343 534.024 10.7584 531.864L4.8091 497.695C4.43315 495.536 5.39819 493.353 7.33455 491.995L37.9372 470.32C39.8697 468.94 42.4974 468.582 44.8097 469.383L85.108 483.189L91.6618 520.831C92.0378 522.99 91.0727 525.173 89.1364 526.531L58.5337 548.206C56.5721 549.567 53.9696 549.922 51.6612 549.143Z" fill="#EBE8F2"/>
<path opacity="0.2" d="M389.819 218.893C268.624 422.386 355.576 674.587 583.957 781.126" stroke="#9593B1" stroke-width="2.20231" stroke-dasharray="4.62 4.62"/>
<path opacity="0.1" d="M559.58 780.436C458.511 792.88 338.3 652.352 452.158 579.213C530.065 529.169 711.702 565.525 681.48 650.403C664.237 698.829 645.579 674.87 612.764 724.486C594.997 751.354 594.082 776.188 559.58 780.436Z" fill="#EBE8F2"/>
<path opacity="0.2" d="M129.786 576.879L125.398 572.491L129.786 568.103C131.127 566.762 131.127 564.591 129.786 563.249C128.445 561.908 126.274 561.908 124.932 563.249L120.544 567.637L116.156 563.249C114.815 561.908 112.644 561.908 111.303 563.249C109.962 564.591 109.962 566.762 111.303 568.103L115.691 572.491L111.303 576.879C109.962 578.22 109.962 580.391 111.303 581.733C112.644 583.074 114.815 583.074 116.156 581.733L120.544 577.345L124.932 581.733C126.274 583.074 128.445 583.074 129.786 581.733C131.127 580.391 131.127 578.22 129.786 576.879Z" fill="#EBE8F2"/>
<path d="M26.0558 582.535C48.3613 584.78 45.577 571.417 42.6129 567.522C37.993 561.544 28.9518 563.733 26.6759 569.91C25.5225 572.297 26.2357 580.098 26.0558 582.535Z" fill="#EBE8F2"/>
<g opacity="0.3">
<path opacity="0.2" d="M332.585 695.204C304.592 623.823 354.24 556.221 415.834 564.811C477.429 573.4 539.052 627.339 576.307 603.196C613.563 579.053 694.647 609.668 691.856 674.309C689.065 738.951 686.637 879.537 584.078 855.232C481.52 830.928 399.612 866.117 332.585 695.204Z" fill="#D0CAE1"/>
<path d="M240.596 566.047C243.032 568.724 243.194 572.251 240.926 573.349C236.258 575.609 228.507 580.041 220.106 587.69C211.706 595.338 206.568 602.645 203.884 607.081C202.577 609.238 199.081 608.746 196.644 606.069C194.822 604.066 194.2 601.468 195.156 599.838C197.695 595.531 203.309 587.028 212.162 578.966C221.015 570.904 230.006 566.11 234.53 563.984C236.242 563.181 238.773 564.047 240.596 566.047Z" fill="white"/>
<path d="M189.216 623.016L183.697 624.811L181.902 619.292C181.355 617.608 179.54 616.682 177.855 617.234C176.171 617.785 175.245 619.595 175.797 621.28L177.592 626.799L172.073 628.594C170.388 629.142 169.463 630.956 170.014 632.641C170.561 634.326 172.376 635.251 174.061 634.7L179.58 632.905L181.375 638.424C181.922 640.109 183.737 641.034 185.421 640.483C187.106 639.936 188.031 638.121 187.48 636.436L185.685 630.917L191.204 629.122C192.889 628.575 193.814 626.76 193.263 625.075C192.716 623.39 190.905 622.469 189.216 623.016Z" fill="#FBE5CA"/>
<path d="M304.982 677.108H261.574C258.842 677.108 256.629 674.892 256.629 672.164V671.806C256.629 669.074 258.846 666.861 261.574 666.861H304.978C307.71 666.861 309.922 669.078 309.922 671.806V672.164C309.926 674.896 307.71 677.108 304.982 677.108Z" fill="#EBE8F2"/>
<path d="M425.31 677.108H381.902C379.17 677.108 376.958 674.892 376.958 672.164V671.806C376.958 669.074 379.174 666.861 381.902 666.861H425.306C428.038 666.861 430.25 669.078 430.25 671.806V672.164C430.254 674.896 428.038 677.108 425.31 677.108Z" fill="#EBE8F2"/>
<path d="M547.126 677.108H503.722C500.99 677.108 498.777 674.892 498.777 672.164V671.806C498.777 669.074 500.994 666.861 503.722 666.861H547.126C549.858 666.861 552.07 669.078 552.07 671.806V672.164C552.07 674.896 549.858 677.108 547.126 677.108Z" fill="#EBE8F2"/>
<path d="M580.094 613.198C582.101 613.198 583.728 611.572 583.728 609.565C583.728 607.558 582.101 605.932 580.094 605.932C578.088 605.932 576.461 607.558 576.461 609.565C576.461 611.572 578.088 613.198 580.094 613.198Z" fill="#EBE8F2"/>
</g>
</svg>
