<svg width="301" height="155" viewBox="0 0 301 155" fill="none" xmlns="http://www.w3.org/2000/svg">
<path opacity="0.1" d="M59.2486 118.729C67.852 118.538 76.667 118.393 85.66 118.299H85.6545L86.2222 118.293C86.9217 118.286 87.623 118.278 88.3262 118.273L92.7346 118.23L201.709 116.005C206.338 115.872 211.096 115.803 215.949 115.803C223.714 115.803 231.236 115.981 238.379 116.313C254.593 106.58 264.297 94.212 264.297 80.7493C264.297 49.3857 211.639 23.9613 146.682 23.9613C81.7248 23.9613 29.0669 49.3857 29.0669 80.7493C29.0669 95.353 40.4887 108.669 59.2486 118.729Z" fill="#FEC45A"/>
<path opacity="0.2" d="M95.4602 118.174L201.709 116.005C202.566 115.981 203.427 115.959 204.292 115.939C225.79 107.723 239.585 95.0154 239.585 80.7493C239.585 55.9761 197.991 35.8915 146.682 35.8915C95.373 35.8915 53.7789 55.9761 53.7789 80.7493C53.7789 96.3828 70.3456 110.144 95.4602 118.174Z" fill="#FEC45A"/>
<path d="M61.0223 33.3311C61.3804 33.871 60.8868 34.782 59.9981 35.218C58.1687 36.116 55.0275 37.7859 51.1831 40.3389C47.3388 42.8919 44.5798 45.1406 43.0435 46.4765C42.2958 47.1259 41.2642 47.228 40.9061 46.688C40.639 46.2836 40.8431 45.6453 41.3997 45.1573C42.8691 43.8641 45.9639 41.2703 50.0161 38.58C54.0683 35.8897 57.6585 34.0435 59.4211 33.1901C60.0853 32.8672 60.7551 32.9266 61.0223 33.3311Z" fill="#EBE8F2"/>
<path d="M215.153 15.8997C214.721 16.6975 213.665 16.8997 212.97 16.3171C211.537 15.1204 208.648 13.38 204.975 11.3855C201.301 9.39094 198.553 8.06805 196.768 7.51885C195.902 7.25168 195.497 6.25719 195.93 5.46122C196.254 4.86379 196.95 4.57435 197.601 4.76916C199.323 5.28311 202.513 6.68393 206.385 8.78794C210.257 10.892 213.454 12.957 214.821 14.1203C215.341 14.5601 215.478 15.3022 215.153 15.8997Z" fill="#D0CAE1"/>
<path d="M243.765 70.9083C245.34 70.9083 246.617 69.6315 246.617 68.0566C246.617 66.4816 245.34 65.2048 243.765 65.2048C242.19 65.2048 240.914 66.4816 240.914 68.0566C240.914 69.6315 242.19 70.9083 243.765 70.9083Z" fill="#EBE8F2"/>
<path d="M37.431 52.9796C38.5203 52.9796 39.4033 52.0966 39.4033 51.0073C39.4033 49.9181 38.5203 49.035 37.431 49.035C36.3417 49.035 35.4587 49.9181 35.4587 51.0073C35.4587 52.0966 36.3417 52.9796 37.431 52.9796Z" fill="#EBE8F2"/>
<path d="M198.345 29.0024H196.021V26.6776C196.021 25.967 195.445 25.3918 194.735 25.3918C194.024 25.3918 193.449 25.967 193.449 26.6776V29.0024H191.124C190.414 29.0024 189.838 29.5776 189.838 30.2882C189.838 30.9988 190.414 31.574 191.124 31.574H193.449V33.8988C193.449 34.6094 194.024 35.1846 194.735 35.1846C195.445 35.1846 196.021 34.6094 196.021 33.8988V31.574H198.345C199.056 31.574 199.631 30.9988 199.631 30.2882C199.631 29.5776 199.056 29.0024 198.345 29.0024Z" fill="#D0CAE1"/>
<path opacity="0.8" d="M99.594 11.0404C86.5209 12.3558 88.1555 4.52423 89.8903 2.2421C92.5973 -1.26273 97.8945 0.0193461 99.2285 3.64107C99.9076 5.03818 99.4864 9.60986 99.594 11.0404Z" fill="#EBE8F2"/>
<path opacity="0.5" d="M95.783 13.4598C108.856 14.7753 107.222 6.94367 105.487 4.66154C102.78 1.15671 97.4826 2.43878 96.1486 6.0605C95.4695 7.45761 95.8906 12.0311 95.783 13.4598Z" fill="#FEC45A"/>
<path opacity="0.2" d="M215.949 115.803C211.097 115.803 206.34 115.874 201.709 116.005L90.6065 118.273C90.267 118.28 89.9293 118.286 89.5916 118.293L89.317 118.299H89.3189C39.3625 119.391 0.66272 127.028 0.66272 136.288C0.66272 146.296 45.8749 154.41 101.646 154.41C141.838 154.41 176.543 150.196 192.798 144.096C200.156 144.45 207.921 144.641 215.947 144.641C262.735 144.641 300.663 138.187 300.663 130.221C300.663 122.256 262.735 115.803 215.949 115.803Z" fill="#D0CAE1"/>
<path opacity="0.2" d="M168.971 41.2016C178.651 41.2016 186.499 33.3541 186.499 23.6738C186.499 13.9934 178.651 6.14587 168.971 6.14587C159.29 6.14587 151.443 13.9934 151.443 23.6738C151.443 33.3541 159.29 41.2016 168.971 41.2016Z" fill="#D0CAE1"/>
<path d="M166.828 9.77134C166.587 9.76206 166.345 9.75464 166.102 9.75464C156.423 9.75464 148.575 17.6029 148.575 27.2825C148.575 36.9621 156.423 44.8104 166.102 44.8104C175.782 44.8104 183.63 36.9621 183.63 27.2825H166.828V9.77134Z" fill="#EBE8F2"/>
<path d="M168.41 7.67102V25.1822H185.213C185.211 15.7457 177.754 8.05323 168.41 7.67102Z" fill="#D0CAE1"/>
<path d="M243.55 63.3439H205.934C203.188 63.3439 200.961 61.1174 200.961 58.3714V33.7226C200.961 30.9766 203.188 28.7501 205.934 28.7501H243.55C246.296 28.7501 248.522 30.9766 248.522 33.7226V58.3696C248.524 61.1174 246.296 63.3439 243.55 63.3439Z" fill="#EBE8F2"/>
<path d="M245.563 61.5441H207.947C205.201 61.5441 202.975 59.3176 202.975 56.5716V31.9228C202.975 29.1768 205.201 26.9503 207.947 26.9503H245.563C248.309 26.9503 250.536 29.1768 250.536 31.9228V56.5698C250.537 59.3176 248.309 61.5441 245.563 61.5441Z" fill="#D0CAE1"/>
<path d="M216.985 37.7487H209.763C208.593 37.7487 207.645 36.8006 207.645 35.6298C207.645 34.4591 208.593 33.511 209.763 33.511H216.985C218.155 33.511 219.103 34.4591 219.103 35.6298C219.103 36.7987 218.155 37.7487 216.985 37.7487Z" fill="white"/>
<path d="M230.366 37.7487H223.144C221.974 37.7487 221.026 36.8006 221.026 35.6298C221.026 34.4591 221.974 33.511 223.144 33.511H230.366C231.536 33.511 232.484 34.4591 232.484 35.6298C232.484 36.7987 231.536 37.7487 230.366 37.7487Z" fill="white"/>
<path d="M243.747 37.7487H236.526C235.355 37.7487 234.407 36.8006 234.407 35.6298C234.407 34.4591 235.355 33.511 236.526 33.511H243.747C244.917 33.511 245.866 34.4591 245.866 35.6298C245.866 36.7987 244.916 37.7487 243.747 37.7487Z" fill="white"/>
<path d="M216.985 44.263H209.763C208.593 44.263 207.645 43.3149 207.645 42.1441C207.645 40.9734 208.593 40.0253 209.763 40.0253H216.985C218.155 40.0253 219.103 40.9734 219.103 42.1441C219.103 43.313 218.155 44.263 216.985 44.263Z" fill="white"/>
<path d="M230.366 44.263H223.144C221.974 44.263 221.026 43.3149 221.026 42.1441C221.026 40.9734 221.974 40.0253 223.144 40.0253H230.366C231.536 40.0253 232.484 40.9734 232.484 42.1441C232.484 43.313 231.536 44.263 230.366 44.263Z" fill="white"/>
<path d="M243.747 44.263H236.526C235.355 44.263 234.407 43.3149 234.407 42.1441C234.407 40.9734 235.355 40.0253 236.526 40.0253H243.747C244.917 40.0253 245.866 40.9734 245.866 42.1441C245.866 43.313 244.916 44.263 243.747 44.263Z" fill="white"/>
<path d="M216.985 50.7773H209.763C208.593 50.7773 207.645 49.8292 207.645 48.6584C207.645 47.4877 208.593 46.5396 209.763 46.5396H216.985C218.155 46.5396 219.103 47.4877 219.103 48.6584C219.103 49.8273 218.155 50.7773 216.985 50.7773Z" fill="white"/>
<path d="M230.366 50.7773H223.144C221.974 50.7773 221.026 49.8292 221.026 48.6584C221.026 47.4877 221.974 46.5396 223.144 46.5396H230.366C231.536 46.5396 232.484 47.4877 232.484 48.6584C232.484 49.8273 231.536 50.7773 230.366 50.7773Z" fill="white"/>
<path d="M230.366 57.2915H223.144C221.974 57.2915 221.026 56.3434 221.026 55.1727C221.026 54.0019 221.974 53.0538 223.144 53.0538H230.366C231.536 53.0538 232.484 54.0019 232.484 55.1727C232.484 56.3434 231.536 57.2915 230.366 57.2915Z" fill="white"/>
<path opacity="0.5" d="M201.082 96.1416C205.207 96.1416 208.55 92.7981 208.55 88.6736C208.55 84.5492 205.207 81.2057 201.082 81.2057C196.958 81.2057 193.614 84.5492 193.614 88.6736C193.614 92.7981 196.958 96.1416 201.082 96.1416Z" fill="#EBE8F2"/>
<path d="M199.8 94.8595C203.924 94.8595 207.268 91.516 207.268 87.3915C207.268 83.2671 203.924 79.9236 199.8 79.9236C195.676 79.9236 192.332 83.2671 192.332 87.3915C192.332 91.516 195.676 94.8595 199.8 94.8595Z" fill="#EBE8F2"/>
<path d="M203.203 87.3508C203.457 87.3285 203.624 87.0075 203.624 86.8183C203.624 86.4175 203.307 86.0928 202.908 86.0761C202.602 86.0149 202.147 86.0093 201.486 86.0724C201.485 86.0724 201.086 86.1596 201.084 86.1615C200.813 86.1874 200.583 85.9611 200.611 85.6902L201.154 84.1502C201.149 83.7142 200.898 83.4377 200.627 83.4377H200.616C200.234 83.4377 200.089 83.6715 199.921 84.1131C199.913 84.1335 199.906 84.1558 199.902 84.178L198.978 85.6883C198.948 85.8293 198.85 85.9444 198.716 85.9982C198.716 85.9982 196.885 87.1782 196.885 87.4899L197.009 89.4919C197.009 90.0689 198.043 90.3751 198.62 90.3751C198.62 90.3751 202.093 90.7331 202.127 90.7257C202.472 90.6645 202.68 90.4808 202.68 90.1227C202.68 89.9298 202.607 89.7145 202.607 89.7145C202.887 89.6533 202.973 89.3935 202.973 89.08C202.973 88.8592 202.926 88.7943 202.936 88.7275C202.984 88.3898 203.368 88.2562 203.368 87.8981C203.368 87.835 203.359 87.7756 203.344 87.7181C203.305 87.5753 203.052 87.3638 203.203 87.3508Z" fill="#D0CAE1"/>
<path d="M196.622 87.4472C196.603 87.2691 196.442 87.1411 196.264 87.1596C196.085 87.1782 195.957 87.3396 195.976 87.5177L196.236 89.9093C196.254 90.0874 196.416 90.2155 196.594 90.1969C196.772 90.1783 196.9 90.0169 196.881 89.8388L196.622 87.4472Z" fill="#D0CAE1"/>
<path d="M202.867 86.8737C203.121 86.8514 203.288 86.5305 203.288 86.3412C203.288 85.9405 202.971 85.6158 202.572 85.5991C202.266 85.5378 201.811 85.5323 201.151 85.5954C201.149 85.5954 200.75 85.6826 200.748 85.6844C200.477 85.7104 200.247 85.484 200.275 85.2131L200.819 83.6732C200.813 83.2371 200.562 82.9607 200.292 82.9607H200.28C199.898 82.9607 199.754 83.1945 199.585 83.6361C199.577 83.6565 199.57 83.6787 199.566 83.701L198.642 85.2113C198.612 85.3523 198.514 85.4673 198.381 85.5211C198.381 85.5211 196.549 86.7012 196.549 87.0129L196.674 89.0148C196.674 89.5919 197.707 89.898 198.284 89.898C198.284 89.898 201.757 90.2561 201.791 90.2487C202.136 90.1874 202.344 90.0038 202.344 89.6457C202.344 89.4527 202.271 89.2375 202.271 89.2375C202.551 89.1763 202.637 88.9165 202.637 88.6029C202.637 88.3821 202.59 88.3172 202.6 88.2504C202.648 87.9127 203.032 87.7791 203.032 87.4211C203.032 87.358 203.023 87.2986 203.008 87.2411C202.969 87.1001 202.718 86.8867 202.867 86.8737Z" fill="white"/>
<path d="M196.288 86.9721C196.269 86.794 196.108 86.666 195.93 86.6845C195.751 86.7031 195.623 86.8645 195.642 87.0426L195.902 89.4342C195.92 89.6123 196.082 89.7404 196.26 89.7218C196.438 89.7032 196.566 89.5418 196.547 89.3637L196.288 86.9721Z" fill="white"/>
<path opacity="0.5" d="M270.147 133.65C278.521 133.65 285.309 132.596 285.309 131.296C285.309 129.995 278.521 128.941 270.147 128.941C261.773 128.941 254.985 129.995 254.985 131.296C254.985 132.596 261.773 133.65 270.147 133.65Z" fill="#D0CAE1"/>
<path opacity="0.5" d="M269.629 131.962C274.348 131.962 278.173 131.368 278.173 130.635C278.173 129.903 274.348 129.309 269.629 129.309C264.911 129.309 261.085 129.903 261.085 130.635C261.085 131.368 264.911 131.962 269.629 131.962Z" fill="#D0CAE1"/>
<path d="M276.283 115.803H262.397L263.186 130.223H275.494L276.283 115.803Z" fill="#FBE5CA"/>
<path d="M277.275 112.289H261.406V116.887H277.275V112.289Z" fill="#FEC45A"/>
<path d="M280.793 66.5239C281.83 70.2032 280.801 74.1366 278.146 76.8882C275.637 79.4876 270.553 83.7345 268.733 90.1394C266.997 96.2529 267.837 108.506 268.609 112.402L270.327 112.287C270.327 112.287 270.381 95.5163 273.19 92.6887C275.999 89.861 288.042 86.6123 289.033 75.8287C290.026 65.0452 278.784 59.4122 278.784 59.4122L280.793 66.5239Z" fill="#D0CAE1"/>
<path d="M270.002 112.018C270.002 112.018 282.339 90.2748 267.223 73.5447C262.399 68.2049 262.399 51.3821 262.399 51.3821C262.399 51.3821 244.73 78.9773 263.067 79.7213C276.105 80.2501 269.759 88.6717 270.169 98.8949C270.579 109.118 270.002 112.018 270.002 112.018Z" fill="#FBE5CA"/>
<path d="M270.331 112.289C270.331 112.289 266.173 104.888 274.902 99.5202C283.632 94.1526 285.647 90.1412 285.647 90.1412C285.647 90.1412 286.495 101.357 280.723 104.997C274.949 108.638 276.919 95.5107 273.259 104.775C271.745 108.597 270.331 112.289 270.331 112.289Z" fill="#FEC45A"/>
<path d="M265.987 101.719C265.971 101.682 270.574 112.74 270.555 112.703C268.804 108.936 259.464 102.745 257.15 98.6482C255.246 95.2769 253.441 86.4416 254.612 84.3283C254.786 84.0129 255.239 84.0147 255.412 84.3301C256.523 86.3637 259.907 92.2842 263.952 96.7501L265.987 101.719Z" fill="#FEC45A"/>
<path d="M157.401 98.5796L117.79 97.0953C116.059 97.0953 114.654 95.6907 114.654 93.9596L117.623 39.9622C117.623 38.2311 119.027 36.8266 120.758 36.8266L157.401 35.3423C159.132 35.3423 160.536 36.7468 160.536 38.4779V95.444C160.536 97.175 159.134 98.5796 157.401 98.5796Z" fill="#D0CAE1"/>
<path d="M156.3 97.6129L116.69 96.1286C114.959 96.1286 113.554 94.7241 113.554 92.993L116.523 38.9955C116.523 37.2645 117.927 35.8599 119.658 35.8599L156.3 34.3756C158.031 34.3756 159.436 35.7801 159.436 37.5112V94.4773C159.436 96.2084 158.031 97.6129 156.3 97.6129Z" fill="white"/>
<path d="M126.811 40.9679C126.811 40.9679 123.911 80.1445 124.818 85.8517C125.725 91.5588 125.725 92.6405 125.725 92.6405C125.725 92.6405 125.983 92.7073 125.983 92.6405C125.983 92.5737 124.989 87.1708 124.924 84.1447C124.859 81.1186 126.913 41.2796 126.933 41.1293C126.957 40.9772 126.811 40.9679 126.811 40.9679Z" fill="#D0CAE1"/>
<path d="M140.773 93.6944C140.773 93.6944 143.255 54.4881 142.287 48.7921C141.318 43.096 141.307 42.0143 141.307 42.0143C141.307 42.0143 141.047 41.9512 141.049 42.0162C141.051 42.0811 142.101 47.4747 142.199 50.5009C142.296 53.527 140.667 93.3845 140.648 93.5367C140.626 93.6869 140.773 93.6944 140.773 93.6944Z" fill="#D0CAE1"/>
<path d="M123.796 45.0126L120.727 46.072L120.532 47.4654L123.796 47.9515V45.0126Z" fill="#F39322"/>
<path d="M123.534 47.7548L120.291 47.2761L120.475 44.7769L120.451 44.0496L123.844 44.224L123.818 45.0663L123.534 47.7548Z" fill="#FEC45A"/>
<path d="M123.796 50.4581L120.727 51.5176L120.532 52.9128L123.796 53.3989V50.4581Z" fill="#F39322"/>
<path d="M123.534 53.2023L120.291 52.7236L120.475 50.2225L120.451 49.4971L123.844 49.6715L123.818 50.5138L123.534 53.2023Z" fill="#FEC45A"/>
<path d="M133.537 44.2184L130.65 45.7046L130.657 47.1128L133.54 47.1796L133.537 44.2184Z" fill="#F39322"/>
<path d="M133.668 46.97L130.39 46.9589L130.214 44.4596L130.087 43.7435L133.472 43.4318L133.566 44.2685L133.668 46.97Z" fill="#FEC45A"/>
<path d="M139.335 44.5765L136.244 45.5673L136.017 46.957L139.27 47.5155L139.335 44.5765Z" fill="#F39322"/>
<path d="M139.012 47.3133L135.78 46.7641L136.019 44.2686L136.012 43.5413L139.4 43.7899L139.355 44.6322L139.012 47.3133Z" fill="#FEC45A"/>
<path d="M133.73 49.4598L130.638 50.4506L130.412 51.8403L133.665 52.3988L133.73 49.4598Z" fill="#F39322"/>
<path d="M133.407 52.1966L130.175 51.6455L130.414 49.15L130.407 48.4227L133.794 48.6732L133.75 49.5156L133.407 52.1966Z" fill="#FEC45A"/>
<path d="M138.798 49.9775L135.705 50.9683L135.479 52.358L138.732 52.9165L138.798 49.9775Z" fill="#F39322"/>
<path d="M138.474 52.7143L135.242 52.1651L135.481 49.6696L135.474 48.9423L138.862 49.1909L138.817 50.0332L138.474 52.7143Z" fill="#FEC45A"/>
<path d="M148.341 44.4357L145.25 45.4264L145.023 46.8161L148.157 47.4544L148.341 44.4357Z" fill="#F39322"/>
<path d="M148.018 47.1723L144.786 46.6231L145.025 44.1276L145.018 43.4003L148.406 43.6489L148.361 44.4912L148.018 47.1723Z" fill="#FEC45A"/>
<path d="M157.035 133.611H156.067L148.645 98.2512H149.614L157.035 133.611Z" fill="#D0CAE1"/>
<path d="M118.782 129.578H119.753L127.545 96.6295H126.575L118.782 129.578Z" fill="#D0CAE1"/>
<path d="M140.763 127.724H141.732L138.021 97.9302H137.053L140.763 127.724Z" fill="#EBE8F2"/>
<path d="M20.8864 129.307C21.1165 129.307 21.328 129.186 21.4449 128.99L30.5326 101.877H25.0611L20.2964 128.381C20.096 128.813 20.4096 129.307 20.8864 129.307Z" stroke="#FBE5CA" stroke-width="3" stroke-miterlimit="10"/>
<path d="M11.8562 133.017C12.0863 133.017 12.2978 132.897 12.4147 132.7L27.0686 101.877H21.597L11.2662 132.092C11.0658 132.524 11.3794 133.017 11.8562 133.017Z" stroke="#FEC45A" stroke-width="3" stroke-miterlimit="10"/>
<path d="M50.3129 129.307C50.0828 129.307 49.8713 129.186 49.7544 128.99L40.6649 101.877H46.1364L50.9011 128.381C51.1033 128.813 50.7879 129.307 50.3129 129.307Z" stroke="#FBE5CA" stroke-width="3" stroke-miterlimit="10"/>
<path d="M59.3431 133.018C59.113 133.018 58.9015 132.897 58.7846 132.7L44.1308 101.877H49.6023L59.9331 132.092C60.1335 132.524 59.8181 133.018 59.3431 133.018Z" stroke="#FEC45A" stroke-width="3" stroke-miterlimit="10"/>
<path d="M7.19552 102.248H64.002C64.4863 102.248 64.8778 101.856 64.8778 101.372C64.8778 100.888 64.4863 100.496 64.002 100.496H7.19552C6.71127 100.496 6.31978 100.888 6.31978 101.372C6.31978 101.856 6.71127 102.248 7.19552 102.248Z" fill="#FEC45A"/>
<path d="M46.0511 99.6351H24.0629V84.1964C24.0629 83.573 24.5675 83.0684 25.191 83.0684H44.923C45.5465 83.0684 46.0511 83.573 46.0511 84.1964V99.6351Z" fill="#EBE8F2"/>
<path d="M45.6875 99.3605H24.4265V84.471C24.4265 83.8476 24.9312 83.3429 25.5546 83.3429H44.5575C45.1809 83.3429 45.6856 83.8476 45.6856 84.471V99.3605H45.6875Z" fill="#9F95C4"/>
<path d="M47.9881 100.474H22.124C21.816 100.474 21.5674 100.225 21.5674 99.9172C21.5674 99.6092 21.816 99.3606 22.124 99.3606H47.9881C48.2961 99.3606 48.5448 99.6092 48.5448 99.9172C48.5448 100.225 48.2961 100.474 47.9881 100.474Z" fill="#EBE8F2"/>
<path opacity="0.5" d="M176.969 142.743C187.111 142.743 195.332 141.177 195.332 139.244C195.332 137.312 187.111 135.745 176.969 135.745C166.828 135.745 158.607 137.312 158.607 139.244C158.607 141.177 166.828 142.743 176.969 142.743Z" fill="#D0CAE1"/>
<path opacity="0.2" d="M191.467 138.291C191.467 139.339 189.452 140.189 186.964 140.189C184.478 140.189 182.461 139.339 182.461 138.291C182.461 137.242 181.48 136.001 183.968 136.001C186.456 135.999 191.467 137.242 191.467 138.291Z" fill="#11003B"/>
<path opacity="0.2" d="M168.18 141.879C165.954 141.879 164.147 141.602 164.147 141.263C164.147 138.328 172.696 137.736 174.925 137.736C177.153 137.736 172.919 141.879 168.18 141.879Z" fill="#11003B"/>
<path d="M186.443 130.837C186.443 130.837 186.914 132.45 187.074 132.704C187.233 132.958 190.041 137.196 190.423 137.415C190.805 137.634 190.835 138.38 190.707 139.079C190.581 139.779 188.74 139.777 187.534 139.808C186.328 139.84 183.445 136.331 183.239 136.188C183.033 136.046 183.281 133.819 183.313 133.5C183.344 133.183 183.588 130.834 183.588 130.834H186.443V130.837Z" fill="#EBE8F2"/>
<path d="M186.443 129.93C186.443 129.93 187.109 130.093 187.269 130.348C187.428 130.602 187.66 132.55 187.931 132.895C188.289 133.35 190.835 137.472 190.707 138.172C190.581 138.871 188.74 138.869 187.534 138.901C186.328 138.934 183.445 135.424 183.239 135.281C183.033 135.138 182.905 130.791 182.938 130.474C182.97 130.157 183.589 129.928 183.589 129.928H186.443V129.93Z" fill="#D0CAE1"/>
<path d="M185.126 131.309C186.248 131.309 187.157 131 187.157 130.619C187.157 130.237 186.248 129.928 185.126 129.928C184.004 129.928 183.094 130.237 183.094 130.619C183.094 131 184.004 131.309 185.126 131.309Z" fill="#11003B"/>
<path d="M183.45 130.724C183.45 130.724 183.647 131.016 185.016 131.079C186.387 131.14 186.582 130.724 186.582 130.724V126.435H183.448V130.724H183.45Z" fill="#1F006E"/>
<path d="M188.69 134.017C189.269 134.802 190.883 136.589 189.065 137.185C187.489 137.7 186.951 136.107 186.317 135.366C185.571 134.498 185.462 133.437 186.235 133.257C187.009 133.077 187.547 132.47 188.69 134.017Z" fill="#A39AC1"/>
<path d="M185.126 131.997C183.936 131.997 182.966 131.661 182.897 131.238H182.176C182.118 131.385 182.087 131.541 182.087 131.704C182.087 132.481 182.793 133.11 183.664 133.11C184.422 133.11 185.055 132.632 185.205 131.995C185.179 131.995 185.154 131.997 185.126 131.997Z" fill="#A39AC1"/>
<path d="M182.805 133.453C182.805 133.453 184.857 135.639 185.322 136.57C185.788 137.502 185.894 137.925 185.894 137.925L182.339 134.795L182.805 133.453Z" fill="#A39AC1"/>
<path d="M186.148 134.457C186.228 134.607 186.43 134.633 186.547 134.513C186.712 134.344 186.981 134.151 187.395 134.084C187.695 134.036 187.937 134.023 188.122 134.025C188.313 134.029 188.439 133.826 188.349 133.657C188.317 133.596 188.261 133.552 188.195 133.535C188.066 133.503 187.81 133.481 187.309 133.561C186.719 133.656 186.348 133.984 186.18 134.173C186.111 134.251 186.098 134.364 186.148 134.457Z" fill="white"/>
<path d="M186.693 135.361C186.773 135.511 186.976 135.537 187.092 135.416C187.258 135.248 187.527 135.055 187.94 134.988C188.241 134.94 188.482 134.927 188.668 134.928C188.859 134.932 188.985 134.73 188.894 134.561C188.862 134.5 188.807 134.455 188.74 134.439C188.612 134.407 188.356 134.385 187.855 134.465C187.265 134.559 186.894 134.888 186.725 135.077C186.656 135.155 186.643 135.268 186.693 135.361Z" fill="white"/>
<path d="M187.239 136.262C187.319 136.413 187.521 136.439 187.638 136.318C187.803 136.149 188.072 135.956 188.486 135.889C188.786 135.841 189.028 135.828 189.213 135.83C189.404 135.834 189.53 135.632 189.439 135.463C189.408 135.402 189.352 135.357 189.285 135.34C189.157 135.309 188.901 135.286 188.4 135.366C187.81 135.461 187.439 135.789 187.271 135.979C187.202 136.058 187.189 136.17 187.239 136.262Z" fill="white"/>
<path d="M184.829 130.142L184.296 129.273L183.764 130.142L184.296 131.01L184.829 130.142Z" fill="#D0CAE1"/>
<path d="M184.829 128.362L184.296 127.496L183.764 128.362L184.296 129.231L184.829 128.362Z" fill="#D0CAE1"/>
<path d="M184.829 126.646L184.296 125.778L183.764 126.646L184.296 127.514L184.829 126.646Z" fill="#D0CAE1"/>
<path d="M171.413 133.025C171.413 133.025 170.746 133.188 170.587 133.442C170.427 133.697 169.667 134.982 169.555 135.283C169.444 135.584 167.952 137.552 167.746 137.712C167.54 137.871 165.7 138.654 165.318 138.873C164.935 139.092 164.555 139.853 164.683 140.55C164.809 141.25 167.412 141.628 168.618 141.662C169.824 141.695 172.405 139.795 173.051 139.285C173.696 138.775 174.411 138.521 174.617 138.378C174.823 138.235 174.11 134.732 174.079 134.413C174.047 134.095 174.268 133.023 174.268 133.023H171.413V133.025Z" fill="#EBE8F2"/>
<path d="M171.413 132.299C171.413 132.299 170.746 132.463 170.587 132.717C170.427 132.971 169.667 134.257 169.555 134.557C169.444 134.858 167.952 136.827 167.746 136.986C167.54 137.146 165.7 137.929 165.318 138.148C164.937 138.367 164.555 139.127 164.683 139.825C164.809 140.524 167.412 140.903 168.618 140.936C169.824 140.97 172.405 139.07 173.051 138.56C173.696 138.049 174.411 137.795 174.617 137.652C174.823 137.509 174.951 133.162 174.917 132.845C174.886 132.528 174.266 132.299 174.266 132.299H171.413Z" fill="#D0CAE1"/>
<path d="M172.73 133.678C173.852 133.678 174.761 133.369 174.761 132.988C174.761 132.607 173.852 132.298 172.73 132.298C171.608 132.298 170.698 132.607 170.698 132.988C170.698 133.369 171.608 133.678 172.73 133.678Z" fill="#11003B"/>
<path d="M174.405 133.094C174.405 133.094 174.209 133.385 172.839 133.448C171.47 133.511 171.273 133.094 171.273 133.094V128.804H174.407V133.094H174.405Z" fill="#1F006E"/>
<path d="M174.925 136.105L169.876 140.586L175.4 138.2L174.925 136.105Z" fill="#A39AC1"/>
<path d="M168.692 136.318C168.162 137.136 166.527 137.576 167.696 138.346C169.08 139.257 170.164 137.728 170.893 137.079C172.468 135.676 171.34 134.806 170.555 134.687C169.585 134.544 169.435 135.175 168.692 136.318Z" fill="#A39AC1"/>
<path d="M175.008 133.578C174.78 133.973 173.871 134.27 172.782 134.27C172.557 134.27 172.34 134.257 172.136 134.233C172.296 134.901 172.956 135.402 173.748 135.402C174.659 135.402 175.398 134.739 175.398 133.921C175.398 133.802 175.381 133.687 175.351 133.578H175.008Z" fill="#A39AC1"/>
<path d="M171.255 136.374C171.153 136.509 170.949 136.506 170.852 136.367C170.715 136.174 170.477 135.942 170.078 135.812C169.789 135.717 169.552 135.669 169.37 135.643C169.18 135.617 169.086 135.398 169.201 135.246C169.242 135.19 169.303 135.153 169.372 135.148C169.501 135.136 169.759 135.153 170.242 135.309C170.811 135.494 171.127 135.873 171.266 136.088C171.322 136.175 171.318 136.29 171.255 136.374Z" fill="white"/>
<path d="M170.578 137.183C170.476 137.318 170.271 137.315 170.175 137.175C170.038 136.983 169.8 136.751 169.401 136.621C169.112 136.526 168.874 136.478 168.693 136.452C168.503 136.426 168.409 136.207 168.524 136.055C168.564 135.999 168.626 135.962 168.694 135.956C168.824 135.945 169.082 135.962 169.565 136.118C170.134 136.303 170.45 136.682 170.589 136.897C170.644 136.984 170.641 137.098 170.578 137.183Z" fill="white"/>
<path d="M169.9 137.992C169.798 138.127 169.594 138.124 169.498 137.984C169.36 137.791 169.123 137.56 168.724 137.43C168.435 137.335 168.197 137.287 168.015 137.261C167.826 137.235 167.731 137.016 167.846 136.864C167.887 136.808 167.948 136.771 168.017 136.765C168.147 136.754 168.405 136.771 168.887 136.927C169.457 137.112 169.772 137.491 169.911 137.706C169.967 137.793 169.963 137.907 169.9 137.992Z" fill="white"/>
<path d="M173.904 132.585L173.372 131.719L172.837 132.585L173.372 133.454L173.904 132.585Z" fill="#D0CAE1"/>
<path d="M173.904 130.808L173.372 129.939L172.837 130.808L173.372 131.674L173.904 130.808Z" fill="#D0CAE1"/>
<path d="M173.904 129.09L173.372 128.223L172.837 129.09L173.372 129.958L173.904 129.09Z" fill="#D0CAE1"/>
<path d="M170.698 88.169L170.301 130.275L175.548 130.763L177.173 99.7076C177.173 98.5796 178.088 97.6649 179.216 97.6649C180.344 97.6649 181.259 98.5796 181.259 99.7076L182.858 128.205L187.567 127.663L188.159 87.5715L170.698 88.169Z" fill="#FEC45A"/>
<path d="M170.158 130.618L170.064 129.273L175.776 129.357L175.569 130.943L170.158 130.618Z" fill="#FBE5CA"/>
<path d="M182.662 127.496C182.662 127.496 182.71 128.418 182.756 128.364C182.805 128.31 187.675 127.932 187.675 127.932L187.801 126.648L182.662 127.496Z" fill="#FBE5CA"/>
<path d="M180.797 59.6386C179.869 59.338 179.172 58.555 178.725 57.5327L176.669 63.8707L181.693 65.4998L183.762 59.1209C182.784 59.7072 181.741 59.9447 180.797 59.6386Z" fill="#EBE8F2"/>
<path d="M180.797 59.6385C181.741 59.9446 182.784 59.7072 183.762 59.1208L184.267 57.5642L179.368 55.5474L178.725 57.5345C179.174 58.555 179.869 59.3379 180.797 59.6385Z" fill="#936138"/>
<path d="M187.976 54.488C186.725 57.2358 183.499 59.3881 181.202 58.3435C178.905 57.2989 178.405 53.4527 179.656 50.703C180.907 47.9552 183.432 47.3447 185.729 48.3893C188.028 49.4358 189.226 51.7402 187.976 54.488Z" fill="#B57D4B"/>
<path d="M186.293 46.9978C183.695 45.6174 180.521 46.8234 179.381 49.3282C179.151 49.8347 179.02 50.3616 178.975 50.8904C179.135 50.8515 179.292 50.8607 179.433 50.9257C179.582 50.9925 179.695 51.1149 179.771 51.2689C180.673 49.3282 183.096 48.4914 185.167 49.4729C188.228 50.9238 188.324 52.9444 188.469 53.0111C188.619 53.0779 190.916 49.4562 186.293 46.9978Z" fill="#11003B"/>
<path d="M179.91 51.9537C180.226 51.304 180.153 50.6172 179.747 50.4196C179.34 50.222 178.755 50.5884 178.439 51.2381C178.123 51.8878 178.196 52.5746 178.603 52.7722C179.009 52.9699 179.594 52.6034 179.91 51.9537Z" fill="#B57D4B"/>
<path d="M181.213 58.3065C180.871 58.1413 180.593 57.9354 180.426 57.7424C180.417 57.7536 180.406 57.7628 180.398 57.774C180.309 57.9595 180.625 58.2972 181.105 58.5291C181.586 58.761 182.046 58.8 182.135 58.6145C182.14 58.6015 182.14 58.5866 182.142 58.5736C181.888 58.5625 181.554 58.4716 181.213 58.3065Z" fill="#11003B"/>
<path d="M182.01 60.6739L181.467 59.9187C181.255 59.6256 180.847 59.5588 180.554 59.7703L179.799 60.3139C179.506 60.5254 179.439 60.9336 179.65 61.2268L180.194 61.9819C180.406 62.2751 180.814 62.3419 181.107 62.1304L181.862 61.5867C182.155 61.3752 182.222 60.967 182.01 60.6739Z" fill="#1F006E"/>
<path d="M180.153 61.7352L178.656 65.4367L181.595 65.9173L181.048 61.9727L180.153 61.7352Z" fill="#1F006E"/>
<path d="M190.391 78.4467L193.631 76.6377C191.184 62.1935 190.323 61.9151 187.983 61.0951L184.307 59.8835L180.777 64.2696L177.617 58.5847L173.941 59.0541C171.413 59.377 168.24 60.5347 168.24 63.0859C168.24 63.0859 164.156 70.3238 164.325 75.786C164.427 79.0738 165.277 81.3077 167.32 81.7177C170.299 82.317 170.299 89.3694 170.299 89.3694C170.299 89.3694 176.227 88.2023 181.921 88.2023C187.616 88.2023 188.612 88.6272 188.612 88.6272L188.452 77.6396C188.449 77.3761 188.744 77.2184 188.961 77.3668L190.391 78.4467Z" fill="#11003B"/>
<path d="M176.17 74.9715L173.578 77.9568L171.566 75.5671L174.303 73.4538L174.745 70.5315L177.485 69.1233L177.968 70.9675C177.968 70.9675 178.211 70.8729 178.528 71.0195C178.845 71.1661 178.463 72.6782 178.463 72.6782L176.537 74.2776L176.17 74.9715Z" fill="#B57D4B"/>
<path d="M176.444 71.398C176.697 71.5186 177.001 71.4128 177.122 71.1586L178.418 68.4516C178.539 68.1993 178.433 67.895 178.179 67.7744C177.927 67.6538 177.622 67.7595 177.502 68.0137L176.205 70.7207C176.084 70.9731 176.19 71.2774 176.444 71.398Z" fill="#B57D4B"/>
<path d="M176.802 69.4739C176.802 69.4739 176.997 69.4776 177.313 69.5852C177.626 69.6928 177.702 69.9488 177.702 69.9488L178.42 68.4515L176.802 69.4739Z" fill="#936138"/>
<path d="M178.172 70.7523C177.906 70.7374 177.906 70.7374 177.906 70.7374L177.973 71.8674C177.995 72.0065 177.923 72.142 177.795 72.2013C177.793 72.2013 177.793 72.2032 177.791 72.2032L176.55 72.7301C176.374 72.8043 176.17 72.7542 176.049 72.6077L175.192 71.5612C175.127 71.4814 174.997 71.5352 175.01 71.6373C175.125 72.5446 175.756 73.873 175.958 74.0771C175.94 74.2181 175.971 74.361 175.969 74.5187C175.967 74.8323 176.598 74.4705 176.71 74.4278C176.795 74.3944 178.615 72.8303 178.687 72.6077C178.771 72.3479 178.945 70.7949 178.172 70.7523Z" fill="#936138"/>
<path d="M184.897 70.168C184.979 69.7691 185.419 69.6448 185.879 70.0047C186.681 70.6318 187.139 70.5317 187.354 72.1106L188.469 73.2238C188.469 73.2238 188.465 74.248 187.649 74.8454C186.833 75.4429 186.712 75.4132 186.712 75.4132L185.725 74.5226C185.285 74.5634 183.319 73.8046 183.319 73.8046C185.706 72.1458 184.564 71.1105 184.897 70.168Z" fill="#936138"/>
<path d="M185.547 70.3794C185.751 70.2329 185.797 69.949 185.651 69.7468L184.486 68.1233C184.339 67.9192 184.055 67.8728 183.853 68.0194C183.649 68.166 183.602 68.4498 183.749 68.6521L184.914 70.2755C185.059 70.4796 185.343 70.526 185.547 70.3794Z" fill="#936138"/>
<path d="M180.821 73.1032L184.144 72.7729C184.376 72.7507 184.545 72.5429 184.523 72.3109L183.845 65.4942C183.823 65.2623 183.615 65.0935 183.384 65.1157L180.061 65.446C179.829 65.4683 179.66 65.6761 179.682 65.908L180.359 72.7247C180.381 72.9566 180.587 73.1273 180.821 73.1032Z" fill="#EBE8F2"/>
<path d="M180.784 72.016C180.569 71.8638 180.404 71.6486 180.33 71.3963C180.079 70.528 180.237 69.3795 180.966 69.0492C181.912 68.6225 183.723 69.3516 184.278 69.3869C185.616 70.6541 185.187 71.8787 184.276 73.042C184.025 73.363 183.66 73.6116 183.324 73.8064L180.784 72.016Z" fill="#B57D4B"/>
<path d="M181.923 67.9897C182.292 67.9897 182.591 67.6906 182.591 67.3218C182.591 66.9529 182.292 66.6538 181.923 66.6538C181.554 66.6538 181.255 66.9529 181.255 67.3218C181.255 67.6906 181.554 67.9897 181.923 67.9897Z" fill="#D0CAE1"/>
<path d="M185.894 75.7638C186.411 76.3278 188.632 79.0608 189.519 79.4004C191.582 80.1908 193.124 79.0311 193.61 77.7583C194.098 76.4855 192.822 74.8138 190.759 74.0234C189.84 73.6709 189.26 72.6041 188.48 72.6931C188.328 73.3425 186.111 75.3185 185.894 75.7638Z" fill="#11003B"/>
<path d="M178.172 96.52C178.172 96.52 180.33 95.9282 180.71 95.9708C181.09 96.0135 180.921 96.52 180.921 96.52H178.172Z" fill="#F39322"/>
<path d="M179.229 89.3694C179.229 89.3694 178.962 94.4049 179.229 95.2937C179.496 96.1824 179.565 95.969 179.565 95.969L179.229 89.3694Z" fill="#F39322"/>
<path d="M178.636 61.5794L177.934 58.8167L178.437 57.7981L180.925 59.5589L178.636 61.5794Z" fill="#EBE8F2"/>
<path d="M182.745 62.2492L184.287 59.852L184.133 58.7277L181.215 59.6053L182.745 62.2492Z" fill="#EBE8F2"/>
<path opacity="0.4" d="M76.4165 139.925C87.0734 139.925 95.7125 138.279 95.7125 136.248C95.7125 134.217 87.0734 132.57 76.4165 132.57C65.7595 132.57 57.1204 134.217 57.1204 136.248C57.1204 138.279 65.7595 139.925 76.4165 139.925Z" fill="#D0CAE1"/>
<path opacity="0.2" d="M80.8212 139.682C78.6819 139.682 76.4165 136.932 76.4165 136.574C76.4165 133.489 90.0814 135.556 90.7271 137.597C91.1557 138.944 85.3743 139.682 80.8212 139.682Z" fill="#11003B"/>
<path d="M77.0501 133.729L80.6514 133.729L80.6514 130.127L77.0501 130.127L77.0501 133.729Z" fill="#FBE5CA"/>
<path d="M85.6693 81.9905V108.742C85.6693 109.155 85.6378 109.569 85.5784 109.979L82.4929 130.665L75.0565 130.971L75.3033 95.5943C75.3478 94.4105 74.7596 92.7889 73.9692 92.4809C73.9692 92.4809 71.355 90.1691 72.1899 83.7865C73.1863 76.1683 85.6693 81.9905 85.6693 81.9905Z" fill="#1F006E"/>
<path d="M75.5036 40.7897C75.5036 40.7897 76.0677 48.7568 75.1251 51.4991C74.1826 54.2413 81.5318 52.8461 81.5318 52.8461C81.5318 52.8461 80.6004 48.8477 82.235 48.3616C83.8696 47.8755 84.6507 49.0481 86.2037 46.7047C87.7566 44.3614 85.8846 37.7784 85.8846 37.7784L75.5036 40.7897Z" fill="#FBE5CA"/>
<path d="M78.6504 40.0957C78.6504 40.066 78.6504 40.0382 78.6522 40.0104C78.6522 40.0382 78.6522 40.066 78.6504 40.0957Z" fill="#FEC45A"/>
<path d="M85.5747 34.6039C85.5747 34.6039 87.2538 35.9973 87.0868 37.5985C86.9199 39.1997 85.725 39.7303 82.8677 39.0216C81.0772 38.5763 80.3128 40.8213 80.9325 44.6712C80.8935 44.6731 80.1644 45.1072 80.0698 43.0533C79.836 42.3409 79.1829 41.9735 78.5576 42.0959C77.6188 42.2778 77.4147 43.1238 76.9156 44.1424C75.6706 45.9236 75.6521 47.2187 75.4034 44.0868C75.0843 40.0606 74.472 38.0549 76.3701 36.2645C79.4111 35.1345 84.3038 35.9991 85.0849 35.8192C85.866 35.6392 85.5747 34.6039 85.5747 34.6039Z" fill="#FEC45A"/>
<path d="M86.8438 45.328C86.8456 44.9996 85.6563 45.3688 85.4838 45.4913C85.3112 45.6119 84.699 46.3299 84.5951 46.2909C84.4911 46.252 81.6821 46.0757 80.7767 43.1312C80.5726 42.4707 80.131 43.1702 80.131 43.1702C80.131 43.1702 80.2442 44.968 80.3592 45.2816C80.4761 45.5952 80.6876 47.8272 81.0308 48.0276C81.3722 48.228 81.9919 48.471 81.9919 48.471C81.9919 48.471 83.7898 48.9479 84.506 49.0146C85.2222 49.0796 86.8197 48.6473 86.8438 45.328Z" fill="#FEC45A"/>
<path d="M84.5227 65.0248C84.5227 67.1251 87.6731 69.1253 90.9535 68.7764C95.1429 68.3312 96.2376 67.5408 95.3879 65.6204C94.7329 64.1417 90.9627 61.2231 87.662 61.2231C84.3613 61.2231 84.5227 62.9264 84.5227 65.0248Z" fill="#B2AAD1"/>
<path d="M73.7336 70.6133C73.7336 66.3719 73.0285 62.5071 71.8689 59.5942C70.5794 56.3491 71.7706 52.5845 74.7782 50.8126C74.9266 50.7254 75.075 50.6475 75.2253 50.5732C76.1345 50.9888 77.5242 51.2542 79.0845 51.2542C79.8471 51.2542 80.567 51.1911 81.2127 51.0779C84.5208 52.36 83.5727 54.7887 86.1016 56.9725C91.4619 61.6017 96.9872 65.6854 95.5307 67.372C94.4861 68.5817 91.3487 67.6966 87.6787 65.3922C87.8476 66.8302 88.4302 68.411 87.9385 69.8693C85.2686 77.7733 86.0998 83.3246 86.0998 83.3246C83.6043 83.3246 76.2161 84.2115 72.3495 82.4674C71.7038 82.1761 71.4366 81.4098 71.7353 80.766C73.1937 77.6286 73.7336 75.621 73.7336 70.6133Z" fill="#D0CAE1"/>
<path d="M86.4542 71.6504C88.0189 71.6504 89.2873 70.3819 89.2873 68.8172C89.2873 67.2525 88.0189 65.984 86.4542 65.984C84.8894 65.984 83.621 67.2525 83.621 68.8172C83.621 70.3819 84.8894 71.6504 86.4542 71.6504Z" fill="#B2AAD1"/>
<path d="M85.2704 66.4255C85.5116 66.0396 86.1869 65.9097 86.6063 65.7687C87.816 65.3605 89.2391 65.6982 89.2854 68.0916C89.2947 68.5221 88.9181 69.2142 88.5006 69.485L88.1555 69.6019C88.1555 69.2568 88.1036 68.9062 87.9867 68.5573C87.5618 67.2938 86.4504 66.4737 85.2704 66.4255Z" fill="#FBE5CA"/>
<path d="M85.8901 70.3663C85.2574 70.5797 84.5134 70.2272 84.185 69.5054C84.0848 69.2846 84.0291 69.0453 84.0514 68.8004C84.133 67.8968 85.0218 66.7817 85.2592 66.4014C86.4393 66.4496 87.5506 67.2697 87.9774 68.5332C88.0943 68.882 88.1574 69.2587 88.1574 69.6038L85.8901 70.3663Z" fill="#EACBA9"/>
<path opacity="0.2" d="M80.2071 86.5678C80.2071 86.5678 80.3184 102.157 80.2071 106.96C80.0957 111.764 79.8453 119.985 79.8044 121.412C79.7636 122.839 79.6337 129.104 79.6337 129.104H79.8044C79.8044 129.104 80.3536 108.517 80.3907 105.983C80.4278 103.448 80.3907 86.5659 80.3907 86.5659H80.2071V86.5678Z" fill="#D0CAE1"/>
<path d="M80.1803 128.995L83.3743 130.658L85.0377 127.464L81.8437 125.801L80.1803 128.995Z" fill="#FBE5CA"/>
<path d="M85.2203 88.4307L90.3004 105.554C90.729 106.738 91.4563 108.794 91.2206 110.031L85.2704 129.544L79.8582 127.054L85.6693 109.365L85.2203 88.4307Z" fill="#180756"/>
<path d="M76.5761 132.428C76.5761 132.428 76.2143 135.045 76.5798 135.751C76.9453 136.456 78.0381 136.207 78.0381 136.207C78.0381 136.207 89.3078 136.055 89.3764 135.982C89.7939 135.532 89.4395 134.728 89.0257 134.765C87.701 134.882 84.8307 133.429 84.8307 133.429L80.5893 131.309C80.5893 131.309 80.0104 132.461 78.6393 132.652C77.2681 132.839 76.5761 132.428 76.5761 132.428Z" fill="#F9F9F9"/>
<path d="M76.5575 131.535C76.5575 131.535 76.1957 134.153 76.5612 134.858C76.9267 135.563 78.0195 135.314 78.0195 135.314C78.0195 135.314 86.6119 135.231 87.842 135.198C89.6937 135.147 89.5248 134.75 88.8272 134.515C87.0776 133.921 84.4411 133.03 84.4411 133.03L80.5707 130.416C80.5707 130.416 79.9918 131.568 78.6207 131.76C77.2477 131.949 76.5575 131.535 76.5575 131.535Z" fill="#D89B39"/>
<path d="M80.8371 132.669L81.8288 131.235L81.5434 131.037L80.5517 132.472L80.8371 132.669Z" fill="#F9F9F9"/>
<path d="M81.6484 133.098L82.6042 131.715L82.302 131.506L81.3462 132.889L81.6484 133.098Z" fill="#F9F9F9"/>
<path d="M82.593 133.514L83.4191 132.319L83.123 132.115L82.2969 133.31L82.593 133.514Z" fill="#F9F9F9"/>
<path d="M79.6616 128.815C79.6616 128.815 77.5946 130.871 77.4444 131.734C77.2922 132.596 78.4184 133.109 78.4184 133.109C78.4184 133.109 84.7119 138.341 86.0701 138.38C89.881 138.491 90.729 137.498 90.7271 137.387C90.7271 137.127 90.9423 136.552 90.5545 136.309C89.3133 135.526 86.2352 135.211 86.2352 135.211L83.9308 130.515C83.9308 130.515 82.6543 131.14 81.3221 130.39C79.9918 129.641 79.6616 128.815 79.6616 128.815Z" fill="#F9F9F9"/>
<path d="M80.2404 128.021C80.2404 128.021 78.1735 130.077 78.0232 130.94C77.8711 131.802 78.9973 132.314 78.9973 132.314C78.9973 132.314 85.2964 137.467 86.649 137.586C87.7511 137.682 91.1409 137.164 90.6863 136.489C89.5471 134.799 86.8141 134.417 86.8141 134.417L84.5097 129.721C84.5097 129.721 83.2332 130.346 81.901 129.596C80.5707 128.845 80.2404 128.021 80.2404 128.021Z" fill="#FEC45A"/>
<path d="M83.4539 131.91L85.1686 131.037L84.9952 130.697L83.2805 131.57L83.4539 131.91Z" fill="#F9F9F9"/>
<path d="M83.9806 132.788L85.6325 131.948L85.449 131.587L83.7971 132.428L83.9806 132.788Z" fill="#F9F9F9"/>
<path d="M84.667 133.585L86.0957 132.857L85.9155 132.504L84.4869 133.231L84.667 133.585Z" fill="#F9F9F9"/>
<path d="M84.8443 136.341C85.1781 134.848 82.6933 133.021 79.2943 132.262C75.8952 131.502 72.8691 132.096 72.5353 133.589C72.2015 135.082 74.6864 136.908 78.0854 137.668C81.4844 138.428 84.5105 137.834 84.8443 136.341Z" fill="#F39322"/>
<path d="M82.0012 130.528C83.3087 130.528 84.3687 129.763 84.3687 128.821C84.3687 127.878 83.3087 127.114 82.0012 127.114C80.6937 127.114 79.6337 127.878 79.6337 128.821C79.6337 129.763 80.6937 130.528 82.0012 130.528Z" fill="#F39322"/>
<path d="M86.8197 64.856C86.8197 64.856 79.246 58.351 78.3127 58.0838C77.3794 57.8167 76.9731 60.5367 80.5466 62.3865C84.1201 64.2345 86.5339 65.485 86.8197 64.856Z" fill="#B2AAD1"/>
<path opacity="0.5" d="M111.584 144.339C120.83 144.339 128.327 142.785 128.327 140.868C128.327 138.95 120.83 137.396 111.584 137.396C102.337 137.396 94.8405 138.95 94.8405 140.868C94.8405 142.785 102.337 144.339 111.584 144.339Z" fill="#D0CAE1"/>
<path opacity="0.2" d="M118.172 143.482C115.684 143.482 113.667 143.209 113.667 142.871C113.667 139.959 123.221 139.37 125.709 139.37C128.195 139.37 123.467 143.482 118.172 143.482Z" fill="#11003B"/>
<path opacity="0.2" d="M112.454 144.256C109.966 144.256 107.949 143.983 107.949 143.645C107.949 140.732 114.311 140.869 116.799 140.869C119.287 140.869 117.749 144.256 112.454 144.256Z" fill="#11003B"/>
<path d="M120.289 65.4237C120.547 66.7633 119.985 67.5389 119.985 67.5389C119.985 67.5389 116.936 66.0397 116.825 65.3346C116.714 64.6296 116.072 61.1971 116.072 61.1971C119.311 58.0096 109.719 51.6363 115.985 50.0184C122.734 48.2762 124.727 52.41 124.618 56.8499C124.514 61.0543 123.072 61.5756 121.827 61.0951C120.239 60.4828 120.029 64.0841 120.289 65.4237Z" fill="#FBE5CA"/>
<path d="M114.309 66.947L116.222 59.6516C116.222 59.6516 116.658 60.262 118.027 59.6794C119.397 59.0968 118.333 60.6015 118.756 61.5404C119.18 62.4792 118.885 68.8339 118.885 68.8339C118.885 68.8339 116.009 68.4072 114.309 66.947Z" fill="#EACBA9"/>
<path d="M129.815 76.0366C129.815 76.0366 132.839 73.222 133.477 71.6208C134.115 70.0196 133.629 70.7135 133.885 69.5947C134.143 68.4759 134.488 68.6651 135.555 68.834C135.822 68.8766 135.635 67.6001 136.119 67.7616C136.863 68.0102 137.249 70.5521 136.885 70.9565C136.394 71.502 135.381 72.6041 135.06 72.9177C134.741 73.2312 131.581 78.2965 131.358 78.5507C131.136 78.803 129.88 77.0385 129.815 76.0366Z" fill="#FBE5CA"/>
<path d="M123.208 50.7847C121.677 49.0963 119.239 48.189 116.682 48.5954C112.797 49.2113 110.108 52.6178 110.676 56.2025C110.76 56.7294 110.91 57.2322 111.116 57.7016C112.407 60.6443 115.625 61.7909 118.384 60.9411C119.526 60.5886 120.315 58.2991 120.198 57.568C120.081 56.8259 120.476 56.1468 121.081 56.0503C121.688 55.9538 122.274 56.4771 122.391 57.2192C122.397 57.2545 122.4 57.2897 122.404 57.325C123.415 55.4918 123.846 53.4787 123.523 51.4508L123.521 51.4434C123.484 51.2003 123.376 50.9703 123.208 50.7847Z" fill="#1F006E"/>
<path d="M110.602 54.848C111.095 54.848 111.494 54.4484 111.494 53.9556C111.494 53.4627 111.095 53.0631 110.602 53.0631C110.109 53.0631 109.71 53.4627 109.71 53.9556C109.71 54.4484 110.109 54.848 110.602 54.848Z" fill="#1F006E"/>
<path d="M102.18 62.392C102.18 62.392 103.27 61.2417 103.511 59.7592C103.752 58.2768 100.969 55.3731 102.845 53.3155C104.72 51.2578 107.988 49.4655 110.712 53.0854L110.296 54.1671C110.296 54.1671 110.53 56.5995 107.867 56.5921C105.205 56.5847 104.964 61.4254 102.18 62.392Z" fill="#1F006E"/>
<path d="M111.116 54.0915C111.215 53.4898 111.15 52.9784 110.972 52.9493C110.794 52.9202 110.57 53.3844 110.472 53.9861C110.373 54.5878 110.438 55.0992 110.616 55.1283C110.794 55.1574 111.018 54.6933 111.116 54.0915Z" fill="#F39322"/>
<path d="M110.929 83.8663L112.42 84.0537C112.42 84.0537 112.875 86.8368 112.752 86.8368C112.632 86.8368 111.209 87.078 110.695 86.8368C110.181 86.5956 110.929 83.8663 110.929 83.8663Z" fill="#FBE5CA"/>
<path d="M122.209 134.843C122.109 133.155 120.282 119.479 120.039 117.666C120.024 117.553 120.02 117.441 120.029 117.328C120.226 115.269 118.983 103.917 118.552 100.101C118.473 99.3866 117.868 98.8485 117.15 98.8485H111.365C110.428 98.8485 109.75 99.7447 110.006 100.646C111.203 104.847 114.153 115.111 114.992 117.145C115.083 117.365 115.114 117.607 115.087 117.844C114.446 123.104 118.055 132.121 119.508 135.485C120.102 136.858 122.196 136.485 122.213 134.99C122.215 134.941 122.213 134.893 122.209 134.843Z" fill="#ADA6C9"/>
<path d="M124.276 98.8486H117.085C116.268 98.8486 115.649 99.5833 115.786 100.387C116.424 104.11 118.072 113.588 118.964 117.434C119.07 117.889 118.918 118.356 118.588 118.685C115.138 122.102 114.036 131.585 113.758 134.775C113.693 135.52 114.263 136.188 115.01 136.203C115.547 136.214 116.129 136.032 116.519 135.352C117.278 134.023 121.964 122.293 123.402 118.677C123.447 118.568 123.499 118.462 123.568 118.367C123.731 118.147 123.846 117.898 123.894 117.616C124.169 116.026 125.02 101.465 125.388 97.3531C125.458 96.585 125.05 98.8486 124.276 98.8486Z" fill="#D0CAE1"/>
<path d="M115.098 103.478C118.248 103.478 120.801 100.924 120.801 97.7743C120.801 94.6243 118.248 92.0708 115.098 92.0708C111.948 92.0708 109.394 94.6243 109.394 97.7743C109.394 100.924 111.948 103.478 115.098 103.478Z" fill="#ADA6C9"/>
<path d="M125.39 97.355C125.39 100.505 121.762 104.01 118.614 104.01C115.465 104.01 113.463 100.923 113.463 97.7724C113.463 94.622 116.016 92.069 119.167 92.069C122.317 92.069 125.39 94.2064 125.39 97.355Z" fill="#D0CAE1"/>
<path d="M123.016 91.2841L112.42 87.8962L108.376 70.719C108.376 68.2606 110.368 66.2679 112.827 66.2679C112.827 66.2679 117.461 66.2178 121.9 64.8652C124.267 64.1435 126.388 66.4646 126.388 68.4201L123.016 91.2841Z" fill="#F39322"/>
<path d="M112.3 87.3822L110.001 95.4587C110.001 95.4587 120.651 94.3084 122.888 95.0357C125.128 95.7611 125.128 95.7611 125.128 95.7611L123.371 88.8814L123.07 84.3857L112.3 87.3822Z" fill="#F39322"/>
<path d="M125.529 66.1603C125.529 66.1603 127.247 68.0491 128.154 71.8415C129.061 75.6339 128.941 76.8232 128.941 76.8232L130.15 75.4929C130.15 75.4929 130.573 75.1905 131.36 75.8566C132.147 76.5226 131.783 78.083 131.783 78.083C131.783 78.083 129.666 82.4042 128.516 82.7679C127.366 83.1315 125.892 76.9253 125.612 76.543C125.165 75.9345 124.926 78.2927 124.911 78.443L123.07 75.3741L125.529 66.1603Z" fill="#F39322"/>
<path d="M110.045 78.3873C110.493 77.7787 110.732 80.1369 110.747 80.2872L112.587 77.2184L108.656 69.166C108.656 69.166 108.413 69.897 107.504 73.6895C106.594 77.4819 106.717 78.6712 106.717 78.6712C106.717 78.6712 106.565 83.9553 106.711 84.7828C106.975 86.2653 111.366 87.0594 111.366 87.0594C111.366 87.0594 111.754 84.7828 110.906 83.844C110.906 83.844 109.8 83.7475 109.582 83.2095C109.491 82.9775 110.045 78.3873 110.045 78.3873Z" fill="#F39322"/>
<path d="M135.91 68.91L132.924 68.2383L133.269 65.9246L133.217 65.2678L136.36 65.6667V66.4293L135.91 68.91Z" fill="#FEC45A"/>
<path d="M134.043 69.5686C133.633 69.2606 135.245 66.9154 135.659 67.5444C135.858 67.7633 134.867 69.988 134.043 69.5686Z" fill="#FBE5CA"/>
<path d="M111.754 138.118C111.754 138.118 113.166 134.81 113.469 134.507C113.771 134.205 115.328 133.452 116.083 135.871C116.281 136.509 116.959 140.053 117.2 140.417C117.441 140.78 117.816 140.76 118.814 141.244C119.358 141.508 119.192 142.07 118.526 142.07C117.86 142.07 115.827 141.686 115.827 141.686L113.754 139.268L111.754 138.118Z" fill="#EBE8F2"/>
<path d="M112.3 139.393C112.164 139.339 112.053 139.244 111.979 139.12C111.765 138.769 111.452 138.066 112.12 137.754C113.027 137.331 114.359 137.936 114.662 138.541C114.964 139.146 115.662 140.699 116.085 141.183C116.393 141.535 118.014 141.741 118.875 141.829C118.979 141.84 118.987 141.988 118.885 142.009C118.12 142.164 116.578 142.359 114.6 141.984C113.877 141.847 113.45 140.6 113.27 140.116C113.137 139.762 112.589 139.506 112.3 139.393Z" fill="#11003B"/>
<path d="M119.821 139.916C119.821 139.916 119.68 139.914 119.821 139.509C119.962 139.105 121.154 135.021 121.961 135.949C122.399 136.454 123.146 137.966 123.937 137.966C124.946 137.966 126.072 138.322 126.334 138.537C126.647 138.797 126.751 139.248 126.152 139.539C125.553 139.829 122.122 140.079 122.122 140.079L119.821 139.916Z" fill="#11003B"/>
<path d="M119.821 139.563C119.821 139.563 119.651 135.971 119.792 135.567C119.933 135.162 121.155 134.669 121.961 135.596C122.399 136.101 123.146 137.613 123.937 137.613C124.946 137.613 125.762 138.142 126.05 138.318C126.408 138.539 126.749 138.895 126.15 139.187C125.551 139.476 122.12 139.727 122.12 139.727L119.821 139.563Z" fill="#EBE8F2"/>
<path opacity="0.2" d="M218.426 153.172C233.78 153.172 246.227 150.433 246.227 147.053C246.227 143.674 233.78 140.934 218.426 140.934C203.072 140.934 190.625 143.674 190.625 147.053C190.625 150.433 203.072 153.172 218.426 153.172Z" fill="#D0CAE1"/>
<path opacity="0.2" d="M205.101 153.106C202.316 153.106 200.06 152.8 200.06 152.423C200.06 149.163 207.177 149.317 209.962 149.317C212.747 149.317 211.027 153.106 205.101 153.106Z" fill="#11003B"/>
<path opacity="0.2" d="M219.389 149.966C221.013 149.966 222.328 149.66 222.328 149.284C222.328 146.024 218.179 146.178 216.556 146.178C214.933 146.176 215.936 149.966 219.389 149.966Z" fill="#11003B"/>
<path d="M241.392 124.213L201.082 123.972L200.217 141.997C200.217 141.997 201.522 146.176 221.115 146.176C240.708 146.176 242.012 143.224 242.012 143.224L241.392 124.213Z" fill="#D0CAE1"/>
<path d="M242.014 123.343C241.702 126.948 232.657 126.922 221.117 126.922C209.576 126.922 200.704 126.922 200.219 123.343C199.7 119.508 209.576 120.562 221.117 120.562C232.657 120.562 242.5 117.731 242.014 123.343Z" fill="#A79FC4"/>
<path d="M206.75 151.28C202.435 152.736 200.707 153.042 199.692 151.968C198.603 150.816 200.243 149.18 204.121 146.959C208.073 144.695 209.463 145.276 209.702 146.844C209.94 148.4 211.192 149.779 206.75 151.28Z" fill="#1F006E"/>
<path d="M206.813 148.528C203.362 149.955 206.04 147.938 205.639 146.845C205.372 146.114 203.158 147.599 205.837 146.122C207.774 145.053 208.895 145.58 209.164 146.244C209.435 146.91 208.758 147.727 206.813 148.528Z" fill="#FEC45A"/>
<path d="M207.661 147.504L207.409 147.491C206.821 147.461 206.37 146.961 206.4 146.372L206.554 143.38C206.583 142.791 207.084 142.341 207.672 142.37L207.925 142.383C208.513 142.413 208.964 142.914 208.934 143.502L208.78 146.495C208.748 147.083 208.248 147.534 207.661 147.504Z" fill="#FBE5CA"/>
<path d="M207.331 144.983C208.112 144.983 208.858 145.04 209.541 145.144C210.897 142.597 210.435 135.921 211.346 129.746C212.598 121.26 208.582 118.946 206.298 118.946C204.014 118.946 203.559 122.673 203.559 131.249C203.559 137.266 204.472 142.48 205.804 145.059C206.29 145.01 206.802 144.983 207.331 144.983Z" fill="#1F006E"/>
<path d="M225.425 124.213L216.524 116.667L218.22 116.28L217.398 114.573C222.059 112.831 229.466 112.252 230.191 115.916" fill="#D0CAE1"/>
<path d="M216.873 100.173C215.641 104.578 212.734 109.161 211.12 108.71C209.505 108.259 211.196 103.081 211.626 98.4921C212.084 93.6032 214.565 90.9296 216.179 91.3823C217.795 91.8313 218.105 95.7684 216.873 100.173Z" fill="#FBE5CA"/>
<path d="M203.325 106.365C203.453 105.111 203.245 104.063 202.859 104.023C202.474 103.984 202.058 104.968 201.929 106.222C201.801 107.476 202.009 108.524 202.394 108.564C202.78 108.603 203.196 107.619 203.325 106.365Z" fill="#EACBA9"/>
<path d="M231.089 92.4381C231.089 95.6145 227.469 101.624 222.361 101.624C217.254 101.624 213.112 99.0488 213.112 95.8724C213.112 93.7239 214.083 91.759 217.007 90.8666C219.45 90.1225 219.482 88.7514 220.764 88.603C222.612 88.3859 225.651 88.616 227.065 88.7996C230.698 89.2728 231.089 90.4175 231.089 92.4381Z" fill="#FBE5CA"/>
<path d="M208.656 110.252C205.767 110.083 202.555 108.658 202.631 107.337C202.707 106.016 206.136 106.4 209.04 105.921C212.133 105.411 214.105 106.843 214.027 108.164C213.949 109.485 211.545 110.42 208.656 110.252Z" fill="#FBE5CA"/>
<path d="M224.896 88.5974L219.137 90.0706V87.3839V83.508L222.569 82.9978L224.896 88.5974Z" fill="#FBE5CA"/>
<path d="M229.293 97.6461C228.636 94.9372 228.627 91.271 230.243 89.9017C229.677 89.1039 229.219 89.0389 228.69 89.2189C227.82 89.5158 227.228 90.1744 226.657 90.937C225.243 92.8258 221.556 94.7628 218.658 94.7628C216.216 94.7628 216.359 91.6346 216.415 91.2839C216.517 90.642 215.573 91.0687 215.547 91.6847C215.326 96.993 212.901 96.7648 215.912 103.943C216.597 105.574 216.91 106.296 216.523 109.168C215.79 114.608 216.061 119.378 224.959 119.482C228.046 119.519 231.768 123.336 231.251 119.174C229.826 107.717 231.982 106.417 231.893 101.613C231.885 101.192 231.583 100.848 231.175 100.743C230.178 100.483 229.649 99.1174 229.293 97.6461Z" fill="#FEC45A"/>
<path d="M217.862 109.649H205.238C204.997 109.652 204.782 109.502 204.702 109.274L201.835 101.958C201.717 101.622 201.895 101.149 202.249 101.105L215.613 99.3568C215.895 99.3215 216.159 99.5034 216.228 99.7798L218.413 108.778C218.497 109.127 218.22 109.643 217.862 109.649Z" fill="#EBE8F2"/>
<path d="M217.654 109.691L205.017 109.869C204.776 109.873 204.561 109.723 204.481 109.495L201.835 101.958C201.717 101.622 201.939 101.262 202.294 101.218L215.391 99.5794C215.673 99.5442 215.936 99.726 216.005 100.002L218.191 109.001C218.276 109.348 218.014 109.686 217.654 109.691Z" fill="#D0CAE1"/>
<path d="M221.877 141.931C222.733 146.404 221.874 148.363 220.315 148.66C218.758 148.957 217.092 147.48 216.237 143.009C215.382 138.537 216.309 137.094 217.868 136.797C219.426 136.5 221.022 137.457 221.877 141.931Z" fill="#1F006E"/>
<path d="M220.463 139.463C221.204 143.124 220.495 140.194 218.753 140.493C216.827 140.823 217.268 143.875 216.588 140.205C216.185 138.029 216.983 137.036 218.053 136.832C219.124 136.628 220.048 137.404 220.463 139.463Z" fill="#FEC45A"/>
<path d="M218.695 139.216L218.452 139.29C217.89 139.461 217.294 139.144 217.122 138.582L216.248 135.715C216.077 135.153 216.395 134.557 216.957 134.385L217.2 134.311C217.762 134.14 218.358 134.457 218.53 135.019L219.404 137.886C219.575 138.448 219.257 139.044 218.695 139.216Z" fill="#FBE5CA"/>
<path d="M219.539 117.343C218.836 119.334 213.454 115.951 210.374 114.905C207.294 113.858 205.342 111.385 206.032 109.389C206.83 107.081 209.633 106.244 212.636 107.493C215.845 108.83 220.358 115.029 219.539 117.343Z" fill="#11003B"/>
<path d="M222.274 125.568C215.962 126.225 202.281 123.273 204.835 119.764C207.39 116.254 216.113 113.855 227.369 114.836C232.368 115.27 235.292 124.213 222.274 125.568Z" fill="#1F006E"/>
<path d="M217.311 136.259C218.051 136.012 218.773 135.819 219.448 135.682C220.083 133.299 217.267 122.798 215.71 118.133C213.515 111.558 211.841 106.116 207.811 107.535C204.29 108.775 205.669 114.176 207.863 120.753C209.403 125.367 213.957 135.245 215.881 136.8C216.33 136.607 216.81 136.426 217.311 136.259Z" fill="#11003B"/>
<path d="M233.115 101.216C233.115 107.597 231.549 114.847 229.872 114.847C228.195 114.847 228.429 107.255 227.607 100.926C226.731 94.184 228.401 89.6605 230.076 89.6605C231.752 89.6605 233.115 94.8352 233.115 101.216Z" fill="#FBE5CA"/>
<path d="M229.488 114.215C231.294 113.05 231.246 109.764 229.382 106.875C227.517 103.987 224.542 102.59 222.737 103.755C220.931 104.92 220.979 108.207 222.844 111.095C224.708 113.984 227.683 115.381 229.488 114.215Z" fill="#EACBA9"/>
<path d="M225.241 108.572C223.157 104.678 220.831 99.9894 222.191 99.2621C223.551 98.5348 225.842 103.27 228.575 106.776C231.488 110.511 231.612 113.998 230.251 114.725C228.891 115.452 227.327 112.467 225.241 108.572Z" fill="#FBE5CA"/>
<path d="M223.425 97.8483C224.404 99.2566 224.293 101.027 223.176 101.802C222.059 102.578 220.762 101.374 219.564 100.147C218.376 98.9319 217.716 96.7202 218.448 95.5736C219.122 94.5197 221.215 97.082 221.979 97.39C222.573 97.6331 222.996 97.2323 223.425 97.8483Z" fill="#FBE5CA"/>
<path d="M223.802 100.089C224.164 99.9534 224.1 98.8865 223.658 97.7061C223.216 96.5257 222.564 95.679 222.201 95.8148C221.839 95.9506 221.903 97.0175 222.345 98.1979C222.787 99.3782 223.439 100.225 223.802 100.089Z" fill="#FBE5CA"/>
<path d="M209.733 106.445C210.342 106.303 210.704 105.627 210.543 104.936C210.381 104.244 209.756 103.799 209.148 103.942C208.539 104.084 208.177 104.76 208.339 105.451C208.5 106.143 209.125 106.588 209.733 106.445Z" fill="#EBE8F2"/>
<path d="M204.514 110.348C203.902 110.6 202.347 109.892 201.943 109.38C201.099 108.313 200.54 107.58 201.906 106.543C203.258 105.517 204.947 105.511 205.991 106.381C206.952 107.181 205.364 108.187 204.962 108.906C204.652 109.467 205.208 110.062 204.514 110.348Z" fill="#FBE5CA"/>
<path d="M212.632 86.7883C214.009 89.8868 217.627 89.6604 218.372 86.6862C217.56 86.0758 216.873 85.2372 216.417 84.213C215.114 81.2815 216.2 77.9529 218.842 76.7803C219.359 76.5502 219.899 76.4204 220.443 76.3833C218.684 74.3664 215.944 73.5705 213.593 74.6151C210.637 75.9268 211.175 83.508 212.632 86.7883Z" fill="#1F006E"/>
<path d="M221.117 88.5286C222.513 88.5286 223.645 87.6357 223.645 86.5341C223.645 85.4325 222.513 84.5396 221.117 84.5396C219.72 84.5396 218.588 85.4325 218.588 86.5341C218.588 87.6357 219.72 88.5286 221.117 88.5286Z" fill="#EACBA9"/>
<path d="M224.742 80.749C224.742 84.4171 222.343 87.3913 219.385 87.3913C217.628 87.3913 217.259 86.484 216.313 85.4376C215.213 84.2204 215.202 81.9086 214.769 79.8788C214.005 76.2905 216.428 74.1067 219.385 74.1067C222.343 74.1067 224.742 77.0809 224.742 80.749Z" fill="#FBE5CA"/>
<path d="M222.566 72.1604C218.586 70.3792 213.984 73.3961 213.984 77.2405C215.369 76.9789 216.847 77.1217 218.244 77.7507C221.399 79.1738 223.087 82.738 222.187 86.0795C222.18 86.1037 222.174 86.1278 222.167 86.1519C221.799 87.4581 223.098 88.6103 224.341 88.0648C226.378 87.1687 229.527 86.6937 230.243 84.3577C231.41 80.5468 226.204 73.7876 222.566 72.1604Z" fill="#1F006E"/>
</svg>
