<svg width="301" height="166" viewBox="0 0 301 166" fill="none" xmlns="http://www.w3.org/2000/svg">
<path opacity="0.1" d="M281.453 153.96C282.45 147.93 282.969 141.76 282.969 135.483C282.969 66.1146 219.934 9.88257 142.176 9.88257C64.4181 9.88257 1.38306 66.1165 1.38306 135.483C1.38306 141.76 1.90168 147.93 2.89904 153.96H281.453Z" fill="#F39322"/>
<path d="M78.5426 12.8786C79.141 13.914 78.1266 15.5382 76.4396 16.2411C72.9669 17.6887 66.9846 20.4091 59.608 24.6759C52.2313 28.9427 46.8912 32.7745 43.9048 35.0656C42.4534 36.1788 40.5404 36.2472 39.942 35.2138C39.4936 34.4387 39.9439 33.2855 41.0248 32.4459C43.882 30.2289 49.8814 25.8006 57.657 21.302C65.4326 16.8035 72.2602 13.8095 75.6056 12.436C76.8689 11.9192 78.0943 12.1035 78.5426 12.8786Z" fill="#EBE8F2"/>
<path d="M247.051 36.5472C246.614 37.0677 245.81 37.0601 245.385 36.5301C244.511 35.4378 242.647 33.7299 240.246 31.72C237.845 29.7082 236.023 28.329 234.794 27.6603C234.197 27.3354 234.047 26.5451 234.484 26.0246C234.811 25.6352 235.365 25.525 235.816 25.7643C237.003 26.397 239.138 27.9015 241.669 30.0216C244.199 32.1417 246.24 34.1346 247.072 35.1927C247.389 35.5917 247.377 36.1578 247.051 36.5472Z" fill="#EBE8F2"/>
<path d="M249.387 40.3106C250.035 40.3106 250.56 39.7858 250.56 39.1384C250.56 38.4911 250.035 37.9663 249.387 37.9663C248.74 37.9663 248.215 38.4911 248.215 39.1384C248.215 39.7858 248.74 40.3106 249.387 40.3106Z" fill="#EBE8F2"/>
<path d="M83.1589 13.2852C84.2742 13.2852 85.1784 12.381 85.1784 11.2658C85.1784 10.1505 84.2742 9.24634 83.1589 9.24634C82.0436 9.24634 81.1395 10.1505 81.1395 11.2658C81.1395 12.381 82.0436 13.2852 83.1589 13.2852Z" fill="#EBE8F2"/>
<path d="M29.4307 13.9501H27.0504V11.5697C27.0504 10.8421 26.4614 10.2532 25.7339 10.2532C25.0063 10.2532 24.4173 10.8421 24.4173 11.5697V13.9501H22.037C21.3094 13.9501 20.7205 14.539 20.7205 15.2666C20.7205 15.9942 21.3094 16.5831 22.037 16.5831H24.4173V18.9634C24.4173 19.691 25.0063 20.28 25.7339 20.28C26.4614 20.28 27.0504 19.691 27.0504 18.9634V16.5831H29.4307C30.1583 16.5831 30.7472 15.9942 30.7472 15.2666C30.7491 14.539 30.1583 13.9501 29.4307 13.9501Z" fill="#FBE5CA"/>
<path d="M298.799 121.494H296.419V119.113C296.419 118.386 295.83 117.797 295.103 117.797C294.375 117.797 293.786 118.386 293.786 119.113V121.494H291.406C290.678 121.494 290.089 122.083 290.089 122.81C290.089 123.538 290.678 124.127 291.406 124.127H293.786V126.507C293.786 127.235 294.375 127.824 295.103 127.824C295.83 127.824 296.419 127.235 296.419 126.507V124.127H298.799C299.527 124.127 300.116 123.538 300.116 122.81C300.118 122.083 299.527 121.494 298.799 121.494Z" fill="#EBE8F2"/>
<path d="M20.5419 54.1484C13.7086 54.8361 14.5616 50.7422 15.4697 49.5491C16.885 47.7178 19.6548 48.3865 20.352 50.2805C20.7053 51.01 20.4849 53.3999 20.5419 54.1484Z" fill="#EBE8F2"/>
<path d="M214.856 5.79827C221.689 6.48598 220.836 2.39206 219.928 1.19902C218.513 -0.632318 215.743 0.0363874 215.046 1.93042C214.693 2.66182 214.913 5.05168 214.856 5.79827Z" fill="#EBE8F2"/>
<path d="M258.434 158.297C272.69 158.297 284.247 156.889 284.247 155.151C284.247 153.414 272.69 152.005 258.434 152.005C244.177 152.005 232.62 153.414 232.62 155.151C232.62 156.889 244.177 158.297 258.434 158.297Z" fill="#EBE8F2"/>
<path d="M257.552 156.042C265.585 156.042 272.097 155.249 272.097 154.27C272.097 153.291 265.585 152.498 257.552 152.498C249.52 152.498 243.008 153.291 243.008 154.27C243.008 155.249 249.52 156.042 257.552 156.042Z" fill="#D0CAE1"/>
<path d="M266.629 123.834H248.084L249.137 154.468H265.577L266.629 123.834Z" fill="#EBE8F2"/>
<path d="M258.51 102.975H255.59V119.718H258.51V102.975Z" fill="#EBE8F2"/>
<path d="M267.955 119.14H246.76V125.28H267.955V119.14Z" fill="#D0CAE1"/>
<path d="M274.357 55.6833C274.357 55.6833 262.214 72.0419 257.357 89.1414C252.499 106.241 255.37 118.779 255.37 118.779C255.37 118.779 254.707 96.5731 258.461 92.7965C262.214 89.0198 280.319 84.4889 281.643 70.0852C282.967 55.6814 282.967 42.8772 282.967 42.8772L274.357 55.6833Z" fill="#D0CAE1"/>
<path d="M258.24 118.779C258.24 118.779 264.283 95.8836 254.528 67.3933C244.773 38.903 225.13 43.8803 225.13 43.8803C225.13 43.8803 223.914 63.7743 237.544 74.6313C251.175 85.4883 257.913 87.597 258.46 101.252C259.008 114.908 258.24 118.779 258.24 118.779Z" fill="#EBE8F2"/>
<path d="M254.883 118.779C254.883 118.779 264.156 103.348 253.78 94.4245C243.403 85.5015 243.403 85.5015 243.403 85.5015C243.403 85.5015 236.558 92.4165 243.403 98.4367C250.248 104.457 255.839 101.987 256.65 107.419C257.461 112.848 254.883 118.779 254.883 118.779Z" fill="#EBE8F2"/>
<path d="M258.242 118.956C258.242 118.956 256.392 111.336 263.014 104.024C269.637 96.7119 274.937 86.4742 274.937 86.4742C274.937 86.4742 281.782 97.6314 278.691 103.104C275.6 108.578 262.705 105.479 260.366 110.51C258.027 115.54 258.242 118.956 258.242 118.956Z" fill="#D0CAE1"/>
<path d="M18.3268 159.158C26.9008 159.158 33.8514 158.079 33.8514 156.747C33.8514 155.416 26.9008 154.336 18.3268 154.336C9.7528 154.336 2.80219 155.416 2.80219 156.747C2.80219 158.079 9.7528 159.158 18.3268 159.158Z" fill="#EBE8F2"/>
<path d="M17.7968 157.429C22.6283 157.429 26.5451 156.821 26.5451 156.071C26.5451 155.321 22.6283 154.713 17.7968 154.713C12.9653 154.713 9.04852 155.321 9.04852 156.071C9.04852 156.821 12.9653 157.429 17.7968 157.429Z" fill="#D0CAE1"/>
<path d="M24.6092 140.883H10.3916L11.199 155.647H23.8018L24.6092 140.883Z" fill="#EBE8F2"/>
<path d="M18.3838 124.892H16.1459V137.727H18.3838V124.892Z" fill="#EBE8F2"/>
<path d="M25.6237 137.284H9.37527V141.992H25.6237V137.284Z" fill="#D0CAE1"/>
<path d="M27.6792 90.1522C28.7411 93.9193 27.6868 97.9468 24.9683 100.764C22.3998 103.426 19.3641 107.728 17.5004 114.288C13.777 127.398 15.9768 137.009 15.9768 137.009C15.9768 137.009 15.4696 119.986 18.3458 117.09C21.222 114.195 35.1033 110.721 36.1178 99.6793C37.1342 88.6381 25.6237 82.8705 25.6237 82.8705L27.6792 90.1522Z" fill="#D0CAE1"/>
<path d="M18.1767 137.009C18.1767 137.009 30.808 114.746 15.3309 97.6161C10.3916 92.1487 10.3916 74.9238 10.3916 74.9238C10.3916 74.9238 -7.69953 103.179 11.0755 103.94C24.4249 104.482 17.9279 113.105 18.3477 123.572C18.7656 134.04 18.1767 137.009 18.1767 137.009Z" fill="#EBE8F2"/>
<path d="M21.8394 137.649C21.8394 137.649 13.3419 130.2 21.298 123.359C29.2541 116.518 30.6409 112.138 30.6409 112.138C30.6409 112.138 33.3157 123.339 28.0686 127.955C22.8216 132.571 22.6867 118.979 20.4849 128.941C19.5768 133.048 21.8394 137.649 21.8394 137.649Z" fill="#EBE8F2"/>
<path d="M12.1451 126.464C12.3977 127.016 15.8458 137.613 15.6273 137.045C15.0517 135.546 11.5125 122.978 10.0611 121.376C5.91965 116.805 2.45454 110.741 1.3166 108.659C1.13993 108.336 0.676392 108.334 0.497817 108.657C-0.700914 110.819 1.14753 119.868 3.09665 123.32C5.46562 127.516 15.0289 133.854 16.8222 137.71C16.8412 137.748 12.128 126.424 12.1451 126.464Z" fill="#D0CAE1"/>
<path d="M191.349 104.936H86.1207C82.4238 104.936 79.426 101.938 79.426 98.241V37.461C79.426 33.7641 82.4238 30.7664 86.1207 30.7664H191.349C195.046 30.7664 198.043 33.7641 198.043 37.461V98.241C198.043 101.938 195.048 104.936 191.349 104.936Z" fill="#EBE8F2"/>
<path d="M136.824 46.8078H88.2331C86.5461 46.8078 85.1783 45.44 85.1783 43.753C85.1783 42.066 86.5461 40.6982 88.2331 40.6982H136.824C138.511 40.6982 139.879 42.066 139.879 43.753C139.879 45.4419 138.511 46.8078 136.824 46.8078Z" fill="white"/>
<path d="M101.478 59.063H87.5987C86.2631 59.063 85.1803 57.9801 85.1803 56.6446V54.2244H101.48C102.816 54.2244 103.898 55.3072 103.898 56.6427C103.896 57.9801 102.814 59.063 101.478 59.063Z" fill="white"/>
<path d="M124.518 59.063H110.639C109.303 59.063 108.22 57.9801 108.22 56.6446V54.2244H124.52C125.855 54.2244 126.938 55.3072 126.938 56.6427C126.936 57.9801 125.854 59.063 124.518 59.063Z" fill="white"/>
<path d="M101.478 69.8267H87.5987C86.2631 69.8267 85.1803 68.7439 85.1803 67.4084V64.99H101.48C102.816 64.99 103.898 66.0728 103.898 67.4084C103.896 68.7439 102.814 69.8267 101.478 69.8267Z" fill="white"/>
<path d="M124.518 69.8267H110.639C109.303 69.8267 108.22 68.7439 108.22 67.4084V64.99H124.52C125.855 64.99 126.938 66.0728 126.938 67.4084C126.936 68.7439 125.854 69.8267 124.518 69.8267Z" fill="white"/>
<path d="M101.478 80.5906H87.5987C86.2631 80.5906 85.1803 79.5078 85.1803 78.1723V75.7539H101.48C102.816 75.7539 103.898 76.8367 103.898 78.1723C103.896 79.5078 102.814 80.5906 101.478 80.5906Z" fill="white"/>
<path d="M124.518 80.5906H110.639C109.303 80.5906 108.22 79.5078 108.22 78.1723V75.7539H124.52C125.855 75.7539 126.938 76.8367 126.938 78.1723C126.936 79.5078 125.854 80.5906 124.518 80.5906Z" fill="white"/>
<path d="M168.379 56.8175L174.783 42.0262C172.821 41.1751 170.655 40.7002 168.379 40.7002C159.477 40.7002 152.262 47.9154 152.262 56.8175C152.262 65.7197 159.477 72.9348 168.379 72.9348C176.445 72.9348 183.129 67.0096 184.31 59.272L168.379 56.8175Z" fill="white"/>
<path d="M171.734 54.9728L177.737 40.3657C177.737 40.3657 181.886 40.6507 185.632 47.0053C189.379 53.3599 187.27 56.9447 187.27 56.9447L171.734 54.9728Z" fill="white"/>
<path d="M184.477 86.8922C186.138 86.8922 187.485 85.5458 187.485 83.885C187.485 82.2241 186.138 80.8777 184.477 80.8777C182.816 80.8777 181.47 82.2241 181.47 83.885C181.47 85.5458 182.816 86.8922 184.477 86.8922Z" fill="white"/>
<path d="M171.734 86.8922C173.395 86.8922 174.741 85.5458 174.741 83.885C174.741 82.2241 173.395 80.8777 171.734 80.8777C170.073 80.8777 168.727 82.2241 168.727 83.885C168.727 85.5458 170.073 86.8922 171.734 86.8922Z" fill="white"/>
<path d="M158.991 86.8922C160.651 86.8922 161.998 85.5458 161.998 83.885C161.998 82.2241 160.651 80.8777 158.991 80.8777C157.33 80.8777 155.983 82.2241 155.983 83.885C155.983 85.5458 157.33 86.8922 158.991 86.8922Z" fill="white"/>
<path d="M64.9595 159.536C64.5909 159.536 64.3193 159.206 64.4047 158.862L85.1346 113.753H90.0739L65.5028 159.155C65.4268 159.381 65.2064 159.536 64.9595 159.536Z" fill="#EBE8F2"/>
<path d="M197.407 159.536C197.775 159.536 198.047 159.206 197.962 158.862L186.73 113.753H181.791L196.862 159.154C196.938 159.38 197.158 159.536 197.407 159.536Z" fill="#EBE8F2"/>
<path d="M76.3578 161.436C75.9893 161.436 75.7176 161.092 75.8031 160.733L87.0343 113.753H91.9736L76.903 161.039C76.8251 161.274 76.6048 161.436 76.3578 161.436Z" fill="#D0CAE1"/>
<path d="M208.805 161.436C209.174 161.436 209.445 161.092 209.36 160.733L188.63 113.752H183.691L208.26 161.039C208.336 161.274 208.556 161.436 208.805 161.436Z" fill="#D0CAE1"/>
<path d="M218.95 114.341H54.8131C53.7644 114.341 52.9133 113.49 52.9133 112.442C52.9133 111.393 53.7644 110.542 54.8131 110.542H218.95C219.999 110.542 220.85 111.393 220.85 112.442C220.85 113.49 219.999 114.341 218.95 114.341Z" fill="#D0CAE1"/>
<path d="M110.015 159.473C126.541 159.473 139.938 157.92 139.938 156.004C139.938 154.088 126.541 152.535 110.015 152.535C93.4896 152.535 80.0928 154.088 80.0928 156.004C80.0928 157.92 93.4896 159.473 110.015 159.473Z" fill="#EBE8F2"/>
<path opacity="0.2" d="M118.426 158.073C121.973 158.073 124.849 157.546 124.849 156.895C124.849 156.245 121.973 155.718 118.426 155.718C114.878 155.718 112.003 156.245 112.003 156.895C112.003 157.546 114.878 158.073 118.426 158.073Z" fill="#11003B"/>
<path opacity="0.2" d="M117.107 157.699C119.437 157.699 121.326 157.411 121.326 157.055C121.326 156.699 119.437 156.411 117.107 156.411C114.777 156.411 112.888 156.699 112.888 157.055C112.888 157.411 114.777 157.699 117.107 157.699Z" fill="#11003B"/>
<path opacity="0.2" d="M91.1568 158.29C93.4871 158.29 95.3761 158.001 95.3761 157.646C95.3761 157.29 93.4871 157.002 91.1568 157.002C88.8265 157.002 86.9375 157.29 86.9375 157.646C86.9375 158.001 88.8265 158.29 91.1568 158.29Z" fill="#11003B"/>
<path opacity="0.2" d="M97.7222 154.431C100.053 154.431 101.942 154.143 101.942 153.787C101.942 153.432 100.053 153.143 97.7222 153.143C95.392 153.143 93.5029 153.432 93.5029 153.787C93.5029 154.143 95.392 154.431 97.7222 154.431Z" fill="#11003B"/>
<path opacity="0.2" d="M92.9046 158.521C96.4519 158.521 99.3276 157.994 99.3276 157.344C99.3276 156.693 96.4519 156.166 92.9046 156.166C89.3572 156.166 86.4816 156.693 86.4816 157.344C86.4816 157.994 89.3572 158.521 92.9046 158.521Z" fill="#11003B"/>
<path d="M100.152 130.13C100.156 129.448 100.591 128.84 101.239 128.631C102.758 128.141 105.711 127.808 109.104 127.808C112.496 127.808 115.447 128.141 116.968 128.631C117.616 128.84 118.053 129.448 118.055 130.13C118.059 131.008 117.348 131.722 116.469 131.722H101.736C100.859 131.724 100.146 131.01 100.152 130.13Z" fill="#FEC45A"/>
<path d="M107.146 140.976L110.704 140.976L110.704 134.391L107.146 134.391L107.146 140.976Z" fill="#EBE8F2"/>
<path d="M106.009 134.393H111.839C112.343 134.393 112.749 133.985 112.749 133.483V133.346C112.749 132.843 112.341 132.436 111.839 132.436H106.009C105.505 132.436 105.099 132.845 105.099 133.346V133.481C105.099 133.985 105.507 134.393 106.009 134.393Z" fill="#D0CAE1"/>
<path d="M106.255 146.315L111.593 146.315L111.593 140.977L106.255 140.977L106.255 146.315Z" fill="#D0CAE1"/>
<path d="M118.382 153.216C118.258 153.223 118.141 153.259 118.032 153.314C118.56 153.497 118.982 154.15 119.037 154.954C119.092 155.757 118.766 156.462 118.266 156.715C118.382 156.755 118.503 156.774 118.627 156.764C119.313 156.717 119.814 155.885 119.748 154.904C119.681 153.924 119.07 153.168 118.382 153.216Z" fill="#D0CAE1"/>
<path d="M118.257 156.712C118.747 156.678 119.091 155.89 119.027 154.951C118.962 154.012 118.513 153.278 118.023 153.312C117.533 153.346 117.188 154.134 117.253 155.073C117.317 156.012 117.767 156.746 118.257 156.712Z" fill="#D0CAE1"/>
<path d="M117.375 156.849C118.061 156.802 118.563 155.968 118.496 154.987C118.428 154.007 117.817 153.25 117.131 153.297C116.444 153.344 115.942 154.178 116.009 155.158C116.077 156.139 116.688 156.896 117.375 156.849Z" fill="#D0CAE1"/>
<path d="M112.453 148.1C117.062 148.586 120.844 150.001 122.706 151.869C122.548 148.297 116.44 145.425 108.923 145.425C108.9 145.425 108.878 145.425 108.855 145.425C107.282 145.428 105.771 145.558 104.364 145.793C99.0787 146.677 97.4468 149.017 97.3233 151.829C99.5479 149.598 102.327 148.05 108.167 147.923C108.169 147.923 108.169 147.923 108.171 147.923C112.54 150.096 117.271 152.723 118.051 154.853C119.717 151.648 115.853 150.486 112.453 148.1Z" fill="#EBE8F2"/>
<path d="M98.1592 153.787C99.0437 153.787 99.7607 153.07 99.7607 152.186C99.7607 151.301 99.0437 150.584 98.1592 150.584C97.2747 150.584 96.5577 151.301 96.5577 152.186C96.5577 153.07 97.2747 153.787 98.1592 153.787Z" fill="#D0CAE1"/>
<path d="M121.292 153.432C122.177 153.432 122.894 152.715 122.894 151.831C122.894 150.946 122.177 150.229 121.292 150.229C120.408 150.229 119.691 150.946 119.691 151.831C119.691 152.715 120.408 153.432 121.292 153.432Z" fill="#D0CAE1"/>
<path d="M100.817 130.47H117.443C117.987 130.47 118.426 130.909 118.426 131.452C118.426 131.995 117.987 132.434 117.443 132.434H100.817C100.274 132.434 99.8348 131.995 99.8348 131.452C99.8348 130.911 100.274 130.47 100.817 130.47Z" fill="#FBE5CA"/>
<path d="M108.678 85.6818C107.658 85.6818 106.712 85.127 105.935 84.2551V90.0853H111.461V84.2095C110.677 85.1099 109.715 85.6818 108.678 85.6818Z" fill="#FBE5CA"/>
<path d="M108.678 85.6817C109.717 85.6817 110.676 85.108 111.461 84.2095V82.4978H105.935V84.2551C106.712 85.1289 107.656 85.6817 108.678 85.6817Z" fill="#EACBA9"/>
<path d="M105.72 80.866C107.293 80.866 108.568 78.6767 108.568 75.9761C108.568 73.2755 107.293 71.0862 105.72 71.0862C104.147 71.0862 102.872 73.2755 102.872 75.9761C102.872 78.6767 104.147 80.866 105.72 80.866Z" fill="#11003B"/>
<path d="M109.406 79.1334C112.029 79.1334 114.155 77.0071 114.155 74.3841C114.155 71.7611 112.029 69.6348 109.406 69.6348C106.783 69.6348 104.656 71.7611 104.656 74.3841C104.656 77.0071 106.783 79.1334 109.406 79.1334Z" fill="#11003B"/>
<path d="M113.458 77.8416C113.458 81.2269 111.317 84.9219 108.678 84.9219C106.039 84.9219 103.898 81.2269 103.898 77.8416C103.898 74.4563 106.039 72.661 108.678 72.661C111.317 72.661 113.458 74.4563 113.458 77.8416Z" fill="#FBE5CA"/>
<path d="M103.801 80.5791C104.273 80.5791 104.656 79.9659 104.656 79.2094C104.656 78.453 104.273 77.8397 103.801 77.8397C103.329 77.8397 102.946 78.453 102.946 79.2094C102.946 79.9659 103.329 80.5791 103.801 80.5791Z" fill="#FBE5CA"/>
<path d="M113.348 80.5791C113.82 80.5791 114.202 79.9659 114.202 79.2094C114.202 78.453 113.82 77.8397 113.348 77.8397C112.875 77.8397 112.493 78.453 112.493 79.2094C112.493 79.9659 112.875 80.5791 113.348 80.5791Z" fill="#FBE5CA"/>
<path d="M128.114 84.4907C127.662 83.4117 125.758 83.0089 125.175 82.9614C125.175 82.9614 125.177 84.8859 124.421 84.922C123.627 84.9599 123.699 86.3543 124.018 87.2719C124.136 87.612 124.294 87.9159 124.474 88.1819L123.409 93.4897L126.454 94.1015L127.504 88.8734C127.556 88.7727 127.597 88.6625 127.626 88.5352C127.789 87.8323 128.433 85.2563 128.114 84.4907Z" fill="#FBE5CA"/>
<path d="M111.936 85.3456L110.044 88.4175C109.396 89.468 107.869 89.468 107.221 88.4175L105.329 85.3456L101.484 85.8376C98.8374 86.1758 95.9061 88.3586 95.9061 91.0258L94.9068 95.2888C94.8992 95.3401 94.8859 95.4237 94.8783 95.475L94.5687 100.057C94.5611 100.162 94.5459 100.264 94.5193 100.365L93.6492 103.834L90.2582 105.828C89.4945 106.757 89.2095 107.99 89.4869 109.161L90.4444 110.542H120.122L121.264 93.4574C120.411 88.4099 118.427 86.1758 115.781 85.8376L111.936 85.3456Z" fill="#11003B"/>
<path d="M124.98 90.8338C124.385 90.6857 123.832 90.4805 123.331 90.2335C122.529 91.8844 121.756 94.0444 121.15 96.457C119.742 102.069 119.786 106.915 121.243 107.282C122.702 107.646 125.023 103.393 126.431 97.7812C127.058 95.283 127.396 92.9387 127.451 91.0713C126.687 91.1226 125.842 91.0504 124.98 90.8338Z" fill="#11003B"/>
<path d="M94.6675 105.986C94.183 105.654 93.2446 105.758 92.6328 105.758C90.8718 105.758 89.162 106.653 90.1537 109.299C90.3323 109.776 91.1283 110.395 91.7913 110.54H92.2928C92.1408 110.162 92.0553 109.755 92.0553 109.332C92.0553 107.785 93.1477 106.474 94.6675 105.986Z" fill="#FBE5CA"/>
<path d="M97.0934 110.542C97.0934 109.934 97.7583 109.01 97.3043 108.142C96.8009 107.179 95.15 106.284 94.6694 105.956C93.1496 106.444 92.0572 107.755 92.0572 109.301C92.0572 109.727 92.1427 110.164 92.2928 110.542H97.0934Z" fill="#EACBA9"/>
<path d="M125.631 84.1221C125.339 84.1031 125.116 83.8485 125.135 83.556L125.32 80.7957C125.339 80.5031 125.593 80.2808 125.886 80.2998C126.178 80.3188 126.401 80.5734 126.382 80.866L126.197 83.6263C126.176 83.9207 125.924 84.1411 125.631 84.1221Z" fill="#FBE5CA"/>
<path d="M120.124 117.58C120.124 118.152 120.494 119.298 119.941 118.844C119.256 118.279 116.775 117.74 114.434 117.74C109.654 117.74 108.266 118.11 104.208 118.065C101.543 118.034 97.9312 118.88 96.6413 119.166C96.0961 119.288 96.2062 118.69 96.2062 118.131L96.8522 114.322H120.124V117.58Z" fill="#11003B"/>
<path d="M124.6 86.7837C124.328 86.8938 124.018 86.7628 123.908 86.4892L122.926 84.0575C122.816 83.7859 122.947 83.4762 123.22 83.366C123.492 83.2558 123.802 83.3869 123.912 83.6605L124.894 86.0921C125.002 86.3638 124.871 86.6735 124.6 86.7837Z" fill="#FBE5CA"/>
<path d="M93.6511 149.066C93.6511 149.066 92.9539 149.237 92.7886 149.503C92.6233 149.769 91.8254 151.114 91.7096 151.43C91.5937 151.745 90.0321 153.804 89.8174 153.969C89.6009 154.135 87.6764 154.955 87.2775 155.185C86.8785 155.415 86.4815 156.209 86.6126 156.941C86.7456 157.672 89.4679 158.069 90.7293 158.103C91.9907 158.138 94.6921 156.15 95.3665 155.617C96.041 155.083 95.9251 154.95 95.9251 154.95C95.9251 154.95 96.7875 154.817 97.0041 154.667C97.2207 154.517 96.4741 150.852 96.4399 150.52C96.4076 150.187 96.6375 149.066 96.6375 149.066H93.6511Z" fill="#FEC45A"/>
<path d="M124.474 88.1819C124.474 88.1819 125.257 88.7993 126.137 88.6663C127.016 88.5333 127.426 88.408 127.426 88.408C127.426 88.408 126.304 90.1386 125.474 90.0854C124.643 90.0303 124.474 88.1819 124.474 88.1819Z" fill="#EACBA9"/>
<path d="M125.439 85.4956C125.439 85.4956 126.353 86.5557 126.95 86.7152C127.546 86.8748 127.63 86.8748 127.63 86.8748C127.63 86.8748 127.231 87.6556 126.435 87.1731C125.639 86.6905 125.439 85.4956 125.439 85.4956Z" fill="#EACBA9"/>
<path d="M93.6511 148.686C93.6511 148.686 92.9539 148.857 92.7886 149.123C92.6233 149.389 91.8254 150.734 91.7096 151.05C91.5937 151.365 90.0321 153.424 89.8174 153.59C89.6009 153.755 87.6764 154.576 87.2775 154.805C86.8785 155.035 86.4815 155.829 86.6126 156.561C86.7456 157.292 89.4679 157.689 90.7293 157.723C91.9907 157.758 94.6921 155.77 95.3665 155.237C96.0409 154.703 95.9251 154.57 95.9251 154.57C95.9251 154.57 96.7875 154.437 97.0041 154.287C97.2207 154.137 97.3518 149.589 97.3195 149.256C97.2872 148.924 96.6394 148.686 96.6394 148.686H93.6511Z" fill="#FEC45A"/>
<path d="M95.0284 150.13C96.2014 150.13 97.1523 149.807 97.1523 149.408C97.1523 149.01 96.2014 148.686 95.0284 148.686C93.8554 148.686 92.9045 149.01 92.9045 149.408C92.9045 149.807 93.8554 150.13 95.0284 150.13Z" fill="#11003B"/>
<path d="M96.7799 149.518C96.7799 149.518 96.5748 149.824 95.1405 149.889C93.7062 149.953 93.501 149.518 93.501 149.518V145.031H96.7799V149.518Z" fill="#FBE5CA"/>
<path d="M119.569 146.093C119.569 146.093 120.266 146.264 120.432 146.53C120.597 146.796 121.172 150.047 121.571 150.275C121.97 150.504 124.161 155.313 124.028 156.044C123.895 156.775 121.97 156.773 120.707 156.808C119.444 156.842 116.429 151.842 116.214 151.692C115.998 151.542 116.258 149.213 116.292 148.88C116.326 148.548 116.579 146.091 116.579 146.091H119.569V146.093Z" fill="#FEC45A"/>
<path d="M119.569 145.713C119.569 145.713 120.266 145.884 120.432 146.15C120.597 146.416 121.172 149.667 121.571 149.895C121.97 150.125 124.161 154.933 124.028 155.664C123.895 156.396 121.97 156.394 120.707 156.428C119.444 156.462 116.429 151.462 116.214 151.312C115.998 151.162 115.867 146.614 115.899 146.281C115.931 145.949 116.579 145.711 116.579 145.711H119.569V145.713Z" fill="#FEC45A"/>
<path d="M118.19 147.155C119.363 147.155 120.314 146.832 120.314 146.433C120.314 146.035 119.363 145.711 118.19 145.711C117.017 145.711 116.066 146.035 116.066 146.433C116.066 146.832 117.017 147.155 118.19 147.155Z" fill="#11003B"/>
<path d="M116.438 146.544C116.438 146.544 116.644 146.849 118.078 146.914C119.512 146.979 119.717 146.544 119.717 146.544V142.056H116.438V146.544Z" fill="#FBE5CA"/>
<path d="M120.741 120.198C120.722 120.078 120.692 119.966 120.656 119.858H120.658C120.658 119.858 120.654 119.854 120.654 119.852C120.225 118.553 118.682 118.032 116.655 117.831C112.838 117.299 101.881 117.174 99.4928 117.791C98.1345 118.143 96.8369 118.918 95.9156 119.569C95.3988 119.886 94.9505 120.24 94.582 120.624C94.5763 120.629 94.5706 120.633 94.5706 120.633H94.5725C94.0045 121.231 93.6283 121.906 93.501 122.649C92.4809 125.348 91.7913 130.483 91.7913 136.38C91.7913 139.577 91.9945 142.552 92.3422 145.035C92.9919 144.944 93.672 144.895 94.3711 144.895C95.8168 144.895 97.177 145.104 98.37 145.47C99.8138 140.616 101.085 134.068 101.085 129.226C101.085 129.034 101.083 128.849 101.079 128.667C101.491 128.703 101.911 128.724 102.34 128.724C104.007 128.724 105.743 128.578 107.31 128.268C108.397 128.561 109.596 128.724 110.857 128.724C111.284 128.724 111.706 128.705 112.118 128.667C112.115 128.849 112.113 129.036 112.113 129.226C112.113 134.068 113.382 138.715 114.827 143.57C116.019 143.204 117.381 142.995 118.826 142.995C119.525 142.995 120.206 143.044 120.855 143.135C121.203 140.651 121.406 139.577 121.406 136.38C121.406 130.491 121.76 122.898 120.741 120.198Z" fill="#1F006E"/>
<path d="M120.946 144.948C120.946 144.948 119.945 144.798 117.8 144.887C115.656 144.976 114.67 145.206 114.67 145.206C114.094 145.229 113.61 144.783 113.585 144.207L113.551 143.371C113.528 142.795 113.974 142.311 114.55 142.286C114.55 142.286 115.745 142.047 117.757 141.963C119.769 141.88 120.825 142.028 120.825 142.028C121.4 142.005 121.885 142.452 121.91 143.027L121.944 143.863C121.97 144.439 121.522 144.923 120.946 144.948Z" fill="#EBE8F2"/>
<path d="M115.563 145.804C115.563 145.804 115.785 146.68 116.131 147.155C116.476 147.63 117.952 148.113 118.369 150.071C118.785 152.03 118.716 153.523 118.999 153.989C119.282 154.454 120.726 155.372 122.12 155.237C123.515 155.102 123.804 154.623 123.804 154.623C123.804 154.623 124.909 154.538 124.926 154.587C124.943 154.636 125.656 156.198 125.624 156.28C125.591 156.363 124.512 157.359 124.512 157.359H119.582L114.751 153.407L114.286 150.702L115.563 145.804Z" fill="#F39322"/>
<path d="M86.2725 154.634C86.2725 154.634 88.8049 155.997 90.2316 155.93C91.6583 155.864 93.7499 154.967 93.9835 154.634C94.2172 154.302 94.4604 152.281 95.5717 151.069C96.6831 149.857 97.5019 150.164 97.7336 149.893C97.9654 149.621 99.5764 152.911 99.5764 152.911L98.2978 157.389L94.3806 158.882L88.404 159.811L86.2706 158.1V154.634H86.2725Z" fill="#F39322"/>
<path d="M98.3187 146.804C98.3187 146.804 97.3537 146.5 95.2203 146.255C93.0869 146.01 92.0781 146.082 92.0781 146.082C91.5063 146.015 91.0959 145.499 91.1624 144.927L91.2593 144.095C91.3258 143.523 91.8425 143.113 92.4144 143.179C92.4144 143.179 93.6321 143.128 95.6325 143.36C97.6329 143.591 98.6531 143.901 98.6531 143.901C99.2249 143.967 99.6352 144.484 99.5687 145.056L99.4719 145.888C99.4073 146.46 98.8905 146.87 98.3187 146.804Z" fill="#EBE8F2"/>
<path d="M119.453 109.402H97.7166C97.2075 109.402 96.7857 109.054 96.761 108.612L95.9081 93.9364C95.8796 93.4614 96.3165 93.0625 96.8636 93.0625H120.306C120.853 93.0625 121.29 93.4614 121.262 93.9364L120.409 108.612C120.384 109.054 119.962 109.402 119.453 109.402Z" fill="#D0CAE1"/>
<path d="M108.537 102.943C109.429 102.943 110.152 102.22 110.152 101.328C110.152 100.436 109.429 99.7134 108.537 99.7134C107.646 99.7134 106.923 100.436 106.923 101.328C106.923 102.22 107.646 102.943 108.537 102.943Z" fill="#EBE8F2"/>
<path d="M119.841 110.542H97.4241C97.1087 110.542 96.8541 110.287 96.8541 109.972C96.8541 109.657 97.1087 109.402 97.4241 109.402H119.841C120.156 109.402 120.411 109.657 120.411 109.972C120.411 110.285 120.156 110.542 119.841 110.542Z" fill="#9F95C4"/>
<path d="M155.415 157.091C166.137 157.091 174.829 155.538 174.829 153.622C174.829 151.706 166.137 150.153 155.415 150.153C144.694 150.153 136.002 151.706 136.002 153.622C136.002 155.538 144.694 157.091 155.415 157.091Z" fill="#EBE8F2"/>
<path opacity="0.2" d="M156.494 156.685C160.042 156.685 162.917 156.157 162.917 155.507C162.917 154.856 160.042 154.329 156.494 154.329C152.947 154.329 150.071 154.856 150.071 155.507C150.071 156.157 152.947 156.685 156.494 156.685Z" fill="#11003B"/>
<path opacity="0.2" d="M154.291 156.795C156.621 156.795 158.51 156.506 158.51 156.151C158.51 155.795 156.621 155.507 154.291 155.507C151.96 155.507 150.071 155.795 150.071 156.151C150.071 156.506 151.96 156.795 154.291 156.795Z" fill="#11003B"/>
<path opacity="0.2" d="M167.68 154.251C168.995 154.251 170.06 153.969 170.06 153.622C170.06 153.275 168.995 152.993 167.68 152.993C166.365 152.993 165.3 153.275 165.3 153.622C165.3 153.969 166.365 154.251 167.68 154.251Z" fill="#11003B"/>
<path opacity="0.2" d="M144.423 153.639C145.738 153.639 146.804 153.358 146.804 153.01C146.804 152.663 145.738 152.382 144.423 152.382C143.109 152.382 142.043 152.663 142.043 153.01C142.043 153.358 143.109 153.639 144.423 153.639Z" fill="#11003B"/>
<path d="M146.859 130.32C146.863 129.638 147.298 129.03 147.946 128.821C149.465 128.331 152.418 127.999 155.81 127.999C159.203 127.999 162.154 128.331 163.675 128.821C164.323 129.03 164.76 129.638 164.762 130.32C164.766 131.198 164.055 131.912 163.176 131.912H148.443C147.566 131.914 146.855 131.2 146.859 130.32Z" fill="#D0CAE1"/>
<path d="M154.232 141.166L157.791 141.166L157.791 134.581L154.232 134.581L154.232 141.166Z" fill="#EBE8F2"/>
<path d="M153.098 134.583H158.928C159.431 134.583 159.838 134.175 159.838 133.673V133.536C159.838 133.033 159.429 132.626 158.928 132.626H153.098C152.594 132.626 152.188 133.035 152.188 133.536V133.671C152.186 134.175 152.594 134.583 153.098 134.583Z" fill="#D0CAE1"/>
<path d="M153.343 146.505L158.682 146.505L158.682 141.167L153.343 141.167L153.343 146.505Z" fill="#D0CAE1"/>
<path d="M154.684 152.942C154.56 152.94 154.441 152.963 154.327 153.008C154.836 153.238 155.197 153.926 155.18 154.732C155.163 155.537 154.773 156.21 154.255 156.417C154.367 156.468 154.485 156.496 154.608 156.498C155.296 156.514 155.869 155.729 155.89 154.745C155.913 153.765 155.372 152.957 154.684 152.942Z" fill="#D0CAE1"/>
<path d="M155.185 154.731C155.205 153.79 154.823 153.019 154.332 153.009C153.841 152.999 153.427 153.753 153.407 154.694C153.388 155.635 153.769 156.406 154.26 156.416C154.751 156.427 155.165 155.672 155.185 154.731Z" fill="#D0CAE1"/>
<path d="M154.653 154.72C154.673 153.737 154.132 152.928 153.444 152.914C152.756 152.899 152.181 153.684 152.161 154.667C152.14 155.65 152.681 156.459 153.369 156.473C154.057 156.488 154.632 155.703 154.653 154.72Z" fill="#D0CAE1"/>
<path d="M152.484 148.29C147.875 148.776 144.093 150.191 142.231 152.059C142.389 148.487 148.497 145.615 156.014 145.615C156.037 145.615 156.059 145.615 156.082 145.615C157.655 145.619 159.165 145.748 160.573 145.983C165.858 146.867 169.673 149.6 169.796 152.412C167.572 150.182 162.61 148.24 156.77 148.113C156.768 148.113 156.768 148.113 156.766 148.113C155.415 150.193 154.536 152.914 153.755 155.043C152.613 153.303 152.049 149.754 152.484 148.29Z" fill="#EBE8F2"/>
<path d="M168.379 153.977C169.264 153.977 169.981 153.26 169.981 152.376C169.981 151.491 169.264 150.774 168.379 150.774C167.495 150.774 166.778 151.491 166.778 152.376C166.778 153.26 167.495 153.977 168.379 153.977Z" fill="#D0CAE1"/>
<path d="M143.645 153.622C144.529 153.622 145.246 152.905 145.246 152.021C145.246 151.136 144.529 150.419 143.645 150.419C142.76 150.419 142.043 151.136 142.043 152.021C142.043 152.905 142.76 153.622 143.645 153.622Z" fill="#D0CAE1"/>
<path d="M147.524 130.66H164.15C164.694 130.66 165.132 131.099 165.132 131.642C165.132 132.186 164.694 132.624 164.15 132.624H147.524C146.98 132.624 146.542 132.186 146.542 131.642C146.542 131.101 146.982 130.66 147.524 130.66Z" fill="#EBE8F2"/>
<path d="M155.7 89.491C157.498 89.491 158.955 88.9943 158.955 88.3815C158.955 87.7688 157.498 87.2721 155.7 87.2721C153.903 87.2721 152.446 87.7688 152.446 88.3815C152.446 88.9943 153.903 89.491 155.7 89.491Z" fill="#11003B"/>
<path d="M157.815 83.6247C160.512 77.2644 162.138 73.33 155.48 72.6936C147.864 71.966 145.852 76.8768 146.734 81.6699C147.569 86.2083 149.342 86.4458 151.052 85.7011C152.372 85.1274 153.119 87.1905 153.367 88.8489C154.122 88.98 154.901 89.2004 155.698 89.2004C156.586 89.2004 157.448 88.9629 158.282 88.8034C157.9 88.0625 157.602 86.9568 157.625 86.1152C157.648 85.2585 157.478 84.4169 157.815 83.6247Z" fill="#FBE5CA"/>
<path d="M154.247 83.8203C152.657 85.4522 151.01 85.7371 150.974 85.7371C150.991 86.6889 151.91 87.1714 152.969 87.1714C154.038 87.1714 154.906 86.3887 154.906 85.4237C154.908 84.6885 154.961 84.0787 154.247 83.8203Z" fill="#EACBA9"/>
<path d="M155.7 87.0859C153.842 87.0859 152.336 87.6654 152.336 88.3816V92.409H159.065V88.3816C159.065 87.6673 157.558 87.0859 155.7 87.0859Z" fill="#F39322"/>
<path d="M147.15 110.542H164.591C165.009 108.83 165.041 103.754 165.539 100.825C167.074 91.7574 165.324 89.8577 162.133 89.8577C161.715 89.8577 161.308 89.9337 160.917 90.0799C160.501 90.2338 160.229 90.6442 158.727 90.8949H151.73C151.28 90.8949 150.837 90.8037 150.423 90.6499C150.032 90.5055 149.625 90.4276 149.207 90.4276C146.015 90.4276 145.195 92.5705 146.202 97.9923C147.058 102.633 146.882 108.519 147.15 110.542Z" fill="#F39322"/>
<path d="M157.45 103.112C158.736 102.445 159.659 102.221 160.319 102.647C160.442 102.726 160.537 102.842 160.592 102.979C160.704 103.255 160.847 103.836 160.74 104.871C160.529 106.891 159.861 110.542 159.861 110.542H156.014L155.425 105.399C155.146 104.86 156.052 103.836 157.45 103.112Z" fill="#CE741B"/>
<path d="M147.877 102.649C146.228 101.794 144.68 100.793 144.376 101.378C144.376 101.378 143.905 101.444 144.158 103.695C144.412 105.947 145.417 110.54 145.417 110.54H149.887L150.622 105.548C150.854 103.6 149.526 103.505 147.877 102.649Z" fill="#CE741B"/>
<path d="M158.33 102.626C159.728 101.9 161.086 101.75 161.365 102.288C161.365 102.288 161.776 102.787 161.62 104.385C161.422 106.406 160.74 110.462 160.74 110.462H156.893L156.304 104.911C156.025 104.375 156.931 103.351 158.33 102.626Z" fill="#F39322"/>
<path d="M147.3 101.214C145.651 100.359 144.045 100.181 143.717 100.815C143.717 100.815 143.234 100.903 143.417 103.291C143.599 105.679 144.467 110.54 144.467 110.54H149L149.69 103.912C150.018 103.277 148.949 102.071 147.3 101.214Z" fill="#F39322"/>
<path d="M165.051 121.068L150.47 121L152.446 117.997C152.587 116.967 151.403 114.338 151.403 114.338H163.786C163.786 114.338 162.87 115.797 163.772 118.278C164.65 120.688 165.051 121.068 165.051 121.068Z" fill="#F39322"/>
<path d="M166.046 124.328C166.738 129.463 160.936 129.241 155.182 129.241C149.427 129.241 146.547 132.482 145.128 127.489C143.77 122.712 152.573 119.391 158.328 119.391C164.082 119.391 165.423 119.701 166.046 124.328Z" fill="#F39322"/>
<path d="M153.001 69.5286C150.843 69.5286 148.884 70.3398 147.435 71.6582C147.104 71.9127 146.817 72.2186 146.587 72.5605C146.179 73.1628 145.941 73.879 145.941 74.6502C145.941 76.7741 147.742 78.4972 149.965 78.4972C150.979 78.4972 151.536 78.104 152.615 77.5435C155.575 76.0066 156.903 78.8012 156.903 80.2506C156.903 81.7001 155.674 82.8742 154.16 82.8742C153.029 82.8742 152.058 82.2188 151.639 81.286C152.112 82.9084 153.668 84.0995 155.514 84.0995C156.365 84.0995 157.154 83.8468 157.803 83.4156L157.83 83.446C159.804 82.0383 161.08 79.789 161.08 77.2529C161.078 72.9861 157.461 69.5286 153.001 69.5286Z" fill="#FEC45A"/>
<path d="M159.266 104.434C160.617 103.733 161.519 102.791 161.28 102.33C161.041 101.869 159.751 102.064 158.4 102.765C157.048 103.466 156.147 104.407 156.386 104.868C156.625 105.329 157.914 105.135 159.266 104.434Z" fill="#11003B"/>
<path d="M159.986 102.799C159.986 102.799 159.312 101.366 158.107 99.5425C157.558 98.7104 156.204 96.9398 155.527 96.3205C154.885 95.7316 153.791 94.9356 152.94 95.118C151.882 95.344 151.344 95.9273 150.845 96.4212C150.337 96.9246 150.172 97.7358 150.128 98.3912C150.085 99.0428 150.618 99.5976 151.27 99.552C151.604 99.5292 151.965 99.4456 152.273 99.2442C153.02 98.756 153.369 97.183 154.365 98.3133C154.69 98.6819 157.249 104.647 157.522 104.9C157.796 105.15 160.034 103.9 159.986 102.799Z" fill="#FBE5CA"/>
<path d="M153.973 94.5936C153.973 94.5936 156.177 96.784 154.726 98.678C153.276 100.57 153.048 99.9642 152.866 99.8293C152.684 99.6944 149.724 96.8201 150.742 95.6233C150.837 95.5131 153.352 94.0636 153.352 94.0636L153.973 94.5936Z" fill="#EACBA9"/>
<path d="M149.59 103.863C149.872 103.319 148.807 102.208 147.212 101.38C145.616 100.553 144.094 100.323 143.812 100.867C143.53 101.411 144.595 102.522 146.19 103.35C147.786 104.177 149.308 104.407 149.59 103.863Z" fill="#11003B"/>
<path d="M145.246 101.499C145.246 101.499 145.541 100.637 146.745 98.813C147.294 97.9809 148.648 96.2103 149.325 95.591C149.967 95.0021 151.061 94.2061 151.912 94.3885C152.97 94.6146 153.508 95.1978 154.008 95.6917C154.515 96.1951 154.68 97.0063 154.724 97.6617C154.768 98.3133 154.234 98.868 153.582 98.8225C153.248 98.7997 152.887 98.7161 152.579 98.5147C151.832 98.0265 151.483 96.4535 150.487 97.5838C150.163 97.9524 147.984 103.348 147.71 103.6C147.438 103.849 145.2 102.599 145.246 101.499Z" fill="#FBE5CA"/>
<path d="M151.843 99.9485C152.324 99.671 152.297 98.7249 151.783 97.8354C151.27 96.9459 150.464 96.4497 149.983 96.7273C149.503 97.0048 149.529 97.9508 150.043 98.8404C150.556 99.7299 151.362 100.226 151.843 99.9485Z" fill="#EACBA9"/>
<path d="M159.241 124.834C160.009 130.358 155.831 128.827 152.549 129.45C149.266 130.073 146.549 130.274 145.972 126.686C145.588 124.3 148.031 123.012 151.314 122.389C154.598 121.766 158.831 121.883 159.241 124.834Z" fill="#723A08"/>
<path d="M152.106 126.378C152.024 126.108 151.941 125.842 151.857 125.578C151.806 125.417 151.734 125.263 151.635 125.12C150.959 124.142 149.678 123.616 148.398 123.899C147.136 124.178 146.249 125.16 146.093 126.296C146.065 126.498 146.078 126.701 146.116 126.899C146.166 127.153 146.215 127.41 146.266 127.668C146.578 129.222 146.946 130.856 147.372 132.535C149.817 142.222 154.811 151.118 154.836 149.401C154.897 145.203 155.079 140.827 152.636 131.143C152.21 129.465 152.57 127.9 152.106 126.378Z" fill="#11003B"/>
<path d="M158.721 124.904C158.506 123.361 156.679 122.165 155.104 122.347C153.761 122.501 152.588 122.708 151.963 122.828C151.821 122.848 151.66 122.883 151.485 122.923H151.481C150.085 123.247 147.822 124.085 147.78 124.104C147.733 124.125 147.581 124.655 147.581 124.655C147.581 124.655 150.751 127.826 151.067 127.858C151.382 127.89 153.74 126.895 153.74 126.895L153.797 125.835L154.27 126.431C154.27 126.431 156.988 128.204 158.007 128.747C159.008 128.236 159.046 127.233 158.721 124.904Z" fill="#11003B"/>
<path opacity="0.2" d="M152.106 126.378C152.024 126.108 151.941 125.842 151.857 125.578C151.806 125.417 153.905 123.551 153.808 123.411C153.525 123.002 152.687 122.818 151.551 123.642C151.304 124.053 150.624 124.476 150.561 124.969C150.385 126.327 155.508 146.048 155.774 146.363C155.845 143.071 155.026 137.454 153.447 131.194C153.022 129.515 152.569 127.9 152.106 126.378Z" fill="#EBE8F2"/>
<path d="M155.478 145.311C155.21 143.335 153.489 134.216 153.489 134.216L147.801 135.689C147.801 135.689 150.998 144.029 152.003 146.175L153.075 148.584C153.075 148.584 153.274 149.418 153.252 149.621C153.229 149.825 152.533 153.383 152.311 153.459C152.089 153.535 150.651 154.188 150.552 155.049C150.506 155.455 154.237 156.166 155.195 154.422C155.645 153.601 156.008 150.892 156.008 150.892C156.008 150.892 155.66 149.232 155.888 149.032C156.116 148.833 157.138 152.42 157.138 152.42L157.625 152.309L155.478 145.311Z" fill="#F39322"/>
<path d="M157.868 125.346C157.79 125.063 157.71 124.784 157.63 124.507C157.581 124.338 157.509 124.174 157.41 124.024C156.795 123.097 155.647 122.535 154.422 122.615C154.277 122.624 154.133 122.643 153.987 122.67C152.625 122.928 151.639 123.929 151.43 125.111C151.394 125.32 151.399 125.531 151.433 125.74C151.477 126.006 151.521 126.274 151.566 126.545C151.844 128.173 152.18 129.885 152.573 131.644C154.84 141.798 159.851 151.246 159.954 149.407C160.148 145.953 159.333 133.605 157.556 129.249C156.876 127.579 158.309 126.942 157.868 125.346Z" fill="#11003B"/>
<path d="M160.681 144.589C160.414 142.613 159.017 133.409 159.017 133.409L153.005 134.965C153.005 134.965 156.202 143.305 157.207 145.451L158.278 147.86C158.278 147.86 158.478 148.694 158.455 148.897C158.432 149.101 158.575 151.614 158.489 152.144C158.451 152.374 157.737 154.547 158.046 155.284C158.204 155.661 160.201 155.748 161.158 154.004C161.608 153.183 161.403 150.166 161.403 150.166L160.681 144.589Z" fill="#F39322"/>
<path d="M161.869 120.212C163.345 120.723 163.548 120.377 164.215 121.061L164.445 121.068C164.445 121.068 164.099 120.688 163.347 118.28C162.57 115.798 163.358 114.339 163.358 114.339H159.236C159.236 114.339 159.059 115.417 158.882 116.752C158.704 118.088 160.075 119.592 161.869 120.212Z" fill="#CE741B"/>
<path d="M187.973 107.493L202.289 109.393L198.325 91.6053C198.249 91.2615 197.559 90.8435 197.061 90.9309L186.672 93.8508C186.062 93.999 185.431 94.0712 185.651 94.9261L187.118 106.822C187.215 107.215 187.568 107.493 187.973 107.493Z" fill="#EBE8F2"/>
<path d="M187.11 110.542H202.36C202.675 110.542 202.929 110.287 202.929 109.972C202.929 109.657 202.675 109.402 202.36 109.402H187.11C186.795 109.402 186.54 109.657 186.54 109.972C186.54 110.285 186.795 110.542 187.11 110.542Z" fill="#9F95C4"/>
<path d="M187.973 109.393H201.719L197.755 91.6058C197.679 91.262 197.405 90.9979 197.061 90.9314L184.772 93.8513C184.162 93.9995 183.531 94.0717 183.752 94.9265L187.118 108.722C187.215 109.116 187.568 109.393 187.973 109.393Z" fill="#D0CAE1"/>
<path d="M191.639 102.821C192.106 102.69 192.286 101.875 192.04 101.001C191.795 100.127 191.216 99.5259 190.749 99.6574C190.281 99.789 190.101 100.604 190.347 101.477C190.593 102.351 191.171 102.953 191.639 102.821Z" fill="#EBE8F2"/>
<path d="M202.291 110.542H217.369C217.685 110.542 217.939 110.287 217.939 109.972C217.939 109.657 217.685 109.402 217.369 109.402H202.291C201.976 109.402 201.721 109.657 201.721 109.972C201.721 110.285 201.976 110.542 202.291 110.542Z" fill="#EBE8F2"/>
<path d="M176.373 96.8181H171.99L170.596 110.475H178.231L176.373 96.8181Z" fill="#F39322"/>
<path d="M176.932 98.5431C175.376 98.5431 174.116 99.8045 174.116 101.358C174.116 102.912 175.378 104.174 176.932 104.174C178.486 104.174 179.747 102.912 179.747 101.358C179.747 99.8045 178.486 98.5431 176.932 98.5431ZM176.932 103.349C175.832 103.349 174.941 102.458 174.941 101.358C174.941 100.259 175.832 99.3676 176.932 99.3676C178.032 99.3676 178.923 100.259 178.923 101.358C178.923 102.458 178.03 103.349 176.932 103.349Z" fill="#F39322"/>
<path d="M176.527 97.9599H171.873L170.928 96.2197H176.307L176.527 97.9599Z" fill="#F39322"/>
<path d="M180.416 110.475H176.356L175.94 107.134H180.83L180.416 110.475Z" fill="#FEC45A"/>
<path d="M180.634 107.578C179.933 107.578 179.365 108.146 179.365 108.847C179.365 109.548 179.933 110.116 180.634 110.116C181.335 110.116 181.903 109.548 181.903 108.847C181.903 108.146 181.335 107.578 180.634 107.578ZM180.634 109.685C180.173 109.685 179.798 109.311 179.798 108.849C179.798 108.388 180.173 108.013 180.634 108.013C181.096 108.013 181.47 108.388 181.47 108.849C181.47 109.309 181.096 109.685 180.634 109.685Z" fill="#FEC45A"/>
<path d="M45.434 164.584C61.9599 164.584 75.3567 163.03 75.3567 161.115C75.3567 159.199 61.9599 157.646 45.434 157.646C28.9082 157.646 15.5114 159.199 15.5114 161.115C15.5114 163.03 28.9082 164.584 45.434 164.584Z" fill="#EBE8F2"/>
<path d="M32.5406 159.255C34.8709 159.255 36.7599 158.966 36.7599 158.611C36.7599 158.255 34.8709 157.967 32.5406 157.967C30.2103 157.967 28.3213 158.255 28.3213 158.611C28.3213 158.966 30.2103 159.255 32.5406 159.255Z" fill="#D0CAE1"/>
<path d="M52.5258 162.809C54.8561 162.809 56.7451 162.521 56.7451 162.165C56.7451 161.81 54.8561 161.521 52.5258 161.521C50.1956 161.521 48.3065 161.81 48.3065 162.165C48.3065 162.521 50.1956 162.809 52.5258 162.809Z" fill="#D0CAE1"/>
<path d="M65.7555 163.031C68.5212 163.031 70.7632 162.743 70.7632 162.387C70.7632 162.032 68.5212 161.743 65.7555 161.743C62.9898 161.743 60.7478 162.032 60.7478 162.387C60.7478 162.743 62.9898 163.031 65.7555 163.031Z" fill="#D0CAE1"/>
<path d="M57.1497 159.249C59.48 159.249 61.369 158.961 61.369 158.605C61.369 158.25 59.48 157.961 57.1497 157.961C54.8195 157.961 52.9304 158.25 52.9304 158.605C52.9304 158.961 54.8195 159.249 57.1497 159.249Z" fill="#D0CAE1"/>
<path d="M63.9812 152.769C63.9812 152.769 66.4376 154.315 68.0675 154.948C69.5968 155.541 71.7549 155.721 71.6295 156.909C71.5497 157.659 69.4429 158.626 66.8574 158.43C61.5153 158.028 60.9017 155.632 60.9017 155.632C60.9017 155.632 61.901 152.777 63.9812 152.769Z" fill="#EBE8F2"/>
<path d="M84.4887 109.402H70.5085C69.9443 109.402 69.5264 108.88 69.6499 108.331L73.8464 95.5303C73.9224 95.1864 74.1959 94.9223 74.5398 94.8558L88.3926 91.0431C89.0233 90.9234 89.5648 91.4952 89.4128 92.1183L85.3436 108.733C85.2467 109.125 84.8933 109.402 84.4887 109.402Z" fill="#EBE8F2"/>
<path d="M84.6084 110.542H58.0463C57.7309 110.542 57.4764 110.287 57.4764 109.972C57.4764 109.657 57.7309 109.402 58.0463 109.402H84.6103C84.9256 109.402 85.1802 109.657 85.1802 109.972C85.1783 110.285 84.9237 110.542 84.6084 110.542Z" fill="#9F95C4"/>
<path d="M83.7288 109.402H69.4124L72.7065 94.5804C72.7825 94.2365 73.0561 93.9724 73.3999 93.9059L87.5491 91.2026C88.1799 91.0829 88.9758 90.7581 88.5693 92.2779L84.5837 108.731C84.4868 109.125 84.1334 109.402 83.7288 109.402Z" fill="#9F95C4"/>
<path d="M84.6083 110.542H68.3333C68.018 110.542 67.7634 110.287 67.7634 109.972C67.7634 109.657 68.018 109.402 68.3333 109.402H84.6083C84.9237 109.402 85.1783 109.657 85.1783 109.972C85.1783 110.285 84.9237 110.542 84.6083 110.542Z" fill="#EBE8F2"/>
<path d="M53.6677 129.62C61.2393 128.432 67.0484 125.372 66.6426 122.786C66.2369 120.2 59.7699 119.067 52.1983 120.255C44.6267 121.443 38.8176 124.502 39.2234 127.088C39.6291 129.674 46.096 130.808 53.6677 129.62Z" fill="#11003B"/>
<path d="M63.9014 120.994C66.0822 121.131 67.1499 121.952 66.4375 133.323C65.7251 144.695 63.3827 153.802 61.2018 153.666C59.0209 153.529 57.8298 144.201 58.5403 132.829C59.2508 121.458 61.7205 120.859 63.9014 120.994Z" fill="#11003B"/>
<path d="M56.806 133.058C66.3531 131.56 73.7637 128.249 73.358 125.663C72.9522 123.077 64.8838 122.195 55.3366 123.693C45.7894 125.191 38.3788 128.502 38.7846 131.088C39.1903 133.674 47.2588 134.556 56.806 133.058Z" fill="#1F006E"/>
<path d="M63.9811 152.391C63.9811 152.391 66.4375 153.937 68.0675 154.57C69.5968 155.163 71.6333 155.907 71.5592 156.595C71.4794 157.345 69.441 158.246 66.8554 158.052C61.5134 157.649 60.8998 155.254 60.8998 155.254C60.8998 155.254 61.9009 152.399 63.9811 152.391Z" fill="#AAA4C1"/>
<path d="M55.5007 107.377C55.5007 107.377 56.4449 107.183 58.2268 106.551C60.0107 105.92 61.7072 106.066 61.7072 106.066C61.7072 106.066 65.2122 106.626 65.8448 107.63C66.4755 108.633 66.1411 110.453 66.1411 110.453C66.1411 110.453 63.2801 110.861 62.3892 110.861C61.4982 110.861 61.578 110.266 61.0897 110.23C60.5996 110.192 55.2937 111.64 54.9232 111.64C54.549 111.64 54.7199 108.154 55.5007 107.377Z" fill="#FBE5CA"/>
<path d="M40.4169 93.3397C40.4663 94.8367 39.7235 95.5795 39.7235 95.5795C39.7235 95.5795 36.6763 93.4309 36.6763 92.6482C36.6763 91.8655 36.5699 88.0337 36.5699 88.0337C40.6296 85.1367 31.3285 76.5784 38.3955 75.904C46.0116 75.1764 48.0234 80.0872 47.14 84.8802C46.3041 89.4187 44.5317 89.6561 42.8219 88.9114C41.116 88.1686 40.3656 91.8427 40.4169 93.3397Z" fill="#FBE5CA"/>
<path d="M33.6747 93.9629L37.003 86.3849C37.003 86.3849 37.3697 87.122 38.956 86.7249C40.5403 86.3279 39.1288 87.7774 39.4271 88.8659C39.7235 89.9564 38.312 96.7916 38.312 96.7916C38.312 96.7916 35.2648 95.838 33.6747 93.9629Z" fill="#EACBA9"/>
<path d="M47.7764 116.22C47.9778 116.325 47.9911 116.14 48.1887 116.178C48.6712 116.04 49.1803 115.878 49.7103 115.698C50.5614 115.409 51.4676 115.063 52.4118 114.676C53.6637 114.161 54.9821 113.564 56.3309 112.89C56.7849 112.179 57.0528 111.313 57.0528 110.376C57.0528 108.923 56.4107 107.637 55.4228 106.843C53.3635 107.603 50.9433 108.501 49.3171 109.128C48.3672 109.495 47.6852 109.769 47.5067 109.867C47.5864 107.852 47.3338 90.7389 40.7569 91.9339C38.4278 92.2663 36.0931 93.9875 34.8962 93.1725C34.5201 92.916 34.2674 92.5304 34.1344 92.063C29.0546 95.8986 28.3194 103.412 28.3194 111.566C28.3194 123.783 35.9696 133.686 45.4075 133.686C51.5835 133.686 56.9939 129.444 59.9955 123.088C55.0904 123.034 50.8673 120.559 47.7764 116.22Z" fill="#F39322"/>
<path d="M48.3824 116.123C48.3824 116.123 44.7502 117.565 43.4887 116.458C42.2254 115.35 38.1391 103.129 38.2873 101.697C38.2873 101.697 43.1924 115.12 44.1574 115.639C45.1244 116.161 48.3824 116.123 48.3824 116.123Z" fill="#B26212"/>
<path d="M61.7679 150.056L60.3716 153.82L63.2288 155.613L65.1229 150.634L61.7679 150.056Z" fill="#FBE5CA"/>
<path d="M65.9322 104.151C65.9854 104.497 66.0158 104.854 66.0158 105.219C66.0158 108.35 63.9317 110.888 61.3595 110.888C60.8979 110.888 60.4514 110.804 60.0297 110.652C60.6775 112.449 62.1403 113.705 63.8444 113.705C66.1468 113.705 68.0143 111.412 68.0143 108.583C68.0143 106.691 67.1765 105.038 65.9322 104.151Z" fill="#EACBA9"/>
<path d="M71.6067 124.193C69.5036 123.601 66.9637 123.665 63.869 134.63C63.13 137.248 62.5221 139.777 62.0529 142.115C61.3614 145.562 60.972 148.597 60.9112 150.911C61.8515 151.677 63.0636 152.14 64.3877 152.14C64.8094 152.14 65.2179 152.093 65.6111 152.004C66.7224 150.041 67.9174 147.368 69.0762 144.232C69.914 141.962 70.7328 139.446 71.4851 136.781C74.5797 125.816 73.7097 124.788 71.6067 124.193Z" fill="#1F006E"/>
<path d="M28.6461 106.041C28.6043 105.886 28.5587 105.73 28.5188 105.572C28.3669 107.498 28.3194 109.514 28.3194 111.57C28.3194 122.763 34.7424 132.015 43.0765 133.485C35.4776 127.883 29.9987 117.856 28.6461 106.041Z" fill="#B26212"/>
<path d="M47.556 138.278H43.7565V145.307H47.556V138.278Z" fill="#FBE5CA"/>
<path d="M48.8307 138.278H42.4818C41.9784 138.278 41.5718 137.87 41.5718 137.368V137.1C41.5718 136.597 41.9803 136.19 42.4818 136.19H48.8288C49.3322 136.19 49.7388 136.599 49.7388 137.1V137.368C49.7407 137.87 49.3322 138.278 48.8307 138.278Z" fill="#FEC45A"/>
<path d="M48.5059 145.307H42.8067V151.006H48.5059V145.307Z" fill="#FEC45A"/>
<path d="M53.5991 158.373C53.468 158.383 53.3426 158.419 53.2248 158.48C53.7891 158.675 54.2374 159.373 54.2982 160.229C54.3571 161.088 54.0075 161.84 53.4756 162.11C53.5991 162.154 53.7283 162.173 53.8594 162.163C54.5927 162.112 55.1284 161.223 55.0562 160.176C54.984 159.129 54.3305 158.322 53.5991 158.373Z" fill="#FEC45A"/>
<path d="M53.4674 162.105C53.9907 162.069 54.3591 161.227 54.2901 160.224C54.2212 159.221 53.741 158.438 53.2177 158.474C52.6943 158.51 52.326 159.352 52.3949 160.354C52.4639 161.357 52.944 162.141 53.4674 162.105Z" fill="#FEC45A"/>
<path d="M52.525 162.251C53.2577 162.2 53.7933 161.311 53.7213 160.264C53.6494 159.218 52.9971 158.41 52.2644 158.46C51.5317 158.511 50.9961 159.4 51.0681 160.447C51.1401 161.493 51.7924 162.301 52.525 162.251Z" fill="#FEC45A"/>
<path d="M49.4234 152.912C54.3437 153.43 58.3826 154.94 60.3716 156.935C60.2044 153.122 53.6826 150.056 45.6563 150.056C45.6316 150.056 45.6069 150.056 45.5822 150.056C43.9028 150.06 42.2899 150.199 40.7873 150.45C35.145 151.394 31.072 154.312 30.939 157.313C33.3137 154.933 38.6121 152.858 44.847 152.723C44.8489 152.723 44.8508 152.723 44.8508 152.723C49.5146 155.043 52.7651 157.849 53.599 160.123C54.8187 158.265 53.0538 155.459 49.4234 152.912Z" fill="#FBE5CA"/>
<path d="M32.4531 158.985C33.3974 158.985 34.1629 158.22 34.1629 157.275C34.1629 156.331 33.3974 155.566 32.4531 155.566C31.5089 155.566 30.7434 156.331 30.7434 157.275C30.7434 158.22 31.5089 158.985 32.4531 158.985Z" fill="#FEC45A"/>
<path d="M58.8594 158.605C59.8037 158.605 60.5692 157.84 60.5692 156.895C60.5692 155.951 59.8037 155.186 58.8594 155.186C57.9151 155.186 57.1496 155.951 57.1496 156.895C57.1496 157.84 57.9151 158.605 58.8594 158.605Z" fill="#FEC45A"/>
<path d="M55.0238 133.726C55.02 132.999 54.5546 132.349 53.8631 132.127C52.2388 131.602 49.0891 131.247 45.4663 131.247C41.8435 131.247 38.6937 131.602 37.0695 132.127C36.378 132.351 35.9125 132.999 35.9087 133.726C35.9049 134.665 36.6629 135.426 37.6014 135.426H53.3293C54.2678 135.428 55.0276 134.665 55.0238 133.726Z" fill="#FEC45A"/>
<path d="M28.0477 115.728C28.5606 115.726 29.0184 115.415 29.1742 114.951C29.5427 113.865 29.7935 111.758 29.7935 109.334C29.7935 106.912 29.5427 104.803 29.1742 103.716C29.0165 103.253 28.5587 102.941 28.0477 102.939C27.3865 102.937 26.8489 103.445 26.8489 104.071V114.592C26.8489 115.223 27.3865 115.732 28.0477 115.728Z" fill="#FEC45A"/>
<path d="M54.9099 134.099H36.6725C27.4455 132.596 28.0705 111.444 28.0705 105.755C28.0705 105.551 28.0762 105.348 28.0857 105.147V103.33C28.0857 102.048 26.2277 101.904 26.0169 103.171C25.8782 104.007 25.806 104.871 25.806 105.755C25.806 112.694 23.9063 135.113 36.0418 136.184C36.0798 136.184 36.112 136.183 36.1481 136.183C36.1842 136.186 36.2203 136.188 36.2545 136.188H54.9118C55.4152 136.188 55.8218 135.78 55.8218 135.278V135.01C55.8199 134.505 55.4114 134.099 54.9099 134.099Z" fill="#FBE5CA"/>
<path d="M60.2025 153.166C60.2025 153.166 58.1546 155.205 58.0045 156.059C57.8545 156.914 58.9715 157.422 58.9715 157.422C58.9715 157.422 65.2178 162.53 66.559 162.65C67.6514 162.746 71.3805 162.319 71.0234 161.24C70.3889 159.321 66.7224 159.506 66.7224 159.506L64.437 154.849C64.437 154.849 63.1699 155.469 61.8496 154.726C60.5312 153.983 60.2025 153.166 60.2025 153.166Z" fill="#F9F9F9"/>
<path d="M60.5825 152.596C60.5825 152.596 58.5345 154.635 58.3845 155.489C58.2344 156.344 59.3514 156.852 59.3514 156.852C59.3514 156.852 65.5977 161.96 66.939 162.08C68.0313 162.177 71.3919 161.662 70.9417 160.993C69.8133 159.316 67.1023 158.937 67.1023 158.937L64.817 154.281C64.817 154.281 63.5498 154.901 62.2295 154.158C60.9111 153.413 60.5825 152.596 60.5825 152.596Z" fill="#D0CAE1"/>
<path d="M46.0971 77.9748C44.7293 75.8813 42.2426 74.4812 39.4006 74.4812C35.0844 74.4812 31.5851 77.7107 31.5851 81.6945C31.5851 82.2815 31.6611 82.8495 31.8036 83.3966C32.6983 86.8086 35.9868 88.6038 39.1232 88.1574C40.4226 87.9731 41.6708 85.6269 41.6708 84.8138C41.6708 83.9894 42.216 83.3207 42.8904 83.3207C43.5648 83.3207 44.11 83.9894 44.11 84.8138C44.11 84.8537 44.1081 84.8917 44.1043 84.9316C45.5158 83.1193 46.327 81.0106 46.327 78.7575V78.7499C46.3251 78.4725 46.2472 78.2047 46.0971 77.9748Z" fill="#1F006E"/>
<path d="M31.8377 79.8689C31.6725 80.4521 31.5851 81.0619 31.5851 81.6926C31.5851 82.2797 31.6611 82.8477 31.8036 83.3948C32.6983 86.8067 35.9868 88.602 39.1232 88.1555C39.3588 88.1213 39.5925 88.0168 39.8185 87.863C35.8519 86.5939 32.8123 83.5886 31.8377 79.8689Z" fill="#11003B"/>
<path d="M30.7492 83.2066C32.473 83.2066 33.8704 81.8092 33.8704 80.0854C33.8704 78.3615 32.473 76.9641 30.7492 76.9641C29.0254 76.9641 27.6279 78.3615 27.6279 80.0854C27.6279 81.8092 29.0254 83.2066 30.7492 83.2066Z" fill="#1F006E"/>
<path d="M31.4426 81.4797C29.7195 81.4797 28.3213 80.0834 28.3213 78.3584C28.3213 78.2748 28.327 78.1913 28.3346 78.1077C27.8939 78.6453 27.6279 79.3349 27.6279 80.0853C27.6279 81.8083 29.0242 83.2066 30.7492 83.2066C32.3887 83.2066 33.7299 81.9432 33.8572 80.3361C33.2834 81.0333 32.4153 81.4797 31.4426 81.4797Z" fill="#11003B"/>
<path d="M43.0233 86.2233C43.0252 86.2404 43.0271 86.2594 43.0271 86.2765C43.0271 86.3088 43.0214 86.3411 43.0138 86.3696C43.4261 86.5159 43.7243 86.9072 43.7243 87.3708C43.7243 87.9578 43.2494 88.4327 42.6624 88.4327C42.0753 88.4327 41.6004 87.9578 41.6004 87.3708C41.6004 86.8445 41.9823 86.4095 42.4838 86.324C42.4819 86.3088 42.48 86.2917 42.48 86.2746C42.48 86.2347 42.4876 86.1967 42.4971 86.1606C41.7752 86.2138 41.2034 86.816 41.2034 87.5531C41.2034 88.3244 41.8284 88.9494 42.5997 88.9494C43.371 88.9494 43.996 88.3244 43.996 87.5531C43.9998 86.93 43.5894 86.4019 43.0233 86.2233Z" fill="#F39322"/>
<path d="M224.112 165.277C240.637 165.277 254.034 163.724 254.034 161.808C254.034 159.892 240.637 158.339 224.112 158.339C207.586 158.339 194.189 159.892 194.189 161.808C194.189 163.724 207.586 165.277 224.112 165.277Z" fill="#EBE8F2"/>
<path opacity="0.2" d="M203.281 163.444C207.999 163.444 211.824 162.916 211.824 162.266C211.824 161.615 207.999 161.088 203.281 161.088C198.563 161.088 194.738 161.615 194.738 162.266C194.738 162.916 198.563 163.444 203.281 163.444Z" fill="#11003B"/>
<path opacity="0.2" d="M240.782 164.521C243.112 164.521 245.001 164.233 245.001 163.877C245.001 163.521 243.112 163.233 240.782 163.233C238.451 163.233 236.562 163.521 236.562 163.877C236.562 164.233 238.451 164.521 240.782 164.521Z" fill="#11003B"/>
<path opacity="0.2" d="M245.727 161.012C248.057 161.012 249.946 160.724 249.946 160.368C249.946 160.012 248.057 159.724 245.727 159.724C243.396 159.724 241.507 160.012 241.507 160.368C241.507 160.724 243.396 161.012 245.727 161.012Z" fill="#11003B"/>
<path opacity="0.2" d="M219.917 161.246C222.247 161.246 224.136 160.957 224.136 160.602C224.136 160.246 222.247 159.958 219.917 159.958C217.587 159.958 215.698 160.246 215.698 160.602C215.698 160.957 217.587 161.246 219.917 161.246Z" fill="#11003B"/>
<path d="M241.526 115.481C241.631 116.486 241.686 117.518 241.686 118.572C241.686 128.477 236.843 136.507 230.871 136.507C229.906 136.507 228.969 136.297 228.078 135.903C229.423 136.961 232.13 137.74 233.698 137.74C239.67 137.74 244.513 129.199 244.513 118.661C244.513 117.645 244.467 116.648 244.38 115.673L241.526 115.481Z" fill="#FBE5CA"/>
<path d="M224.448 135.725C224.452 134.997 224.917 134.347 225.609 134.125C227.233 133.601 230.383 133.246 234.005 133.246C237.626 133.246 240.778 133.601 242.402 134.125C243.094 134.349 243.559 134.997 243.563 135.725C243.567 136.663 242.809 137.425 241.87 137.425H226.142C225.204 137.425 224.444 136.663 224.448 135.725Z" fill="#FEC45A"/>
<path d="M231.916 147.305L235.715 147.305L235.715 140.276L231.916 140.276L231.916 147.305Z" fill="#FBE5CA"/>
<path d="M230.641 140.275H236.988C237.491 140.275 237.898 139.866 237.898 139.365V139.097C237.898 138.593 237.489 138.187 236.988 138.187H230.641C230.137 138.187 229.731 138.595 229.731 139.097V139.365C229.731 139.868 230.139 140.275 230.641 140.275Z" fill="#FEC45A"/>
<path d="M230.966 153.004L236.665 153.004L236.665 147.305L230.966 147.305L230.966 153.004Z" fill="#FEC45A"/>
<path d="M241.758 160.372C241.627 160.381 241.502 160.418 241.384 160.478C241.948 160.674 242.396 161.371 242.457 162.228C242.516 163.087 242.167 163.839 241.635 164.109C241.758 164.152 241.887 164.171 242.018 164.162C242.752 164.111 243.287 163.222 243.215 162.175C243.143 161.128 242.49 160.321 241.758 160.372Z" fill="#FEC45A"/>
<path d="M241.619 164.109C242.142 164.073 242.51 163.231 242.441 162.229C242.372 161.226 241.892 160.442 241.369 160.478C240.845 160.514 240.477 161.356 240.546 162.359C240.615 163.362 241.095 164.145 241.619 164.109Z" fill="#FEC45A"/>
<path d="M240.676 164.254C241.409 164.203 241.944 163.314 241.872 162.267C241.8 161.221 241.148 160.413 240.415 160.463C239.683 160.514 239.147 161.403 239.219 162.45C239.291 163.496 239.943 164.304 240.676 164.254Z" fill="#FEC45A"/>
<path d="M237.582 154.908C242.503 155.427 246.542 156.937 248.531 158.932C248.363 155.119 241.842 152.053 233.815 152.053C233.791 152.053 233.766 152.053 233.741 152.053C232.062 152.057 230.449 152.195 228.946 152.446C223.304 153.39 219.231 156.308 219.098 159.31C221.473 156.93 226.771 154.855 233.006 154.72C233.008 154.72 233.01 154.72 233.01 154.72C237.674 157.04 240.924 159.846 241.758 162.12C242.978 160.264 241.213 157.456 237.582 154.908Z" fill="#FBE5CA"/>
<path d="M220.612 160.982C221.556 160.982 222.322 160.216 222.322 159.272C222.322 158.328 221.556 157.562 220.612 157.562C219.668 157.562 218.902 158.328 218.902 159.272C218.902 160.216 219.668 160.982 220.612 160.982Z" fill="#FEC45A"/>
<path d="M247.018 160.602C247.963 160.602 248.728 159.836 248.728 158.892C248.728 157.948 247.963 157.182 247.018 157.182C246.074 157.182 245.309 157.948 245.309 158.892C245.309 159.836 246.074 160.602 247.018 160.602Z" fill="#FEC45A"/>
<path d="M225.16 136.088H242.911C243.491 136.088 243.96 136.557 243.96 137.136C243.96 137.716 243.491 138.185 242.911 138.185H225.16C224.581 138.185 224.112 137.716 224.112 137.136C224.112 136.557 224.581 136.088 225.16 136.088Z" fill="#FBE5CA"/>
<path d="M246.183 116.986L241.006 116.933C239.019 117.058 237.355 116.163 237.239 113.996L237.077 110.781C236.961 108.614 238.437 105.998 240.426 105.87L245.552 105.164C247.539 105.038 249.245 106.691 249.361 108.859L249.574 112.831C249.688 115.001 248.17 116.86 246.183 116.986Z" fill="#FEC45A"/>
<path d="M223.096 147.531L220.536 148.774L222.62 153.067L225.18 151.824L223.096 147.531Z" fill="#EBE8F2"/>
<path d="M220.836 150.598C222.78 149.46 224.431 148.96 224.489 148.943C224.081 147.133 220.481 139.235 219.168 135.394C217.023 129.119 213.758 129.685 211.883 130.789C210.01 131.893 210.562 134.266 215.433 142.556C216.651 144.629 218.669 147.775 220.836 150.598Z" fill="#11003B"/>
<path d="M225.548 150.419L226.817 153.016C227.001 153.394 226.853 153.85 226.48 154.046C225.137 154.747 222.221 156.297 221.982 156.658C221.67 157.129 219.641 159.505 218.95 159.655C215.595 160.381 214.261 160.32 215.293 159.249C217.206 157.264 219.047 154.659 219.265 154.201C219.484 153.743 220.149 152.75 220.242 152.404C220.335 152.06 220.548 151.224 220.813 151.091C221.079 150.958 221.325 151.682 221.325 151.682C221.325 151.682 222.071 152.949 225.548 150.419Z" fill="#11003B"/>
<path d="M222.12 77.2566C222.12 77.2566 223.838 85.0208 225.515 87.3708C227.191 89.7207 219.782 90.4711 219.782 90.4711C219.782 90.4711 219.539 86.3924 217.84 86.3905C216.142 86.3905 215.73 87.7298 213.583 85.9327C211.436 84.1355 211.358 77.325 211.358 77.325L222.12 77.2566Z" fill="#FBE5CA"/>
<path d="M239.516 125.54H224.524V117.639H238.528L239.516 125.54Z" fill="#EACBA9"/>
<path d="M240.232 124.881H224.134L224.334 120.743H239.14L240.232 124.881Z" fill="#1F006E"/>
<path d="M217.668 103.691L211.613 99.7342C211.469 99.6411 211.334 99.5367 211.205 99.4227L209.05 97.5001L209.882 93.6532L210.145 94.2649C210.602 95.3383 211.431 96.2102 212.479 96.7251L219.968 100.405L217.668 103.691Z" fill="#EACBA9"/>
<path d="M210.447 96.7954C209.928 98.1518 210.893 98.2126 209.151 97.5458C207.409 96.879 205.424 95.8912 204.93 94.8805C203.108 91.1437 206.533 93.2543 208.275 93.9211C210.015 94.586 210.965 95.439 210.447 96.7954Z" fill="#EACBA9"/>
<path d="M209.996 94.9584L209.913 94.9926C209.713 95.0743 209.485 94.9774 209.404 94.7779L208.729 93.1195C208.648 92.92 208.744 92.692 208.944 92.6103L209.028 92.5761C209.227 92.4944 209.455 92.5913 209.537 92.7908L210.211 94.4493C210.293 94.6487 210.196 94.8767 209.996 94.9584Z" fill="#EACBA9"/>
<path d="M225.464 86.9187C225.067 87.88 223.79 88.5848 222.274 88.5848C222.138 88.5848 222.003 88.5772 221.872 88.5658C220.519 89.926 219.026 91.706 218.376 92.2683L223.382 107.409C223.695 108.885 223.559 122.069 223.559 122.069C229.317 119.871 239.138 122.014 240.232 122.069C240.025 118.855 233.426 89.0654 225.464 86.9187Z" fill="#D0CAE1"/>
<path d="M218.07 109.252C218.07 109.252 215.865 109.457 213.298 109.74C212.128 109.869 208.389 109.518 207.339 109.316C206.343 109.127 204.453 108.72 203.893 107.688C203.144 106.307 203.043 105.194 203.862 104.615C204.894 103.883 206.415 104.17 207.004 104.799C207.867 105.72 206.744 106.155 208.498 106.258C209.071 106.292 216.549 103.834 216.974 103.914C217.398 103.993 219.168 108.327 218.07 109.252Z" fill="#FBE5CA"/>
<path d="M224.489 96.6092C222.964 109.653 218.598 109.231 216.853 109.356C211.484 109.74 217.096 103.691 217.89 100.038C219.064 94.6297 219.307 95.0153 221.057 95.0153C222.804 95.0134 224.812 93.8527 224.489 96.6092Z" fill="#FBE5CA"/>
<path d="M208.892 105.18C208.95 104.575 208.373 104.024 207.605 103.951C206.836 103.877 206.166 104.309 206.108 104.915C206.05 105.521 206.626 106.071 207.395 106.145C208.164 106.218 208.834 105.786 208.892 105.18Z" fill="#EACBA9"/>
<path d="M222.787 97.9618C223.832 98.0739 224.833 98.2733 225.776 98.5412C226.167 97.3368 226.458 95.9899 226.613 94.5556C227.204 89.0634 225.582 87.9958 222.987 87.7165C220.392 87.4373 217.81 88.0528 217.219 93.5449C217.039 95.2205 217.065 96.82 217.263 98.2429C218.929 97.8649 220.815 97.7509 222.787 97.9618Z" fill="#EBE8F2"/>
<path d="M232.955 129.577C232.981 131.441 231.632 134.017 228.34 133.143C224.619 132.155 220.3 136.485 217.899 136.521C211.301 136.618 209.105 132.86 209.062 129.93C209.018 127.001 214.381 125.259 220.931 124.448C231.868 123.091 232.911 126.646 232.955 129.577Z" fill="#11003B"/>
<path d="M227.913 123.456C225.354 123.456 220.439 124.157 221.06 127.087C221.043 127.246 221.03 127.408 221.03 127.571C221.03 131.203 225.451 134.146 230.905 134.146C236.359 134.146 240.78 131.201 240.78 127.571C240.78 127.077 240.208 124.691 240.052 124.229C236.961 125.065 232.768 123.456 227.913 123.456Z" fill="#1F006E"/>
<path d="M231.942 127.381C232.447 129.176 233.327 133.846 229.919 133.846C226.068 133.846 224.189 135.075 221.875 135.725C215.523 137.512 209.73 136.673 208.936 133.852C208.142 131.03 212.88 127.972 219.001 125.508C229.227 121.393 231.148 124.56 231.942 127.381Z" fill="#1F006E"/>
<path d="M209.185 154.595L206.224 154.141L205.463 159.108L208.424 159.562L209.185 154.595Z" fill="#EBE8F2"/>
<path d="M205.391 155.887C207.755 156.061 209.485 156.616 209.546 156.637C210.274 154.823 211.877 145.828 213.036 141.713C214.93 134.991 213.763 130.263 211.48 130.1C209.196 129.936 206.254 135.588 205.517 145.685C205.332 148.21 205.201 152.144 205.391 155.887Z" fill="#1F006E"/>
<path d="M209.582 158.548L209.13 161.557C209.064 161.996 208.663 162.302 208.222 162.247C206.638 162.051 203.186 161.65 202.762 161.821C202.209 162.042 199.031 162.889 198.341 162.606C195 161.229 193.879 160.379 195.414 160.068C198.26 159.49 201.411 158.333 201.875 158.069C202.338 157.803 203.509 157.34 203.796 157.097C204.082 156.854 204.766 156.257 205.076 156.301C205.386 156.344 205.165 157.118 205.165 157.118C205.165 157.118 205.055 158.662 209.582 158.548Z" fill="#11003B"/>
<path d="M218.919 77.4864C218.912 77.4579 218.902 77.4313 218.893 77.4047C218.902 77.4313 218.91 77.4598 218.919 77.4864Z" fill="#F39322"/>
<path d="M209.407 74.6065L210.076 77.8759L210.103 77.8778C210.253 78.7308 211.647 79.6256 214.542 79.1715C216.273 78.8999 217.54 78.6472 218.038 82.498C218.074 82.4885 218.895 82.6974 218.403 80.7103C218.425 79.9637 218.944 79.428 219.575 79.3672C220.523 79.2741 220.958 80.0245 221.721 80.8547C223.266 82.5322 223.8 83.4326 223.148 80.3741C222.312 76.4416 222.149 73.8086 219.831 72.6403C216.607 72.4237 211.414 74.5647 210.616 74.6141C209.82 74.6635 209.407 74.6065 209.407 74.6065Z" fill="#F39322"/>
<path d="M212.582 84.8005C212.519 84.4794 213.733 84.2476 213.933 84.3141C214.132 84.3806 214.552 84.7568 214.641 84.6903C214.73 84.6238 217.631 81.6621 217.751 80.9858C217.871 80.3095 218.378 80.8395 218.378 80.8395C218.378 80.8395 218.781 82.5873 218.758 82.9197C218.735 83.2522 219.164 85.4426 218.895 85.7313C218.625 86.0182 218.102 86.4266 218.102 86.4266C218.102 86.4266 216.146 87.9882 215.481 88.2542C214.816 88.5201 213.334 88.6075 212.582 84.8005Z" fill="#F39322"/>
<path d="M208.509 95.3326L206.005 95.5188C205.76 95.5378 205.547 95.3535 205.53 95.1085L205.127 89.6695C205.108 89.4245 205.293 89.2117 205.538 89.1946L208.042 89.0084C208.287 88.9894 208.499 89.1737 208.516 89.4188L208.919 94.8577C208.938 95.1028 208.754 95.3155 208.509 95.3326Z" fill="#EBE8F2"/>
<path d="M208.477 94.9488L205.982 95.1331C205.792 95.1464 205.629 95.0058 205.614 94.8158L205.232 89.6619C205.218 89.4719 205.359 89.3085 205.549 89.2933L208.043 89.109C208.233 89.0957 208.397 89.2363 208.412 91.1361L208.794 96.29C208.807 94.7683 208.665 94.9336 208.477 94.9488Z" fill="#D0CAE1"/>
<path d="M139.667 110.542H129.666L129.134 101.586H140.198L139.667 110.542Z" fill="#FBE5CA"/>
<path d="M140.491 101.587H128.842L128.576 99.5842H140.757L140.491 101.587Z" fill="#FEC45A"/>
<path d="M131.558 99.5604L131.815 99.5604L131.815 93.922L131.558 93.922L131.558 99.5604Z" fill="#EBE8F2"/>
<path d="M129.869 97.6979L130.05 97.506L131.756 99.3145L131.574 99.5064L129.869 97.6979Z" fill="#EBE8F2"/>
<path d="M130.331 93.8242L130.512 93.6323L131.756 94.9507L131.574 95.1426L130.331 93.8242Z" fill="#EBE8F2"/>
<path d="M131.741 97.9942L131.56 97.8023L133.264 95.9938L133.445 96.1856L131.741 97.9942Z" fill="#EBE8F2"/>
<path d="M129.949 93.6457C130.227 94.056 130.462 94.0636 130.648 93.9212C130.835 93.7787 130.903 93.5393 130.626 93.1309C130.348 92.7224 129.431 92.124 129.431 92.124C129.431 92.124 129.672 93.2354 129.949 93.6457Z" fill="#EBE8F2"/>
<path d="M130.284 94.6145C130.759 94.5936 130.895 94.3903 130.886 94.1472C130.876 93.904 130.726 93.7121 130.249 93.733C129.775 93.7539 128.8 94.2383 128.8 94.2383C128.8 94.2383 129.809 94.6354 130.284 94.6145Z" fill="#EBE8F2"/>
<path d="M131.232 93.7197C131.359 94.1092 131.574 94.1623 131.792 94.0826C132.01 94.0028 132.147 93.8204 132.02 93.431C131.893 93.0415 131.232 92.3728 131.232 92.3728C131.232 92.3728 131.102 93.3284 131.232 93.7197Z" fill="#EBE8F2"/>
<path d="M131.555 93.279C131.277 93.5677 131.323 93.7957 131.484 93.9705C131.646 94.1453 131.86 94.1985 132.138 93.9097C132.415 93.6209 132.704 92.7034 132.704 92.7034C132.704 92.7034 131.832 92.9902 131.555 93.279Z" fill="#EBE8F2"/>
<path d="M133.224 95.5948C132.947 95.8835 132.993 96.1115 133.154 96.2863C133.316 96.4611 133.53 96.5143 133.808 96.2255C134.085 95.9367 134.374 95.0192 134.374 95.0192C134.374 95.0192 133.502 95.306 133.224 95.5948Z" fill="#EBE8F2"/>
<path d="M133.817 95.7487C133.382 95.5245 133.171 95.6328 133.069 95.8531C132.968 96.0716 133.015 96.3186 133.45 96.5427C133.886 96.7669 134.972 96.8391 134.972 96.8391C134.972 96.8391 134.25 95.9747 133.817 95.7487Z" fill="#EBE8F2"/>
<path d="M129.831 98.1861C130.219 98.2279 130.354 98.0436 130.379 97.8023C130.403 97.561 130.305 97.3502 129.917 97.3084C129.529 97.2666 128.68 97.618 128.68 97.618C128.68 97.618 129.444 98.1424 129.831 98.1861Z" fill="#EBE8F2"/>
<path d="M129.566 97.6028C129.68 98.1005 129.896 98.2031 130.118 98.1461C130.343 98.0891 130.489 97.8916 130.375 97.3938C130.261 96.8961 129.619 95.9614 129.619 95.9614C129.619 95.9614 129.452 97.1051 129.566 97.6028Z" fill="#EBE8F2"/>
<path d="M136.295 99.5647L136.692 99.5647L136.692 89.8058L136.295 89.8058L136.295 99.5647Z" fill="#D0CAE1"/>
<path d="M136.32 91.5911L136.6 91.3103L134.671 89.3813L134.391 89.6621L136.32 91.5911Z" fill="#D0CAE1"/>
<path d="M139.222 93.115L138.941 92.8342L136.295 95.4805L136.576 95.7613L139.222 93.115Z" fill="#D0CAE1"/>
<path d="M134.315 90.4846C135.052 90.4542 135.263 90.1559 135.25 89.7988C135.234 89.4416 135.001 89.1623 134.264 89.1908C133.526 89.2212 132.014 89.9298 132.014 89.9298C132.014 89.9298 133.576 90.515 134.315 90.4846Z" fill="#D0CAE1"/>
<path d="M135.785 89.5081C135.983 90.078 136.317 90.1559 136.653 90.0381C136.992 89.9204 137.204 89.6544 137.007 89.0826C136.809 88.5127 135.785 87.5343 135.785 87.5343C135.785 87.5343 135.586 88.9382 135.785 89.5081Z" fill="#D0CAE1"/>
<path d="M136.287 88.8622C135.856 89.2859 135.928 89.6183 136.179 89.8748C136.429 90.1293 136.762 90.2091 137.193 89.7874C137.624 89.3637 138.073 88.0206 138.073 88.0206C138.073 88.0206 136.718 88.4405 136.287 88.8622Z" fill="#D0CAE1"/>
<path d="M138.587 92.6104C138.532 93.2126 138.804 93.4197 139.161 93.452C139.518 93.4843 139.822 93.3285 139.875 92.7282C139.929 92.1278 139.4 90.8132 139.4 90.8132C139.4 90.8132 138.642 92.0101 138.587 92.6104Z" fill="#D0CAE1"/>
<path d="M139.421 92.2191C138.737 92.5249 138.65 92.8821 138.794 93.2088C138.941 93.5356 139.266 93.7066 139.949 93.4007C140.633 93.0948 141.796 91.8657 141.796 91.8657C141.796 91.8657 140.105 91.9132 139.421 92.2191Z" fill="#D0CAE1"/>
<path d="M133.614 96.0432C134.214 96.1059 134.425 95.8362 134.461 95.4809C134.497 95.1257 134.347 94.8198 133.745 94.7571C133.145 94.6944 131.824 95.2093 131.824 95.2093C131.824 95.2093 133.014 95.9806 133.614 96.0432Z" fill="#D0CAE1"/>
<path d="M133.2 95.1921C133.376 95.9216 133.711 96.0717 134.058 95.9881C134.406 95.9045 134.634 95.6157 134.455 94.8881C134.279 94.1586 133.281 92.7927 133.281 92.7927C133.281 92.7927 133.023 94.4626 133.2 95.1921Z" fill="#D0CAE1"/>
<path d="M133.726 87.6046H133.257V99.5653H133.726V87.6046Z" fill="#1F006E"/>
<path d="M136.825 94.3651L136.493 94.0333L133.367 97.1592L133.699 97.491L136.825 94.3651Z" fill="#1F006E"/>
<path d="M135.976 87.4332L135.645 87.1014L133.366 89.3797L133.698 89.7115L135.976 87.4332Z" fill="#1F006E"/>
<path d="M133.395 94.6425L133.727 94.3107L130.601 91.1848L130.269 91.5166L133.395 94.6425Z" fill="#1F006E"/>
<path d="M136.678 87.124C136.169 87.8326 135.74 87.8478 135.396 87.6008C135.052 87.3558 134.928 86.9416 135.436 86.233C135.945 85.5244 137.624 84.491 137.624 84.491C137.624 84.491 137.185 86.4154 136.678 87.124Z" fill="#1F006E"/>
<path d="M136.065 88.8014C135.193 88.7653 134.944 88.4139 134.961 87.9921C134.978 87.5704 135.253 87.2398 136.125 87.274C136.997 87.3101 138.783 88.146 138.783 88.146C138.783 88.146 136.936 88.8375 136.065 88.8014Z" fill="#1F006E"/>
<path d="M134.328 87.2532C134.094 87.9276 133.699 88.0188 133.302 87.8801C132.903 87.7414 132.651 87.4261 132.886 86.7517C133.12 86.0773 134.33 84.9222 134.33 84.9222C134.33 84.9222 134.562 86.5788 134.328 87.2532Z" fill="#1F006E"/>
<path d="M133.735 86.4914C134.245 86.9911 134.159 87.3862 133.865 87.6864C133.57 87.9884 133.177 88.0815 132.666 87.5819C132.155 87.0822 131.629 85.496 131.629 85.496C131.629 85.496 133.224 85.9918 133.735 86.4914Z" fill="#1F006E"/>
<path d="M130.673 90.4961C131.182 90.9957 131.097 91.3908 130.802 91.691C130.508 91.9931 130.115 92.0861 129.604 91.5865C129.093 91.0869 128.566 89.5006 128.566 89.5006C128.566 89.5006 130.164 89.9964 130.673 90.4961Z" fill="#1F006E"/>
<path d="M129.586 90.762C130.382 90.3725 130.772 90.5625 130.958 90.9425C131.144 91.3224 131.053 91.746 130.259 92.1355C129.463 92.5249 127.468 92.6484 127.468 92.6484C127.468 92.6484 128.79 91.1514 129.586 90.762Z" fill="#1F006E"/>
<path d="M136.893 94.9736C136.182 95.0458 135.933 94.7286 135.892 94.3087C135.848 93.8889 136.027 93.526 136.737 93.4538C137.448 93.3817 139.005 93.9877 139.005 93.9877C139.005 93.9877 137.601 94.8995 136.893 94.9736Z" fill="#1F006E"/>
<path d="M137.381 93.9668C137.172 94.8274 136.777 95.006 136.367 94.9072C135.956 94.8084 135.686 94.4683 135.897 93.6058C136.108 92.7434 137.284 91.1305 137.284 91.1305C137.284 91.1305 137.59 93.1062 137.381 93.9668Z" fill="#1F006E"/>
</svg>
