<svg width="20" height="20" viewBox="0 0 20 20" fill="none" xmlns="http://www.w3.org/2000/svg">
<path fill-rule="evenodd" clip-rule="evenodd" d="M5.36851 9.15934C5.36851 7.84381 6.44999 6.79639 7.76026 6.79639H15.6056C16.9206 6.79639 17.9954 7.84507 18 9.15592L18 9.15934L18 13.6371C18 14.9526 16.9185 16 15.6082 16H7.76026C6.44477 16 5.36851 14.9474 5.36851 13.6371V9.15934ZM7.76026 7.66045C6.92216 7.66045 6.23891 8.32945 6.23891 9.15934V13.6371C6.23891 14.4641 6.91929 15.1359 7.76026 15.1359H15.6082C16.4463 15.1359 17.1296 14.4669 17.1296 13.6371L17.1296 9.15934C17.1267 8.3299 16.4465 7.66045 15.6056 7.66045H7.76026Z" fill="#7E7F90"/>
<path fill-rule="evenodd" clip-rule="evenodd" d="M1 5.36294C1 4.04741 2.08148 3 3.39175 3H11.2371C12.5521 3 13.6269 4.04868 13.6315 5.35952L13.6315 5.3615C13.6323 5.6001 13.4381 5.79417 13.1977 5.79497C12.9574 5.79577 12.7619 5.60299 12.7611 5.36439L12.7611 5.36251C12.7582 4.53307 12.0779 3.86406 11.2371 3.86406H3.39175C2.55365 3.86406 1.8704 4.53305 1.8704 5.36294V9.84066C1.8704 10.6677 2.55078 11.3395 3.39175 11.3395C3.6321 11.3395 3.82695 11.533 3.82695 11.7716C3.82695 12.0102 3.6321 12.2036 3.39175 12.2036C2.07626 12.2036 1 11.1511 1 9.84066V5.36294Z" fill="#7E7F90"/>
<path d="M12.6447 13.0874H12.2059C12.4103 12.8597 12.5354 12.5627 12.5354 12.2365V11.378H12.6447C13.1295 11.378 13.5239 11.7611 13.5239 12.2319C13.5255 12.7043 13.1295 13.0874 12.6447 13.0874ZM12.0808 11.855L11.5675 11.378H12.0808V11.855ZM10.3207 12.5642L10.8673 13.0874H10.3207V12.5642ZM11.7275 12.9197C11.6229 12.9951 11.5009 13.0504 11.3679 13.0751L10.3318 12.0842C10.354 11.9642 10.4015 11.8519 10.4696 11.755L11.7275 12.9197ZM11.059 11.3903L12.0744 12.3335C12.0602 12.4504 12.0221 12.5612 11.9651 12.6596L10.7279 11.5134C10.8261 11.4503 10.9386 11.4088 11.059 11.3903ZM11.2015 9.97634C11.6863 9.97634 12.0808 10.3594 12.0808 10.8303V10.9364H11.1968C10.8609 10.9364 10.5552 11.058 10.3207 11.2564V10.8303C10.3207 10.3594 10.7152 9.97634 11.2015 9.97634ZM12.6447 10.938H12.5354V10.8303C12.5354 10.1164 11.9366 9.53476 11.2015 9.53476C10.4665 9.53476 9.86607 10.1164 9.86607 10.8303V12.1396C9.86449 12.1704 9.8629 12.2011 9.8629 12.2335V13.5289H9.86607V13.532H11.2C11.2316 13.532 11.2649 13.5305 11.2966 13.5289H12.6447C13.3798 13.5289 13.9786 12.9474 13.9786 12.2335C13.9802 11.518 13.3814 10.938 12.6447 10.938Z" fill="#7E7F90"/>
</svg>
