<svg width="20" height="20" viewBox="0 0 20 20" fill="none" xmlns="http://www.w3.org/2000/svg">
<path fill-rule="evenodd" clip-rule="evenodd" d="M11.1737 12.6542V7.34614C11.1737 5.22899 9.45743 3.5127 7.34028 3.5127C5.22313 3.5127 3.50684 5.22898 3.50684 7.34614V16.4876H7.34028C9.45744 16.4876 11.1737 14.7713 11.1737 12.6542ZM7.34028 2.5127C4.67084 2.5127 2.50684 4.6767 2.50684 7.34614V17.4876H7.34028C10.0097 17.4876 12.1737 15.3236 12.1737 12.6542V7.34614C12.1737 4.6767 10.0097 2.5127 7.34028 2.5127Z" fill="#7E7F90"/>
<path fill-rule="evenodd" clip-rule="evenodd" d="M7.3523 8.8207H12.6603C14.7775 8.8207 16.4938 10.537 16.4938 12.6542C16.4938 14.7713 14.7775 16.4876 12.6604 16.4876H3.51886L3.51886 12.6542C3.51886 10.537 5.23515 8.8207 7.3523 8.8207ZM17.4938 12.6542C17.4938 15.3236 15.3298 17.4876 12.6604 17.4876H2.51886L2.51886 12.6542C2.51886 9.98471 4.68286 7.8207 7.3523 7.8207H12.6603C15.3298 7.8207 17.4938 9.98471 17.4938 12.6542Z" fill="#7E7F90"/>
<path d="M2.6642 12.7558L3.34716 12.0253L8.23578 16.5961L7.55282 17.3265L2.6642 12.7558Z" fill="#7E7F90"/>
<path d="M3.81996 10.1616L4.50292 9.43115L10.6891 15.2151L10.0062 15.9456L3.81996 10.1616Z" fill="#7E7F90"/>
<path d="M5.985 8.73973L6.66796 8.00928L12.045 13.0367L11.362 13.7671L5.985 8.73973Z" fill="#7E7F90"/>
</svg>
