<svg width="20" height="20" viewBox="0 0 20 20" fill="none" xmlns="http://www.w3.org/2000/svg">
<path d="M2 4.96322C2 4.43125 2.44995 4 3.00499 4H16.995C17.5501 4 18 4.43125 18 4.96322C18 5.4952 17.5501 5.92645 16.995 5.92645H3.00499C2.44995 5.92645 2 5.4952 2 4.96322Z" fill="#7E7F90"/>
<path d="M2 9.50015C2 8.96818 2.44995 8.53693 3.00499 8.53693H16.995C17.5501 8.53693 18 8.96818 18 9.50015C18 10.0321 17.5501 10.4634 16.995 10.4634H3.00499C2.44995 10.4634 2 10.0321 2 9.50015Z" fill="#7E7F90"/>
<path d="M2 14.0368C2 13.5048 2.44995 13.0736 3.00499 13.0736H16.995C17.5501 13.0736 18 13.5048 18 14.0368C18 14.5688 17.5501 15 16.995 15H3.00499C2.44995 15 2 14.5687 2 14.0368Z" fill="#7E7F90"/>
</svg>
