<svg width="20" height="20" viewBox="0 0 20 20" fill="none" xmlns="http://www.w3.org/2000/svg">
<path fill-rule="evenodd" clip-rule="evenodd" d="M17.8712 3.29228C18.1456 3.56675 18.1456 4.01175 17.8712 4.28622L10.1079 12.0495C9.97608 12.1813 9.79731 12.2554 9.61091 12.2554C9.42451 12.2554 9.24575 12.1813 9.11394 12.0495L6.78495 9.72053C6.51048 9.44606 6.51048 9.00105 6.78495 8.72659C7.05942 8.45212 7.50442 8.45212 7.77889 8.72659L9.61091 10.5586L16.8772 3.29228C17.1517 3.01781 17.5967 3.01781 17.8712 3.29228Z" fill="#6462EA"/>
<path fill-rule="evenodd" clip-rule="evenodd" d="M4.17736 3.71595C3.95197 3.71595 3.73581 3.80548 3.57643 3.96486C3.41705 4.12423 3.32752 4.34039 3.32752 4.56578V15.4344C3.32752 15.6598 3.41705 15.8759 3.57643 16.0353C3.73581 16.1947 3.95197 16.2842 4.17736 16.2842H15.046C15.2714 16.2842 15.4875 16.1947 15.6469 16.0353C15.8063 15.8759 15.8958 15.6598 15.8958 15.4344V10.0001C15.8958 9.61193 16.2105 9.29727 16.5986 9.29727C16.9868 9.29727 17.3015 9.61193 17.3015 10.0001V15.4344C17.3015 16.0326 17.0638 16.6063 16.6408 17.0293C16.2179 17.4522 15.6442 17.6899 15.046 17.6899H4.17736C3.57917 17.6899 3.00547 17.4522 2.58249 17.0293C2.15951 16.6063 1.92188 16.0326 1.92188 15.4344V4.56578C1.92188 3.96759 2.15951 3.3939 2.58249 2.97092C3.00548 2.54793 3.57917 2.3103 4.17736 2.3103H12.717C13.1051 2.3103 13.4198 2.62497 13.4198 3.01312C13.4198 3.40128 13.1051 3.71595 12.717 3.71595H4.17736Z" fill="#7E7F90"/>
</svg>
