<svg width="21" height="20" viewBox="0 0 21 20" fill="none" xmlns="http://www.w3.org/2000/svg">
<path fill-rule="evenodd" clip-rule="evenodd" d="M12.4415 13.0718C10.8714 13.9783 8.86364 13.4403 7.95713 11.8702C7.05062 10.3001 7.58858 8.29237 9.15871 7.38586C10.7288 6.47934 12.7365 7.01731 13.6431 8.58743C14.5496 10.1576 14.0116 12.1653 12.4415 13.0718ZM11.9415 12.2058C10.8496 12.8361 9.45352 12.462 8.82315 11.3702C8.19278 10.2784 8.56687 8.88225 9.65871 8.25188C10.7505 7.62151 12.1467 7.9956 12.777 9.08743C13.4074 10.1793 13.0333 11.5754 11.9415 12.2058Z" fill="#7E7F90"/>
<path fill-rule="evenodd" clip-rule="evenodd" d="M9.52864 17.777C10.3847 17.9334 11.3321 18.0713 12.2025 17.9283C12.5681 17.8542 12.8513 17.5195 12.852 17.1081L12.7714 15.8191C13.4635 15.5737 14.0889 15.2126 14.6475 14.736L15.7235 15.4503C16.0727 15.6425 16.4968 15.5517 16.7491 15.252C17.3081 14.5697 17.6698 13.6931 17.9698 12.8864C18.1118 12.5133 17.9531 12.0912 17.6039 11.899L16.6095 11.326C16.7435 10.6151 16.7438 9.87869 16.5995 9.15725L17.595 8.58252C17.9396 8.38358 18.0848 7.95728 17.9559 7.58656C17.646 6.75522 17.1884 5.9921 16.651 5.32644C16.3944 5.02941 15.96 4.95488 15.6282 5.14646L14.6327 5.72118C14.0801 5.23552 13.4295 4.87491 12.7595 4.62819L12.7605 3.48044C12.7559 3.0893 12.4696 2.74089 12.0884 2.66995C11.2397 2.52639 10.2923 2.3885 9.42193 2.53145C9.03615 2.60008 8.74019 2.94218 8.7448 3.33332L8.81796 4.60948C8.12589 4.85495 7.50054 5.216 6.94192 5.69262L5.87331 4.99118C5.52412 4.79898 5.08522 4.86403 4.84031 5.17665C4.28132 5.85895 3.9196 6.73555 3.62704 7.5551C3.48507 7.92814 3.64368 8.35023 3.99288 8.54243L4.98734 9.11545C4.85327 9.82637 4.85303 10.5628 4.99729 11.2842L4.00184 11.8589C3.65726 12.0579 3.51202 12.4842 3.64097 12.8549C3.95078 13.6862 4.39562 14.4567 4.94585 15.115C5.20243 15.412 5.64423 15.4994 5.98881 15.3005L6.98426 14.7257C7.53692 15.2114 8.18754 15.572 8.85749 15.8187L8.85651 16.9665C8.86112 17.3576 9.14735 17.706 9.52864 17.777ZM12.4372 14.8767L11.7263 15.1288L11.8413 16.9679C11.2465 17.029 10.575 16.9467 9.85663 16.8199L9.85809 15.1216L9.20307 14.8803C8.62961 14.6692 8.09053 14.3666 7.64437 13.9746L7.10552 13.501L5.61952 14.359C5.21752 13.8543 4.88212 13.2745 4.63326 12.6491L6.11854 11.7916L5.97788 11.0881C5.85934 10.4953 5.85919 9.88847 5.97002 9.30077L6.10155 8.60333L4.61998 7.74964C4.87072 7.06342 5.14546 6.43701 5.50745 5.94722L7.0203 6.94026L7.59098 6.45335C8.05666 6.05603 8.57532 5.75658 9.15225 5.55196L9.85926 5.30119L9.7557 3.49473C10.356 3.4282 11.0326 3.50968 11.7604 3.62906L11.7589 5.32535L12.4139 5.56658C12.9874 5.77776 13.5265 6.08028 13.9726 6.47235L14.5115 6.94589L15.9841 6.09565C16.3822 6.61231 16.7197 7.18413 16.9634 7.79246L15.4783 8.6499L15.6189 9.35333C15.7375 9.94611 15.7376 10.553 15.6268 11.1407L15.4953 11.8381L16.9751 12.6908C16.7164 13.3727 16.4415 13.9967 16.0787 14.4858L14.5722 13.4857L13.9984 13.9753C13.5327 14.3726 13.0141 14.672 12.4372 14.8767Z" fill="#7E7F90"/>
</svg>
