<svg width="20" height="20" viewBox="0 0 20 20" fill="none" xmlns="http://www.w3.org/2000/svg">
<path d="M1.43288 13.7227C1.43288 13.0521 1.86289 12.4805 2.46154 12.2681V6.94649L1.39947 6.52198L10.2111 3L19 6.52198L14.8399 8.18908V10.6367C14.8399 11.3912 14.3109 12.0712 13.3504 12.5515C12.5032 12.9751 11.3883 13.2084 10.2109 13.2084C9.03353 13.2084 7.91855 12.9751 7.07139 12.5515C6.11089 12.0712 5.58191 11.3912 5.58191 10.6367V8.19369L3.49028 7.35766V12.2682C4.08893 12.4805 4.51894 13.0522 4.51894 13.7227C4.51894 14.3361 4.15913 14.867 3.63947 15.1155L4.49254 17.6747L3.51664 18L2.97591 16.3778L2.43518 18L1.45928 17.6747L2.31235 15.1155C1.79276 14.8669 1.43288 14.3361 1.43288 13.7227ZM6.61054 10.6366C6.61054 11.365 8.15024 12.1796 10.2109 12.1796C12.2715 12.1796 13.8112 11.365 13.8112 10.6366V8.60128L10.2111 10.044L6.61051 8.60479V10.6366H6.61054ZM10.2106 8.936L16.2346 6.52198L10.2106 4.10797L4.17109 6.52198L10.2106 8.936ZM2.97591 14.237C3.25951 14.237 3.49024 14.0063 3.49024 13.7227C3.49024 13.4391 3.25951 13.2083 2.97591 13.2083C2.69231 13.2083 2.46158 13.4391 2.46158 13.7227C2.46158 14.0063 2.69231 14.237 2.97591 14.237Z" fill="#7E7F90"/>
</svg>
