<svg width="20" height="20" viewBox="0 0 20 20" fill="none" xmlns="http://www.w3.org/2000/svg">
<path fill-rule="evenodd" clip-rule="evenodd" d="M2.41797 4.29262C2.41797 4.01648 2.64183 3.79262 2.91797 3.79262H9.08645C9.36259 3.79262 9.58645 4.01648 9.58645 4.29262C9.58645 4.56876 9.36259 4.79262 9.08645 4.79262H3.41797V16.7465H14.8167V12.1266C14.8167 11.8505 15.0405 11.6266 15.3167 11.6266C15.5928 11.6266 15.8167 11.8505 15.8167 12.1266V17.2465C15.8167 17.5227 15.5928 17.7465 15.3167 17.7465H2.91797C2.64183 17.7465 2.41797 17.5227 2.41797 17.2465V4.29262Z" fill="#7E7F90"/>
<path d="M16.4912 2.75366H13.3435C12.818 2.75366 12.5554 3.41072 12.9255 3.79339L13.8041 4.69948L7.8106 10.878C7.75558 10.9346 7.71192 11.0018 7.68213 11.0757C7.65235 11.1497 7.63701 11.229 7.63701 11.3091C7.63701 11.3892 7.65235 11.4686 7.68213 11.5425C7.71192 11.6165 7.75558 11.6837 7.8106 11.7402L8.36807 12.3141C8.4229 12.3709 8.48805 12.4159 8.55979 12.4466C8.63153 12.4773 8.70844 12.4931 8.78612 12.4931C8.86379 12.4931 8.94071 12.4773 9.01244 12.4466C9.08418 12.4159 9.14933 12.3709 9.20416 12.3141L15.1947 6.13457L16.0731 7.03939C16.442 7.41978 17.0813 7.1535 17.0813 6.60828V3.36229C17.0813 3.20087 17.0192 3.04606 16.9085 2.93192C16.7978 2.81778 16.6477 2.75366 16.4912 2.75366Z" fill="#7E7F90"/>
</svg>
