<svg width="20" height="20" viewBox="0 0 20 20" fill="none" xmlns="http://www.w3.org/2000/svg">
<path fill-rule="evenodd" clip-rule="evenodd" d="M7.03283 9.91964C7.47119 10.4199 8.10573 11.3433 8.51691 12.2863L11.8322 12.2873C12.2434 11.3438 12.8782 10.4201 13.3169 9.91974C13.9603 9.18496 14.3492 8.2268 14.3492 7.17461C14.3492 4.8691 12.4801 3 10.1746 3C7.75371 3 6 4.95711 6 7.17461C6 8.22698 6.38914 9.18525 7.03283 9.91964ZM14.0688 10.579C14.8656 9.6693 15.3492 8.47914 15.3492 7.17461C15.3492 4.31681 13.0324 2 10.1746 2C7.16746 2 5 4.43942 5 7.17461C5 8.47914 5.48365 9.6693 6.28072 10.5787C6.76995 11.137 7.53732 12.3075 7.82193 13.2883V13.2901H9.23319V13.2865L11.1163 13.2871V13.2901H12.5276V13.2886C12.8122 12.3075 13.5796 11.137 14.0688 10.579Z" fill="#7E7F90"/>
<path d="M7.82424 15.5001C7.82424 15.5928 7.85158 15.683 7.90304 15.7601L8.62366 16.8432C8.71098 16.9743 8.85799 17.0531 9.01528 17.0531H11.3336C11.4912 17.0531 11.6382 16.9743 11.7252 16.8432L12.4458 15.7601C12.497 15.683 12.5243 15.5925 12.5246 15.5001L12.5261 14.2306H7.82306L7.82424 15.5001Z" fill="#7E7F90"/>
<path d="M10.1746 4.35209C8.61811 4.35209 7.35209 5.61811 7.35209 7.17461C7.35209 7.43452 7.56261 7.64503 7.82251 7.64503C8.08242 7.64503 8.29293 7.43452 8.29293 7.17461C8.29293 6.13675 9.13734 5.29293 10.1746 5.29293C10.4345 5.29293 10.645 5.08242 10.645 4.82251C10.645 4.56261 10.4345 4.35209 10.1746 4.35209Z" fill="#7E7F90"/>
</svg>
