<svg width="20" height="20" viewBox="0 0 20 20" fill="none" xmlns="http://www.w3.org/2000/svg">
<path fill-rule="evenodd" clip-rule="evenodd" d="M9.76493 10.4367C8.4109 10.4367 7.31323 9.339 7.31323 7.98497C7.31323 6.63093 8.4109 5.53326 9.76493 5.53326C11.119 5.53326 12.2166 6.63093 12.2166 7.98497C12.2166 9.339 11.119 10.4367 9.76493 10.4367ZM9.76493 11.4367C7.85861 11.4367 6.31323 9.89129 6.31323 7.98497C6.31323 6.07864 7.85861 4.53326 9.76493 4.53326C11.6713 4.53326 13.2166 6.07864 13.2166 7.98497C13.2166 9.89129 11.6713 11.4367 9.76493 11.4367Z" fill="#7E7F90"/>
<path fill-rule="evenodd" clip-rule="evenodd" d="M4.05522 8.98019C2.95612 8.98019 2.06512 8.08919 2.06512 6.99009C2.06512 5.891 2.95612 5 4.05522 5C5.15432 5 6.04531 5.891 6.04531 6.99009C6.04531 8.08919 5.15432 8.98019 4.05522 8.98019ZM4.05522 9.98019C2.40383 9.98019 1.06512 8.64148 1.06512 6.99009C1.06512 5.33871 2.40383 4 4.05522 4C5.7066 4 7.04531 5.33871 7.04531 6.99009C7.04531 8.64148 5.7066 9.98019 4.05522 9.98019Z" fill="#7E7F90"/>
<path fill-rule="evenodd" clip-rule="evenodd" d="M16.0179 16.5889C16.0179 14.1252 14.0206 12.1279 11.5568 12.1279H7.82656C5.39193 12.1279 3.41826 14.1015 3.41826 16.5362H4.41826C4.41826 14.6538 5.94421 13.1279 7.82656 13.1279H11.5568C13.4683 13.1279 15.0179 14.6774 15.0179 16.5889H16.0179Z" fill="#7E7F90"/>
<path fill-rule="evenodd" clip-rule="evenodd" d="M6.15633 11.5353C6.15633 11.2591 5.93248 11.0353 5.65633 11.0353H2.85904C1.28004 11.0353 0 12.3153 0 13.8943H1C1 12.8676 1.83232 12.0353 2.85904 12.0353H5.65633C5.93248 12.0353 6.15633 11.8114 6.15633 11.5353Z" fill="#7E7F90"/>
<path fill-rule="evenodd" clip-rule="evenodd" d="M15.381 8.98019C16.4801 8.98019 17.3711 8.08919 17.3711 6.99009C17.3711 5.891 16.4801 5 15.381 5C14.2819 5 13.3909 5.891 13.3909 6.99009C13.3909 8.08919 14.2819 8.98019 15.381 8.98019ZM15.381 9.98019C17.0324 9.98019 18.3711 8.64148 18.3711 6.99009C18.3711 5.33871 17.0324 4 15.381 4C13.7296 4 12.3909 5.33871 12.3909 6.99009C12.3909 8.64148 13.7296 9.98019 15.381 9.98019Z" fill="#7E7F90"/>
<path fill-rule="evenodd" clip-rule="evenodd" d="M13.2799 11.5353C13.2799 11.2591 13.5037 11.0353 13.7799 11.0353H16.5772C18.1562 11.0353 19.4362 12.3153 19.4362 13.8943H18.4362C18.4362 12.8676 17.6039 12.0353 16.5772 12.0353H13.7799C13.5037 12.0353 13.2799 11.8114 13.2799 11.5353Z" fill="#7E7F90"/>
</svg>
