<svg width="21" height="20" viewBox="0 0 21 20" fill="none" xmlns="http://www.w3.org/2000/svg">
<path fill-rule="evenodd" clip-rule="evenodd" d="M9.78839 5.61041L4.29381 7.42601L5.46874 1.75977L7.37562 3.4596C8.26817 3.04357 9.26342 2.8114 10.3117 2.8114C14.1541 2.8114 17.2689 5.92624 17.2689 9.7686C17.2689 13.611 14.1541 16.7258 10.3117 16.7258C7.22655 16.7258 4.61163 14.718 3.69991 11.9391C3.61363 11.6761 3.75688 11.3929 4.01986 11.3067C4.28285 11.2204 4.56598 11.3636 4.65227 11.6266C5.43296 14.0062 7.67244 15.7235 10.3117 15.7235C13.6005 15.7235 16.2666 13.0574 16.2666 9.7686C16.2666 6.47979 13.6005 3.81369 10.3117 3.81369C9.56879 3.81369 8.8584 3.94952 8.20342 4.19753L9.78839 5.61041Z" fill="#7E7F90"/>
</svg>
