<svg width="20" height="20" viewBox="0 0 20 20" fill="none" xmlns="http://www.w3.org/2000/svg">
<path fill-rule="evenodd" clip-rule="evenodd" d="M9.09112 5.61041L3.59654 7.42601L4.77147 1.75977L6.67835 3.4596C7.57091 3.04357 8.56616 2.8114 9.61446 2.8114C13.4568 2.8114 16.5717 5.92624 16.5717 9.7686C16.5717 13.611 13.4568 16.7258 9.61446 16.7258C6.52928 16.7258 3.91437 14.718 3.00265 11.9391C2.91637 11.6761 3.05961 11.3929 3.3226 11.3067C3.58558 11.2204 3.86872 11.3636 3.955 11.6266C4.7357 14.0062 6.97518 15.7235 9.61446 15.7235C12.9033 15.7235 15.5694 13.0574 15.5694 9.7686C15.5694 6.47979 12.9033 3.81369 9.61446 3.81369C8.87153 3.81369 8.16113 3.94952 7.50616 4.19753L9.09112 5.61041Z" fill="#7E7F90"/>
</svg>
