<svg width="21" height="20" viewBox="0 0 21 20" fill="none" xmlns="http://www.w3.org/2000/svg">
<g clip-path="url(#clip0)">
<path fill-rule="evenodd" clip-rule="evenodd" d="M15.9222 3.00919C13.9986 2.93776 11.6081 3.26792 9.48642 4.49289C8.70472 4.9442 7.98537 5.43566 7.33876 5.94951L5.60171 7.56903C5.22972 7.9816 4.90616 8.39669 4.63561 8.80645C3.63078 10.3283 3.43902 11.6332 3.93585 12.4938C4.43268 13.3543 5.65865 13.8407 7.47905 13.7314C8.06962 13.696 8.70538 13.5978 9.3704 13.4368L10.9555 12.952C11.8342 12.6289 12.7395 12.2072 13.6401 11.6873C15.7618 10.4623 17.243 8.55716 18.1429 6.85557C18.5921 6.00627 18.8896 5.22037 19.0487 4.61409C19.1285 4.30985 19.1704 4.06224 19.1825 3.88122C19.1883 3.79441 19.1866 3.73206 19.1821 3.69135C19.1491 3.66713 19.0959 3.63447 19.0179 3.59608C18.8551 3.51602 18.6197 3.42853 18.3163 3.34553C17.7117 3.18013 16.8823 3.04485 15.9222 3.00919ZM13.0588 13.1326C13.4199 12.9539 13.7809 12.7607 14.1401 12.5533C16.4701 11.2081 18.0672 9.13771 19.0269 7.32309C19.5076 6.41427 19.8352 5.5569 20.016 4.86784C20.1061 4.5244 20.1627 4.21133 20.1803 3.94778C20.1891 3.81605 20.1888 3.68673 20.1744 3.56668C20.1606 3.45239 20.1303 3.31388 20.0567 3.1864C19.9831 3.05891 19.8783 2.96344 19.7862 2.89437C19.6895 2.82184 19.5776 2.75695 19.4591 2.69869C19.2221 2.58214 18.9226 2.47466 18.5802 2.38097C17.893 2.19299 16.9867 2.04803 15.9593 2.00988C13.908 1.9337 11.3164 2.28166 8.98642 3.62686C8.62591 3.835 8.27692 4.05187 7.94053 4.27603C7.55762 3.82539 7.00817 3.53902 6.29423 3.50742C5.44612 3.46989 4.4049 3.79222 3.14958 4.51698C2.21262 5.05793 1.59916 5.56489 1.27639 6.06721C1.11002 6.32613 1.01244 6.59697 1.00111 6.87615C0.989693 7.15739 1.06734 7.41025 1.19323 7.6283C1.43265 8.04298 1.85743 8.35001 2.24359 8.57921C2.55063 8.76144 2.88972 8.92549 3.17664 9.0643C3.21766 9.08415 3.25762 9.10348 3.29627 9.12228C2.61085 10.4823 2.42056 11.8692 3.06983 12.9938C3.72112 14.1219 5.02343 14.6503 6.55009 14.7342C6.54661 14.7838 6.54285 14.8353 6.53896 14.8884C6.51572 15.2063 6.48825 15.582 6.49255 15.939C6.49795 16.388 6.55146 16.9094 6.79088 17.3241C6.91677 17.5422 7.09692 17.7358 7.34619 17.8666C7.59364 17.9963 7.87698 18.0473 8.1844 18.0326C8.78081 18.0043 9.52657 17.7265 10.4635 17.1855C11.7189 16.4608 12.5186 15.7202 12.9102 14.967C13.2446 14.3236 13.2672 13.6958 13.0588 13.1326ZM9.63472 14.4017C10.1696 14.271 10.7182 14.1037 11.2739 13.9004L12.1654 13.6277C12.2259 13.893 12.1912 14.1819 12.0229 14.5057C11.7578 15.0156 11.1456 15.637 9.96353 16.3195C9.06858 16.8362 8.49139 17.0169 8.13689 17.0338C7.96886 17.0418 7.86976 17.012 7.81066 16.981C7.75338 16.9509 7.70288 16.9038 7.6569 16.8241C7.55258 16.6434 7.49747 16.3421 7.49247 15.927C7.48896 15.6355 7.5091 15.3386 7.53036 15.0453L9.63472 14.4017ZM6.68507 5.19177C6.01276 5.72859 5.40998 6.29224 4.88853 6.86675L3.5365 8.1273C3.27186 7.99906 3.00462 7.86802 2.75399 7.71927C2.39698 7.50737 2.16357 7.30898 2.05925 7.1283C2.01327 7.04866 1.99766 6.98134 2.00029 6.91671C2.00299 6.85003 2.02675 6.74931 2.11769 6.60779C2.30954 6.30921 2.75463 5.8997 3.64958 5.383C4.83168 4.70052 5.67595 4.48104 6.25001 4.50645C6.61463 4.52258 6.88219 4.63697 7.08169 4.82198L6.68507 5.19177ZM14.0616 6.6476C13.8492 6.2797 13.3787 6.15365 13.0108 6.36606C12.6429 6.57846 12.5169 7.04889 12.7293 7.41679C12.9417 7.78469 13.4121 7.91074 13.78 7.69833C14.1479 7.48593 14.274 7.0155 14.0616 6.6476ZM12.5108 5.50003C13.357 5.01148 14.439 5.30141 14.9276 6.1476C15.4161 6.99379 15.1262 8.07581 14.28 8.56436C13.4338 9.05291 12.3518 8.76298 11.8633 7.91679C11.3747 7.0706 11.6647 5.98858 12.5108 5.50003Z" fill="#7E7F90"/>
</g>
<defs>
<clipPath id="clip0">
<rect width="20" height="20" fill="white" transform="translate(0.697266)"/>
</clipPath>
</defs>
</svg>
