<svg width="20" height="20" viewBox="0 0 20 20" fill="none" xmlns="http://www.w3.org/2000/svg">
<path d="M3.19608 17.5509C2.93464 17.2895 2.93464 16.8656 3.19608 16.6042L7.41008 12.3902C7.67152 12.1288 8.09538 12.1288 8.35682 12.3902C8.61825 12.6516 8.61825 13.0755 8.35682 13.3369L4.14281 17.5509C3.88138 17.8124 3.45751 17.8124 3.19608 17.5509Z" fill="#7E7F90"/>
<path fill-rule="evenodd" clip-rule="evenodd" d="M8.39451 12.3523C10.3048 14.2626 13.4021 14.2626 15.3124 12.3523C17.2227 10.442 17.2227 7.34475 15.3124 5.43443C13.4021 3.52411 10.3048 3.52411 8.39451 5.43443C6.48419 7.34475 6.48419 10.442 8.39451 12.3523ZM7.6862 13.0606C9.98771 15.3621 13.7192 15.3621 16.0207 13.0606C18.3222 10.7591 18.3222 7.02763 16.0207 4.72613C13.7192 2.42462 9.98771 2.42462 7.6862 4.72613C5.3847 7.02763 5.3847 10.7591 7.6862 13.0606Z" fill="#7E7F90"/>
</svg>
