<svg width="20" height="20" viewBox="0 0 20 20" fill="none" xmlns="http://www.w3.org/2000/svg">
<path fill-rule="evenodd" clip-rule="evenodd" d="M10.1765 17C7.31758 17 5 14.6824 5 11.8235C5 8.96462 7.31758 6.64703 10.1765 6.64703C13.0354 6.64703 15.3529 8.96462 15.3529 11.8235C15.3529 14.6824 13.0354 17 10.1765 17ZM10.1765 18C6.7653 18 4 15.2347 4 11.8235C4 8.41233 6.7653 5.64703 10.1765 5.64703C13.5876 5.64703 16.3529 8.41233 16.3529 11.8235C16.3529 15.2347 13.5876 18 10.1765 18Z" fill="#7E7F90"/>
<path d="M15.9994 6.33524C16.1946 6.13998 16.1947 5.8234 15.9994 5.62814L15.4895 5.11824C15.2942 4.92297 14.9776 4.92297 14.7824 5.11824L14.2417 5.65896C14.0464 5.85423 14.0464 6.17077 14.2416 6.36603C14.3218 6.44622 14.4092 6.53362 14.4966 6.62102C14.584 6.70842 14.6714 6.79582 14.7516 6.87601C14.9469 7.07127 15.2634 7.07123 15.4587 6.87597L15.9994 6.33524Z" fill="#7E7F90"/>
<path d="M7.52928 3.4364C7.52928 3.19538 7.72466 3 7.96568 3H12.387C12.628 3 12.8234 3.19538 12.8234 3.4364V4.66863C12.8234 4.98921 12.4876 5.20265 12.1844 5.09847C11.5549 4.88214 10.8793 4.76471 10.1764 4.76471C9.47338 4.76471 8.79783 4.88215 8.16826 5.09848C7.86508 5.20266 7.52928 4.98922 7.52928 4.66865V3.4364Z" fill="#7E7F90"/>
<path d="M10.1764 11.8235V7.43262C7.54188 7.43262 5.78551 9.18898 5.78551 11.8235H10.1764Z" fill="#7E7F90"/>
</svg>
