<svg width="21" height="20" viewBox="0 0 21 20" fill="none" xmlns="http://www.w3.org/2000/svg">
<path fill-rule="evenodd" clip-rule="evenodd" d="M14.4195 6.0875L16.7795 2H12.0596L13.0982 3.79888L7.17527 7.0894C6.85143 6.53614 6.25086 6.16455 5.56351 6.16455C4.53281 6.16455 3.69727 7.0001 3.69727 8.0308C3.69727 9.06149 4.53281 9.89704 5.56351 9.89704C6.20317 9.89704 6.76766 9.57523 7.10392 9.08467L13.6859 13.4727C13.681 13.4975 13.6766 13.5225 13.6727 13.5477L13.6181 13.4385L5.38867 17.5532L5.83589 18.4477L13.7652 14.483C14.0281 15.1953 14.713 15.7032 15.5166 15.7032C16.5473 15.7032 17.3829 14.8676 17.3829 13.8369C17.3829 12.8062 16.5473 11.9707 15.5166 11.9707C14.9726 11.9707 14.483 12.2035 14.1419 12.5748L7.42852 8.09923L7.42875 8.09254L13.5983 4.66502L14.4195 6.0875ZM6.68331 8.0308C6.68331 8.17218 6.65711 8.30743 6.6093 8.43198L6.46025 8.65556L6.4827 8.67053C6.28036 8.96069 5.94414 9.15055 5.56357 9.15055C4.94515 9.15055 4.44382 8.64922 4.44382 8.0308C4.44382 7.41238 4.94515 6.91106 5.56357 6.91106C6.18198 6.91106 6.68331 7.41238 6.68331 8.0308ZM16.6364 13.837C16.6364 14.4554 16.1351 14.9567 15.5166 14.9567C14.8982 14.9567 14.3969 14.4554 14.3969 13.837C14.3969 13.2185 14.8982 12.7172 15.5166 12.7172C16.1351 12.7172 16.6364 13.2185 16.6364 13.837Z" fill="#7E7F90"/>
</svg>
