<svg width="26" height="26" viewBox="0 0 26 26" fill="none" xmlns="http://www.w3.org/2000/svg">
<path d="M4.50885 12.2137H10.6195" stroke="#7E7F90" stroke-miterlimit="10" stroke-linecap="round" stroke-linejoin="round"/>
<path d="M4.50885 14.8011H10.6195" stroke="#7E7F90" stroke-miterlimit="10" stroke-linecap="round" stroke-linejoin="round"/>
<path d="M4.50885 17.8198H10.6195" stroke="#7E7F90" stroke-miterlimit="10" stroke-linecap="round" stroke-linejoin="round"/>
<path d="M14.8586 12.2137H20.9693" stroke="#7E7F90" stroke-miterlimit="10" stroke-linecap="round" stroke-linejoin="round"/>
<path d="M14.8586 14.8011H20.9693" stroke="#7E7F90" stroke-miterlimit="10" stroke-linecap="round" stroke-linejoin="round"/>
<path class="fillable" d="M10.3177 9.66076H5.33253C4.59943 9.66076 4 9.06564 4 8.33253C4 7.59943 4.59943 7 5.33253 7H10.3177C11.0508 7 11.6502 7.59943 11.6502 8.33253C11.6459 9.06564 11.0465 9.66076 10.3177 9.66076Z" fill="#F94F5E"/>
<path class="fillable" d="M20.6675 9.66076H15.6823C14.9492 9.66076 14.3498 9.06133 14.3498 8.32822C14.3498 7.59942 14.9492 7 15.6823 7H20.6675C21.4006 7 22 7.59943 22 8.33253C21.9957 9.06564 21.3963 9.66076 20.6675 9.66076Z" fill="#F94F5E"/>
</svg>
