<svg width="26" height="26" viewBox="0 0 26 26" fill="none" xmlns="http://www.w3.org/2000/svg">
<path class="fillable" d="M12.9997 5C8.58197 5 5 8.58197 5 12.9997C5 17.4174 8.58197 21 12.9997 21C17.4174 21 21 17.4174 21 12.9997C21 8.58197 17.4174 5 12.9997 5ZM14.665 17.3984C14.2532 17.5609 13.9255 17.6842 13.6796 17.7695C13.4345 17.8549 13.1493 17.8975 12.8249 17.8975C12.3265 17.8975 11.9384 17.7756 11.6621 17.5325C11.3858 17.2894 11.2483 16.9812 11.2483 16.6067C11.2483 16.4611 11.2585 16.3121 11.2788 16.1604C11.2998 16.0087 11.333 15.838 11.3783 15.6463L11.8937 13.8259C11.9391 13.6512 11.9784 13.4852 12.0095 13.3308C12.0407 13.1751 12.0556 13.0322 12.0556 12.9021C12.0556 12.6705 12.0075 12.508 11.912 12.4166C11.8152 12.3251 11.633 12.2804 11.3614 12.2804C11.2287 12.2804 11.0919 12.3001 10.9517 12.3414C10.8128 12.384 10.6923 12.4226 10.5934 12.4606L10.7295 11.8998C11.0668 11.7623 11.3898 11.6445 11.698 11.547C12.0061 11.4481 12.2974 11.3993 12.5716 11.3993C13.0667 11.3993 13.4487 11.5199 13.7175 11.7583C13.9851 11.9973 14.1198 12.3082 14.1198 12.6902C14.1198 12.7694 14.1103 12.9089 14.0921 13.108C14.0738 13.3078 14.0392 13.49 13.9891 13.6573L13.4764 15.4723C13.4345 15.6179 13.3972 15.7845 13.3633 15.9708C13.3302 16.157 13.3139 16.2992 13.3139 16.3947C13.3139 16.6358 13.3674 16.8004 13.4758 16.8877C13.5828 16.9751 13.7704 17.0191 14.0359 17.0191C14.1611 17.0191 14.3013 16.9968 14.4598 16.9534C14.6169 16.9101 14.7307 16.8715 14.8025 16.8383L14.665 17.3984ZM14.5743 10.0313C14.3352 10.2534 14.0474 10.3645 13.7108 10.3645C13.3749 10.3645 13.085 10.2534 12.8439 10.0313C12.6041 9.80914 12.4829 9.53892 12.4829 9.22332C12.4829 8.9084 12.6048 8.6375 12.8439 8.41333C13.085 8.18849 13.3749 8.07674 13.7108 8.07674C14.0474 8.07674 14.3359 8.18849 14.5743 8.41333C14.8133 8.6375 14.9332 8.9084 14.9332 9.22332C14.9332 9.5396 14.8133 9.80914 14.5743 10.0313Z" fill="#8E44AD"/>
</svg>
