<svg width="26" height="26" viewBox="0 0 26 26" fill="none" xmlns="http://www.w3.org/2000/svg">
<path class="fillable" d="M15.5722 15.7306H13.3059V9.52011L13.3309 8.5059L13.3685 7.39153C12.9929 7.76716 12.7299 8.01758 12.5797 8.13027L11.3526 9.11944L10.2508 7.75464L13.7066 5H15.5722V15.7306Z" fill="#4CA8EC"/>
<path d="M9.79501 18.1145H4.4157V16.983L6.3465 15.0342C6.92125 14.4505 7.28945 14.0463 7.46906 13.8128C7.64867 13.5794 7.7744 13.3728 7.84625 13.1842C7.91809 12.9956 7.96299 12.7891 7.96299 12.5825C7.96299 12.2772 7.88217 12.0437 7.71154 11.891C7.54091 11.7384 7.3164 11.6665 7.02902 11.6665C6.73266 11.6665 6.44529 11.7384 6.15791 11.8731C5.87054 12.0078 5.58316 12.2053 5.27782 12.4568L4.39774 11.4061C4.77492 11.0828 5.08923 10.8583 5.34069 10.7236C5.59214 10.5888 5.86156 10.4901 6.15791 10.4182C6.45427 10.3464 6.78655 10.3105 7.14577 10.3105C7.63072 10.3105 8.0528 10.4003 8.421 10.5709C8.7892 10.7415 9.07657 10.993 9.28312 11.3073C9.48968 11.6216 9.58846 11.9808 9.58846 12.3939C9.58846 12.7442 9.5256 13.0764 9.39987 13.3908C9.27414 13.7051 9.08555 14.0194 8.82512 14.3427C8.56469 14.666 8.10668 15.133 7.44212 15.7347L6.45427 16.6686V16.7405H9.80399V18.1145H9.79501Z" fill="#7E7F90"/>
<path d="M21.8402 15.2076C21.8402 15.5671 21.7337 15.8668 21.5139 16.1198C21.2942 16.3728 20.9946 16.5393 20.6017 16.6325V16.6592C21.0611 16.7191 21.4074 16.8589 21.6471 17.0787C21.8868 17.2984 22 17.598 22 17.9776C22 18.5236 21.8003 18.9564 21.4007 19.2561C21.0012 19.5557 20.4352 19.7155 19.6961 19.7155C19.0768 19.7155 18.5308 19.6156 18.0514 19.4092V18.3838C18.2711 18.497 18.5175 18.5835 18.7839 18.6568C19.0502 18.73 19.3099 18.7633 19.5696 18.7633C19.9691 18.7633 20.2621 18.6967 20.4485 18.5636C20.635 18.4304 20.7349 18.2106 20.7349 17.911C20.7349 17.6447 20.6283 17.4516 20.4086 17.3384C20.1888 17.2252 19.8426 17.1719 19.3632 17.1719H18.9303V16.2463H19.3698C19.8093 16.2463 20.1356 16.1864 20.342 16.0732C20.5484 15.96 20.6483 15.7602 20.6483 15.4806C20.6483 15.0477 20.3753 14.8347 19.8359 14.8347C19.6495 14.8347 19.4564 14.868 19.2633 14.9279C19.0702 14.9878 18.8571 15.101 18.6174 15.2542L18.058 14.4218C18.5774 14.0489 19.1967 13.8625 19.9158 13.8625C20.5085 13.8625 20.9746 13.9823 21.3142 14.2221C21.6538 14.4618 21.8402 14.7814 21.8402 15.2076Z" fill="#7E7F90"/>
</svg>
