<svg width="25" height="25" viewBox="0 0 25 25" fill="none" xmlns="http://www.w3.org/2000/svg">
<rect x="3.9873" y="6.41504" width="17.8839" height="2.38452" rx="1.19226" fill="#8E44AD"/>
<rect x="3.98633" y="11.2124" width="5.96131" height="2.38452" rx="1.19226" fill="#7E7F90"/>
<rect x="3.98633" y="15.939" width="2.98066" height="2.38452" rx="1.19226" fill="#7E7F90"/>
<path fill-rule="evenodd" clip-rule="evenodd" d="M15.7747 13.053L15.2065 14.1054L13.4689 17.3234L12.929 18.3234H14.0654H14.0673H20.6645H21.7508L21.3265 17.3234L19.1205 12.1235L18.6205 10.9448L18.0121 12.0714L17.1967 13.5817L16.6284 14.6341L16.3429 14.1054L16.0602 13.5817L15.7747 13.053ZM14.6054 17.3234L15.7747 15.1577L16.6284 16.7388L17.5084 15.1092L18.5122 13.2501L20.2403 17.3234H14.6054ZM13.9529 13.524C14.5186 13.524 14.9772 13.0654 14.9772 12.4998C14.9772 11.9341 14.5186 11.4755 13.9529 11.4755C13.3873 11.4755 12.9287 11.9341 12.9287 12.4998C12.9287 13.0654 13.3873 13.524 13.9529 13.524Z" fill="#7E7F90"/>
</svg>
