<svg width="26" height="25" viewBox="0 0 26 25" fill="none" xmlns="http://www.w3.org/2000/svg">
<path d="M20.1429 9.38676H9.72982C8.70789 9.38676 7.87625 10.2149 7.87625 11.2403V17.2767C7.87625 18.2987 8.70436 19.1303 9.72982 19.1303H20.1464C21.1684 19.1303 22 18.3022 22 17.2767V11.2403C21.9965 10.2149 21.1684 9.38676 20.1429 9.38676Z" stroke="#7E7F90" stroke-width="1.5" stroke-miterlimit="10" stroke-linecap="round" stroke-linejoin="round"/>
<path class="fillable" d="M11.5109 14.2833C11.5109 14.1861 11.5841 14.1073 11.6744 14.1073H15.1245V14.9641H11.6744C11.5841 14.9641 11.5109 14.8854 11.5109 14.7882V14.2833Z" fill="#FF831B"/>
<path class="fillable" d="M16.7182 14.3539C16.8154 14.4235 16.8154 14.5771 16.7182 14.6467L14.8544 15.9824C14.7457 16.0603 14.6002 15.9765 14.6002 15.836V13.1646C14.6002 13.0241 14.7457 12.9403 14.8544 13.0182L16.7182 14.3539Z" fill="#FF831B"/>
<path class="fillable" d="M17.5689 12.1165C17.5689 11.8799 17.7472 11.6881 17.9671 11.6881C18.187 11.6881 18.3653 11.8799 18.3653 12.1165V16.4005C18.3653 16.6371 18.187 16.8289 17.9671 16.8289C17.7472 16.8289 17.5689 16.6371 17.5689 16.4005V12.1165Z" fill="#FF831B"/>
<path d="M18.1202 7.71643C18.1202 6.6945 17.2921 5.86287 16.2667 5.86287H5.85357C4.82811 5.86287 4 6.69098 4 7.71643V13.7529C4 14.7748 4.82811 15.6064 5.85357 15.6064" stroke="#7E7F90" stroke-width="1.5" stroke-miterlimit="10" stroke-linecap="round" stroke-linejoin="round"/>
</svg>
