<svg width="26" height="26" viewBox="0 0 26 26" fill="none" xmlns="http://www.w3.org/2000/svg">
<path class="fillable strokable" d="M13.5585 6.58135L15.4401 10.3953C15.4954 10.5106 15.6061 10.589 15.7352 10.612L19.9412 11.2254C20.264 11.2715 20.3931 11.6681 20.1579 11.8941L17.1142 14.8641C17.0219 14.9563 16.9804 15.0854 17.0035 15.21L17.7229 19.402C17.7782 19.7203 17.4416 19.9647 17.1557 19.8171L13.3925 17.8387C13.2772 17.7787 13.1434 17.7787 13.0281 17.8387L9.26495 19.8171C8.97902 19.9693 8.64236 19.7249 8.6977 19.402L9.41713 15.21C9.44019 15.0808 9.39869 14.9517 9.30645 14.8641L6.26269 11.8941C6.0321 11.6681 6.15662 11.2715 6.47944 11.2254L10.6854 10.612C10.8145 10.5936 10.9252 10.5152 10.9805 10.3953L12.8621 6.58135C13.0005 6.29081 13.4155 6.29081 13.5585 6.58135Z" fill="#4CA8EC" stroke="#4CA8EC" stroke-width="1.5" stroke-miterlimit="10" stroke-linecap="round" stroke-linejoin="round"/>
</svg>
