<svg width="26" height="26" viewBox="0 0 26 26" fill="none" xmlns="http://www.w3.org/2000/svg">
<path d="M19.1206 11.4718C19.2365 11.1709 19.3 10.8423 19.3 10.5C19.3 9.0092 18.0908 7.8 16.6 7.8C16.0451 7.8 15.5288 7.96841 15.1009 8.25552C14.3224 6.90552 12.8675 6 11.2 6C8.71258 6 6.7 8.01258 6.7 10.5C6.7 10.5773 6.70276 10.6518 6.70552 10.7291C5.1319 11.2813 4 12.7831 4 14.55C4 16.7862 5.8138 18.6 8.05 18.6H18.4C20.3877 18.6 22 16.9877 22 15C22 13.258 20.7604 11.8058 19.1206 11.4718Z" stroke="#7E7F90" stroke-width="1.5" stroke-miterlimit="10" stroke-linecap="round" stroke-linejoin="round"/>
<path class="fillable" d="M17.6463 16.3748H7.78771C7.46471 16.3748 7.19968 16.1126 7.19968 15.7868C7.19968 15.4638 7.46195 15.1988 7.78771 15.1988H17.6491C17.9721 15.1988 18.2371 15.461 18.2371 15.7868C18.2343 16.1126 17.9721 16.3748 17.6463 16.3748Z" fill="#1CB582"/>
<path class="fillable" d="M13.842 13.8902H8.93066C8.60765 13.8902 8.34262 13.6279 8.34262 13.3021C8.34262 12.9791 8.60489 12.7141 8.93066 12.7141H13.842C14.165 12.7141 14.43 12.9764 14.43 13.3021C14.4273 13.6279 14.165 13.8902 13.842 13.8902Z" fill="#1CB582"/>
<path class="fillable" d="M12.434 11.5408H10.565C10.242 11.5408 9.97699 11.2785 9.97699 10.9528C9.97699 10.6297 10.2393 10.3647 10.565 10.3647H12.434C12.7571 10.3647 13.0221 10.627 13.0221 10.9528C13.0221 11.2785 12.7598 11.5408 12.434 11.5408Z" fill="#1CB582"/>
<path class="fillable" d="M16.8126 13.7494H15.5344C15.2113 13.7494 14.9463 13.4871 14.9463 13.1613C14.9463 12.8383 15.2086 12.5733 15.5344 12.5733H16.8126C17.1356 12.5733 17.4006 12.8356 17.4006 13.1613C17.4006 13.4871 17.1383 13.7494 16.8126 13.7494Z" fill="#1CB582"/>
</svg>
