<svg width="26" height="26" viewBox="0 0 26 26" fill="none" xmlns="http://www.w3.org/2000/svg">
<path class="strokable" d="M13.2761 12.2508C14.5258 12.2508 15.5388 11.2378 15.5388 9.98811C15.5388 8.73845 14.5258 7.7254 13.2761 7.7254C12.0264 7.7254 11.0134 8.73845 11.0134 9.98811C11.0134 11.2378 12.0264 12.2508 13.2761 12.2508Z" stroke="#1CB582" stroke-miterlimit="10" stroke-linecap="round" stroke-linejoin="round"/>
<path class="strokable" d="M9.22617 16.2838C9.73135 13.9404 11.2639 12.2381 13.0723 12.2381C14.9148 12.2381 16.4685 14.0084 16.944 16.4196" stroke="#1CB582" stroke-miterlimit="10" stroke-linecap="round" stroke-linejoin="round"/>
<path d="M20.6107 3.26791H5.89515C5.21772 3.26791 4.65829 3.8113 4.65829 4.46931V22.0064H21.8475V4.46931C21.8475 3.8113 21.2925 3.26791 20.6107 3.26791Z" stroke="#7E7F90" stroke-width="1.5" stroke-miterlimit="10" stroke-linecap="round" stroke-linejoin="round"/>
<path d="M18.7185 5.89572H7.5578V16.4578H18.7185V5.89572Z" stroke="#7E7F90" stroke-miterlimit="10" stroke-linecap="round" stroke-linejoin="round"/>
</svg>
