<svg width="26" height="26" viewBox="0 0 26 26" fill="none" xmlns="http://www.w3.org/2000/svg">
<path d="M19.9154 3.59381H6.59046C5.31559 3.59381 4.27362 4.63578 4.27362 5.91065V19.2356C4.27362 20.5104 5.31559 21.5524 6.59046 21.5524H19.9154C21.1903 21.5524 22.2322 20.5104 22.2322 19.2356V5.91065C22.2322 4.63578 21.1903 3.59381 19.9154 3.59381Z" stroke="#7E7F90" stroke-width="1.5" stroke-miterlimit="10" stroke-linecap="round" stroke-linejoin="round"/>
<path d="M18.9674 6.36589H7.38318V9.27114H18.9674V6.36589Z" stroke="#7E7F90" stroke-miterlimit="10" stroke-linecap="round" stroke-linejoin="round"/>
<path class="fillable" d="M17.8167 19.6793H12.4489C11.575 19.6793 10.8605 19.001 10.8605 18.1715C10.8605 17.342 11.575 16.6637 12.4489 16.6637H17.8124C18.6862 16.6637 19.4008 17.342 19.4008 18.1715C19.4051 19.001 18.6905 19.6793 17.8167 19.6793Z" fill="#4CA8EC"/>
<path d="M18.9674 11.6721H7.38318V14.5774H18.9674V11.6721Z" stroke="#7E7F90" stroke-miterlimit="10" stroke-linecap="round" stroke-linejoin="round"/>
</svg>
