<svg width="26" height="26" viewBox="0 0 26 26" fill="none" xmlns="http://www.w3.org/2000/svg">
<path d="M20.1429 9.52386H9.72987C8.70795 9.52386 7.87631 10.352 7.87631 11.3774V17.4138C7.87631 18.4357 8.70442 19.2674 9.72987 19.2674H20.1465C21.1684 19.2674 22 18.4393 22 17.4138V11.3774C21.9965 10.352 21.1684 9.52386 20.1429 9.52386Z" stroke="#7E7F90" stroke-width="1.5" stroke-miterlimit="10" stroke-linecap="round" stroke-linejoin="round"/>
<path d="M18.1202 7.85356C18.1202 6.83164 17.2921 6 16.2666 6H5.85356C4.82811 6 4 6.82811 4 7.85356V13.89C4 14.9119 4.82811 15.7435 5.85356 15.7435" stroke="#7E7F90" stroke-width="1.5" stroke-miterlimit="10" stroke-linecap="round" stroke-linejoin="round"/>
<path class="fillable" d="M14.9399 14.6128H15.2909C15.619 14.6128 15.8645 14.5486 16.0274 14.4201C16.1902 14.2894 16.2717 14.1001 16.2717 13.8523C16.2717 13.6023 16.2029 13.4176 16.0652 13.2983C15.9299 13.179 15.7165 13.1193 15.4251 13.1193H14.9399V14.6128ZM17.3488 13.8145C17.3488 14.3559 17.179 14.77 16.8395 15.0568C16.5023 15.3435 16.0216 15.4869 15.3976 15.4869H14.9399V17.2764H13.8731V12.2452H15.4802C16.0904 12.2452 16.5539 12.3772 16.8705 12.641C17.1894 12.9025 17.3488 13.2937 17.3488 13.8145Z" fill="#FF831B"/>
</svg>
