<svg width="26" height="26" viewBox="0 0 26 26" fill="none" xmlns="http://www.w3.org/2000/svg">
<path fill-rule="evenodd" clip-rule="evenodd" d="M8.86163 4.62135H17.8616C18.4139 4.62135 18.8616 5.06747 18.8616 5.61975V12.5829C18.8616 14.4503 16.3097 17.6213 13.3523 17.6213C10.395 17.6213 7.86163 14.5286 7.86163 12.5829V5.61995C7.86163 5.06767 8.30935 4.62135 8.86163 4.62135ZM9.36163 6.12135V12.5829C9.36163 13.0107 9.71189 13.913 10.5657 14.7782C11.3844 15.6078 12.3953 16.1213 13.3523 16.1213C14.2984 16.1213 15.3137 15.5988 16.1457 14.7514C17.0168 13.8643 17.3616 12.962 17.3616 12.5829V6.12135H9.36163Z" fill="#7E7F90"/>
<path d="M9.36163 19.6687C9.36163 19.1164 9.80935 18.6659 10.3616 18.6659H16.3616C16.9139 18.6659 17.3616 19.1164 17.3616 19.6687H9.36163Z" fill="#7E7F90"/>
<path d="M5.32428 8.13639C5.32428 7.86025 5.54814 7.63639 5.82428 7.63639C6.10042 7.63639 6.32428 7.86025 6.32428 8.13639V12.1364C6.32428 12.4125 6.10042 12.6364 5.82428 12.6364C5.54814 12.6364 5.32428 12.4125 5.32428 12.1364V8.13639Z" fill="#7E7F90"/>
<path d="M20.3243 8.13639C20.3243 7.86025 20.5481 7.63639 20.8243 7.63639C21.1004 7.63639 21.3243 7.86025 21.3243 8.13639V12.1364C21.3243 12.4125 21.1004 12.6364 20.8243 12.6364C20.5481 12.6364 20.3243 12.4125 20.3243 12.1364V8.13639Z" fill="#7E7F90"/>
<path class="fillable" d="M13.2529 8.24027L13.8989 9.5492L15.3434 9.75909L14.2981 10.778L14.5449 12.2166L13.2529 11.5374L11.9609 12.2166L12.2077 10.778L11.1624 9.75909L12.6069 9.5492L13.2529 8.24027Z" fill="#F1C40F"/>
</svg>
