<svg width="26" height="26" viewBox="0 0 26 26" fill="none" xmlns="http://www.w3.org/2000/svg">
<path d="M20.1429 9.5239H9.72982C8.70789 9.5239 7.87625 10.352 7.87625 11.3775V17.4139C7.87625 18.4358 8.70436 19.2674 9.72982 19.2674H20.1464C21.1684 19.2674 22 18.4393 22 17.4139V11.3775C21.9965 10.352 21.1684 9.5239 20.1429 9.5239Z" stroke="#7E7F90" stroke-width="1.5" stroke-miterlimit="10" stroke-linecap="round" stroke-linejoin="round"/>
<path class="fillable" d="M17.8383 15.2925C17.5106 14.9718 16.5803 15.0599 16.1151 15.1198C15.6535 14.8379 15.3469 14.4503 15.1284 13.8794C15.2341 13.4495 15.3997 12.7941 15.2729 12.3818C15.1601 11.6805 14.2615 11.751 14.1311 12.2232C14.0149 12.6531 14.1206 13.2522 14.3179 14.0204C14.0501 14.6617 13.6519 15.518 13.37 16.0114C12.8344 16.2862 12.112 16.7126 12.0062 17.2483C11.9181 17.6711 12.704 18.7248 14.0431 16.4131C14.6421 16.2158 15.2976 15.9726 15.8755 15.8739C16.3829 16.1453 16.9714 16.3285 17.3696 16.3285C18.0532 16.3285 18.1202 15.5744 17.8383 15.2925ZM12.5348 17.3751C12.6723 17.0086 13.1903 16.5858 13.3488 16.4378C12.8414 17.2483 12.5348 17.3963 12.5348 17.3751ZM14.7196 12.2725C14.917 12.2725 14.8994 13.1324 14.769 13.3649C14.6492 12.9949 14.6527 12.2725 14.7196 12.2725ZM14.0677 15.9303C14.3285 15.4793 14.5505 14.9401 14.7302 14.4644C14.9522 14.8696 15.2377 15.1938 15.5372 15.4158C14.9769 15.5321 14.4941 15.7682 14.0677 15.9303ZM17.5916 15.7964C17.5916 15.7964 17.4577 15.9585 16.5943 15.5885C17.5317 15.518 17.6868 15.733 17.5916 15.7964Z" fill="#FF831B"/>
<path d="M18.1202 7.85357C18.1202 6.83164 17.2921 6 16.2667 6H5.85357C4.82811 6 4 6.82811 4 7.85357V13.89C4 14.9119 4.82811 15.7436 5.85357 15.7436" stroke="#7E7F90" stroke-width="1.5" stroke-miterlimit="10" stroke-linecap="round" stroke-linejoin="round"/>
</svg>
