<svg width="1440" height="300" viewBox="0 0 1440 300" fill="none" xmlns="http://www.w3.org/2000/svg">
<mask id="mask0" mask-type="alpha" maskUnits="userSpaceOnUse" x="0" y="0" width="1440" height="300">
<rect y="0.298096" width="1440" height="299.702" fill="#1F006E"/>
</mask>
<g mask="url(#mask0)">
<path opacity="0.2" d="M41.942 107.07L-16.6392 84.2739C-20.3384 82.855 -23.0045 79.5366 -23.6094 75.6105L-33.1831 13.4814C-33.7881 9.55536 -32.2447 5.58829 -29.1442 3.12159L19.8571 -36.2521C22.9513 -38.7592 27.1607 -39.4079 30.8663 -37.9485L95.4448 -12.8033L105.991 55.6399C106.596 59.5659 105.053 63.533 101.952 65.9997L52.9512 105.373C49.8102 107.846 45.6413 108.489 41.942 107.07Z" fill="#B1B0F4"/>
<path d="M365.501 57.5936C365.811 57.7573 366.121 57.9216 366.431 58.0867L366.666 57.6456C367.286 57.9765 367.904 58.3101 368.52 58.6464L368.28 59.0852C368.894 59.4207 369.506 59.7589 370.115 60.0998L370.36 59.6634C370.97 60.0051 371.579 60.3494 372.185 60.6964L371.937 61.1303C372.542 61.4765 373.144 61.8253 373.744 62.1768L373.997 61.7453C374.6 62.0989 375.202 62.4551 375.801 62.8139L375.544 63.2428C376.145 63.6032 376.744 63.9662 377.341 64.3319L377.602 63.9056C378.2 64.2722 378.796 64.6414 379.389 65.0132L379.124 65.4368C379.716 65.8077 380.305 66.1813 380.892 66.5574L381.162 66.1364C381.75 66.5134 382.336 66.893 382.919 67.2751L382.645 67.6934C383.229 68.0755 383.81 68.4603 384.388 68.8475L384.667 68.432C385.25 68.8229 385.832 69.2164 386.411 69.6124L386.128 70.0251C386.706 70.4202 387.281 70.8178 387.853 71.218L388.14 70.8082C388.714 71.2093 389.285 71.613 389.854 72.0193L389.563 72.4262C390.131 72.8314 390.696 73.2392 391.258 73.6494L391.553 73.2455C392.118 73.6574 392.68 74.0718 393.24 74.4887L392.941 74.8896C393.503 75.3083 394.062 75.7294 394.619 76.153L394.922 75.7551C395.48 76.1797 396.035 76.6068 396.588 77.0364L396.281 77.4312C396.833 77.8598 397.382 78.2908 397.928 78.7242L398.239 78.3325C398.787 78.767 399.332 79.2039 399.874 79.6433L399.56 80.0318C400.102 80.4707 400.641 80.912 401.178 81.3557L401.496 80.9704C402.037 81.4177 402.576 81.8675 403.112 82.3196L402.789 82.7017C403.324 83.1528 403.856 83.6063 404.385 84.0622L404.711 83.6833C405.241 84.1403 405.769 84.5996 406.294 85.0613L405.964 85.4368C406.488 85.8974 407.009 86.3603 407.528 86.8256L407.862 86.4534C408.382 86.9204 408.9 87.3897 409.415 87.8614L409.077 88.2301C409.594 88.7029 410.107 89.178 410.618 89.6554L410.959 89.2901C411.471 89.7687 411.981 90.2496 412.487 90.7327L412.142 91.0946C412.648 91.5766 413.15 92.0608 413.65 92.5474L413.999 92.189C414.5 92.6768 414.999 93.1667 415.494 93.6589L415.142 94.0137C415.637 94.5054 416.129 94.9994 416.619 95.4955L416.975 95.1443C417.468 95.6436 417.957 96.1451 418.445 96.6488L418.085 96.9964C418.571 97.4989 419.054 98.0036 419.535 98.5105L419.897 98.1665C420.379 98.6746 420.858 99.1849 421.333 99.6974L420.967 100.038C421.442 100.549 421.914 101.062 422.383 101.578L422.753 101.241C423.224 101.759 423.692 102.278 424.157 102.8L423.784 103.133C424.249 103.655 424.712 104.179 425.172 104.705L425.548 104.376C426.009 104.904 426.467 105.434 426.923 105.965L426.543 106.29C426.997 106.821 427.448 107.353 427.896 107.888L428.279 107.567C428.729 108.102 429.175 108.64 429.619 109.18L429.233 109.498C429.676 110.037 430.117 110.579 430.554 111.122L430.944 110.809C431.383 111.354 431.82 111.902 432.253 112.452L431.861 112.762C432.293 113.311 432.723 113.861 433.15 114.414L433.546 114.108C433.973 114.662 434.398 115.218 434.82 115.776L434.422 116.077C434.842 116.634 435.26 117.192 435.676 117.752L436.077 117.455C436.494 118.017 436.908 118.582 437.319 119.148L436.914 119.442C437.324 120.008 437.732 120.575 438.136 121.145L438.544 120.855C438.949 121.426 439.352 121.999 439.751 122.574L439.341 122.859C439.739 123.432 440.135 124.007 440.527 124.584L440.941 124.303C441.334 124.881 441.725 125.461 442.112 126.043L441.696 126.32C442.083 126.902 442.467 127.485 442.849 128.07L443.268 127.797C443.65 128.384 444.029 128.972 444.406 129.563L443.984 129.832C444.359 130.421 444.732 131.011 445.101 131.604L445.525 131.339C445.896 131.933 446.263 132.528 446.627 133.126L446.2 133.386C446.563 133.982 446.924 134.579 447.281 135.178L447.71 134.922C448.069 135.524 448.424 136.127 448.777 136.732L448.345 136.984C448.697 137.587 449.045 138.193 449.391 138.8L449.825 138.552C450.172 139.16 450.515 139.77 450.855 140.382L450.418 140.625C450.758 141.235 451.094 141.847 451.427 142.46L451.866 142.221C452.2 142.836 452.531 143.452 452.859 144.07L452.417 144.304C452.745 144.921 453.069 145.54 453.39 146.16L453.834 145.93C454.156 146.552 454.475 147.175 454.791 147.8L454.345 148.025C454.66 148.649 454.972 149.273 455.28 149.9L455.729 149.678C456.038 150.306 456.344 150.935 456.648 151.566L456.197 151.782C456.499 152.412 456.799 153.042 457.095 153.674L457.548 153.462C457.845 154.096 458.139 154.731 458.429 155.368L457.975 155.576C458.265 156.211 458.552 156.848 458.835 157.486L459.292 157.282C459.577 157.922 459.858 158.563 460.136 159.205L459.677 159.404C459.954 160.044 460.229 160.686 460.5 161.33L460.96 161.136C461.232 161.781 461.5 162.427 461.766 163.074L461.303 163.264C461.568 163.91 461.829 164.558 462.088 165.206L462.552 165.021C462.811 165.672 463.067 166.323 463.319 166.976L462.853 167.156C463.105 167.808 463.353 168.46 463.599 169.114L464.067 168.938C464.313 169.593 464.556 170.249 464.795 170.907L464.325 171.078C464.564 171.734 464.8 172.391 465.033 173.05L465.504 172.883C465.737 173.543 465.967 174.204 466.194 174.866L465.72 175.028C465.946 175.689 466.169 176.351 466.389 177.013L466.863 176.856C467.083 177.521 467.3 178.186 467.514 178.853L467.037 179.005C467.25 179.67 467.46 180.336 467.666 181.003L468.144 180.856C468.351 181.524 468.554 182.194 468.755 182.864L468.276 183.007C468.475 183.676 468.672 184.346 468.865 185.017L469.346 184.879C469.539 185.551 469.73 186.225 469.917 186.899L469.435 187.033C469.622 187.706 469.805 188.379 469.985 189.054L470.468 188.925C470.648 189.602 470.826 190.279 470.999 190.957L470.515 191.081C470.688 191.757 470.858 192.434 471.025 193.112L471.51 192.993C471.677 193.672 471.841 194.353 472.002 195.034L471.515 195.148C471.675 195.828 471.831 196.508 471.985 197.19L472.473 197.08C472.626 197.763 472.777 198.446 472.924 199.131L472.435 199.236C472.581 199.919 472.725 200.602 472.865 201.287L473.354 201.187C473.495 201.872 473.631 202.558 473.765 203.245L473.274 203.34C473.407 204.025 473.537 204.711 473.663 205.398L474.155 205.307C474.282 205.995 474.405 206.684 474.525 207.374L474.032 207.46C474.152 208.148 474.268 208.836 474.381 209.526L474.874 209.445C474.988 210.136 475.097 210.827 475.204 211.519L474.71 211.595C474.815 212.285 474.918 212.975 475.017 213.666L475.512 213.595C475.612 214.287 475.708 214.98 475.8 215.674L475.305 215.74C475.397 216.432 475.486 217.125 475.572 217.818L476.068 217.757C476.154 218.452 476.237 219.147 476.316 219.843L475.819 219.899C475.898 220.593 475.973 221.287 476.045 221.982L476.542 221.931C476.614 222.626 476.683 223.322 476.748 224.019L476.25 224.065C476.315 224.76 476.377 225.455 476.435 226.151L476.934 226.109C476.992 226.807 477.047 227.505 477.099 228.203L476.6 228.24C476.651 228.936 476.699 229.633 476.744 230.331L477.243 230.299C477.287 230.997 477.329 231.696 477.366 232.395L476.867 232.422C476.905 233.118 476.939 233.815 476.97 234.512L477.469 234.49C477.5 235.189 477.527 235.888 477.551 236.588L477.051 236.605C477.075 237.303 477.096 238.001 477.113 238.699L477.613 238.687C477.63 239.387 477.643 240.087 477.653 240.788L477.153 240.795C477.163 241.493 477.17 242.191 477.173 242.889L477.673 242.887C477.676 243.586 477.676 244.285 477.672 244.985L477.172 244.982C477.168 245.68 477.161 246.378 477.15 247.076L477.65 247.084C477.64 247.784 477.626 248.484 477.608 249.184L477.108 249.171C477.09 249.87 477.069 250.569 477.045 251.267L477.545 251.285C477.52 251.984 477.492 252.683 477.461 253.381L476.961 253.359C476.93 254.056 476.895 254.752 476.857 255.449L477.356 255.476C477.317 256.175 477.276 256.873 477.23 257.572L476.731 257.539C476.686 258.236 476.637 258.933 476.585 259.63L477.084 259.668C477.031 260.366 476.976 261.065 476.916 261.764L476.418 261.721C476.359 262.416 476.297 263.111 476.231 263.805L476.729 263.852C476.663 264.548 476.593 265.244 476.52 265.939L476.023 265.887C475.95 266.581 475.874 267.275 475.794 267.969L476.291 268.026C476.211 268.722 476.127 269.417 476.04 270.112L475.544 270.05C475.458 270.744 475.367 271.438 475.274 272.131L475.769 272.198C475.676 272.89 475.579 273.582 475.478 274.274L474.983 274.202C474.883 274.892 474.779 275.582 474.672 276.271L475.166 276.348C475.059 277.039 474.948 277.73 474.833 278.421L474.34 278.339C474.226 279.028 474.108 279.717 473.987 280.406L474.48 280.493C474.358 281.183 474.233 281.873 474.105 282.563L473.613 282.471C473.486 283.156 473.355 283.84 473.221 284.524L473.711 284.621C473.577 285.306 473.438 285.991 473.297 286.676L472.807 286.575C472.666 287.258 472.521 287.941 472.373 288.624L472.861 288.73C472.713 289.415 472.561 290.098 472.405 290.782L471.918 290.671C471.762 291.353 471.604 292.035 471.441 292.716L471.928 292.832C471.766 293.511 471.601 294.189 471.432 294.867L470.947 294.746C470.779 295.422 470.607 296.098 470.432 296.774L470.916 296.899C470.741 297.576 470.562 298.253 470.38 298.929L469.897 298.798C469.715 299.473 469.529 300.147 469.34 300.821L469.822 300.956C469.632 301.631 469.439 302.306 469.243 302.98L468.763 302.84C468.568 303.508 468.37 304.176 468.169 304.843L468.647 304.987C468.445 305.656 468.24 306.324 468.031 306.991L467.554 306.842C467.346 307.507 467.134 308.173 466.919 308.837L467.394 308.991C467.179 309.658 466.959 310.323 466.737 310.988L466.263 310.83C466.04 311.493 465.815 312.156 465.585 312.819L466.058 312.982C465.83 313.641 465.599 314.299 465.364 314.957L464.893 314.789C464.659 315.445 464.421 316.1 464.18 316.754L464.65 316.927C464.408 317.583 464.163 318.239 463.915 318.893L463.447 318.716C463.199 319.369 462.948 320.022 462.693 320.674L463.159 320.856C462.904 321.509 462.645 322.162 462.382 322.814L461.919 322.627C461.659 323.273 461.396 323.918 461.129 324.562L461.591 324.753C461.325 325.398 461.055 326.041 460.781 326.685L460.321 326.489C460.048 327.131 459.772 327.771 459.492 328.412L459.951 328.612C459.67 329.253 459.387 329.894 459.099 330.534L458.643 330.33C458.357 330.968 458.067 331.606 457.773 332.243L458.228 332.452C457.936 333.086 457.64 333.72 457.342 334.352L456.89 334.138C456.593 334.767 456.292 335.395 455.988 336.023L456.438 336.24C456.134 336.869 455.826 337.497 455.515 338.124L455.067 337.902C454.757 338.527 454.443 339.152 454.125 339.776L454.571 340.002C454.253 340.628 453.932 341.252 453.607 341.876L453.163 341.645C453.002 341.956 452.839 342.266 452.675 342.577C452.512 342.886 452.348 343.195 452.184 343.504L452.625 343.739C452.295 344.358 451.963 344.974 451.628 345.588L451.189 345.348C450.855 345.961 450.518 346.571 450.178 347.179L450.615 347.422C450.275 348.032 449.932 348.639 449.587 349.244L449.153 348.996C448.808 349.599 448.462 350.2 448.112 350.799L448.544 351.051C448.193 351.653 447.839 352.252 447.483 352.849L447.053 352.593C446.695 353.194 446.334 353.792 445.971 354.388L446.398 354.648C446.034 355.245 445.667 355.84 445.298 356.433L444.874 356.168C444.505 356.759 444.135 357.348 443.761 357.935L444.183 358.203C443.809 358.791 443.432 359.376 443.053 359.959L442.634 359.687C442.255 360.269 441.875 360.848 441.491 361.425L441.908 361.702C441.52 362.286 441.13 362.867 440.737 363.446L440.323 363.165C439.932 363.743 439.538 364.318 439.141 364.891L439.552 365.176C439.154 365.75 438.754 366.321 438.352 366.89L437.944 366.602C437.542 367.17 437.138 367.735 436.732 368.298L437.137 368.591C436.73 369.155 436.321 369.717 435.908 370.276L435.506 369.98C435.092 370.542 434.675 371.102 434.256 371.659L434.656 371.959C434.236 372.518 433.813 373.075 433.388 373.629L432.991 373.325C432.567 373.878 432.141 374.428 431.712 374.976L432.105 375.284C431.676 375.833 431.243 376.379 430.809 376.923L430.418 376.611C429.985 377.154 429.549 377.694 429.111 378.232L429.498 378.548C429.057 379.09 428.613 379.629 428.166 380.166L427.782 379.847C427.336 380.383 426.888 380.917 426.437 381.449L426.818 381.772C426.367 382.305 425.913 382.835 425.456 383.362L425.078 383.035C424.623 383.561 424.166 384.085 423.706 384.606L424.081 384.937C423.62 385.459 423.157 385.979 422.692 386.496L422.32 386.161C421.854 386.679 421.385 387.195 420.915 387.708L421.283 388.046C420.81 388.561 420.335 389.074 419.858 389.584L419.493 389.242C419.017 389.751 418.539 390.257 418.058 390.76L418.42 391.105C417.938 391.61 417.455 392.112 416.969 392.611L416.61 392.262C416.126 392.76 415.639 393.256 415.15 393.748L415.504 394.1C415.012 394.596 414.518 395.089 414.022 395.58L413.67 395.224C413.174 395.714 412.676 396.201 412.176 396.686L412.523 397.045C412.022 397.531 411.518 398.014 411.012 398.494L410.668 398.132C410.164 398.611 409.657 399.088 409.148 399.561L409.489 399.927C408.979 400.402 408.467 400.874 407.953 401.344L407.616 400.975C407.101 401.444 406.585 401.911 406.066 402.376L406.4 402.748C405.879 403.214 405.357 403.678 404.832 404.138L404.502 403.763C403.979 404.222 403.453 404.679 402.926 405.133L403.252 405.512C402.723 405.967 402.192 406.419 401.66 406.869L401.337 406.486C400.806 406.935 400.273 407.38 399.737 407.823L400.056 408.208C399.518 408.653 398.978 409.096 398.436 409.535L398.121 409.147C397.58 409.586 397.036 410.022 396.491 410.455L396.802 410.847C396.256 411.281 395.707 411.712 395.157 412.141L394.85 411.747C394.301 412.174 393.75 412.599 393.197 413.021L393.5 413.418C392.946 413.841 392.39 414.261 391.832 414.678L391.533 414.278C390.975 414.695 390.415 415.109 389.854 415.521L390.15 415.924C389.586 416.337 389.021 416.747 388.454 417.154L388.162 416.748C387.597 417.154 387.029 417.557 386.46 417.957L386.747 418.366C386.177 418.768 385.604 419.166 385.03 419.561L384.747 419.15C384.174 419.544 383.599 419.936 383.023 420.324L383.303 420.739C382.724 421.129 382.143 421.516 381.561 421.901L381.285 421.484C380.704 421.868 380.121 422.249 379.536 422.627L379.807 423.046C379.221 423.425 378.633 423.801 378.044 424.174L377.777 423.752C377.189 424.124 376.599 424.493 376.007 424.859L376.271 425.284C375.678 425.651 375.083 426.015 374.487 426.376L374.228 425.948C373.633 426.309 373.035 426.667 372.436 427.022L372.691 427.452C372.09 427.808 371.488 428.161 370.884 428.51L370.633 428.078C370.031 428.427 369.427 428.773 368.821 429.116L369.068 429.551C368.461 429.894 367.853 430.235 367.243 430.573L367 430.135C366.392 430.472 365.782 430.806 365.17 431.137L365.408 431.577C364.794 431.909 364.178 432.238 363.561 432.564L363.328 432.122C362.712 432.448 362.095 432.77 361.476 433.089L361.705 433.534C361.085 433.854 360.464 434.17 359.841 434.484L359.616 434.038C358.994 434.351 358.371 434.661 357.747 434.968L357.968 435.417C357.342 435.724 356.715 436.029 356.086 436.33L355.87 435.879C355.242 436.181 354.613 436.479 353.982 436.774L354.194 437.227C353.562 437.522 352.928 437.815 352.293 438.105L352.086 437.65C351.453 437.938 350.818 438.224 350.182 438.507L350.385 438.964C349.747 439.247 349.109 439.527 348.469 439.804L348.27 439.345C347.632 439.621 346.992 439.894 346.351 440.165L346.545 440.625C345.901 440.896 345.257 441.164 344.611 441.429L344.422 440.966C343.777 441.23 343.132 441.491 342.485 441.749L342.67 442.213C342.022 442.471 341.373 442.727 340.722 442.978L340.542 442.512C339.893 442.764 339.243 443.012 338.592 443.257L338.768 443.725C338.115 443.97 337.461 444.213 336.806 444.452L336.634 443.982C335.98 444.221 335.325 444.457 334.669 444.689L334.836 445.16C334.178 445.393 333.519 445.623 332.859 445.849L332.697 445.377C332.039 445.603 331.379 445.825 330.719 446.045L330.876 446.519C330.215 446.739 329.552 446.956 328.888 447.17L328.734 446.694C328.072 446.907 327.408 447.117 326.744 447.323L326.892 447.801C326.226 448.008 325.559 448.212 324.891 448.413L324.747 447.934C324.08 448.134 323.412 448.331 322.744 448.525L322.883 449.005C322.213 449.199 321.542 449.39 320.87 449.578L320.736 449.096C320.065 449.283 319.394 449.467 318.722 449.648L318.852 450.131C318.178 450.312 317.503 450.489 316.828 450.664L316.703 450.18C316.029 450.354 315.354 450.525 314.679 450.692L314.799 451.178C314.122 451.345 313.444 451.51 312.765 451.671L312.65 451.185C311.972 451.346 311.295 451.503 310.616 451.658L310.727 452.145C310.046 452.3 309.365 452.451 308.683 452.6L308.577 452.111C307.897 452.259 307.216 452.403 306.535 452.544L306.636 453.034C305.953 453.175 305.269 453.313 304.585 453.448L304.488 452.957C303.806 453.091 303.122 453.222 302.438 453.35L302.53 453.842C301.844 453.97 301.157 454.094 300.47 454.216L300.383 453.723C299.698 453.844 299.012 453.962 298.325 454.076L298.407 454.57C297.719 454.684 297.03 454.795 296.341 454.903L296.264 454.409C295.576 454.517 294.888 454.621 294.2 454.722L294.272 455.216C293.582 455.317 292.891 455.415 292.2 455.509L292.132 455.014C291.443 455.108 290.753 455.199 290.062 455.286L290.125 455.782C289.432 455.87 288.739 455.954 288.046 456.035L287.988 455.538C287.297 455.618 286.606 455.696 285.914 455.769L285.967 456.266C285.273 456.34 284.58 456.411 283.885 456.478L283.837 455.98C283.145 456.047 282.452 456.111 281.758 456.171L281.801 456.669C281.106 456.729 280.411 456.786 279.715 456.839L279.676 456.341C278.982 456.394 278.288 456.444 277.593 456.491L277.626 456.989C276.93 457.036 276.234 457.079 275.538 457.119L275.51 456.62C274.815 456.659 274.121 456.695 273.426 456.728L273.449 457.228C272.752 457.26 272.055 457.29 271.358 457.316L271.34 456.816C270.644 456.842 269.948 456.864 269.252 456.883L269.265 457.383C268.568 457.402 267.87 457.418 267.171 457.43L267.163 456.93C266.467 456.942 265.772 456.951 265.077 456.956L265.08 457.456C264.383 457.462 263.686 457.463 262.989 457.462L262.99 456.962C262.294 456.96 261.598 456.955 260.902 456.947L260.896 457.447C260.198 457.438 259.5 457.426 258.802 457.41L258.813 456.911C258.117 456.895 257.42 456.876 256.724 456.854L256.708 457.354C256.011 457.331 255.315 457.305 254.619 457.276L254.64 456.777C253.945 456.747 253.25 456.715 252.555 456.679L252.529 457.178C251.833 457.142 251.136 457.102 250.44 457.059L250.471 456.56C249.776 456.517 249.081 456.47 248.386 456.42L248.35 456.919C247.654 456.869 246.957 456.815 246.261 456.758L246.302 456.26C245.609 456.203 244.917 456.143 244.225 456.079L244.179 456.577C243.485 456.513 242.791 456.446 242.097 456.375L242.148 455.878C241.456 455.807 240.764 455.733 240.072 455.655L240.016 456.152C239.323 456.074 238.629 455.993 237.936 455.908L237.996 455.412C237.305 455.328 236.614 455.24 235.922 455.148L235.857 455.644C235.167 455.552 234.477 455.457 233.787 455.359L233.858 454.864C233.17 454.766 232.482 454.664 231.794 454.559L231.718 455.054C231.029 454.948 230.34 454.839 229.651 454.727L229.731 454.234C229.044 454.122 228.357 454.006 227.67 453.887L227.585 454.38C226.897 454.26 226.209 454.138 225.521 454.011L225.612 453.52C224.929 453.394 224.246 453.265 223.564 453.133L223.469 453.624C222.785 453.491 222.102 453.355 221.418 453.215L221.519 452.725C220.837 452.586 220.156 452.443 219.475 452.297L219.37 452.786C218.687 452.639 218.005 452.489 217.323 452.335L217.433 451.848C216.753 451.694 216.074 451.538 215.395 451.378L215.28 451.864C214.603 451.705 213.927 451.541 213.25 451.375L213.37 450.889C212.696 450.723 212.021 450.553 211.348 450.38L211.223 450.864C210.548 450.691 209.873 450.514 209.199 450.333L209.328 449.85C208.655 449.67 207.983 449.486 207.311 449.299L207.177 449.781C206.504 449.593 205.831 449.402 205.159 449.207L205.298 448.727C204.632 448.534 203.966 448.338 203.301 448.138L203.157 448.617C202.49 448.417 201.824 448.213 201.159 448.006L201.307 447.529C200.643 447.322 199.98 447.112 199.317 446.898L199.163 447.374C198.499 447.16 197.835 446.943 197.171 446.722L197.329 446.247C196.668 446.027 196.006 445.803 195.346 445.575L195.183 446.048C194.526 445.822 193.87 445.592 193.214 445.359L193.382 444.888C192.728 444.655 192.074 444.419 191.421 444.18L191.249 444.649C190.595 444.409 189.941 444.165 189.288 443.918L189.465 443.451C188.814 443.204 188.163 442.955 187.513 442.701L187.331 443.167C186.68 442.913 186.029 442.656 185.378 442.395L185.565 441.931C184.921 441.673 184.278 441.411 183.636 441.146L183.446 441.609C182.803 441.343 182.161 441.075 181.519 440.802L181.715 440.342C181.075 440.071 180.436 439.796 179.797 439.517L179.598 439.976C178.958 439.697 178.319 439.414 177.68 439.128L177.885 438.672C177.248 438.387 176.612 438.098 175.977 437.806L175.768 438.26C175.136 437.97 174.505 437.676 173.874 437.378L174.088 436.926C173.461 436.63 172.835 436.331 172.209 436.028L171.992 436.479C171.365 436.175 170.739 435.868 170.114 435.558L170.336 435.11C169.712 434.801 169.09 434.488 168.468 434.172L168.241 434.618C167.618 434.301 166.995 433.981 166.374 433.657L166.605 433.213C166.295 433.052 165.985 432.89 165.675 432.726C165.365 432.563 165.056 432.399 164.748 432.235L164.512 432.676C163.894 432.346 163.277 432.013 162.663 431.678L162.903 431.239C162.291 430.905 161.68 430.568 161.072 430.228L160.828 430.664C160.219 430.324 159.612 429.981 159.007 429.635L159.256 429.201C158.652 428.856 158.051 428.508 157.453 428.158L157.2 428.59C156.599 428.238 155.999 427.883 155.402 427.526L155.659 427.097C155.058 426.738 154.461 426.376 153.865 426.012L153.604 426.439C153.007 426.074 152.413 425.706 151.821 425.336L152.086 424.912C151.495 424.542 150.907 424.17 150.321 423.796L150.052 424.217C149.465 423.842 148.88 423.464 148.297 423.084L148.571 422.665C147.989 422.285 147.41 421.903 146.833 421.518L146.556 421.934C145.973 421.544 145.392 421.153 144.814 420.759L145.096 420.346C144.519 419.952 143.945 419.557 143.373 419.158L143.087 419.569C142.514 419.17 141.944 418.768 141.376 418.364L141.665 417.956C141.099 417.553 140.534 417.147 139.973 416.739L139.679 417.144C139.116 416.735 138.555 416.323 137.997 415.909L138.295 415.507C137.733 415.091 137.174 414.672 136.618 414.251L136.316 414.649C135.759 414.227 135.204 413.802 134.651 413.375L134.957 412.979C134.406 412.553 133.857 412.124 133.311 411.693L133.001 412.086C132.454 411.654 131.909 411.219 131.367 410.782L131.68 410.393C131.139 409.957 130.601 409.519 130.065 409.078L129.747 409.465C129.207 409.02 128.669 408.573 128.133 408.124L128.455 407.741C127.92 407.292 127.388 406.841 126.859 406.388L126.534 406.768C126.003 406.314 125.475 405.857 124.95 405.398L125.279 405.022C124.755 404.564 124.234 404.104 123.715 403.641L123.382 404.014C122.862 403.551 122.345 403.085 121.83 402.617L122.167 402.247C121.651 401.777 121.137 401.305 120.626 400.831L120.286 401.198C119.774 400.722 119.264 400.244 118.757 399.764L119.1 399.401C118.595 398.922 118.091 398.44 117.591 397.957L117.243 398.316C116.742 397.832 116.243 397.345 115.747 396.856L116.097 396.5C115.602 396.012 115.11 395.521 114.62 395.029L114.266 395.382C113.773 394.886 113.282 394.388 112.795 393.888L113.153 393.539C112.666 393.039 112.182 392.538 111.701 392.034L111.339 392.38C110.857 391.875 110.377 391.368 109.9 390.858L110.265 390.517C109.789 390.009 109.316 389.499 108.846 388.986L108.478 389.325C108.007 388.811 107.538 388.296 107.072 387.778L107.444 387.444C106.977 386.925 106.514 386.405 106.053 385.882L105.678 386.213C105.215 385.689 104.756 385.162 104.299 384.634L104.678 384.307C104.222 383.78 103.77 383.251 103.32 382.72L102.938 383.043C102.487 382.511 102.039 381.976 101.594 381.44L101.979 381.121C101.534 380.586 101.093 380.049 100.655 379.51L100.267 379.825C99.8257 379.283 99.3874 378.739 98.9521 378.192L99.3431 377.881C98.9086 377.336 98.4771 376.789 98.0484 376.24L97.6544 376.547C97.2247 375.997 96.7978 375.445 96.374 374.891L96.7711 374.587C96.3482 374.034 95.9282 373.48 95.5111 372.923L95.1109 373.223C94.6928 372.665 94.2776 372.105 93.8653 371.543L94.2684 371.248C93.8558 370.685 93.4461 370.122 93.0394 369.556L92.6334 369.848C92.2257 369.28 91.821 368.711 91.4191 368.141L91.828 367.853C91.4271 367.283 91.0292 366.712 90.6342 366.139L90.2225 366.423C89.8266 365.848 89.4336 365.272 89.0435 364.694L89.458 364.414C89.0689 363.838 88.6827 363.259 88.2994 362.679L87.8822 362.954C87.4972 362.371 87.1151 361.787 86.736 361.2L87.156 360.929C86.7778 360.344 86.4026 359.757 86.0304 359.168L85.6078 359.435C85.2347 358.845 84.8646 358.254 84.4975 357.66L84.9227 357.397C84.5565 356.805 84.1933 356.212 83.8331 355.617L83.4053 355.875C83.0441 355.279 82.686 354.68 82.3308 354.08L82.7611 353.825C82.4063 353.226 82.0544 352.624 81.7056 352.021L81.2728 352.272C80.9232 351.667 80.5766 351.061 80.233 350.454L80.6683 350.208C80.3255 349.602 79.9858 348.994 79.6492 348.385L79.2115 348.627C78.8741 348.016 78.5397 347.404 78.2084 346.79L78.6484 346.552C78.3177 345.94 77.9901 345.326 77.6655 344.71L77.2232 344.943C76.8976 344.325 76.575 343.706 76.2556 343.086L76.7001 342.857C76.3814 342.237 76.0657 341.617 75.7532 340.995L75.3064 341.219C74.9931 340.595 74.6829 339.97 74.3758 339.344L74.8247 339.124C74.5184 338.499 74.2151 337.872 73.9149 337.244L73.4638 337.46C73.1628 336.83 72.8649 336.199 72.5702 335.567L73.0234 335.356C72.7291 334.724 72.438 334.092 72.15 333.458L71.6948 333.664C71.4061 333.029 71.1206 332.392 70.8382 331.754L71.2954 331.551C71.0137 330.915 70.7351 330.277 70.4596 329.637L70.0004 329.835C69.7243 329.194 69.4513 328.552 69.1815 327.909L69.6426 327.715C69.3734 327.073 69.1073 326.43 68.8444 325.785L68.3814 325.974C68.1178 325.328 67.8573 324.68 67.6001 324.031L68.0649 323.847C67.8082 323.2 67.5547 322.551 67.3044 321.902L66.8378 322.081C66.5869 321.43 66.3392 320.778 66.0946 320.124L66.5629 319.949C66.3189 319.297 66.0782 318.644 65.8405 317.989L65.3706 318.16C65.1324 317.504 64.8975 316.847 64.6657 316.188L65.1373 316.022C64.9061 315.366 64.6781 314.708 64.4533 314.049L63.98 314.21C63.7547 313.55 63.5326 312.888 63.3137 312.226L63.7884 312.069C63.5701 311.408 63.3549 310.745 63.1429 310.082L62.6667 310.234C62.4542 309.57 62.245 308.904 62.039 308.237L62.5167 308.089C62.3113 307.424 62.1091 306.758 61.9101 306.091L61.4309 306.234C61.2315 305.565 61.0353 304.895 60.8424 304.225L61.3229 304.086C61.1304 303.417 60.9412 302.747 60.7552 302.076L60.2733 302.21C60.0869 301.537 59.9037 300.864 59.7239 300.189L60.207 300.061C60.0275 299.388 59.8513 298.714 59.6783 298.039L59.194 298.163C59.0207 297.488 58.8508 296.811 58.6841 296.133L59.1696 296.014C59.0033 295.338 58.8403 294.661 58.6805 293.984L58.1939 294.098C58.0338 293.419 57.877 292.739 57.7234 292.058L58.2112 291.948C58.058 291.269 57.9081 290.589 57.7615 289.908L57.2727 290.013C57.1258 289.331 56.9822 288.648 56.8418 287.964L57.3317 287.863C57.1918 287.181 57.0552 286.499 56.922 285.816L56.4313 285.912C56.2977 285.227 56.1675 284.541 56.0406 283.855L56.5322 283.764C56.4056 283.08 56.2823 282.395 56.1623 281.709L55.6698 281.795C55.5495 281.107 55.4325 280.419 55.3189 279.73L55.8123 279.649C55.6989 278.961 55.5889 278.274 55.4822 277.585L54.9881 277.661C54.8814 276.972 54.7779 276.283 54.6778 275.592L55.1726 275.521C55.0728 274.832 54.9763 274.143 54.883 273.453L54.3876 273.52C54.2942 272.828 54.2041 272.136 54.1174 271.444L54.6135 271.381C54.527 270.69 54.4438 269.999 54.364 269.307L53.8673 269.364C53.7873 268.67 53.7107 267.976 53.6374 267.282L54.1347 267.229C54.0618 266.538 53.9922 265.845 53.9259 265.153L53.4282 265.2C53.3618 264.506 53.2988 263.811 53.2391 263.116L53.7373 263.073C53.6778 262.38 53.6216 261.686 53.5688 260.991L53.0703 261.029C53.0174 260.333 52.9678 259.636 52.9217 258.94L53.4206 258.907C53.3746 258.212 53.332 257.516 53.2927 256.82L52.7935 256.849C52.7543 256.153 52.7184 255.456 52.6859 254.76L53.1854 254.736C53.1529 254.041 53.1239 253.346 53.0983 252.65L52.5986 252.669C52.5729 251.971 52.5506 251.274 52.5316 250.576L53.0315 250.562C53.0126 249.866 52.9971 249.17 52.985 248.473L52.4851 248.481C52.473 247.783 52.4643 247.085 52.459 246.387L52.959 246.383C52.9538 245.688 52.9519 244.992 52.9534 244.296L52.4534 244.295C52.4549 243.598 52.4599 242.901 52.4682 242.203L52.9682 242.209C52.9765 241.513 52.9883 240.816 53.0034 240.12L52.5035 240.109C52.5187 239.411 52.5373 238.713 52.5593 238.014L53.0591 238.03C53.081 237.334 53.1064 236.638 53.1352 235.942L52.6356 235.921C52.6644 235.225 52.6965 234.529 52.7321 233.832L53.2315 233.858C53.267 233.163 53.3059 232.468 53.3483 231.773L52.8492 231.743C52.8917 231.047 52.9375 230.35 52.9868 229.653L53.4856 229.689C53.5348 228.994 53.5874 228.299 53.6434 227.604L53.145 227.564C53.2011 226.868 53.2607 226.172 53.3236 225.476L53.8216 225.522C53.8842 224.829 53.9503 224.137 54.0198 223.445L53.5222 223.395C53.5919 222.702 53.665 222.008 53.7414 221.315L54.2384 221.369C54.3147 220.677 54.3945 219.986 54.4776 219.294L53.9812 219.234C54.0646 218.541 54.1514 217.847 54.2417 217.154L54.7375 217.219C54.8274 216.528 54.9207 215.838 55.0174 215.147L54.5223 215.078C54.619 214.388 54.7191 213.699 54.8226 213.01L55.3171 213.084C55.4203 212.396 55.527 211.709 55.6371 211.021L55.1434 210.942C55.2538 210.253 55.3677 209.565 55.4849 208.876L55.9778 208.96C56.0948 208.273 56.2152 207.586 56.3391 206.9L55.8471 206.811C55.971 206.124 56.0984 205.437 56.2292 204.751L56.7204 204.845C56.8504 204.162 56.9838 203.48 57.1207 202.799L56.6305 202.7C56.7676 202.017 56.9082 201.334 57.0523 200.651L57.5415 200.755C57.6852 200.073 57.8323 199.393 57.9829 198.712L57.4947 198.604C57.6456 197.922 57.7999 197.24 57.9577 196.559L58.4448 196.672C58.602 195.993 58.7625 195.315 58.9265 194.637L58.4405 194.52C58.6042 193.843 58.7712 193.167 58.9416 192.492L59.4265 192.614C59.5965 191.94 59.77 191.267 59.9469 190.594L59.4633 190.466C59.6406 189.792 59.8213 189.117 60.0055 188.444L60.4878 188.575C60.6715 187.903 60.8586 187.231 61.0492 186.56L60.5682 186.423C60.759 185.751 60.9531 185.08 61.1507 184.409L61.6303 184.55C61.8263 183.884 62.0257 183.219 62.2285 182.555L61.7502 182.409C61.9535 181.743 62.1601 181.077 62.3702 180.412L62.847 180.562C63.0566 179.899 63.2695 179.236 63.4859 178.573L63.0106 178.418C63.2275 177.754 63.4478 177.09 63.6715 176.428L64.1453 176.587C64.3683 175.927 64.5947 175.266 64.8245 174.607L64.3524 174.442C64.581 173.786 64.8131 173.13 65.0485 172.475L65.519 172.644C65.7539 171.99 65.9921 171.337 66.2338 170.685L65.7649 170.511C66.0071 169.857 66.2527 169.204 66.5016 168.552L66.9688 168.73C67.2172 168.079 67.4689 167.428 67.7241 166.778L67.2587 166.596C67.5145 165.944 67.7736 165.294 68.0362 164.644L68.4998 164.831C68.7594 164.188 69.0224 163.546 69.2887 162.905L68.8269 162.713C69.0937 162.071 69.3639 161.429 69.6374 160.788L70.0973 160.984C70.3702 160.344 70.6465 159.705 70.9261 159.067L70.4681 158.866C70.7483 158.227 71.0319 157.588 71.3189 156.95L71.7749 157.155C72.0613 156.518 72.351 155.882 72.644 155.247L72.19 155.038C72.4814 154.406 72.7762 153.775 73.0742 153.145L73.5262 153.359C73.8228 152.732 74.1228 152.106 74.426 151.481L73.9761 151.262C74.28 150.636 74.5873 150.01 74.8979 149.384L75.3457 149.607C75.6556 148.983 75.9688 148.36 76.2853 147.738L75.8396 147.512C76.1569 146.888 76.4775 146.265 76.8014 145.644L77.2448 145.875C77.3244 145.722 77.4042 145.569 77.4842 145.416C77.5666 145.259 77.6492 145.102 77.732 144.945L78.2261 144.008L77.7838 143.774L78.7722 141.899L79.2145 142.133L80.2028 140.257L79.7605 140.024L80.7488 138.149L81.1911 138.382L82.1795 136.507L81.7371 136.274L82.7255 134.399L83.1678 134.632L84.1561 132.757L83.7138 132.524L84.7021 130.649L85.1445 130.882L86.1328 129.007L85.6905 128.774L86.6788 126.899L87.1211 127.132L88.1094 125.257L87.6671 125.024L88.6555 123.149L89.0978 123.382L90.0861 121.507L89.6438 121.274L90.6321 119.399L91.0744 119.632L92.0628 117.757L91.6205 117.524L92.6088 115.649L93.0511 115.882L94.0394 114.007L93.5971 113.774L94.5854 111.899L95.0278 112.132L96.0161 110.257L95.5738 110.024L96.5621 108.149L97.0044 108.382L97.9928 106.507L97.5504 106.274L98.5388 104.398L98.9811 104.632L99.9694 102.757L99.5271 102.523L100.515 100.648L100.958 100.882L101.946 99.0065L101.504 98.7734L102.492 96.8983L102.934 97.1315L103.923 95.2564L103.48 95.0233L104.469 93.1482L104.911 93.3814L105.899 91.5063L105.457 91.2732L106.445 89.3982L106.888 89.6313L107.876 87.7563L107.434 87.5231L108.422 85.6481L108.864 85.8812L109.853 84.0062L109.41 83.773L110.399 81.898L110.841 82.1311L111.829 80.2561L111.387 80.023L112.375 78.1479L112.818 78.3811L113.806 76.506L113.364 76.2729L114.352 74.3978L114.794 74.631L115.783 72.7559L115.34 72.5228L116.329 70.6478L116.771 70.8809L117.759 69.0059L117.317 68.7727L118.305 66.8977L118.748 67.1308L119.736 65.2558L119.294 65.0226L120.282 63.1476L120.724 63.3807L121.713 61.5057L121.27 61.2726L122.259 59.3975L122.701 59.6307L123.689 57.7556L123.247 57.5225L124.235 55.6474L124.678 55.8806L125.666 54.0055L125.224 53.7724L126.212 51.8974L126.654 52.1305L127.643 50.2555L127.2 50.0223L128.189 48.1473L128.631 48.3804L129.619 46.5054L129.177 46.2722L130.165 44.3972L130.608 44.6304L131.596 42.7553L131.154 42.5222L132.142 40.6471L132.584 40.8803L133.573 39.0052L133.13 38.7721L134.119 36.8971L134.561 37.1302L135.549 35.2552L135.107 35.022L136.095 33.147L136.538 33.3801L137.526 31.5051L137.084 31.2719L138.072 29.3969L138.514 29.63L139.503 27.755L139.06 27.5218L140.049 25.6468L140.491 25.88L141.479 24.0049L141.037 23.7718L142.025 21.8967L142.468 22.1299L143.456 20.2548L143.014 20.0217L144.002 18.1467L144.444 18.3798L145.433 16.5047L144.99 16.2716L145.979 14.3966L146.421 14.6297L147.409 12.7547L146.967 12.5215L147.955 10.6465L148.398 10.8796L149.386 9.0046L148.944 8.77146L149.932 6.89642L150.374 7.12956L151.363 5.25452L150.92 5.02138L151.909 3.14634L152.351 3.37948L153.339 1.50444L152.897 1.2713L153.885 -0.603744L154.328 -0.3706L155.316 -2.24564L154.874 -2.47878L155.862 -4.35382L156.304 -4.12068L157.293 -5.99572L156.85 -6.22886L157.839 -8.10391L158.281 -7.87076L159.269 -9.7458L158.827 -9.97894L159.815 -11.854L160.258 -11.6208L161.246 -13.4959L160.804 -13.729L161.792 -15.6041L162.234 -15.3709L163.222 -17.246L162.78 -17.4791L163.769 -19.3541L164.211 -19.121L165.199 -20.996L164.757 -21.2292L165.745 -23.1042L166.187 -22.8711L167.176 -24.7461L166.733 -24.9793L167.722 -26.8543L168.164 -26.6212L169.152 -28.4962L168.71 -28.7293L169.698 -30.6044L170.141 -30.3712L171.129 -32.2463L170.687 -32.4794L171.675 -34.3545L172.117 -34.1213L173.106 -35.9964L172.663 -36.2295L173.652 -38.1045L174.094 -37.8714L175.082 -39.7464L174.64 -39.9796L175.628 -41.8546L176.071 -41.6215L176.332 -42.1168L176.819 -41.8601L177.052 -42.3024L178.911 -41.3225L178.678 -40.8802L180.537 -39.9004L180.77 -40.3427L182.629 -39.3629L182.396 -38.9205L184.255 -37.9407L184.488 -38.383L186.347 -37.4032L186.114 -36.9609L187.973 -35.981L188.206 -36.4233L190.065 -35.4435L189.832 -35.0012L191.69 -34.0214L191.924 -34.4637L193.783 -33.4838L193.549 -33.0415L195.408 -32.0617L195.641 -32.504L197.5 -31.5242L197.267 -31.0818L199.126 -30.102L199.359 -30.5443L201.218 -29.5645L200.985 -29.1222L202.844 -28.1423L203.077 -28.5846L204.936 -27.6048L204.703 -27.1625L206.562 -26.1826L206.795 -26.625L208.654 -25.6451L208.421 -25.2028L210.28 -24.223L210.513 -24.6653L212.372 -23.6854L212.139 -23.2431L213.998 -22.2633L214.231 -22.7056L216.09 -21.7258L215.857 -21.2834L217.716 -20.3036L217.949 -20.7459L219.808 -19.7661L219.574 -19.3238L221.433 -18.3439L221.667 -18.7862L223.525 -17.8064L223.292 -17.3641L225.151 -16.3842L225.384 -16.8266L227.243 -15.8467L227.01 -15.4044L228.869 -14.4246L229.102 -14.8669L230.961 -13.887L230.728 -13.4447L232.587 -12.4649L232.82 -12.9072L234.679 -11.9274L234.446 -11.4851L236.305 -10.5052L236.538 -10.9475L238.397 -9.9677L238.164 -9.52538L240.023 -8.54555L240.256 -8.98786L242.115 -8.00803L241.882 -7.56571L243.741 -6.58588L243.974 -7.0282L245.833 -6.04835L245.599 -5.60603L247.458 -4.6262L247.692 -5.06851L249.55 -4.08868L249.317 -3.64636L251.176 -2.66651L251.409 -3.10883L253.268 -2.129L253.035 -1.68668L254.894 -0.706847L255.127 -1.14916L256.986 -0.16933L256.753 0.272987L258.612 1.25282L258.845 0.810504L260.704 1.79035L260.471 2.23267L262.33 3.2125L262.563 2.77019L264.422 3.75002L264.189 4.19234L266.048 5.17217L266.281 4.72985L268.14 5.7097L267.907 6.15202L269.766 7.13185L269.999 6.68954L271.858 7.66937L271.624 8.11169L273.483 9.09153L273.717 8.64922L275.576 9.62905L275.342 10.0714L277.201 11.0512L277.434 10.6089L279.293 11.5887L279.06 12.031L280.919 13.0109L281.152 12.5686L283.011 13.5484L282.778 13.9907L284.637 14.9706L284.87 14.5282L286.729 15.5081L286.496 15.9504L288.355 16.9302L288.588 16.4879L290.447 17.4678L290.214 17.9101L292.073 18.8899L292.306 18.4476L294.165 19.4274L293.932 19.8698L295.791 20.8496L296.024 20.4073L297.883 21.3871L297.65 21.8294L299.508 22.8093L299.742 22.367L301.601 23.3468L301.367 23.7891L303.226 24.769L303.46 24.3266L305.318 25.3065L305.085 25.7488L306.944 26.7286L307.177 26.2863L309.036 27.2662L308.803 27.7085L310.662 28.6883L310.895 28.246L312.754 29.2258L312.521 29.6682L314.38 30.648L314.613 30.2057L316.472 31.1855L316.239 31.6278L318.098 32.6077L318.331 32.1654L320.19 33.1452L319.957 33.5875L321.816 34.5674L322.049 34.1251L323.908 35.1049L323.675 35.5472L325.534 36.527L325.767 36.0847L327.626 37.0646L327.393 37.5069L329.251 38.4867L329.485 38.0444L331.344 39.0243L331.11 39.4666L332.969 40.4464L333.202 40.0041L335.061 40.9839L334.828 41.4263L336.687 42.4061L336.92 41.9638L338.779 42.9436L338.546 43.3859L340.405 44.3658L340.638 43.9235L342.497 44.9033L342.264 45.3456L344.123 46.3255L344.356 45.8831L346.215 46.863L345.982 47.3053L347.841 48.2851L348.074 47.8428L349.933 48.8227L349.7 49.265L351.559 50.2448L351.792 49.8025L353.651 50.7823L353.418 51.2247L355.277 52.2045L355.51 51.7622L357.369 52.742L357.135 53.1843L358.994 54.1642L359.228 53.7219L361.087 54.7017L360.853 55.144L362.712 56.1239L362.945 55.6816L364.804 56.6614L364.571 57.1037L365.501 57.5936Z" stroke="#9593B1" stroke-dasharray="2.1 2.1"/>
</g>
</svg>
