<svg width="114" height="159" viewBox="0 0 114 159" fill="none" xmlns="http://www.w3.org/2000/svg">
<g clip-path="url(#clip0)">
<path opacity="0.2" d="M56.5829 158.298C87.8327 158.298 113.166 152.978 113.166 146.417C113.166 139.855 87.8327 134.536 56.5829 134.536C25.333 134.536 0 139.855 0 146.417C0 152.978 25.333 158.298 56.5829 158.298Z" fill="#D0CAE1"/>
<path opacity="0.2" d="M29.4607 158.172C23.7921 158.172 19.1993 157.579 19.1993 156.843C19.1993 150.517 33.6888 150.811 39.3527 150.811C45.0166 150.811 41.5228 158.172 29.4607 158.172Z" fill="#11003B"/>
<path opacity="0.2" d="M58.5426 152.078C61.8446 152.078 64.5245 151.485 64.5245 150.748C64.5245 144.422 56.0824 144.717 52.7758 144.717C49.4691 144.717 51.513 152.078 58.5426 152.078Z" fill="#11003B"/>
<path d="M103.325 102.075L21.2852 101.607L19.5266 136.602C19.5266 136.602 22.1832 144.717 62.0596 144.717C101.936 144.717 104.593 138.984 104.593 138.984L103.325 102.075Z" fill="#D0CAE1"/>
<path d="M104.593 100.389C103.957 107.389 85.5478 107.34 62.0597 107.34C38.5716 107.34 20.5135 107.34 19.5266 100.389C18.4696 92.9432 38.5716 94.9865 62.0597 94.9865C85.5478 94.9865 105.58 89.4901 104.593 100.389Z" fill="#A79FC4"/>
<path d="M32.8188 154.62C24.0353 157.449 20.5182 158.042 18.4556 155.959C16.2387 153.724 19.5781 150.543 27.4683 146.233C35.5128 141.839 38.3377 142.967 38.8288 146.01C39.3105 149.035 41.8595 151.711 32.8188 154.62Z" fill="#1F006E"/>
<path d="M32.9497 149.285C25.9248 152.055 31.3736 148.138 30.5598 146.019C30.0172 144.601 25.5086 147.483 30.9667 144.614C34.9094 142.539 37.1918 143.561 37.739 144.85C38.2863 146.14 36.9018 147.724 32.9497 149.285Z" fill="#FEC45A"/>
<path d="M34.4979 147.286L34.3295 147.277C33.0386 147.215 32.0424 146.162 32.1126 144.931L32.4119 139.452C32.4774 138.221 33.5811 137.27 34.872 137.337L35.0404 137.346C36.3312 137.409 37.3275 138.462 37.2573 139.693L36.958 145.171C36.8925 146.403 35.7887 147.349 34.4979 147.286Z" fill="#FBE5CA"/>
<path d="M34.0021 142.401C35.5923 142.401 37.1077 142.513 38.5014 142.713C41.2609 137.766 40.3208 124.806 42.1776 112.818C44.7266 96.3422 36.5511 91.8496 31.9021 91.8496C27.2531 91.8496 26.3271 99.0859 26.3271 115.736C26.3271 127.415 28.1839 137.538 30.8966 142.544C31.8834 142.45 32.9264 142.401 34.0021 142.401Z" fill="#1F006E"/>
<path d="M70.8245 102.075L52.7103 87.4239L56.1619 86.6744L54.4875 83.3596C63.9726 79.9779 79.0467 78.8537 80.5246 85.9695" fill="#D0CAE1"/>
<path d="M53.4259 55.4053C50.919 63.9576 45.0025 72.8536 41.7145 71.9791C38.4266 71.1047 41.8689 61.0488 42.7435 52.1395C43.6789 42.6458 48.7254 37.4573 52.0134 38.3362C55.3014 39.215 55.9328 46.8529 53.4259 55.4053Z" fill="#FBE5CA"/>
<path d="M25.85 67.4291C26.1114 64.9951 25.6879 62.9599 24.9042 62.8833C24.1204 62.8068 23.2732 64.7178 23.0118 67.1518C22.7505 69.5857 23.1739 71.6209 23.9577 71.6975C24.7414 71.7741 25.5886 69.863 25.85 67.4291Z" fill="#EACBA9"/>
<path d="M82.3534 40.384C82.3534 46.5496 74.9871 58.2204 64.59 58.2204C54.1929 58.2204 45.7649 53.2193 45.7649 47.0537C45.7649 42.8823 47.7386 39.0679 53.6925 37.3369C58.6642 35.8914 58.7297 33.2325 61.3394 32.9425C65.0998 32.5231 71.2875 32.9692 74.1639 33.3262C81.5583 34.2407 82.3534 36.4669 82.3534 40.384Z" fill="#FBE5CA"/>
<path d="M36.6961 74.9728C30.817 74.6471 24.2785 71.8811 24.4375 69.3158C24.5966 66.7505 31.57 67.5 37.4771 66.5676C43.7724 65.5772 47.7853 68.3611 47.6263 70.9219C47.472 73.4827 42.5751 75.2984 36.6961 74.9728Z" fill="#FBE5CA"/>
<path d="M69.7487 32.9334L58.028 35.7887V30.5778V23.0515L65.0155 22.0566L69.7487 32.9334Z" fill="#FBE5CA"/>
<path d="M78.7006 50.4976C77.3676 45.2377 77.3443 38.1218 80.6322 35.4629C79.4817 33.9148 78.5463 33.7899 77.4705 34.1378C75.6979 34.7133 74.4959 35.9938 73.3314 37.4705C70.455 41.1377 62.9483 44.8986 57.0506 44.8986C52.0789 44.8986 52.3689 38.8267 52.4858 38.1441C52.6962 36.8994 50.7693 37.7292 50.7179 38.9204C50.2689 49.2261 45.3346 48.78 51.4615 62.7217C52.8553 65.8892 53.4913 67.2901 52.7056 72.8668C51.2136 83.4312 51.7655 92.6885 69.875 92.8937C76.161 92.9651 83.7331 100.375 82.6808 92.2959C79.781 70.0517 84.1681 67.5265 83.9857 58.2023C83.9716 57.3859 83.3543 56.7167 82.5264 56.5115C80.5059 56.0073 79.4255 53.3573 78.7006 50.4976Z" fill="#FEC45A"/>
<path d="M55.4323 73.799H29.7413C29.2503 73.8035 28.8106 73.5135 28.6516 73.0718L22.8193 58.8669C22.5808 58.2111 22.9409 57.2965 23.6612 57.2117L50.8629 53.8211C51.4381 53.7542 51.976 54.1066 52.1116 54.642L56.5595 72.1126C56.7232 72.7908 56.1666 73.7901 55.4323 73.799Z" fill="#D0CAE1"/>
<path d="M55.0114 73.884L29.2923 74.2275C28.8012 74.2319 28.3616 73.942 28.2025 73.5003L22.8193 58.8671C22.5807 58.2113 23.0344 57.5153 23.7547 57.4305L50.4138 54.2496C50.9891 54.1827 51.527 54.5351 51.6626 55.0705L56.1105 72.5411C56.2742 73.2192 55.7457 73.875 55.0114 73.884Z" fill="#EBE8F2"/>
<path d="M63.6078 136.477C65.3477 145.163 63.5984 148.964 60.4321 149.544C57.2611 150.12 53.8702 147.255 52.1303 138.569C50.3905 129.883 52.28 127.086 55.4464 126.51C58.6127 125.935 61.8679 127.791 63.6078 136.477Z" fill="#1F006E"/>
<path d="M60.7314 131.685C62.2374 138.792 60.7969 133.104 57.247 133.684C53.3277 134.322 54.2257 140.251 52.8366 133.122C52.0134 128.897 53.641 126.969 55.8205 126.572C58 126.175 59.8849 127.683 60.7314 131.685Z" fill="#FEC45A"/>
<path d="M56.9617 131.252L56.798 131.302C55.5586 131.663 54.2537 130.998 53.8749 129.816L52.1958 124.569C51.817 123.387 52.5139 122.142 53.7533 121.781L53.917 121.732C55.1564 121.371 56.4613 122.035 56.8401 123.218L58.5192 128.464C58.898 129.642 58.2012 130.891 56.9617 131.252Z" fill="#FBE5CA"/>
<path d="M58.8512 88.7402C57.42 92.6037 46.4617 86.041 40.1992 84.0067C33.9319 81.9723 29.9564 77.1719 31.3595 73.2995C32.9825 68.8203 38.6885 67.1919 44.7967 69.6188C51.3305 72.2109 60.5116 84.2431 58.8512 88.7402Z" fill="#11003B"/>
<path d="M64.4122 104.707C51.5644 105.983 23.7173 100.251 28.9182 93.4381C34.119 86.6256 51.8684 81.9679 74.7812 83.8685C84.9585 84.7161 90.9124 102.075 64.4122 104.707Z" fill="#1F006E"/>
<path d="M54.3145 125.461C55.8205 124.979 57.2891 124.609 58.6641 124.341C59.955 119.715 54.2256 99.3266 51.0546 90.2701C46.588 77.5018 43.1784 66.9418 34.9796 69.6944C27.8143 72.1035 30.6159 82.5877 35.0871 95.3561C38.2208 104.314 47.486 123.494 51.4053 126.51C52.3174 126.139 53.2949 125.787 54.3145 125.461Z" fill="#11003B"/>
<path d="M86.4832 57.4304C86.4832 69.8196 83.2981 83.8951 79.8839 83.8951C76.4696 83.8951 76.9467 69.1548 75.277 56.8683C73.495 43.7787 76.8906 34.9988 80.3048 34.9988C83.7144 34.9988 86.4832 45.0413 86.4832 57.4304Z" fill="#FBE5CA"/>
<path d="M79.0892 82.6475C82.7635 80.3853 82.6658 74.0052 78.8711 68.397C75.0763 62.7888 69.0215 60.0764 65.3472 62.3385C61.6729 64.6007 61.7705 70.9809 65.5653 76.589C69.36 82.1972 75.4149 84.9097 79.0892 82.6475Z" fill="#EACBA9"/>
<path d="M70.455 71.7114C66.2129 64.1494 61.4797 55.0483 64.2485 53.634C67.0173 52.2198 71.6803 61.4146 77.2414 68.2226C83.1672 75.4768 83.4197 82.2402 80.6509 83.6544C77.8821 85.0686 74.697 79.2734 70.455 71.7114Z" fill="#FBE5CA"/>
<path d="M66.7554 50.8903C68.7479 53.6251 68.5234 57.0603 66.2503 58.5682C63.9773 60.0762 61.3394 57.7384 58.898 55.3561C56.48 52.996 55.1377 48.6998 56.625 46.478C57.9953 44.4347 62.2561 49.4046 63.8089 50.0069C65.0249 50.4709 65.8855 49.6946 66.7554 50.8903Z" fill="#FBE5CA"/>
<path d="M67.5313 55.2514C68.2692 54.988 68.1383 52.9169 67.239 50.6256C66.3397 48.3343 65.0126 46.6904 64.2748 46.9538C63.537 47.2173 63.6679 49.2884 64.5671 51.5797C65.4664 53.871 66.7935 55.5149 67.5313 55.2514Z" fill="#FBE5CA"/>
<path d="M38.8939 67.5962C40.1313 67.3201 40.8674 66.0071 40.5378 64.6636C40.2083 63.3201 38.9381 62.4548 37.7006 62.7309C36.4632 63.0071 35.7271 64.3201 36.0567 65.6636C36.3862 67.0071 37.6564 67.8724 38.8939 67.5962Z" fill="#A79FC4"/>
<path d="M28.268 75.1551C27.0193 75.6458 23.8576 74.2717 23.0344 73.2768C21.3179 71.2068 20.1814 69.7836 22.9596 67.7715C25.7144 65.7773 29.1473 65.7684 31.2754 67.4548C33.2304 69.0073 29.9985 70.9614 29.1801 72.3578C28.5487 73.4464 29.6805 74.6019 28.268 75.1551Z" fill="#FBE5CA"/>
<path d="M44.7921 29.4175C47.5936 35.4314 54.96 34.9942 56.4753 29.2168C54.8196 28.0345 53.4212 26.4017 52.4952 24.4119C49.8433 18.7192 52.0508 12.2592 57.4294 9.97946C58.4864 9.53333 59.5856 9.28349 60.6893 9.20765C57.1114 5.29059 51.5317 3.74696 46.7471 5.77241C40.7324 8.32876 41.8268 23.0512 44.7921 29.4175Z" fill="#1F006E"/>
<path d="M62.0596 32.7949C64.9036 32.7949 67.2091 31.0612 67.2091 28.9225C67.2091 26.7838 64.9036 25.05 62.0596 25.05C59.2157 25.05 56.9102 26.7838 56.9102 28.9225C56.9102 31.0612 59.2157 32.7949 62.0596 32.7949Z" fill="#EACBA9"/>
<path d="M69.4354 17.6932C69.4354 24.8135 64.5526 30.5864 58.5332 30.5864C54.9553 30.5864 54.2069 28.8242 52.28 26.7943C50.0397 24.4342 50.0163 19.9417 49.137 16.0023C47.5796 9.03815 52.5139 4.79541 58.5332 4.79541C64.5526 4.79541 69.4354 10.5728 69.4354 17.6932Z" fill="#FBE5CA"/>
<path d="M65.0062 1.0166C56.9056 -2.44094 47.5421 3.4168 47.5421 10.8762C50.3577 10.3676 53.3697 10.6442 56.2134 11.8666C62.6349 14.6326 66.0726 21.5477 64.2345 28.0389C64.2204 28.088 64.2064 28.1326 64.1924 28.1817C63.4441 30.7158 66.0913 32.9553 68.6169 31.8935C72.7654 30.1536 79.173 29.2346 80.6275 24.6974C83.0128 17.3005 72.4146 4.17969 65.0062 1.0166Z" fill="#1F006E"/>
</g>
<defs>
<clipPath id="clip0">
<rect width="113.17" height="158.297" fill="white"/>
</clipPath>
</defs>
</svg>
