<svg width="166" height="136" viewBox="0 0 166 136" fill="none" xmlns="http://www.w3.org/2000/svg">
<ellipse cx="28.9538" cy="128.468" rx="18.2042" ry="2.53178" fill="#F2F0F7"/>
<path d="M39.3879 105.408H16.5228L17.8212 129H38.0895L39.3879 105.408Z" fill="#FBE5CA"/>
<path d="M29.3761 79.8523H25.777V100.363H29.3761V79.8523Z" fill="#EBE8F2"/>
<path d="M41.0194 99.6553H14.8882V107.178H41.0194V99.6553Z" fill="#FEC45A"/>
<path d="M44.3251 24.3354C46.033 30.3556 44.3373 36.7916 39.9653 41.2938C35.8347 45.547 30.9525 52.4233 27.9553 62.9061C21.9671 83.8566 25.5051 99.2151 25.5051 99.2151C25.5051 99.2151 24.6893 72.0107 29.3149 67.384C33.9405 62.7574 56.2648 57.2048 57.8963 39.5603C59.5309 21.9159 41.0194 12.699 41.0194 12.699L44.3251 24.3354Z" fill="#D0CAE1"/>
<path d="M29.0429 99.2151C29.0429 99.2151 49.357 63.6378 24.4662 36.2634C16.5227 27.5232 16.5227 0 16.5227 0C16.5227 0 -12.572 45.1524 17.6226 46.3698C39.0915 47.235 28.6427 61.0148 29.3179 77.7424C29.99 94.4701 29.0429 99.2151 29.0429 99.2151Z" fill="#EBE8F2"/>
<path d="M34.9334 100.238C34.9334 100.238 21.2675 88.3345 34.0627 77.4024C46.8579 66.4702 49.0882 59.4695 49.0882 59.4695C49.0882 59.4695 53.3899 77.369 44.9514 84.7461C36.5129 92.1233 36.296 70.4016 32.755 86.3217C31.2947 92.8853 34.9334 100.238 34.9334 100.238Z" fill="#EBE8F2"/>
<path d="M19.3427 82.3629C19.7491 83.2464 25.2943 100.18 24.9429 99.2727C24.0172 96.8774 18.3253 76.7921 15.9912 74.2329C9.33082 66.9286 3.75813 57.2381 1.92806 53.9108C1.64393 53.3947 0.898457 53.3917 0.611268 53.9078C-1.31657 57.3626 1.65615 71.8224 4.79079 77.3386C8.60063 84.0448 23.9805 94.1724 26.8646 100.335C26.8952 100.396 19.3152 82.2992 19.3427 82.3629Z" fill="#D0CAE1"/>
<ellipse cx="93.2225" cy="133.03" rx="72.6305" ry="2.53178" fill="#F2F0F7"/>
<path d="M41.638 64.2459H144.935C146.308 64.2459 147.421 65.3587 147.421 66.7315V129.157H39.1525V66.7315C39.1525 65.3587 40.2653 64.2459 41.638 64.2459Z" fill="white" stroke="#D0CAE1" stroke-width="3.3141"/>
<mask id="mask0" mask-type="alpha" maskUnits="userSpaceOnUse" x="37" y="62" width="113" height="69">
<path d="M41.6381 64.2459H144.935C146.308 64.2459 147.421 65.3587 147.421 66.7315V129.157H39.1525V66.7315C39.1525 65.3587 40.2654 64.2459 41.6381 64.2459Z" fill="white" stroke="#D0CAE1" stroke-width="3.3141"/>
</mask>
<g mask="url(#mask0)">
<g opacity="0.5">
<g clip-path="url(#clip0)">
<path opacity="0.1" d="M137.407 118.988C137.725 117.061 137.891 115.09 137.891 113.084C137.891 90.9193 117.75 72.9519 92.9047 72.9519C68.0594 72.9519 47.9183 90.9199 47.9183 113.084C47.9183 115.09 48.084 117.061 48.4027 118.988H137.407Z" fill="#F39322"/>
<path d="M72.5724 73.9091C72.7636 74.2399 72.4395 74.7589 71.9005 74.9835C70.7909 75.4461 68.8794 76.3153 66.5224 77.6786C64.1654 79.042 62.4591 80.2663 61.5049 80.9983C61.0411 81.354 60.4299 81.3759 60.2387 81.0457C60.0954 80.798 60.2393 80.4296 60.5847 80.1613C61.4976 79.4529 63.4145 78.038 65.899 76.6006C68.3835 75.1632 70.5651 74.2065 71.634 73.7677C72.0377 73.6026 72.4292 73.6615 72.5724 73.9091Z" fill="#EBE8F2"/>
<path d="M126.415 81.4719C126.275 81.6382 126.018 81.6358 125.882 81.4665C125.603 81.1174 125.007 80.5717 124.24 79.9295C123.473 79.2867 122.891 78.846 122.498 78.6324C122.308 78.5286 122.26 78.276 122.399 78.1097C122.504 77.9853 122.681 77.9501 122.825 78.0266C123.204 78.2287 123.886 78.7094 124.695 79.3869C125.503 80.0643 126.155 80.701 126.421 81.0391C126.523 81.1666 126.519 81.3475 126.415 81.4719Z" fill="#EBE8F2"/>
<path d="M127.161 82.6743C127.368 82.6743 127.536 82.5067 127.536 82.2998C127.536 82.093 127.368 81.9253 127.161 81.9253C126.954 81.9253 126.787 82.093 126.787 82.2998C126.787 82.5067 126.954 82.6743 127.161 82.6743Z" fill="#EBE8F2"/>
<path d="M74.0475 74.039C74.4039 74.039 74.6927 73.7501 74.6927 73.3938C74.6927 73.0374 74.4039 72.7485 74.0475 72.7485C73.6911 72.7485 73.4023 73.0374 73.4023 73.3938C73.4023 73.7501 73.6911 74.039 74.0475 74.039Z" fill="#EBE8F2"/>
<path d="M56.8801 74.2515H56.1195V73.491C56.1195 73.2585 55.9314 73.0703 55.6989 73.0703C55.4664 73.0703 55.2782 73.2585 55.2782 73.491V74.2515H54.5176C54.2852 74.2515 54.097 74.4397 54.097 74.6722C54.097 74.9047 54.2852 75.0929 54.5176 75.0929H55.2782V75.8534C55.2782 76.0859 55.4664 76.2741 55.6989 76.2741C55.9314 76.2741 56.1195 76.0859 56.1195 75.8534V75.0929H56.8801C57.1126 75.0929 57.3008 74.9047 57.3008 74.6722C57.3014 74.4397 57.1126 74.2515 56.8801 74.2515Z" fill="#FBE5CA"/>
<path d="M142.949 108.614H142.189V107.854C142.189 107.621 142.001 107.433 141.768 107.433C141.536 107.433 141.348 107.621 141.348 107.854V108.614H140.587C140.354 108.614 140.166 108.802 140.166 109.035C140.166 109.267 140.354 109.455 140.587 109.455H141.348V110.216C141.348 110.448 141.536 110.637 141.768 110.637C142.001 110.637 142.189 110.448 142.189 110.216V109.455H142.949C143.182 109.455 143.37 109.267 143.37 109.035C143.371 108.802 143.182 108.614 142.949 108.614Z" fill="#EBE8F2"/>
<path d="M54.0399 87.0958C51.8565 87.3155 52.1291 86.0074 52.4192 85.6262C52.8715 85.0411 53.7565 85.2547 53.9792 85.8599C54.0922 86.093 54.0217 86.8566 54.0399 87.0958Z" fill="#EBE8F2"/>
<path d="M116.128 71.6468C118.311 71.8665 118.038 70.5584 117.748 70.1772C117.296 69.5921 116.411 69.8058 116.188 70.4109C116.075 70.6446 116.146 71.4083 116.128 71.6468Z" fill="#EBE8F2"/>
<path d="M130.052 120.374C134.607 120.374 138.3 119.924 138.3 119.368C138.3 118.813 134.607 118.363 130.052 118.363C125.496 118.363 121.804 118.813 121.804 119.368C121.804 119.924 125.496 120.374 130.052 120.374Z" fill="#EBE8F2"/>
<path d="M129.77 119.653C132.337 119.653 134.417 119.4 134.417 119.087C134.417 118.774 132.337 118.521 129.77 118.521C127.203 118.521 125.123 118.774 125.123 119.087C125.123 119.4 127.203 119.653 129.77 119.653Z" fill="#D0CAE1"/>
<path d="M132.67 109.362H126.745L127.081 119.15H132.334L132.67 109.362Z" fill="#EBE8F2"/>
<path d="M130.076 102.697H129.143V108.047H130.076V102.697Z" fill="#EBE8F2"/>
<path d="M133.094 107.862H126.322V109.824H133.094V107.862Z" fill="#D0CAE1"/>
<path d="M135.14 87.5862C135.14 87.5862 131.26 92.8131 129.708 98.2768C128.155 103.74 129.073 107.747 129.073 107.747C129.073 107.747 128.861 100.651 130.06 99.4447C131.26 98.238 137.044 96.7903 137.468 92.1879C137.891 87.5856 137.891 83.4944 137.891 83.4944L135.14 87.5862Z" fill="#D0CAE1"/>
<path d="M129.99 107.747C129.99 107.747 131.921 100.431 128.804 91.3278C125.687 82.2245 119.41 83.8149 119.41 83.8149C119.41 83.8149 119.022 90.1714 123.377 93.6405C127.732 97.1095 129.885 97.7833 130.06 102.146C130.235 106.51 129.99 107.747 129.99 107.747Z" fill="#EBE8F2"/>
<path d="M128.917 107.747C128.917 107.747 131.88 102.816 128.565 99.9649C125.249 97.1138 125.249 97.1138 125.249 97.1138C125.249 97.1138 123.062 99.3233 125.249 101.247C127.436 103.17 129.223 102.381 129.482 104.117C129.741 105.852 128.917 107.747 128.917 107.747Z" fill="#EBE8F2"/>
<path d="M129.99 107.803C129.99 107.803 129.399 105.368 131.515 103.032C133.631 100.696 135.325 97.4246 135.325 97.4246C135.325 97.4246 137.512 100.99 136.524 102.738C135.537 104.487 131.416 103.497 130.669 105.104C129.922 106.712 129.99 107.803 129.99 107.803Z" fill="#D0CAE1"/>
<path d="M53.3322 120.648C56.0717 120.648 58.2926 120.304 58.2926 119.878C58.2926 119.453 56.0717 119.108 53.3322 119.108C50.5926 119.108 48.3717 119.453 48.3717 119.878C48.3717 120.304 50.5926 120.648 53.3322 120.648Z" fill="#EBE8F2"/>
<path d="M53.1628 120.096C54.7066 120.096 55.9581 119.902 55.9581 119.662C55.9581 119.423 54.7066 119.228 53.1628 119.228C51.619 119.228 50.3676 119.423 50.3676 119.662C50.3676 119.902 51.619 120.096 53.1628 120.096Z" fill="#D0CAE1"/>
<path d="M55.3395 114.809H50.7967L51.0547 119.527H55.0816L55.3395 114.809Z" fill="#EBE8F2"/>
<path d="M53.3504 109.7H52.6353V113.801H53.3504V109.7Z" fill="#EBE8F2"/>
<path d="M55.6637 113.659H50.4719V115.164H55.6637V113.659Z" fill="#D0CAE1"/>
<path d="M56.3204 98.5996C56.6597 99.8033 56.3229 101.09 55.4542 101.99C54.6336 102.841 53.6636 104.216 53.0681 106.312C51.8784 110.501 52.5813 113.571 52.5813 113.571C52.5813 113.571 52.4192 108.132 53.3382 107.207C54.2572 106.282 58.6926 105.172 59.0168 101.644C59.3415 98.1158 55.6636 96.2729 55.6636 96.2729L56.3204 98.5996Z" fill="#D0CAE1"/>
<path d="M53.2842 113.571C53.2842 113.571 57.3202 106.458 52.3749 100.985C50.7967 99.2376 50.7967 93.7339 50.7967 93.7339C50.7967 93.7339 45.0162 102.762 51.0152 103.005C55.2807 103.178 53.2047 105.934 53.3389 109.278C53.4724 112.623 53.2842 113.571 53.2842 113.571Z" fill="#EBE8F2"/>
<path d="M54.4545 113.776C54.4545 113.776 51.7394 111.396 54.2815 109.21C56.8236 107.024 57.2668 105.625 57.2668 105.625C57.2668 105.625 58.1214 109.203 56.4449 110.678C54.7683 112.153 54.7252 107.81 54.0217 110.993C53.7315 112.306 54.4545 113.776 54.4545 113.776Z" fill="#EBE8F2"/>
<path d="M51.357 110.202C51.4377 110.379 52.5394 113.764 52.4696 113.583C52.2857 113.104 51.1548 109.088 50.6911 108.576C49.3678 107.116 48.2606 105.178 47.897 104.513C47.8406 104.41 47.6925 104.409 47.6354 104.512C47.2524 105.203 47.843 108.094 48.4658 109.197C49.2227 110.538 52.2784 112.563 52.8514 113.795C52.8575 113.807 51.3515 110.189 51.357 110.202Z" fill="#D0CAE1"/>
<path d="M108.616 103.324H74.9938C73.8126 103.324 72.8547 102.366 72.8547 101.184V81.7638C72.8547 80.5826 73.8126 79.6248 74.9938 79.6248H108.616C109.798 79.6248 110.756 80.5826 110.756 81.7638V101.184C110.756 102.366 109.798 103.324 108.616 103.324Z" fill="#EBE8F2"/>
<path d="M91.1948 84.7502H75.6688C75.1298 84.7502 74.6927 84.3132 74.6927 83.7742C74.6927 83.2351 75.1298 82.7981 75.6688 82.7981H91.1948C91.7338 82.7981 92.1709 83.2351 92.1709 83.7742C92.1709 84.3138 91.7338 84.7502 91.1948 84.7502Z" fill="white"/>
<path d="M79.9009 88.6662H75.4661C75.0394 88.6662 74.6934 88.3202 74.6934 87.8934V87.1201H79.9015C80.3282 87.1201 80.6742 87.4661 80.6742 87.8928C80.6736 88.3202 80.3276 88.6662 79.9009 88.6662Z" fill="white"/>
<path d="M87.2626 88.6662H82.8278C82.4011 88.6662 82.0551 88.3202 82.0551 87.8934V87.1201H87.2632C87.69 87.1201 88.036 87.4661 88.036 87.8928C88.0353 88.3202 87.6894 88.6662 87.2626 88.6662Z" fill="white"/>
<path d="M79.9009 92.1055H75.4661C75.0394 92.1055 74.6934 91.7595 74.6934 91.3328V90.5601H79.9015C80.3282 90.5601 80.6742 90.9061 80.6742 91.3328C80.6736 91.7595 80.3276 92.1055 79.9009 92.1055Z" fill="white"/>
<path d="M87.2626 92.1055H82.8278C82.4011 92.1055 82.0551 91.7595 82.0551 91.3328V90.5601H87.2632C87.69 90.5601 88.036 90.9061 88.036 91.3328C88.0353 91.7595 87.6894 92.1055 87.2626 92.1055Z" fill="white"/>
<path d="M79.9009 95.5447H75.4661C75.0394 95.5447 74.6934 95.1987 74.6934 94.772V93.9993H79.9015C80.3282 93.9993 80.6742 94.3453 80.6742 94.772C80.6736 95.1987 80.3276 95.5447 79.9009 95.5447Z" fill="white"/>
<path d="M87.2626 95.5447H82.8278C82.4011 95.5447 82.0551 95.1987 82.0551 94.772V93.9993H87.2632C87.69 93.9993 88.036 94.3453 88.036 94.772C88.0353 95.1987 87.6894 95.5447 87.2626 95.5447Z" fill="white"/>
<path d="M101.277 87.9487L103.323 83.2225C102.696 82.9506 102.004 82.7988 101.277 82.7988C98.4328 82.7988 96.1273 85.1042 96.1273 87.9487C96.1273 90.7931 98.4328 93.0985 101.277 93.0985C103.855 93.0985 105.99 91.2053 106.368 88.7329L101.277 87.9487Z" fill="white"/>
<path d="M102.349 87.3592L104.267 82.6919C104.267 82.6919 105.593 82.7829 106.79 84.8134C107.987 86.8438 107.313 87.9892 107.313 87.9892L102.349 87.3592Z" fill="white"/>
<path d="M106.421 97.5583C106.952 97.5583 107.382 97.1281 107.382 96.5974C107.382 96.0667 106.952 95.6365 106.421 95.6365C105.89 95.6365 105.46 96.0667 105.46 96.5974C105.46 97.1281 105.89 97.5583 106.421 97.5583Z" fill="white"/>
<path d="M102.349 97.5583C102.88 97.5583 103.31 97.1281 103.31 96.5974C103.31 96.0667 102.88 95.6365 102.349 95.6365C101.818 95.6365 101.388 96.0667 101.388 96.5974C101.388 97.1281 101.818 97.5583 102.349 97.5583Z" fill="white"/>
<path d="M98.2774 97.5583C98.808 97.5583 99.2382 97.1281 99.2382 96.5974C99.2382 96.0667 98.808 95.6365 98.2774 95.6365C97.7467 95.6365 97.3165 96.0667 97.3165 96.5974C97.3165 97.1281 97.7467 97.5583 98.2774 97.5583Z" fill="white"/>
<path d="M68.2324 120.769C68.1146 120.769 68.0278 120.664 68.0551 120.554L74.6788 106.141H76.257L68.406 120.647C68.3817 120.72 68.3113 120.769 68.2324 120.769Z" fill="#EBE8F2"/>
<path d="M110.552 120.769C110.67 120.769 110.757 120.664 110.73 120.554L107.141 106.141H105.563L110.378 120.647C110.402 120.72 110.473 120.769 110.552 120.769Z" fill="#EBE8F2"/>
<path d="M71.8744 121.376C71.7567 121.376 71.6699 121.267 71.6972 121.152L75.2858 106.141H76.864L72.0487 121.25C72.0238 121.325 71.9534 121.376 71.8744 121.376Z" fill="#D0CAE1"/>
<path d="M114.194 121.376C114.312 121.376 114.399 121.267 114.372 121.152L107.748 106.141H106.17L114.02 121.25C114.044 121.325 114.115 121.376 114.194 121.376Z" fill="#D0CAE1"/>
<path d="M117.436 106.329H64.9904C64.6553 106.329 64.3834 106.057 64.3834 105.722C64.3834 105.387 64.6553 105.115 64.9904 105.115H117.436C117.771 105.115 118.043 105.387 118.043 105.722C118.043 106.057 117.771 106.329 117.436 106.329Z" fill="#D0CAE1"/>
<path d="M82.6287 120.75C87.9091 120.75 92.1897 120.253 92.1897 119.641C92.1897 119.029 87.9091 118.533 82.6287 118.533C77.3484 118.533 73.0678 119.029 73.0678 119.641C73.0678 120.253 77.3484 120.75 82.6287 120.75Z" fill="#EBE8F2"/>
<path opacity="0.2" d="M85.316 120.302C86.4494 120.302 87.3682 120.134 87.3682 119.926C87.3682 119.718 86.4494 119.549 85.316 119.549C84.1825 119.549 83.2637 119.718 83.2637 119.926C83.2637 120.134 84.1825 120.302 85.316 120.302Z" fill="#11003B"/>
<path opacity="0.2" d="M84.8947 120.183C85.6393 120.183 86.2429 120.09 86.2429 119.977C86.2429 119.863 85.6393 119.771 84.8947 119.771C84.1501 119.771 83.5465 119.863 83.5465 119.977C83.5465 120.09 84.1501 120.183 84.8947 120.183Z" fill="#11003B"/>
<path opacity="0.2" d="M76.603 120.371C77.3476 120.371 77.9511 120.279 77.9511 120.165C77.9511 120.052 77.3476 119.96 76.603 119.96C75.8584 119.96 75.2548 120.052 75.2548 120.165C75.2548 120.279 75.8584 120.371 76.603 120.371Z" fill="#11003B"/>
<path opacity="0.2" d="M78.7008 119.138C79.4454 119.138 80.049 119.046 80.049 118.933C80.049 118.819 79.4454 118.727 78.7008 118.727C77.9562 118.727 77.3526 118.819 77.3526 118.933C77.3526 119.046 77.9562 119.138 78.7008 119.138Z" fill="#11003B"/>
<path opacity="0.2" d="M77.1614 120.445C78.2949 120.445 79.2137 120.277 79.2137 120.069C79.2137 119.861 78.2949 119.693 77.1614 119.693C76.028 119.693 75.1091 119.861 75.1091 120.069C75.1091 120.277 76.028 120.445 77.1614 120.445Z" fill="#11003B"/>
<path d="M79.4771 111.374C79.4783 111.156 79.6173 110.961 79.8243 110.895C80.3099 110.738 81.2532 110.632 82.3373 110.632C83.4214 110.632 84.3641 110.738 84.8503 110.895C85.0573 110.961 85.1969 111.156 85.1975 111.374C85.1987 111.654 84.9717 111.882 84.6907 111.882H79.9833C79.7029 111.883 79.4753 111.655 79.4771 111.374Z" fill="#FEC45A"/>
<path d="M81.7119 114.839L82.8488 114.839L82.8488 112.735L81.7119 112.735L81.7119 114.839Z" fill="#EBE8F2"/>
<path d="M81.3485 112.736H83.2114C83.3723 112.736 83.5022 112.605 83.5022 112.445V112.401C83.5022 112.24 83.3717 112.111 83.2114 112.111H81.3485C81.1876 112.111 81.0577 112.241 81.0577 112.401V112.444C81.0577 112.605 81.1882 112.736 81.3485 112.736Z" fill="#D0CAE1"/>
<path d="M81.4272 116.545L83.1329 116.545L83.1329 114.839L81.4272 114.839L81.4272 116.545Z" fill="#D0CAE1"/>
<path d="M85.3019 118.75C85.2625 118.752 85.2248 118.764 85.1902 118.782C85.359 118.84 85.4937 119.049 85.5113 119.305C85.5289 119.562 85.4245 119.787 85.2649 119.868C85.3019 119.881 85.3408 119.887 85.3802 119.884C85.5993 119.869 85.7596 119.603 85.7383 119.29C85.7171 118.976 85.5216 118.735 85.3019 118.75Z" fill="#D0CAE1"/>
<path d="M85.2619 119.867C85.4184 119.856 85.5286 119.604 85.508 119.304C85.4873 119.005 85.3437 118.77 85.1872 118.781C85.0307 118.792 84.9205 119.043 84.9412 119.343C84.9618 119.643 85.1054 119.878 85.2619 119.867Z" fill="#D0CAE1"/>
<path d="M84.9802 119.911C85.1995 119.896 85.3599 119.63 85.3384 119.316C85.3168 119.003 85.1215 118.761 84.9021 118.776C84.6827 118.791 84.5224 119.058 84.5439 119.371C84.5654 119.684 84.7608 119.926 84.9802 119.911Z" fill="#D0CAE1"/>
<path d="M83.4075 117.115C84.8801 117.271 86.0886 117.723 86.6835 118.319C86.6331 117.178 84.6816 116.26 82.2797 116.26C82.2724 116.26 82.2651 116.26 82.2578 116.26C81.7552 116.262 81.2726 116.303 80.8228 116.378C79.1341 116.661 78.6127 117.408 78.5733 118.307C79.2841 117.594 80.1721 117.099 82.0381 117.059C82.0387 117.059 82.0387 117.059 82.0393 117.059C83.4354 117.753 84.9468 118.593 85.1963 119.273C85.7287 118.249 84.494 117.878 83.4075 117.115Z" fill="#EBE8F2"/>
<path d="M78.8404 118.933C79.123 118.933 79.3521 118.703 79.3521 118.421C79.3521 118.138 79.123 117.909 78.8404 117.909C78.5577 117.909 78.3286 118.138 78.3286 118.421C78.3286 118.703 78.5577 118.933 78.8404 118.933Z" fill="#D0CAE1"/>
<path d="M86.2319 118.819C86.5145 118.819 86.7436 118.59 86.7436 118.307C86.7436 118.025 86.5145 117.796 86.2319 117.796C85.9493 117.796 85.7202 118.025 85.7202 118.307C85.7202 118.59 85.9493 118.819 86.2319 118.819Z" fill="#D0CAE1"/>
<path d="M79.6896 111.482H85.0021C85.1757 111.482 85.3159 111.622 85.3159 111.796C85.3159 111.97 85.1757 112.11 85.0021 112.11H79.6896C79.5159 112.11 79.3757 111.97 79.3757 111.796C79.3757 111.623 79.5159 111.482 79.6896 111.482Z" fill="#FBE5CA"/>
<path d="M82.2015 97.1716C81.8755 97.1716 81.5732 96.9944 81.325 96.7157V98.5786H83.0908V96.7012C82.8401 96.9889 82.5329 97.1716 82.2015 97.1716Z" fill="#FBE5CA"/>
<path d="M82.2015 97.1716C82.5335 97.1716 82.84 96.9883 83.0907 96.7012V96.1543H81.325V96.7158C81.5732 96.995 81.8749 97.1716 82.2015 97.1716Z" fill="#EACBA9"/>
<path d="M81.2564 95.6329C81.7589 95.6329 82.1663 94.9334 82.1663 94.0705C82.1663 93.2076 81.7589 92.5081 81.2564 92.5081C80.7538 92.5081 80.3465 93.2076 80.3465 94.0705C80.3465 94.9334 80.7538 95.6329 81.2564 95.6329Z" fill="#11003B"/>
<path d="M82.434 95.0792C83.2721 95.0792 83.9515 94.3998 83.9515 93.5617C83.9515 92.7236 83.2721 92.0442 82.434 92.0442C81.5959 92.0442 80.9164 92.7236 80.9164 93.5617C80.9164 94.3998 81.5959 95.0792 82.434 95.0792Z" fill="#11003B"/>
<path d="M83.7287 94.6665C83.7287 95.7482 83.0446 96.9289 82.2015 96.9289C81.3583 96.9289 80.6742 95.7482 80.6742 94.6665C80.6742 93.5849 81.3583 93.0112 82.2015 93.0112C83.0446 93.0112 83.7287 93.5849 83.7287 94.6665Z" fill="#FBE5CA"/>
<path d="M80.6433 95.5411C80.7941 95.5411 80.9164 95.3451 80.9164 95.1034C80.9164 94.8617 80.7941 94.6658 80.6433 94.6658C80.4924 94.6658 80.3701 94.8617 80.3701 95.1034C80.3701 95.3451 80.4924 95.5411 80.6433 95.5411Z" fill="#FBE5CA"/>
<path d="M83.6935 95.5411C83.8444 95.5411 83.9667 95.3451 83.9667 95.1034C83.9667 94.8617 83.8444 94.6658 83.6935 94.6658C83.5426 94.6658 83.4203 94.8617 83.4203 95.1034C83.4203 95.3451 83.5426 95.5411 83.6935 95.5411Z" fill="#FBE5CA"/>
<path d="M88.4118 96.7911C88.2673 96.4464 87.6591 96.3177 87.4727 96.3025C87.4727 96.3025 87.4733 96.9174 87.2317 96.9289C86.978 96.9411 87.0011 97.3866 87.1031 97.6798C87.1407 97.7884 87.1911 97.8856 87.2487 97.9705L86.9082 99.6665L87.8812 99.862L88.2169 98.1915C88.2333 98.1593 88.2467 98.1241 88.2558 98.0834C88.308 97.8589 88.5137 97.0358 88.4118 96.7911Z" fill="#FBE5CA"/>
<path d="M83.2425 97.0642L82.6379 98.0457C82.4309 98.3814 81.9429 98.3814 81.7359 98.0457L81.1313 97.0642L79.9027 97.2214C79.0572 97.3295 78.1206 98.0269 78.1206 98.8792L77.8013 100.241C77.7988 100.258 77.7946 100.284 77.7922 100.301L77.6932 101.765C77.6908 101.798 77.6859 101.831 77.6774 101.863L77.3994 102.972L76.3159 103.609C76.0719 103.906 75.9809 104.3 76.0695 104.674L76.3754 105.115H85.8581L86.2229 99.6561C85.9503 98.0433 85.3166 97.3295 84.4711 97.2214L83.2425 97.0642Z" fill="#11003B"/>
<path d="M87.4102 98.8178C87.2202 98.7704 87.0436 98.7049 86.8833 98.626C86.6272 99.1535 86.3801 99.8436 86.1865 100.615C85.7367 102.408 85.7506 103.956 86.2162 104.073C86.6824 104.19 87.4242 102.831 87.8739 101.038C88.0743 100.239 88.1823 99.4904 88.1999 98.8937C87.9559 98.9101 87.6858 98.887 87.4102 98.8178Z" fill="#11003B"/>
<path d="M77.7248 103.659C77.57 103.553 77.2701 103.587 77.0747 103.587C76.512 103.587 75.9657 103.872 76.2826 104.718C76.3396 104.87 76.5939 105.068 76.8058 105.114H76.966C76.9175 104.994 76.8902 104.864 76.8902 104.728C76.8902 104.234 77.2392 103.815 77.7248 103.659Z" fill="#FBE5CA"/>
<path d="M78.5 105.115C78.5 104.921 78.7124 104.626 78.5674 104.348C78.4065 104.041 77.879 103.755 77.7254 103.65C77.2398 103.806 76.8908 104.224 76.8908 104.719C76.8908 104.855 76.9181 104.994 76.9661 105.115H78.5Z" fill="#EACBA9"/>
<path d="M87.6184 96.6733C87.5249 96.6672 87.4539 96.5859 87.46 96.4924L87.5188 95.6105C87.5249 95.517 87.6062 95.446 87.6997 95.452C87.7932 95.4581 87.8642 95.5394 87.8582 95.6329L87.7993 96.5149C87.7926 96.609 87.7119 96.6794 87.6184 96.6733Z" fill="#FBE5CA"/>
<path d="M85.8587 107.364C85.8587 107.546 85.9771 107.913 85.8004 107.767C85.5813 107.587 84.7885 107.415 84.0407 107.415C82.5135 107.415 82.0698 107.533 80.7732 107.519C79.9216 107.509 78.7676 107.779 78.3555 107.871C78.1813 107.909 78.2165 107.718 78.2165 107.54L78.4229 106.323H85.8587V107.364Z" fill="#11003B"/>
<path d="M87.2888 97.5237C87.202 97.5589 87.103 97.517 87.0678 97.4296L86.754 96.6526C86.7188 96.5658 86.7607 96.4669 86.8481 96.4317C86.9349 96.3964 87.0338 96.4383 87.069 96.5257L87.3829 97.3027C87.4175 97.3895 87.3756 97.4885 87.2888 97.5237Z" fill="#FBE5CA"/>
<path d="M77.4 117.424C77.4 117.424 77.1773 117.479 77.1244 117.564C77.0716 117.649 76.8167 118.079 76.7797 118.179C76.7426 118.28 76.2437 118.938 76.1751 118.991C76.1059 119.044 75.491 119.306 75.3635 119.379C75.236 119.453 75.1092 119.707 75.1511 119.94C75.1936 120.174 76.0634 120.301 76.4664 120.312C76.8695 120.323 77.7327 119.688 77.9482 119.517C78.1636 119.347 78.1266 119.304 78.1266 119.304C78.1266 119.304 78.4022 119.262 78.4714 119.214C78.5406 119.166 78.302 117.995 78.2911 117.889C78.2808 117.782 78.3542 117.424 78.3542 117.424H77.4V117.424Z" fill="#FEC45A"/>
<path d="M87.2487 97.9705C87.2487 97.9705 87.4988 98.1677 87.7798 98.1252C88.0609 98.0828 88.192 98.0427 88.192 98.0427C88.192 98.0427 87.8333 98.5957 87.568 98.5787C87.3027 98.5611 87.2487 97.9705 87.2487 97.9705Z" fill="#EACBA9"/>
<path d="M87.5571 97.1121C87.5571 97.1121 87.849 97.4508 88.0396 97.5018C88.2302 97.5527 88.2569 97.5527 88.2569 97.5527C88.2569 97.5527 88.1295 97.8022 87.8751 97.648C87.6208 97.4939 87.5571 97.1121 87.5571 97.1121Z" fill="#EACBA9"/>
<path d="M77.4 117.303C77.4 117.303 77.1773 117.358 77.1244 117.443C77.0716 117.528 76.8167 117.957 76.7797 118.058C76.7426 118.159 76.2437 118.817 76.1751 118.87C76.1059 118.922 75.491 119.185 75.3635 119.258C75.236 119.332 75.1092 119.585 75.1511 119.819C75.1936 120.053 76.0634 120.18 76.4664 120.191C76.8695 120.201 77.7327 119.567 77.9482 119.396C78.1636 119.225 78.1266 119.183 78.1266 119.183C78.1266 119.183 78.4022 119.14 78.4714 119.092C78.5406 119.044 78.5825 117.591 78.5722 117.485C78.5618 117.379 78.3548 117.303 78.3548 117.303H77.4V117.303Z" fill="#FEC45A"/>
<path d="M77.8401 117.764C78.2149 117.764 78.5187 117.661 78.5187 117.534C78.5187 117.406 78.2149 117.303 77.8401 117.303C77.4653 117.303 77.1615 117.406 77.1615 117.534C77.1615 117.661 77.4653 117.764 77.8401 117.764Z" fill="#11003B"/>
<path d="M78.3998 117.569C78.3998 117.569 78.3342 117.666 77.8759 117.687C77.4176 117.708 77.3521 117.569 77.3521 117.569V116.135H78.3998V117.569Z" fill="#FBE5CA"/>
<path d="M85.6814 116.474C85.6814 116.474 85.9042 116.529 85.957 116.614C86.0098 116.699 86.1937 117.738 86.3212 117.811C86.4487 117.884 87.1486 119.42 87.1061 119.654C87.0636 119.888 86.4487 119.887 86.045 119.898C85.6414 119.909 84.678 118.311 84.6095 118.263C84.5403 118.215 84.6234 117.471 84.6343 117.365C84.6453 117.259 84.726 116.474 84.726 116.474H85.6814V116.474Z" fill="#FEC45A"/>
<path d="M85.6814 116.353C85.6814 116.353 85.9042 116.408 85.957 116.493C86.0098 116.578 86.1937 117.616 86.3212 117.689C86.4487 117.763 87.1486 119.299 87.1061 119.533C87.0636 119.766 86.4487 119.766 86.045 119.777C85.6414 119.788 84.678 118.19 84.6095 118.142C84.5403 118.094 84.4984 116.641 84.5087 116.535C84.519 116.428 84.726 116.353 84.726 116.353H85.6814V116.353Z" fill="#FEC45A"/>
<path d="M85.2407 116.814C85.6155 116.814 85.9194 116.711 85.9194 116.583C85.9194 116.456 85.6155 116.353 85.2407 116.353C84.8659 116.353 84.5621 116.456 84.5621 116.583C84.5621 116.711 84.8659 116.814 85.2407 116.814Z" fill="#11003B"/>
<path d="M84.6811 116.618C84.6811 116.618 84.7466 116.716 85.2049 116.737C85.6632 116.757 85.7288 116.618 85.7288 116.618V115.185H84.6811V116.618Z" fill="#FBE5CA"/>
<path d="M86.056 108.2C86.0499 108.162 86.0402 108.126 86.0286 108.092H86.0293C86.0293 108.092 86.028 108.09 86.028 108.09C85.8909 107.675 85.398 107.508 84.7503 107.444C83.5308 107.274 80.0296 107.234 79.2666 107.431C78.8326 107.543 78.418 107.791 78.1236 107.999C77.9585 108.101 77.8152 108.214 77.6975 108.336C77.6957 108.338 77.6938 108.339 77.6938 108.339H77.6944C77.5129 108.53 77.3928 108.746 77.3521 108.983C77.0261 109.846 76.8058 111.487 76.8058 113.371C76.8058 114.392 76.8707 115.343 76.9818 116.136C77.1894 116.107 77.4067 116.091 77.6301 116.091C78.092 116.091 78.5266 116.158 78.9078 116.275C79.3692 114.724 79.7753 112.632 79.7753 111.085C79.7753 111.023 79.7747 110.965 79.7734 110.906C79.9052 110.918 80.0393 110.924 80.1765 110.924C80.7088 110.924 81.2636 110.878 81.7644 110.779C82.1116 110.872 82.4946 110.924 82.8977 110.924C83.0343 110.924 83.169 110.918 83.3008 110.906C83.2995 110.965 83.2989 111.024 83.2989 111.085C83.2989 112.632 83.7044 114.117 84.1663 115.668C84.5469 115.551 84.9822 115.484 85.4441 115.484C85.6675 115.484 85.8848 115.5 86.0924 115.529C86.2035 114.735 86.2684 114.392 86.2684 113.371C86.2684 111.489 86.3813 109.063 86.056 108.2Z" fill="#1F006E"/>
<path d="M86.1215 116.109C86.1215 116.109 85.8016 116.061 85.1163 116.089C84.431 116.118 84.116 116.191 84.116 116.191C83.9321 116.198 83.7773 116.056 83.7694 115.872L83.7584 115.605C83.7512 115.421 83.8938 115.266 84.0777 115.258C84.0777 115.258 84.4595 115.182 85.1024 115.155C85.7452 115.128 86.0827 115.176 86.0827 115.176C86.2666 115.168 86.4214 115.311 86.4293 115.495L86.4402 115.762C86.4487 115.946 86.3054 116.101 86.1215 116.109Z" fill="#EBE8F2"/>
<path d="M84.4013 116.382C84.4013 116.382 84.4723 116.662 84.5828 116.814C84.6932 116.965 85.1649 117.12 85.2978 117.745C85.4307 118.371 85.4089 118.848 85.4993 118.997C85.5898 119.146 86.0511 119.439 86.4966 119.396C86.9422 119.353 87.0345 119.2 87.0345 119.2C87.0345 119.2 87.3877 119.172 87.3932 119.188C87.3987 119.204 87.6263 119.703 87.616 119.729C87.6056 119.756 87.2609 120.074 87.2609 120.074H85.6857L84.1421 118.811L83.9933 117.947L84.4013 116.382Z" fill="#F39322"/>
<path d="M75.0424 119.204C75.0424 119.204 75.8516 119.639 76.3074 119.618C76.7633 119.596 77.4316 119.31 77.5063 119.204C77.5809 119.097 77.6586 118.451 78.0137 118.064C78.3688 117.677 78.6304 117.775 78.7045 117.688C78.7785 117.602 79.2933 118.653 79.2933 118.653L78.8848 120.084L77.6331 120.561L75.7235 120.858L75.0418 120.311V119.204H75.0424Z" fill="#F39322"/>
<path d="M78.8914 116.701C78.8914 116.701 78.5831 116.604 77.9014 116.526C77.2198 116.448 76.8974 116.471 76.8974 116.471C76.7147 116.45 76.5836 116.284 76.6049 116.102L76.6358 115.836C76.6571 115.653 76.8222 115.522 77.0049 115.543C77.0049 115.543 77.394 115.527 78.0331 115.601C78.6723 115.675 78.9983 115.774 78.9983 115.774C79.181 115.795 79.3121 115.96 79.2909 116.143L79.2599 116.409C79.2393 116.592 79.0742 116.723 78.8914 116.701Z" fill="#EBE8F2"/>
<path d="M85.6444 104.751H78.699C78.5363 104.751 78.4016 104.64 78.3937 104.498L78.1211 99.809C78.112 99.6573 78.2516 99.5298 78.4264 99.5298H85.9169C86.0917 99.5298 86.2313 99.6573 86.2222 99.809L85.9497 104.498C85.9418 104.64 85.807 104.751 85.6444 104.751Z" fill="#D0CAE1"/>
<path d="M82.1565 102.687C82.4414 102.687 82.6724 102.456 82.6724 102.171C82.6724 101.886 82.4414 101.655 82.1565 101.655C81.8715 101.655 81.6405 101.886 81.6405 102.171C81.6405 102.456 81.8715 102.687 82.1565 102.687Z" fill="#EBE8F2"/>
<path d="M85.7682 105.115H78.6055C78.5047 105.115 78.4234 105.034 78.4234 104.933C78.4234 104.832 78.5047 104.751 78.6055 104.751H85.7682C85.8689 104.751 85.9503 104.832 85.9503 104.933C85.9503 105.033 85.8689 105.115 85.7682 105.115Z" fill="#9F95C4"/>
<path d="M97.135 119.988C100.561 119.988 103.338 119.492 103.338 118.88C103.338 118.268 100.561 117.771 97.135 117.771C93.7092 117.771 90.932 118.268 90.932 118.88C90.932 119.492 93.7092 119.988 97.135 119.988Z" fill="#EBE8F2"/>
<path opacity="0.2" d="M97.4798 119.858C98.6132 119.858 99.5321 119.69 99.5321 119.482C99.5321 119.274 98.6132 119.106 97.4798 119.106C96.3463 119.106 95.4275 119.274 95.4275 119.482C95.4275 119.69 96.3463 119.858 97.4798 119.858Z" fill="#11003B"/>
<path opacity="0.2" d="M96.7756 119.893C97.5202 119.893 98.1238 119.801 98.1238 119.688C98.1238 119.574 97.5202 119.482 96.7756 119.482C96.0311 119.482 95.4275 119.574 95.4275 119.688C95.4275 119.801 96.0311 119.893 96.7756 119.893Z" fill="#11003B"/>
<path opacity="0.2" d="M101.054 119.081C101.474 119.081 101.814 118.991 101.814 118.88C101.814 118.769 101.474 118.679 101.054 118.679C100.634 118.679 100.293 118.769 100.293 118.88C100.293 118.991 100.634 119.081 101.054 119.081Z" fill="#11003B"/>
<path opacity="0.2" d="M93.6229 118.885C94.0429 118.885 94.3834 118.795 94.3834 118.684C94.3834 118.573 94.0429 118.483 93.6229 118.483C93.2028 118.483 92.8623 118.573 92.8623 118.684C92.8623 118.795 93.2028 118.885 93.6229 118.885Z" fill="#11003B"/>
<path d="M94.401 111.434C94.4022 111.216 94.5412 111.022 94.7482 110.955C95.2338 110.799 96.1771 110.693 97.2612 110.693C98.3453 110.693 99.288 110.799 99.7742 110.955C99.9812 111.022 100.121 111.216 100.121 111.434C100.123 111.715 99.8956 111.943 99.6146 111.943H94.9073C94.6268 111.944 94.3998 111.715 94.401 111.434Z" fill="#D0CAE1"/>
<path d="M96.757 114.9L97.8939 114.9L97.8939 112.796L96.757 112.796L96.757 114.9Z" fill="#EBE8F2"/>
<path d="M96.3944 112.797H98.2573C98.4182 112.797 98.5481 112.666 98.5481 112.506V112.462C98.5481 112.301 98.4176 112.171 98.2573 112.171H96.3944C96.2335 112.171 96.1036 112.302 96.1036 112.462V112.505C96.103 112.666 96.2335 112.797 96.3944 112.797Z" fill="#D0CAE1"/>
<path d="M96.4729 116.606L98.1786 116.606L98.1786 114.9L96.4729 114.9L96.4729 116.606Z" fill="#D0CAE1"/>
<path d="M96.9013 118.663C96.8618 118.662 96.8236 118.669 96.7871 118.684C96.9498 118.757 97.0651 118.977 97.0597 119.234C97.0542 119.492 96.9298 119.707 96.7641 119.773C96.7999 119.789 96.8375 119.798 96.877 119.799C97.0967 119.804 97.28 119.553 97.2867 119.239C97.294 118.925 97.121 118.667 96.9013 118.663Z" fill="#D0CAE1"/>
<path d="M97.0614 119.234C97.0677 118.934 96.9457 118.687 96.7889 118.684C96.632 118.681 96.4997 118.922 96.4934 119.222C96.487 119.523 96.609 119.769 96.7659 119.773C96.9228 119.776 97.0551 119.535 97.0614 119.234Z" fill="#D0CAE1"/>
<path d="M96.8912 119.231C96.8979 118.917 96.725 118.658 96.5051 118.654C96.2853 118.649 96.1016 118.9 96.095 119.214C96.0884 119.528 96.2613 119.786 96.4811 119.791C96.701 119.796 96.8846 119.545 96.8912 119.231Z" fill="#D0CAE1"/>
<path d="M96.1983 117.176C94.7257 117.332 93.5172 117.784 92.9223 118.38C92.9727 117.239 94.9242 116.322 97.3262 116.322C97.3334 116.322 97.3407 116.322 97.348 116.322C97.8506 116.323 98.3332 116.364 98.783 116.439C100.472 116.722 101.691 117.595 101.73 118.493C101.019 117.781 99.4337 117.16 97.5678 117.12C97.5671 117.12 97.5671 117.12 97.5665 117.12C97.135 117.784 96.8539 118.654 96.6044 119.334C96.2396 118.778 96.0593 117.644 96.1983 117.176Z" fill="#EBE8F2"/>
<path d="M101.277 118.994C101.56 118.994 101.789 118.765 101.789 118.482C101.789 118.199 101.56 117.97 101.277 117.97C100.995 117.97 100.765 118.199 100.765 118.482C100.765 118.765 100.995 118.994 101.277 118.994Z" fill="#D0CAE1"/>
<path d="M93.3739 118.88C93.6565 118.88 93.8856 118.651 93.8856 118.368C93.8856 118.086 93.6565 117.857 93.3739 117.857C93.0913 117.857 92.8622 118.086 92.8622 118.368C92.8622 118.651 93.0913 118.88 93.3739 118.88Z" fill="#D0CAE1"/>
<path d="M94.6134 111.543H99.926C100.1 111.543 100.24 111.683 100.24 111.857C100.24 112.03 100.1 112.171 99.926 112.171H94.6134C94.4398 112.171 94.2996 112.03 94.2996 111.857C94.2996 111.684 94.4404 111.543 94.6134 111.543Z" fill="#EBE8F2"/>
<path d="M97.226 98.3884C97.8003 98.3884 98.2658 98.2297 98.2658 98.0339C98.2658 97.8382 97.8003 97.6794 97.226 97.6794C96.6518 97.6794 96.1862 97.8382 96.1862 98.0339C96.1862 98.2297 96.6518 98.3884 97.226 98.3884Z" fill="#11003B"/>
<path d="M97.9016 96.514C98.7635 94.4818 99.2831 93.2247 97.1556 93.0213C94.7221 92.7888 94.0793 94.3579 94.3609 95.8894C94.628 97.3396 95.1943 97.4154 95.7407 97.1775C96.1625 96.9942 96.4011 97.6534 96.4806 98.1833C96.7216 98.2252 96.9704 98.2956 97.2254 98.2956C97.5089 98.2956 97.7844 98.2197 98.0509 98.1687C97.9289 97.932 97.8336 97.5787 97.8409 97.3098C97.8482 97.0361 97.7942 96.7671 97.9016 96.514Z" fill="#FBE5CA"/>
<path d="M96.7617 96.5764C96.2536 97.0978 95.7273 97.1889 95.7158 97.1889C95.7213 97.493 96.015 97.6472 96.3531 97.6472C96.6949 97.6472 96.9723 97.3971 96.9723 97.0887C96.9729 96.8538 96.9899 96.659 96.7617 96.5764Z" fill="#EACBA9"/>
<path d="M97.2261 97.6199C96.6324 97.6199 96.1511 97.805 96.1511 98.0339V99.3207H98.3011V98.0339C98.3011 97.8056 97.8197 97.6199 97.2261 97.6199Z" fill="#F39322"/>
<path d="M94.4939 105.115H100.067C100.2 104.568 100.211 102.946 100.37 102.01C100.86 99.1126 100.301 98.5056 99.2814 98.5056C99.1478 98.5056 99.0179 98.5299 98.8929 98.5766C98.7599 98.6258 98.6731 98.7569 98.193 98.837H95.9574C95.8135 98.837 95.6721 98.8079 95.5398 98.7587C95.4147 98.7126 95.2848 98.6877 95.1513 98.6877C94.1315 98.6877 93.8693 99.3724 94.191 101.105C94.4648 102.588 94.4083 104.468 94.4939 105.115Z" fill="#F39322"/>
<path d="M97.7851 102.741C98.1961 102.528 98.4911 102.456 98.7017 102.592C98.7412 102.618 98.7715 102.655 98.7891 102.698C98.8249 102.786 98.8705 102.972 98.8365 103.303C98.7691 103.948 98.5554 105.115 98.5554 105.115H97.3262L97.1381 103.472C97.0488 103.299 97.3384 102.972 97.7851 102.741Z" fill="#CE741B"/>
<path d="M94.7264 102.593C94.1995 102.319 93.7048 102 93.6077 102.186C93.6077 102.186 93.4572 102.208 93.5379 102.927C93.6192 103.646 93.9403 105.114 93.9403 105.114H95.3686L95.6035 103.519C95.6776 102.897 95.2533 102.866 94.7264 102.593Z" fill="#CE741B"/>
<path d="M98.0661 102.585C98.5129 102.353 98.9469 102.305 99.0361 102.477C99.0361 102.477 99.1672 102.637 99.1175 103.147C99.0543 103.793 98.8364 105.089 98.8364 105.089H97.6072L97.4191 103.316C97.3298 103.144 97.6194 102.817 98.0661 102.585Z" fill="#F39322"/>
<path d="M94.5419 102.134C94.015 101.861 93.5021 101.804 93.3971 102.007C93.3971 102.007 93.2429 102.035 93.3012 102.798C93.3594 103.561 93.6368 105.114 93.6368 105.114H95.0851L95.3055 102.996C95.4105 102.794 95.0688 102.408 94.5419 102.134Z" fill="#F39322"/>
<path d="M100.214 108.478L95.555 108.456L96.1863 107.496C96.2312 107.167 95.853 106.327 95.853 106.327H99.8095C99.8095 106.327 99.5169 106.794 99.8052 107.586C100.086 108.357 100.214 108.478 100.214 108.478Z" fill="#F39322"/>
<path d="M100.532 109.52C100.753 111.16 98.899 111.089 97.0604 111.089C95.2217 111.089 94.3015 112.125 93.8481 110.53C93.4141 109.003 96.2269 107.942 98.0656 107.942C99.9042 107.942 100.333 108.041 100.532 109.52Z" fill="#F39322"/>
<path d="M96.3635 92.01C95.6739 92.01 95.0481 92.2692 94.5849 92.6905C94.4793 92.7718 94.3877 92.8695 94.3142 92.9788C94.1837 93.1712 94.1078 93.4001 94.1078 93.6465C94.1078 94.3251 94.6833 94.8757 95.3935 94.8757C95.7176 94.8757 95.8955 94.75 96.2402 94.571C97.1859 94.0799 97.6102 94.9728 97.6102 95.436C97.6102 95.8991 97.2175 96.2742 96.7337 96.2742C96.3726 96.2742 96.0624 96.0648 95.9282 95.7668C96.0794 96.2852 96.5765 96.6657 97.1665 96.6657C97.4385 96.6657 97.6904 96.585 97.898 96.4472L97.9065 96.4569C98.5371 96.0071 98.9451 95.2885 98.9451 94.4781C98.9444 93.1148 97.7887 92.01 96.3635 92.01Z" fill="#FEC45A"/>
<path d="M98.3653 103.163C98.7971 102.939 99.0852 102.638 99.0088 102.491C98.9324 102.344 98.5204 102.406 98.0886 102.63C97.6568 102.854 97.3687 103.155 97.4451 103.302C97.5215 103.449 97.9334 103.387 98.3653 103.163Z" fill="#11003B"/>
<path d="M98.5954 102.641C98.5954 102.641 98.3799 102.183 97.9951 101.6C97.8197 101.334 97.3869 100.769 97.1708 100.571C96.9656 100.383 96.616 100.128 96.344 100.186C96.0059 100.259 95.8341 100.445 95.6745 100.603C95.5124 100.764 95.4596 101.023 95.4457 101.232C95.4317 101.441 95.6023 101.618 95.8105 101.603C95.9173 101.596 96.0326 101.569 96.131 101.505C96.3695 101.349 96.4812 100.846 96.7993 101.207C96.9031 101.325 97.7207 103.231 97.8081 103.312C97.8955 103.392 98.6106 102.993 98.5954 102.641Z" fill="#FBE5CA"/>
<path d="M96.6742 100.019C96.6742 100.019 97.3783 100.719 96.9146 101.324C96.4515 101.928 96.3786 101.735 96.3203 101.692C96.2621 101.649 95.3163 100.73 95.6417 100.348C95.6721 100.313 96.4757 99.8494 96.4757 99.8494L96.6742 100.019Z" fill="#EACBA9"/>
<path d="M95.2736 102.981C95.3637 102.807 95.0235 102.452 94.5138 102.187C94.004 101.923 93.5177 101.849 93.4275 102.023C93.3374 102.197 93.6776 102.552 94.1873 102.817C94.6971 103.081 95.1834 103.154 95.2736 102.981Z" fill="#11003B"/>
<path d="M93.8857 102.225C93.8857 102.225 93.9797 101.95 94.3646 101.367C94.54 101.101 94.9728 100.535 95.1889 100.338C95.3941 100.149 95.7437 99.895 96.0156 99.9533C96.3537 100.026 96.5255 100.212 96.6852 100.37C96.8472 100.531 96.9001 100.79 96.914 100.999C96.928 101.207 96.7574 101.385 96.5492 101.37C96.4424 101.363 96.327 101.336 96.2287 101.272C95.9901 101.116 95.8785 100.613 95.5604 100.974C95.4566 101.092 94.7604 102.816 94.6729 102.897C94.5861 102.976 93.8711 102.577 93.8857 102.225Z" fill="#FBE5CA"/>
<path d="M95.9935 101.73C96.1471 101.641 96.1385 101.339 95.9744 101.055C95.8103 100.77 95.5528 100.612 95.3992 100.701C95.2457 100.789 95.2542 101.091 95.4183 101.376C95.5824 101.66 95.8399 101.818 95.9935 101.73Z" fill="#EACBA9"/>
<path d="M98.3575 109.681C98.6027 111.446 97.2679 110.957 96.219 111.156C95.1701 111.355 94.302 111.42 94.1175 110.273C93.9949 109.511 94.7755 109.099 95.8244 108.9C96.8739 108.701 98.2263 108.739 98.3575 109.681Z" fill="#723A08"/>
<path d="M96.0775 110.175C96.0514 110.088 96.0247 110.003 95.998 109.919C95.9816 109.868 95.9586 109.818 95.927 109.773C95.7109 109.46 95.3018 109.292 94.8927 109.383C94.4896 109.472 94.2061 109.786 94.1564 110.149C94.1473 110.213 94.1515 110.278 94.1636 110.341C94.1794 110.422 94.1952 110.504 94.2116 110.587C94.3111 111.083 94.4289 111.605 94.5649 112.142C95.3461 115.237 96.9419 118.08 96.9498 117.531C96.9692 116.189 97.0275 114.792 96.2469 111.697C96.1109 111.161 96.2256 110.661 96.0775 110.175Z" fill="#11003B"/>
<path d="M98.1911 109.704C98.1225 109.211 97.5386 108.828 97.0354 108.886C96.6062 108.936 96.2317 109.002 96.032 109.04C95.9865 109.047 95.9349 109.058 95.8791 109.07H95.8778C95.4317 109.174 94.7087 109.442 94.6954 109.448C94.6802 109.455 94.6317 109.624 94.6317 109.624C94.6317 109.624 95.6447 110.637 95.7455 110.647C95.8463 110.658 96.5996 110.34 96.5996 110.34L96.6178 110.001L96.7689 110.192C96.7689 110.192 97.6375 110.758 97.9629 110.931C98.2828 110.768 98.2949 110.448 98.1911 109.704Z" fill="#11003B"/>
<path opacity="0.2" d="M96.0776 110.175C96.0515 110.088 96.0248 110.003 95.998 109.919C95.9817 109.867 96.6524 109.271 96.6214 109.226C96.531 109.096 96.2633 109.037 95.9003 109.301C95.8214 109.432 95.6041 109.567 95.5841 109.724C95.5276 110.158 97.1647 116.46 97.2497 116.56C97.2722 115.508 97.0105 113.713 96.5061 111.713C96.3701 111.177 96.2257 110.661 96.0776 110.175Z" fill="#EBE8F2"/>
<path d="M97.155 116.224C97.0694 115.593 96.5195 112.679 96.5195 112.679L94.7021 113.15C94.7021 113.15 95.7237 115.814 96.0448 116.5L96.3871 117.27C96.3871 117.27 96.4509 117.536 96.4436 117.601C96.4363 117.666 96.2141 118.803 96.1431 118.828C96.0721 118.852 95.6126 119.061 95.581 119.336C95.5665 119.466 96.7586 119.693 97.0646 119.135C97.2084 118.873 97.3244 118.008 97.3244 118.008C97.3244 118.008 97.2133 117.477 97.2861 117.413C97.359 117.35 97.6855 118.496 97.6855 118.496L97.8409 118.46L97.155 116.224Z" fill="#F39322"/>
<path d="M97.9186 109.845C97.8937 109.755 97.8682 109.665 97.8427 109.577C97.8269 109.523 97.8039 109.47 97.7723 109.423C97.5756 109.126 97.209 108.947 96.8175 108.972C96.7714 108.975 96.7252 108.981 96.6785 108.99C96.2433 109.072 95.9282 109.392 95.8615 109.77C95.8499 109.837 95.8517 109.904 95.8627 109.971C95.8766 110.056 95.8906 110.141 95.9052 110.228C95.9938 110.748 96.1012 111.295 96.2269 111.857C96.951 115.102 98.5523 118.12 98.5851 117.533C98.647 116.429 98.3866 112.484 97.8191 111.092C97.6017 110.558 98.0594 110.355 97.9186 109.845Z" fill="#11003B"/>
<path d="M98.8176 115.993C98.732 115.362 98.2858 112.421 98.2858 112.421L96.3647 112.918C96.3647 112.918 97.3862 115.583 97.7074 116.269L98.0497 117.039C98.0497 117.039 98.1134 117.305 98.1062 117.37C98.0989 117.435 98.1444 118.238 98.1171 118.407C98.1049 118.481 97.8767 119.175 97.9756 119.411C98.026 119.531 98.664 119.559 98.9699 119.002C99.1138 118.739 99.0482 117.776 99.0482 117.776L98.8176 115.993Z" fill="#F39322"/>
<path d="M99.1969 108.204C99.6686 108.368 99.7335 108.257 99.9466 108.476L100.02 108.478C100.02 108.478 99.9096 108.357 99.6692 107.587C99.4209 106.794 99.6728 106.328 99.6728 106.328H98.3556C98.3556 106.328 98.2992 106.672 98.2427 107.099C98.1857 107.526 98.6239 108.006 99.1969 108.204Z" fill="#CE741B"/>
<path d="M107.538 104.141L112.112 104.748L110.845 99.0642C110.821 98.9543 110.601 98.8208 110.442 98.8487L107.122 99.7817C106.927 99.829 106.726 99.8521 106.796 100.125L107.265 103.926C107.296 104.052 107.409 104.141 107.538 104.141Z" fill="#EBE8F2"/>
<path d="M107.262 105.115H112.135C112.236 105.115 112.317 105.034 112.317 104.933C112.317 104.832 112.236 104.751 112.135 104.751H107.262C107.162 104.751 107.08 104.832 107.08 104.933C107.08 105.033 107.162 105.115 107.262 105.115Z" fill="#9F95C4"/>
<path d="M107.538 104.748H111.93L110.663 99.0644C110.639 98.9545 110.552 98.8701 110.442 98.8489L106.515 99.7818C106.32 99.8292 106.119 99.8523 106.189 100.125L107.265 104.533C107.296 104.659 107.409 104.748 107.538 104.748Z" fill="#D0CAE1"/>
<path d="M108.709 102.648C108.859 102.606 108.916 102.345 108.838 102.066C108.759 101.787 108.574 101.595 108.425 101.637C108.275 101.679 108.218 101.939 108.296 102.219C108.375 102.498 108.56 102.69 108.709 102.648Z" fill="#EBE8F2"/>
<path d="M112.113 105.115H116.931C117.031 105.115 117.113 105.034 117.113 104.933C117.113 104.832 117.031 104.751 116.931 104.751H112.113C112.012 104.751 111.931 104.832 111.931 104.933C111.931 105.033 112.012 105.115 112.113 105.115Z" fill="#EBE8F2"/>
<path d="M103.831 100.73H102.431L101.986 105.094H104.425L103.831 100.73Z" fill="#F39322"/>
<path d="M104.01 101.281C103.513 101.281 103.11 101.684 103.11 102.181C103.11 102.677 103.513 103.08 104.01 103.08C104.506 103.08 104.909 102.677 104.909 102.181C104.909 101.684 104.506 101.281 104.01 101.281ZM104.01 102.817C103.658 102.817 103.374 102.532 103.374 102.181C103.374 101.829 103.658 101.544 104.01 101.544C104.361 101.544 104.646 101.829 104.646 102.181C104.646 102.532 104.361 102.817 104.01 102.817Z" fill="#F39322"/>
<path d="M103.881 101.095H102.393L102.092 100.539H103.81L103.881 101.095Z" fill="#F39322"/>
<path d="M105.123 105.094H103.826L103.693 104.026H105.256L105.123 105.094Z" fill="#FEC45A"/>
<path d="M105.193 104.168C104.969 104.168 104.788 104.349 104.788 104.573C104.788 104.797 104.969 104.979 105.193 104.979C105.417 104.979 105.598 104.797 105.598 104.573C105.598 104.349 105.417 104.168 105.193 104.168ZM105.193 104.841C105.045 104.841 104.926 104.722 104.926 104.574C104.926 104.427 105.045 104.307 105.193 104.307C105.34 104.307 105.46 104.427 105.46 104.574C105.46 104.721 105.34 104.841 105.193 104.841Z" fill="#FEC45A"/>
<path d="M61.9936 122.382C67.2739 122.382 71.5545 121.886 71.5545 121.274C71.5545 120.662 67.2739 120.166 61.9936 120.166C56.7132 120.166 52.4326 120.662 52.4326 121.274C52.4326 121.886 56.7132 122.382 61.9936 122.382Z" fill="#EBE8F2"/>
<path d="M57.8738 120.68C58.6184 120.68 59.222 120.587 59.222 120.474C59.222 120.36 58.6184 120.268 57.8738 120.268C57.1292 120.268 56.5256 120.36 56.5256 120.474C56.5256 120.587 57.1292 120.68 57.8738 120.68Z" fill="#D0CAE1"/>
<path d="M64.2595 121.815C65.004 121.815 65.6076 121.723 65.6076 121.61C65.6076 121.496 65.004 121.404 64.2595 121.404C63.5149 121.404 62.9113 121.496 62.9113 121.61C62.9113 121.723 63.5149 121.815 64.2595 121.815Z" fill="#D0CAE1"/>
<path d="M68.4867 121.886C69.3704 121.886 70.0867 121.794 70.0867 121.681C70.0867 121.567 69.3704 121.475 68.4867 121.475C67.603 121.475 66.8866 121.567 66.8866 121.681C66.8866 121.794 67.603 121.886 68.4867 121.886Z" fill="#D0CAE1"/>
<path d="M65.737 120.678C66.4815 120.678 67.0851 120.586 67.0851 120.472C67.0851 120.358 66.4815 120.266 65.737 120.266C64.9924 120.266 64.3888 120.358 64.3888 120.472C64.3888 120.586 64.9924 120.678 65.737 120.678Z" fill="#D0CAE1"/>
<path d="M67.9197 118.607C67.9197 118.607 68.7046 119.102 69.2254 119.304C69.7141 119.493 70.4036 119.551 70.3636 119.93C70.3381 120.17 69.6649 120.479 68.8388 120.416C67.1319 120.288 66.9358 119.522 66.9358 119.522C66.9358 119.522 67.2551 118.61 67.9197 118.607Z" fill="#EBE8F2"/>
<path d="M74.4724 104.751H70.0054C69.8252 104.751 69.6916 104.584 69.7311 104.408L71.0719 100.318C71.0962 100.208 71.1836 100.124 71.2935 100.103L75.7198 98.8845C75.9213 98.8463 76.0943 99.029 76.0458 99.2281L74.7455 104.537C74.7146 104.662 74.6017 104.751 74.4724 104.751Z" fill="#EBE8F2"/>
<path d="M74.5106 105.115H66.0235C65.9227 105.115 65.8414 105.034 65.8414 104.933C65.8414 104.832 65.9227 104.751 66.0235 104.751H74.5112C74.612 104.751 74.6933 104.832 74.6933 104.933C74.6927 105.033 74.6114 105.115 74.5106 105.115Z" fill="#9F95C4"/>
<path d="M74.2296 104.751H69.6552L70.7077 100.015C70.732 99.905 70.8194 99.8207 70.9293 99.7994L75.4503 98.9356C75.6518 98.8974 75.9061 98.7936 75.7762 99.2792L74.5027 104.536C74.4718 104.662 74.3589 104.751 74.2296 104.751Z" fill="#9F95C4"/>
<path d="M74.5107 105.115H69.3104C69.2097 105.115 69.1283 105.034 69.1283 104.933C69.1283 104.832 69.2097 104.751 69.3104 104.751H74.5107C74.6114 104.751 74.6928 104.832 74.6928 104.933C74.6928 105.033 74.6114 105.115 74.5107 105.115Z" fill="#EBE8F2"/>
<path d="M64.6244 111.211C67.0437 110.831 68.8998 109.853 68.7702 109.027C68.6405 108.201 66.5742 107.839 64.1549 108.218C61.7356 108.598 59.8795 109.575 60.0091 110.402C60.1387 111.228 62.2051 111.59 64.6244 111.211Z" fill="#11003B"/>
<path d="M67.8943 108.455C68.5911 108.498 68.9323 108.76 68.7046 112.394C68.477 116.028 67.7286 118.938 67.0317 118.894C66.3349 118.85 65.9543 115.87 66.1813 112.236C66.4083 108.603 67.1974 108.411 67.8943 108.455Z" fill="#11003B"/>
<path d="M65.6272 112.309C68.6777 111.831 71.0456 110.773 70.9159 109.946C70.7863 109.12 68.2082 108.838 65.1577 109.317C62.1072 109.796 59.7393 110.853 59.869 111.68C59.9986 112.506 62.5767 112.788 65.6272 112.309Z" fill="#1F006E"/>
<path d="M67.9197 118.487C67.9197 118.487 68.7046 118.981 69.2254 119.183C69.7141 119.372 70.3648 119.61 70.3411 119.83C70.3156 120.07 69.6643 120.357 68.8381 120.295C67.1312 120.167 66.9352 119.401 66.9352 119.401C66.9352 119.401 67.2551 118.489 67.9197 118.487Z" fill="#AAA4C1"/>
<path d="M65.2101 104.103C65.2101 104.103 65.5118 104.042 66.0812 103.839C66.6512 103.638 67.1932 103.685 67.1932 103.685C67.1932 103.685 68.3131 103.864 68.5153 104.184C68.7168 104.505 68.61 105.086 68.61 105.086C68.61 105.086 67.6958 105.217 67.4111 105.217C67.1264 105.217 67.1519 105.027 66.9959 105.015C66.8393 105.003 65.144 105.466 65.0256 105.466C64.906 105.466 64.9606 104.352 65.2101 104.103Z" fill="#FBE5CA"/>
<path d="M60.3905 99.6183C60.4063 100.097 60.1689 100.334 60.1689 100.334C60.1689 100.334 59.1953 99.6474 59.1953 99.3973C59.1953 99.1473 59.1613 97.9229 59.1613 97.9229C60.4585 96.9972 57.4866 94.2627 59.7446 94.0472C62.1781 93.8147 62.8209 95.3838 62.5387 96.9153C62.2716 98.3654 61.7053 98.4413 61.159 98.2034C60.6139 97.966 60.3741 99.14 60.3905 99.6183Z" fill="#FBE5CA"/>
<path d="M58.2362 99.8173L59.2997 97.396C59.2997 97.396 59.4168 97.6315 59.9237 97.5047C60.4299 97.3778 59.9789 97.8409 60.0742 98.1887C60.1689 98.5372 59.7179 100.721 59.7179 100.721C59.7179 100.721 58.7443 100.416 58.2362 99.8173Z" fill="#EACBA9"/>
<path d="M62.742 106.929C62.8064 106.963 62.8106 106.904 62.8738 106.916C63.0279 106.872 63.1906 106.82 63.36 106.762C63.6319 106.67 63.9215 106.56 64.2231 106.436C64.6232 106.271 65.0444 106.081 65.4754 105.865C65.6205 105.638 65.7061 105.361 65.7061 105.062C65.7061 104.598 65.5009 104.187 65.1852 103.933C64.5273 104.176 63.7539 104.463 63.2343 104.663C62.9308 104.78 62.7129 104.868 62.6559 104.899C62.6813 104.255 62.6006 98.7874 60.4992 99.1692C59.755 99.2755 59.009 99.8254 58.6265 99.565C58.5064 99.483 58.4256 99.3598 58.3831 99.2105C56.76 100.436 56.5251 102.837 56.5251 105.442C56.5251 109.346 58.9695 112.51 61.9851 112.51C63.9585 112.51 65.6872 111.155 66.6463 109.124C65.079 109.107 63.7296 108.316 62.742 106.929Z" fill="#F39322"/>
<path d="M62.9356 106.898C62.9356 106.898 61.775 107.359 61.372 107.005C60.9683 106.651 59.6626 102.746 59.71 102.289C59.71 102.289 61.2773 106.578 61.5856 106.743C61.8946 106.91 62.9356 106.898 62.9356 106.898Z" fill="#B26212"/>
<path d="M67.2126 117.74L66.7665 118.943L67.6794 119.516L68.2846 117.925L67.2126 117.74Z" fill="#FBE5CA"/>
<path d="M68.5432 103.073C68.5602 103.183 68.5699 103.297 68.5699 103.414C68.5699 104.414 67.904 105.225 67.0821 105.225C66.9346 105.225 66.792 105.198 66.6572 105.15C66.8642 105.724 67.3316 106.125 67.8761 106.125C68.6118 106.125 69.2085 105.393 69.2085 104.489C69.2085 103.884 68.9408 103.356 68.5432 103.073Z" fill="#EACBA9"/>
<path d="M70.3563 109.477C69.6843 109.287 68.8728 109.308 67.884 112.812C67.6478 113.648 67.4536 114.456 67.3037 115.203C67.0827 116.304 66.9583 117.274 66.9388 118.014C67.2393 118.258 67.6266 118.406 68.0497 118.406C68.1844 118.406 68.3149 118.391 68.4406 118.363C68.7957 117.736 69.1775 116.882 69.5478 115.879C69.8154 115.154 70.0771 114.35 70.3174 113.499C71.3063 109.995 71.0282 109.667 70.3563 109.477Z" fill="#1F006E"/>
<path d="M56.6295 103.677C56.6161 103.627 56.6016 103.577 56.5888 103.527C56.5403 104.142 56.5251 104.786 56.5251 105.443C56.5251 109.02 58.5774 111.976 61.2403 112.446C58.8123 110.656 57.0617 107.452 56.6295 103.677Z" fill="#B26212"/>
<path d="M62.6716 113.977H61.4576V116.223H62.6716V113.977Z" fill="#FBE5CA"/>
<path d="M63.0789 113.977H61.0503C60.8894 113.977 60.7595 113.847 60.7595 113.686V113.601C60.7595 113.44 60.89 113.31 61.0503 113.31H63.0783C63.2391 113.31 63.369 113.441 63.369 113.601V113.686C63.3696 113.847 63.2391 113.977 63.0789 113.977Z" fill="#FEC45A"/>
<path d="M62.9751 116.223H61.1541V118.044H62.9751V116.223Z" fill="#FEC45A"/>
<path d="M64.6025 120.398C64.5606 120.401 64.5205 120.413 64.4829 120.432C64.6632 120.495 64.8064 120.717 64.8259 120.991C64.8447 121.266 64.733 121.506 64.563 121.592C64.6025 121.606 64.6438 121.612 64.6857 121.609C64.92 121.593 65.0911 121.309 65.0681 120.974C65.045 120.64 64.8362 120.382 64.6025 120.398Z" fill="#FEC45A"/>
<path d="M64.5604 121.59C64.7276 121.579 64.8453 121.31 64.8232 120.989C64.8012 120.669 64.6478 120.419 64.4806 120.43C64.3134 120.442 64.1957 120.711 64.2177 121.031C64.2397 121.351 64.3931 121.602 64.5604 121.59Z" fill="#FEC45A"/>
<path d="M64.2593 121.637C64.4934 121.621 64.6645 121.337 64.6415 121.002C64.6185 120.668 64.4101 120.41 64.176 120.426C63.9419 120.442 63.7708 120.726 63.7938 121.061C63.8168 121.395 64.0252 121.653 64.2593 121.637Z" fill="#FEC45A"/>
<path d="M63.2683 118.653C64.8404 118.819 66.1309 119.301 66.7665 119.938C66.7131 118.72 64.6292 117.74 62.0646 117.74C62.0567 117.74 62.0488 117.74 62.0409 117.74C61.5043 117.742 60.989 117.786 60.5088 117.866C58.706 118.168 57.4046 119.1 57.3621 120.059C58.1209 119.299 59.8138 118.636 61.806 118.593C61.8066 118.593 61.8072 118.593 61.8072 118.593C63.2974 119.334 64.336 120.23 64.6025 120.957C64.9922 120.363 64.4283 119.467 63.2683 118.653Z" fill="#FBE5CA"/>
<path d="M57.8459 120.593C58.1476 120.593 58.3922 120.349 58.3922 120.047C58.3922 119.745 58.1476 119.501 57.8459 119.501C57.5442 119.501 57.2996 119.745 57.2996 120.047C57.2996 120.349 57.5442 120.593 57.8459 120.593Z" fill="#FEC45A"/>
<path d="M66.2833 120.472C66.585 120.472 66.8296 120.227 66.8296 119.926C66.8296 119.624 66.585 119.379 66.2833 119.379C65.9816 119.379 65.737 119.624 65.737 119.926C65.737 120.227 65.9816 120.472 66.2833 120.472Z" fill="#FEC45A"/>
<path d="M65.0577 112.523C65.0565 112.29 64.9078 112.083 64.6868 112.012C64.1678 111.844 63.1614 111.73 62.0039 111.73C60.8463 111.73 59.8399 111.844 59.3209 112.012C59.0999 112.083 58.9512 112.29 58.95 112.523C58.9488 112.822 59.191 113.066 59.4909 113.066H64.5163C64.8161 113.066 65.0589 112.822 65.0577 112.523Z" fill="#FEC45A"/>
<path d="M56.4383 106.772C56.6021 106.771 56.7484 106.672 56.7982 106.524C56.916 106.176 56.9961 105.503 56.9961 104.729C56.9961 103.955 56.916 103.281 56.7982 102.934C56.7478 102.786 56.6015 102.686 56.4383 102.686C56.227 102.685 56.0552 102.847 56.0552 103.047V106.409C56.0552 106.61 56.227 106.773 56.4383 106.772Z" fill="#FEC45A"/>
<path d="M65.0213 112.642H59.194C56.2458 112.162 56.4455 105.403 56.4455 103.585C56.4455 103.52 56.4473 103.455 56.4504 103.391V102.811C56.4504 102.401 55.8567 102.355 55.7893 102.76C55.745 103.027 55.7219 103.303 55.7219 103.585C55.7219 105.803 55.1149 112.966 58.9925 113.308C59.0046 113.308 59.015 113.308 59.0265 113.308C59.038 113.309 59.0496 113.309 59.0605 113.309H65.0219C65.1828 113.309 65.3127 113.179 65.3127 113.019V112.933C65.312 112.772 65.1815 112.642 65.0213 112.642Z" fill="#FBE5CA"/>
<path d="M66.7124 118.734C66.7124 118.734 66.0581 119.385 66.0101 119.659C65.9622 119.932 66.3191 120.094 66.3191 120.094C66.3191 120.094 68.3149 121.726 68.7435 121.764C69.0925 121.795 70.284 121.659 70.1699 121.314C69.9672 120.701 68.7957 120.76 68.7957 120.76L68.0654 119.272C68.0654 119.272 67.6606 119.47 67.2387 119.232C66.8174 118.995 66.7124 118.734 66.7124 118.734Z" fill="#F9F9F9"/>
<path d="M66.8338 118.552C66.8338 118.552 66.1795 119.203 66.1315 119.476C66.0836 119.75 66.4405 119.912 66.4405 119.912C66.4405 119.912 68.4363 121.544 68.8649 121.582C69.2139 121.613 70.2877 121.449 70.1438 121.235C69.7833 120.699 68.9171 120.578 68.9171 120.578L68.1868 119.09C68.1868 119.09 67.782 119.288 67.3601 119.051C66.9388 118.813 66.8338 118.552 66.8338 118.552Z" fill="#D0CAE1"/>
<path d="M62.2054 94.7088C61.7684 94.0399 60.9738 93.5925 60.0657 93.5925C58.6866 93.5925 57.5685 94.6244 57.5685 95.8973C57.5685 96.0849 57.5928 96.2664 57.6383 96.4412C57.9242 97.5314 58.9749 98.105 59.9771 97.9624C60.3923 97.9035 60.7911 97.1538 60.7911 96.894C60.7911 96.6306 60.9653 96.4169 61.1808 96.4169C61.3963 96.4169 61.5705 96.6306 61.5705 96.894C61.5705 96.9068 61.5699 96.9189 61.5687 96.9317C62.0197 96.3526 62.2789 95.6788 62.2789 94.9589V94.9565C62.2782 94.8679 62.2534 94.7823 62.2054 94.7088Z" fill="#1F006E"/>
<path d="M57.6492 95.314C57.5964 95.5003 57.5685 95.6952 57.5685 95.8967C57.5685 96.0843 57.5928 96.2658 57.6383 96.4406C57.9242 97.5308 58.9749 98.1044 59.9771 97.9617C60.0524 97.9508 60.127 97.9174 60.1992 97.8682C58.9318 97.4628 57.9606 96.5025 57.6492 95.314Z" fill="#11003B"/>
<path d="M57.3014 96.3806C57.8522 96.3806 58.2987 95.9341 58.2987 95.3833C58.2987 94.8325 57.8522 94.386 57.3014 94.386C56.7506 94.386 56.3041 94.8325 56.3041 95.3833C56.3041 95.9341 56.7506 96.3806 57.3014 96.3806Z" fill="#1F006E"/>
<path d="M57.5229 95.8289C56.9724 95.8289 56.5256 95.3828 56.5256 94.8316C56.5256 94.8049 56.5275 94.7782 56.5299 94.7515C56.3891 94.9232 56.3041 95.1436 56.3041 95.3834C56.3041 95.9339 56.7502 96.3807 57.3014 96.3807C57.8252 96.3807 58.2538 95.977 58.2945 95.4635C58.1111 95.6863 57.8337 95.8289 57.5229 95.8289Z" fill="#11003B"/>
<path d="M61.2232 97.3445C61.2238 97.35 61.2244 97.356 61.2244 97.3615C61.2244 97.3718 61.2226 97.3821 61.2202 97.3912C61.3519 97.438 61.4472 97.563 61.4472 97.7111C61.4472 97.8987 61.2955 98.0504 61.1079 98.0504C60.9203 98.0504 60.7686 97.8987 60.7686 97.7111C60.7686 97.543 60.8906 97.404 61.0508 97.3767C61.0502 97.3718 61.0496 97.3663 61.0496 97.3609C61.0496 97.3481 61.0521 97.336 61.0551 97.3245C60.8244 97.3415 60.6417 97.5339 60.6417 97.7694C60.6417 98.0158 60.8414 98.2155 61.0879 98.2155C61.3343 98.2155 61.534 98.0158 61.534 97.7694C61.5352 97.5703 61.4041 97.4016 61.2232 97.3445Z" fill="#F39322"/>
<path d="M119.085 122.604C124.365 122.604 128.646 122.108 128.646 121.495C128.646 120.883 124.365 120.387 119.085 120.387C113.805 120.387 109.524 120.883 109.524 121.495C109.524 122.108 113.805 122.604 119.085 122.604Z" fill="#EBE8F2"/>
<path opacity="0.2" d="M112.429 122.018C113.937 122.018 115.159 121.85 115.159 121.642C115.159 121.434 113.937 121.265 112.429 121.265C110.922 121.265 109.699 121.434 109.699 121.642C109.699 121.85 110.922 122.018 112.429 122.018Z" fill="#11003B"/>
<path opacity="0.2" d="M124.411 122.362C125.156 122.362 125.76 122.27 125.76 122.156C125.76 122.043 125.156 121.951 124.411 121.951C123.667 121.951 123.063 122.043 123.063 122.156C123.063 122.27 123.667 122.362 124.411 122.362Z" fill="#11003B"/>
<path opacity="0.2" d="M125.991 121.241C126.736 121.241 127.34 121.149 127.34 121.035C127.34 120.922 126.736 120.83 125.991 120.83C125.247 120.83 124.643 120.922 124.643 121.035C124.643 121.149 125.247 121.241 125.991 121.241Z" fill="#11003B"/>
<path opacity="0.2" d="M117.745 121.316C118.489 121.316 119.093 121.224 119.093 121.11C119.093 120.996 118.489 120.904 117.745 120.904C117 120.904 116.397 120.996 116.397 121.11C116.397 121.224 117 121.316 117.745 121.316Z" fill="#11003B"/>
<path d="M124.649 106.693C124.683 107.014 124.7 107.344 124.7 107.681C124.7 110.846 123.153 113.411 121.245 113.411C120.936 113.411 120.637 113.344 120.352 113.218C120.782 113.557 121.647 113.805 122.148 113.805C124.056 113.805 125.604 111.076 125.604 107.709C125.604 107.384 125.589 107.066 125.561 106.754L124.649 106.693Z" fill="#FBE5CA"/>
<path d="M119.192 113.161C119.194 112.929 119.342 112.721 119.563 112.65C120.082 112.483 121.089 112.369 122.246 112.369C123.403 112.369 124.41 112.483 124.929 112.65C125.15 112.722 125.299 112.929 125.3 113.161C125.301 113.461 125.059 113.705 124.759 113.705H119.734C119.434 113.705 119.191 113.461 119.192 113.161Z" fill="#FEC45A"/>
<path d="M121.579 116.861L122.793 116.861L122.793 114.615L121.579 114.615L121.579 116.861Z" fill="#FBE5CA"/>
<path d="M121.171 114.615H123.199C123.36 114.615 123.49 114.485 123.49 114.324V114.239C123.49 114.078 123.359 113.948 123.199 113.948H121.171C121.01 113.948 120.88 114.079 120.88 114.239V114.324C120.88 114.485 121.011 114.615 121.171 114.615Z" fill="#FEC45A"/>
<path d="M121.275 118.682L123.096 118.682L123.096 116.861L121.275 116.861L121.275 118.682Z" fill="#FEC45A"/>
<path d="M124.723 121.037C124.682 121.04 124.642 121.051 124.604 121.071C124.784 121.133 124.927 121.356 124.947 121.63C124.966 121.904 124.854 122.144 124.684 122.231C124.723 122.245 124.765 122.251 124.807 122.248C125.041 122.231 125.212 121.947 125.189 121.613C125.166 121.278 124.957 121.02 124.723 121.037Z" fill="#FEC45A"/>
<path d="M124.679 122.231C124.846 122.219 124.964 121.95 124.942 121.63C124.92 121.309 124.766 121.059 124.599 121.07C124.432 121.082 124.314 121.351 124.336 121.671C124.358 121.992 124.512 122.242 124.679 122.231Z" fill="#FEC45A"/>
<path d="M124.378 122.277C124.612 122.261 124.783 121.977 124.76 121.642C124.737 121.308 124.529 121.05 124.294 121.066C124.06 121.082 123.889 121.366 123.912 121.701C123.935 122.035 124.144 122.293 124.378 122.277Z" fill="#FEC45A"/>
<path d="M123.389 119.291C124.961 119.457 126.252 119.939 126.887 120.577C126.834 119.358 124.75 118.379 122.186 118.379C122.178 118.379 122.17 118.379 122.162 118.379C121.625 118.38 121.11 118.424 120.63 118.504C118.827 118.806 117.526 119.738 117.483 120.697C118.242 119.937 119.935 119.274 121.927 119.231C121.928 119.231 121.928 119.231 121.928 119.231C123.418 119.972 124.457 120.869 124.723 121.595C125.113 121.002 124.549 120.105 123.389 119.291Z" fill="#FBE5CA"/>
<path d="M117.967 121.232C118.269 121.232 118.513 120.987 118.513 120.685C118.513 120.384 118.269 120.139 117.967 120.139C117.665 120.139 117.421 120.384 117.421 120.685C117.421 120.987 117.665 121.232 117.967 121.232Z" fill="#FEC45A"/>
<path d="M126.404 121.11C126.706 121.11 126.951 120.866 126.951 120.564C126.951 120.262 126.706 120.018 126.404 120.018C126.102 120.018 125.858 120.262 125.858 120.564C125.858 120.866 126.102 121.11 126.404 121.11Z" fill="#FEC45A"/>
<path d="M119.42 113.277H125.092C125.277 113.277 125.427 113.427 125.427 113.612C125.427 113.798 125.277 113.947 125.092 113.947H119.42C119.235 113.947 119.085 113.798 119.085 113.612C119.085 113.427 119.235 113.277 119.42 113.277Z" fill="#FBE5CA"/>
<path d="M126.137 107.174L124.483 107.157C123.848 107.197 123.316 106.911 123.279 106.218L123.228 105.191C123.191 104.499 123.662 103.663 124.298 103.622L125.936 103.396C126.571 103.356 127.116 103.884 127.153 104.577L127.221 105.846C127.257 106.54 126.772 107.134 126.137 107.174Z" fill="#FEC45A"/>
<path d="M118.761 116.934L117.943 117.331L118.608 118.703L119.426 118.305L118.761 116.934Z" fill="#EBE8F2"/>
<path d="M118.038 117.914C118.659 117.55 119.187 117.39 119.206 117.385C119.075 116.806 117.925 114.283 117.506 113.056C116.82 111.051 115.777 111.232 115.178 111.584C114.579 111.937 114.756 112.695 116.312 115.344C116.701 116.006 117.346 117.012 118.038 117.914Z" fill="#11003B"/>
<path d="M119.544 117.856L119.949 118.686C120.008 118.807 119.961 118.953 119.842 119.015C119.413 119.239 118.481 119.735 118.404 119.85C118.305 120 117.657 120.76 117.436 120.808C116.364 121.04 115.938 121.02 116.267 120.678C116.878 120.043 117.467 119.211 117.536 119.065C117.606 118.919 117.819 118.601 117.848 118.491C117.878 118.381 117.946 118.114 118.031 118.071C118.116 118.029 118.194 118.26 118.194 118.26C118.194 118.26 118.433 118.665 119.544 117.856Z" fill="#11003B"/>
<path d="M118.449 94.4795C118.449 94.4795 118.997 96.9603 119.533 97.7112C120.069 98.4621 117.702 98.7018 117.702 98.7018C117.702 98.7018 117.624 97.3986 117.081 97.398C116.539 97.398 116.407 97.8259 115.721 97.2517C115.035 96.6775 115.01 94.5013 115.01 94.5013L118.449 94.4795Z" fill="#FBE5CA"/>
<path d="M124.007 109.907H119.217V107.383H123.691L124.007 109.907Z" fill="#EACBA9"/>
<path d="M124.236 109.696H119.092L119.156 108.374H123.887L124.236 109.696Z" fill="#1F006E"/>
<path d="M117.026 102.926L115.091 101.662C115.045 101.632 115.002 101.598 114.961 101.562L114.273 100.948L114.538 99.7185L114.622 99.914C114.769 100.257 115.033 100.536 115.368 100.7L117.761 101.876L117.026 102.926Z" fill="#EACBA9"/>
<path d="M114.719 100.723C114.553 101.156 114.861 101.175 114.305 100.962C113.748 100.749 113.114 100.434 112.956 100.111C112.374 98.9168 113.468 99.5912 114.025 99.8042C114.581 100.017 114.884 100.289 114.719 100.723Z" fill="#EACBA9"/>
<path d="M114.575 100.135L114.548 100.146C114.484 100.172 114.412 100.142 114.385 100.078L114.17 99.5479C114.144 99.4841 114.175 99.4113 114.239 99.3852L114.265 99.3743C114.329 99.3482 114.402 99.3791 114.428 99.4429L114.643 99.9728C114.67 100.037 114.639 100.109 114.575 100.135Z" fill="#EACBA9"/>
<path d="M119.517 97.5667C119.39 97.8738 118.982 98.099 118.498 98.099C118.454 98.099 118.411 98.0966 118.369 98.0929C117.937 98.5275 117.46 99.0963 117.252 99.276L118.852 104.114C118.952 104.585 118.908 108.798 118.908 108.798C120.748 108.096 123.886 108.78 124.236 108.798C124.17 107.771 122.061 98.2526 119.517 97.5667Z" fill="#D0CAE1"/>
<path d="M117.155 104.703C117.155 104.703 116.45 104.768 115.63 104.859C115.256 104.9 114.061 104.788 113.726 104.723C113.408 104.663 112.804 104.533 112.625 104.203C112.385 103.762 112.353 103.406 112.615 103.221C112.944 102.987 113.431 103.079 113.619 103.28C113.894 103.574 113.536 103.713 114.096 103.746C114.279 103.757 116.668 102.971 116.804 102.997C116.94 103.022 117.505 104.407 117.155 104.703Z" fill="#FBE5CA"/>
<path d="M119.206 100.663C118.718 104.831 117.323 104.696 116.766 104.736C115.05 104.859 116.843 102.926 117.097 101.759C117.472 100.03 117.55 100.154 118.109 100.154C118.667 100.153 119.309 99.7822 119.206 100.663Z" fill="#FBE5CA"/>
<path d="M114.222 103.402C114.24 103.208 114.056 103.032 113.811 103.009C113.565 102.985 113.351 103.123 113.332 103.317C113.314 103.51 113.498 103.686 113.744 103.71C113.989 103.733 114.203 103.595 114.222 103.402Z" fill="#EACBA9"/>
<path d="M118.662 101.095C118.996 101.131 119.316 101.195 119.617 101.28C119.742 100.895 119.835 100.465 119.884 100.007C120.073 98.2519 119.555 97.9108 118.726 97.8215C117.896 97.7323 117.071 97.929 116.883 99.6838C116.825 100.219 116.834 100.73 116.897 101.185C117.429 101.064 118.032 101.028 118.662 101.095Z" fill="#EBE8F2"/>
<path d="M121.911 111.197C121.919 111.792 121.488 112.615 120.436 112.336C119.247 112.021 117.867 113.404 117.1 113.416C114.992 113.446 114.29 112.246 114.276 111.31C114.262 110.374 115.976 109.817 118.069 109.558C121.563 109.125 121.897 110.26 121.911 111.197Z" fill="#11003B"/>
<path d="M120.3 109.241C119.482 109.241 117.912 109.465 118.11 110.401C118.105 110.452 118.1 110.504 118.1 110.556C118.1 111.717 119.513 112.657 121.256 112.657C122.998 112.657 124.411 111.716 124.411 110.556C124.411 110.398 124.228 109.636 124.178 109.488C123.191 109.755 121.851 109.241 120.3 109.241Z" fill="#1F006E"/>
<path d="M121.587 110.495C121.748 111.069 122.03 112.561 120.941 112.561C119.71 112.561 119.11 112.954 118.37 113.161C116.341 113.732 114.49 113.464 114.236 112.563C113.982 111.661 115.496 110.684 117.452 109.897C120.72 108.582 121.333 109.594 121.587 110.495Z" fill="#1F006E"/>
<path d="M114.316 119.191L113.369 119.046L113.126 120.633L114.072 120.778L114.316 119.191Z" fill="#EBE8F2"/>
<path d="M113.103 119.603C113.859 119.659 114.412 119.836 114.431 119.843C114.663 119.263 115.176 116.389 115.546 115.075C116.151 112.927 115.779 111.416 115.049 111.364C114.319 111.312 113.379 113.118 113.144 116.344C113.085 117.15 113.043 118.408 113.103 119.603Z" fill="#1F006E"/>
<path d="M114.443 120.454L114.298 121.415C114.277 121.556 114.149 121.653 114.008 121.636C113.502 121.573 112.399 121.445 112.263 121.5C112.087 121.57 111.071 121.841 110.851 121.75C109.783 121.31 109.425 121.039 109.915 120.94C110.825 120.755 111.832 120.385 111.98 120.301C112.128 120.216 112.502 120.068 112.594 119.99C112.685 119.912 112.904 119.722 113.003 119.736C113.102 119.75 113.031 119.997 113.031 119.997C113.031 119.997 112.996 120.49 114.443 120.454Z" fill="#11003B"/>
<path d="M117.426 94.553C117.423 94.5439 117.42 94.5354 117.417 94.5269C117.42 94.5354 117.423 94.5445 117.426 94.553Z" fill="#F39322"/>
<path d="M114.387 93.6327L114.6 94.6773L114.609 94.6779C114.657 94.9505 115.102 95.2364 116.027 95.0913C116.58 95.0045 116.985 94.9238 117.144 96.1542C117.156 96.1511 117.418 96.2179 117.261 95.583C117.268 95.3444 117.434 95.1733 117.635 95.1538C117.938 95.1241 118.077 95.3639 118.321 95.6291C118.815 96.1651 118.985 96.4528 118.777 95.4756C118.51 94.219 118.458 93.3777 117.717 93.0044C116.687 92.9352 115.028 93.6193 114.773 93.6351C114.518 93.6509 114.387 93.6327 114.387 93.6327Z" fill="#F39322"/>
<path d="M115.401 96.8898C115.381 96.7872 115.769 96.7131 115.833 96.7344C115.896 96.7556 116.03 96.8758 116.059 96.8546C116.088 96.8333 117.014 95.887 117.053 95.6709C117.091 95.4548 117.253 95.6242 117.253 95.6242C117.253 95.6242 117.382 96.1826 117.374 96.2888C117.367 96.3951 117.504 97.0949 117.418 97.1872C117.332 97.2789 117.165 97.4094 117.165 97.4094C117.165 97.4094 116.54 97.9083 116.327 97.9933C116.115 98.0783 115.641 98.1062 115.401 96.8898Z" fill="#F39322"/>
<path d="M114.1 100.255L113.3 100.315C113.221 100.321 113.153 100.262 113.148 100.183L113.019 98.4456C113.013 98.3673 113.072 98.2993 113.15 98.2938L113.95 98.2343C114.029 98.2282 114.097 98.2871 114.102 98.3654L114.231 100.103C114.237 100.182 114.178 100.25 114.1 100.255Z" fill="#EBE8F2"/>
<path d="M114.089 100.133L113.292 100.191C113.232 100.196 113.179 100.151 113.175 100.09L113.052 98.4432C113.048 98.3825 113.093 98.3303 113.154 98.3255L113.951 98.2666C114.012 98.2624 114.064 98.3073 114.069 98.9143L114.191 100.561C114.195 100.075 114.149 100.128 114.089 100.133Z" fill="#D0CAE1"/>
<path d="M92.1029 105.115H88.9076L88.7376 102.253H92.2728L92.1029 105.115Z" fill="#FBE5CA"/>
<path d="M92.3663 102.253H88.6442L88.5592 101.614H92.4513L92.3663 102.253Z" fill="#FEC45A"/>
<path d="M89.5121 101.606L89.5941 101.606L89.5941 99.8046L89.5121 99.8046L89.5121 101.606Z" fill="#EBE8F2"/>
<path d="M88.9725 101.011L89.0302 100.95L89.5753 101.528L89.517 101.589L88.9725 101.011Z" fill="#EBE8F2"/>
<path d="M89.12 99.7732L89.1777 99.7119L89.5753 100.133L89.517 100.194L89.12 99.7732Z" fill="#EBE8F2"/>
<path d="M89.5704 101.106L89.5128 101.044L90.0573 100.467L90.1149 100.528L89.5704 101.106Z" fill="#EBE8F2"/>
<path d="M88.998 99.7162C89.0867 99.8473 89.1619 99.8497 89.2214 99.8042C89.2809 99.7587 89.3028 99.6822 89.2141 99.5517C89.1255 99.4212 88.8323 99.23 88.8323 99.23C88.8323 99.23 88.9094 99.5851 88.998 99.7162Z" fill="#EBE8F2"/>
<path d="M89.1049 100.026C89.2566 100.019 89.3003 99.9542 89.2973 99.8765C89.2943 99.7988 89.2463 99.7375 89.0939 99.7442C88.9422 99.7508 88.6308 99.9056 88.6308 99.9056C88.6308 99.9056 88.9531 100.032 89.1049 100.026Z" fill="#EBE8F2"/>
<path d="M89.4078 99.7399C89.4484 99.8644 89.517 99.8814 89.5868 99.8559C89.6567 99.8304 89.7004 99.7721 89.6597 99.6477C89.619 99.5232 89.4078 99.3096 89.4078 99.3096C89.4078 99.3096 89.3665 99.6149 89.4078 99.7399Z" fill="#EBE8F2"/>
<path d="M89.511 99.599C89.4223 99.6912 89.4369 99.7641 89.4885 99.8199C89.5401 99.8758 89.6087 99.8928 89.6973 99.8005C89.7859 99.7082 89.8782 99.415 89.8782 99.415C89.8782 99.415 89.5996 99.5067 89.511 99.599Z" fill="#EBE8F2"/>
<path d="M90.0445 100.339C89.9559 100.431 89.9705 100.504 90.0221 100.56C90.0737 100.616 90.1423 100.633 90.2309 100.54C90.3195 100.448 90.4118 100.155 90.4118 100.155C90.4118 100.155 90.1332 100.247 90.0445 100.339Z" fill="#EBE8F2"/>
<path d="M90.2339 100.388C90.0949 100.317 90.0275 100.351 89.9947 100.422C89.9626 100.491 89.9777 100.57 90.1167 100.642C90.2558 100.713 90.603 100.737 90.603 100.737C90.603 100.737 90.3723 100.46 90.2339 100.388Z" fill="#EBE8F2"/>
<path d="M88.9604 101.167C89.0842 101.18 89.1273 101.122 89.1352 101.044C89.1431 100.967 89.1116 100.9 88.9877 100.887C88.8639 100.873 88.5926 100.986 88.5926 100.986C88.5926 100.986 88.8366 101.153 88.9604 101.167Z" fill="#EBE8F2"/>
<path d="M88.8754 100.981C88.9118 101.14 88.981 101.172 89.0521 101.154C89.1237 101.136 89.1704 101.073 89.134 100.914C89.0976 100.755 88.8924 100.456 88.8924 100.456C88.8924 100.456 88.839 100.821 88.8754 100.981Z" fill="#EBE8F2"/>
<path d="M91.0256 101.607L91.1525 101.607L91.1525 98.4892L91.0256 98.4892L91.0256 101.607Z" fill="#D0CAE1"/>
<path d="M91.0334 99.0597L91.1231 98.97L90.5068 98.3536L90.417 98.4433L91.0334 99.0597Z" fill="#D0CAE1"/>
<path d="M91.9608 99.5465L91.8711 99.4568L91.0255 100.302L91.1152 100.392L91.9608 99.5465Z" fill="#D0CAE1"/>
<path d="M90.3929 98.706C90.6284 98.6963 90.6958 98.601 90.6915 98.4869C90.6867 98.3728 90.612 98.2835 90.3765 98.2926C90.141 98.3023 89.6578 98.5288 89.6578 98.5288C89.6578 98.5288 90.1567 98.7157 90.3929 98.706Z" fill="#D0CAE1"/>
<path d="M90.8627 98.3941C90.9258 98.5762 91.0327 98.6011 91.1401 98.5635C91.2482 98.5258 91.3161 98.4408 91.253 98.2581C91.1899 98.076 90.8627 97.7634 90.8627 97.7634C90.8627 97.7634 90.799 98.212 90.8627 98.3941Z" fill="#D0CAE1"/>
<path d="M91.023 98.1876C90.8852 98.323 90.9082 98.4292 90.9884 98.5111C91.0685 98.5925 91.1747 98.618 91.3125 98.4832C91.4503 98.3479 91.5935 97.9187 91.5935 97.9187C91.5935 97.9187 91.1608 98.0528 91.023 98.1876Z" fill="#D0CAE1"/>
<path d="M91.758 99.3853C91.7404 99.5777 91.8272 99.6438 91.9414 99.6542C92.0555 99.6645 92.1526 99.6147 92.1696 99.4229C92.1866 99.2311 92.0178 98.811 92.0178 98.811C92.0178 98.811 91.7756 99.1934 91.758 99.3853Z" fill="#D0CAE1"/>
<path d="M92.0245 99.2604C91.806 99.3581 91.7781 99.4722 91.8242 99.5766C91.871 99.681 91.9748 99.7356 92.1933 99.6379C92.4118 99.5402 92.7833 99.1475 92.7833 99.1475C92.7833 99.1475 92.2431 99.1626 92.0245 99.2604Z" fill="#D0CAE1"/>
<path d="M90.1689 100.482C90.3607 100.502 90.4281 100.416 90.4396 100.303C90.4511 100.189 90.4032 100.091 90.2108 100.071C90.0189 100.051 89.5971 100.216 89.5971 100.216C89.5971 100.216 89.9771 100.462 90.1689 100.482Z" fill="#D0CAE1"/>
<path d="M90.0366 100.21C90.093 100.443 90.1998 100.491 90.3109 100.465C90.422 100.438 90.4948 100.346 90.4378 100.113C90.3813 99.88 90.0627 99.4436 90.0627 99.4436C90.0627 99.4436 89.9801 99.9772 90.0366 100.21Z" fill="#D0CAE1"/>
<path d="M90.2047 97.7859H90.0548V101.608H90.2047V97.7859Z" fill="#1F006E"/>
<path d="M91.1949 99.9461L91.0889 99.8401L90.0901 100.839L90.1962 100.945L91.1949 99.9461Z" fill="#1F006E"/>
<path d="M90.9238 97.7313L90.8177 97.6252L90.0898 98.3532L90.1958 98.4592L90.9238 97.7313Z" fill="#1F006E"/>
<path d="M90.0991 100.035L90.2051 99.9287L89.2063 98.9299L89.1003 99.0359L90.0991 100.035Z" fill="#1F006E"/>
<path d="M91.148 97.6323C90.9854 97.8587 90.8482 97.8636 90.7383 97.7847C90.6284 97.7064 90.589 97.5741 90.751 97.3476C90.9137 97.1212 91.4503 96.791 91.4503 96.791C91.4503 96.791 91.3101 97.4059 91.148 97.6323Z" fill="#1F006E"/>
<path d="M90.952 98.1683C90.6733 98.1567 90.5938 98.0444 90.5993 97.9097C90.6048 97.7749 90.6928 97.6693 90.9714 97.6802C91.25 97.6918 91.8206 97.9588 91.8206 97.9588C91.8206 97.9588 91.2306 98.1798 90.952 98.1683Z" fill="#1F006E"/>
<path d="M90.3971 97.6735C90.3225 97.889 90.1962 97.9181 90.0694 97.8738C89.9419 97.8295 89.8611 97.7287 89.9364 97.5133C90.0111 97.2978 90.3977 96.9287 90.3977 96.9287C90.3977 96.9287 90.4718 97.458 90.3971 97.6735Z" fill="#1F006E"/>
<path d="M90.2078 97.4301C90.3705 97.5898 90.3431 97.716 90.2491 97.8119C90.155 97.9085 90.0293 97.9382 89.866 97.7786C89.7027 97.6189 89.5346 97.1121 89.5346 97.1121C89.5346 97.1121 90.0445 97.2705 90.2078 97.4301Z" fill="#1F006E"/>
<path d="M89.2293 98.7097C89.392 98.8693 89.3647 98.9956 89.2706 99.0915C89.1765 99.188 89.0508 99.2177 88.8875 99.0581C88.7243 98.8985 88.5561 98.3916 88.5561 98.3916C88.5561 98.3916 89.0666 98.55 89.2293 98.7097Z" fill="#1F006E"/>
<path d="M88.8821 98.7948C89.1364 98.6704 89.2608 98.7311 89.3203 98.8525C89.3798 98.9739 89.3507 99.1092 89.097 99.2337C88.8426 99.3581 88.2053 99.3976 88.2053 99.3976C88.2053 99.3976 88.6277 98.9193 88.8821 98.7948Z" fill="#1F006E"/>
<path d="M91.2166 100.141C90.9896 100.164 90.9101 100.062 90.8967 99.9281C90.8828 99.794 90.9398 99.6781 91.1668 99.655C91.3939 99.6319 91.8916 99.8256 91.8916 99.8256C91.8916 99.8256 91.443 100.117 91.2166 100.141Z" fill="#1F006E"/>
<path d="M91.3726 99.8189C91.3058 100.094 91.1796 100.151 91.0485 100.119C90.9174 100.088 90.8312 99.9791 90.8985 99.7035C90.9659 99.4279 91.3417 98.9126 91.3417 98.9126C91.3417 98.9126 91.4394 99.5439 91.3726 99.8189Z" fill="#1F006E"/>
</g>
</g>
<rect x="48.0002" y="119.25" width="90.2995" height="2.28352" rx="1.14176" fill="#EBE8F2"/>
<rect x="48.0002" y="119.25" width="12.5" height="2.28352" rx="1.14176" fill="#D0CAE1"/>
<circle cx="95.5002" cy="97.0259" r="11" fill="#A39AC1" stroke="white"/>
<path d="M101.444 97.0945C101.777 97.287 101.777 97.7681 101.444 97.9606L91.7136 103.578C91.3803 103.771 90.9636 103.53 90.9636 103.145L90.9636 91.9096C90.9636 91.5247 91.3803 91.2842 91.7136 91.4766L101.444 97.0945Z" fill="white"/>
</g>
<rect x="30.2355" y="125.509" width="124.279" height="7.83719" rx="3.9186" fill="#D0CAE1"/>
<path d="M30.2355 129.651C30.2355 127.364 32.0902 125.509 34.3781 125.509H150.371C152.659 125.509 154.514 127.364 154.514 129.651V130.814H30.2355V129.651Z" fill="#A39AC1"/>
<defs>
<clipPath id="clip0">
<rect x="47.514" y="69.8325" width="95.8566" height="52.7719" fill="white"/>
</clipPath>
</defs>
</svg>
