<svg width="77" height="200" viewBox="0 0 77 200" fill="none" xmlns="http://www.w3.org/2000/svg">
<g clip-path="url(#clip0)">
<path opacity="0.5" d="M38.0171 199.428C59.0134 199.428 76.0343 196.184 76.0343 192.183C76.0343 188.182 59.0134 184.938 38.0171 184.938C17.0208 184.938 -6.10352e-05 188.182 -6.10352e-05 192.183C-6.10352e-05 196.184 17.0208 199.428 38.0171 199.428Z" fill="#D0CAE1"/>
<path opacity="0.2" d="M68.0329 190.209C68.0329 192.379 63.8575 194.139 58.7101 194.139C53.5628 194.139 49.3874 192.379 49.3874 190.209C49.3874 188.039 47.3553 185.469 52.5065 185.469C57.6576 185.469 68.0329 188.035 68.0329 190.209Z" fill="#11003B"/>
<path opacity="0.2" d="M19.821 197.638C15.2115 197.638 11.4701 197.065 11.4701 196.362C11.4701 190.285 29.1707 189.06 33.7841 189.06C38.3975 189.06 29.6317 197.638 19.821 197.638Z" fill="#11003B"/>
<path d="M57.6307 174.779C57.6307 174.779 58.6064 178.117 58.9367 178.643C59.2671 179.169 65.0789 187.943 65.8702 188.396C66.6577 188.849 66.723 190.394 66.4618 191.842C66.2006 193.29 62.39 193.286 59.8932 193.351C57.3964 193.417 51.427 186.153 51.0006 185.857C50.5742 185.561 51.089 180.952 51.1543 180.291C51.2196 179.634 51.7228 174.771 51.7228 174.771H57.6307V174.779Z" fill="#EBE8F2"/>
<path d="M57.6307 172.9C57.6307 172.9 59.0097 173.238 59.3401 173.765C59.6704 174.291 60.1506 178.324 60.7114 179.039C61.4528 179.98 66.723 188.515 66.458 189.963C66.1968 191.411 62.3862 191.408 59.8894 191.473C57.3925 191.538 51.4232 184.274 50.9968 183.979C50.5704 183.683 50.3054 174.683 50.3745 174.026C50.4398 173.369 51.7228 172.896 51.7228 172.896H57.6307V172.9Z" fill="#D0CAE1"/>
<path d="M54.9033 175.754C57.2264 175.754 59.1096 175.115 59.1096 174.325C59.1096 173.536 57.2264 172.896 54.9033 172.896C52.5803 172.896 50.6971 173.536 50.6971 174.325C50.6971 175.115 52.5803 175.754 54.9033 175.754Z" fill="#11003B"/>
<path d="M51.4348 174.545C51.4348 174.545 51.8419 175.148 54.6768 175.279C57.5155 175.405 57.9188 174.545 57.9188 174.545V165.664H51.4348V174.545Z" fill="#1F006E"/>
<path d="M62.2824 181.362C63.4809 182.987 66.8228 186.686 63.0584 187.92C59.7971 188.987 58.6832 185.688 57.3694 184.155C55.8252 182.357 55.5986 180.16 57.2004 179.788C58.8022 179.415 59.9162 178.159 62.2824 181.362Z" fill="#A39AC1"/>
<path d="M54.9034 177.18C52.4411 177.18 50.4322 176.485 50.29 175.609H48.7958C48.6767 175.912 48.6114 176.235 48.6114 176.573C48.6114 178.183 50.0749 179.485 51.8765 179.485C53.4476 179.485 54.7574 178.494 55.0686 177.176C55.0148 177.176 54.961 177.18 54.9034 177.18Z" fill="#A39AC1"/>
<path d="M50.0978 180.196C50.0978 180.196 54.3463 184.721 55.3105 186.649C56.2746 188.577 56.4936 189.453 56.4936 189.453L49.1337 182.973L50.0978 180.196Z" fill="#A39AC1"/>
<path d="M57.0199 182.273C57.185 182.584 57.6037 182.638 57.8457 182.388C58.1876 182.039 58.7446 181.639 59.6012 181.501C60.2235 181.401 60.7229 181.374 61.107 181.378C61.5026 181.386 61.7638 180.967 61.5756 180.618C61.5103 180.491 61.3951 180.399 61.2568 180.364C60.9917 180.299 60.4617 180.253 59.4245 180.418C58.203 180.614 57.4347 181.294 57.0852 181.685C56.943 181.847 56.9161 182.081 57.0199 182.273Z" fill="white"/>
<path d="M58.1493 184.143C58.3144 184.455 58.7331 184.508 58.9751 184.259C59.317 183.909 59.874 183.51 60.7306 183.371C61.3529 183.272 61.8523 183.245 62.2364 183.248C62.632 183.256 62.8932 182.837 62.705 182.488C62.6397 182.361 62.5245 182.269 62.3862 182.234C62.1211 182.169 61.591 182.123 60.5539 182.288C59.3324 182.484 58.5641 183.164 58.2146 183.556C58.0724 183.717 58.0455 183.951 58.1493 184.143Z" fill="white"/>
<path d="M59.2785 186.011C59.4437 186.322 59.8624 186.376 60.1044 186.126C60.4463 185.776 61.0033 185.377 61.8599 185.239C62.4822 185.139 62.9815 185.112 63.3657 185.116C63.7613 185.123 64.0225 184.705 63.8343 184.355C63.769 184.228 63.6538 184.136 63.5155 184.102C63.2504 184.036 62.7203 183.99 61.6832 184.155C60.4616 184.351 59.6934 185.031 59.3438 185.423C59.2017 185.584 59.1748 185.819 59.2785 186.011Z" fill="white"/>
<path d="M54.2889 173.339L53.1864 171.541L52.084 173.339L53.1864 175.136L54.2889 173.339Z" fill="#D0CAE1"/>
<path d="M54.2889 169.655L53.1864 167.861L52.084 169.655L53.1864 171.453L54.2889 169.655Z" fill="#D0CAE1"/>
<path d="M54.2889 166.101L53.1864 164.304L52.084 166.101L53.1864 167.899L54.2889 166.101Z" fill="#D0CAE1"/>
<path d="M26.5124 179.308C26.5124 179.308 25.1334 179.646 24.8031 180.172C24.4727 180.698 22.8978 183.36 22.6673 183.982C22.4368 184.605 19.3484 188.68 18.9221 189.011C18.4957 189.341 14.6851 190.962 13.8938 191.415C13.1063 191.869 12.315 193.443 12.5801 194.888C12.8413 196.336 18.2306 197.12 20.7275 197.189C23.2243 197.258 28.5675 193.324 29.9043 192.268C31.2411 191.212 32.7199 190.685 33.1463 190.39C33.5727 190.094 32.0977 182.842 32.0324 182.181C31.9671 181.524 32.4242 179.304 32.4242 179.304H26.5124V179.308Z" fill="#EBE8F2"/>
<path d="M26.5124 177.806C26.5124 177.806 25.1334 178.144 24.8031 178.67C24.4727 179.196 22.8978 181.858 22.6673 182.481C22.4368 183.103 19.3484 187.179 18.9221 187.509C18.4957 187.839 14.6851 189.46 13.8938 189.914C13.1063 190.367 12.315 191.942 12.5801 193.386C12.8413 194.834 18.2306 195.618 20.7275 195.687C23.2243 195.756 28.5675 191.823 29.9043 190.766C31.2411 189.71 32.7199 189.184 33.1463 188.888C33.5727 188.592 33.8378 179.592 33.7686 178.935C33.7033 178.278 32.4203 177.806 32.4203 177.806H26.5124Z" fill="#D0CAE1"/>
<path d="M29.2397 180.66C31.5627 180.66 33.4459 180.02 33.4459 179.231C33.4459 178.442 31.5627 177.802 29.2397 177.802C26.9167 177.802 25.0335 178.442 25.0335 179.231C25.0335 180.02 26.9167 180.66 29.2397 180.66Z" fill="#11003B"/>
<path d="M32.7085 179.45C32.7085 179.45 32.3013 180.053 29.4664 180.183C26.6315 180.314 26.2244 179.45 26.2244 179.45V170.569H32.7123V179.45H32.7085Z" fill="#1F006E"/>
<path d="M33.784 185.685L23.3318 194.962L34.7674 190.022L33.784 185.685Z" fill="#A39AC1"/>
<path d="M20.8811 186.123C19.7825 187.817 16.3983 188.727 18.8183 190.321C21.6839 192.207 23.9272 189.042 25.4369 187.698C28.6981 184.794 26.3626 182.992 24.7377 182.746C22.7288 182.45 22.4138 183.76 20.8811 186.123Z" fill="#A39AC1"/>
<path d="M33.9568 180.453C33.4843 181.271 31.6021 181.886 29.3473 181.886C28.8825 181.886 28.4369 181.859 28.0105 181.809C28.3408 183.192 29.7083 184.229 31.3486 184.229C33.2346 184.229 34.7635 182.858 34.7635 181.164C34.7635 180.918 34.7289 180.68 34.6674 180.453H33.9568Z" fill="#A39AC1"/>
<path d="M26.186 186.242C25.9747 186.522 25.5522 186.515 25.3525 186.226C25.0682 185.827 24.5765 185.347 23.7506 185.078C23.1514 184.882 22.6597 184.782 22.2833 184.728C21.8915 184.675 21.6956 184.221 21.9337 183.906C22.0182 183.791 22.145 183.714 22.2871 183.703C22.556 183.68 23.0899 183.714 24.0887 184.037C25.268 184.421 25.921 185.205 26.2091 185.65C26.3243 185.831 26.3166 186.065 26.186 186.242Z" fill="white"/>
<path d="M24.7839 187.917C24.5726 188.197 24.1501 188.189 23.9504 187.901C23.6661 187.502 23.1744 187.022 22.3485 186.753C21.7493 186.557 21.2576 186.457 20.8812 186.403C20.4894 186.349 20.2935 185.896 20.5316 185.581C20.6161 185.466 20.7429 185.389 20.885 185.378C21.1539 185.354 21.6878 185.389 22.6866 185.712C23.8659 186.096 24.5189 186.879 24.807 187.325C24.9222 187.506 24.9145 187.74 24.7839 187.917Z" fill="white"/>
<path d="M23.3819 189.588C23.1706 189.868 22.7481 189.86 22.5483 189.572C22.2641 189.173 21.7724 188.692 20.9465 188.424C20.3473 188.228 19.8556 188.128 19.4791 188.074C19.0873 188.02 18.8914 187.567 19.1296 187.252C19.2141 187.137 19.3409 187.06 19.483 187.048C19.7519 187.025 20.2858 187.06 21.2845 187.383C22.4638 187.767 23.1168 188.55 23.4049 188.996C23.5202 189.18 23.5125 189.415 23.3819 189.588Z" fill="white"/>
<path d="M31.6713 178.398L30.5689 176.6L29.4626 178.398L30.5689 180.195L31.6713 178.398Z" fill="#D0CAE1"/>
<path d="M31.6713 174.714L30.5689 172.92L29.4626 174.714L30.5689 176.512L31.6713 174.714Z" fill="#D0CAE1"/>
<path d="M31.6713 171.161L30.5689 169.363L29.4626 171.161L30.5689 172.958L31.6713 171.161Z" fill="#D0CAE1"/>
<path d="M25.0336 86.4366L24.2115 173.611L35.0747 174.621L38.4397 110.326C38.4397 107.99 40.3334 106.096 42.6689 106.096C45.0044 106.096 46.8982 107.99 46.8982 110.326L50.2094 169.324L59.9585 168.202L61.1839 85.1997L25.0336 86.4366Z" fill="#FEC45A"/>
<path d="M23.9158 174.325L23.7198 171.54L35.5472 171.713L35.1169 174.997L23.9158 174.325Z" fill="#FBE5CA"/>
<path d="M49.8021 167.861C49.8021 167.861 49.902 169.77 49.998 169.658C50.0979 169.547 60.1813 168.763 60.1813 168.763L60.4425 166.105L49.8021 167.861Z" fill="#FBE5CA"/>
<path d="M45.9416 27.3728C44.021 26.7505 42.5767 25.1295 41.6509 23.0129L37.3948 36.1309L47.797 39.5036L52.08 26.2972C50.0557 27.5149 47.8968 28.0066 45.9416 27.3728Z" fill="#EBE8F2"/>
<path d="M45.9417 27.373C47.8969 28.0069 50.0557 27.5152 52.08 26.3013L53.1249 23.0785L42.9839 18.8992L41.6509 23.0132C42.5805 25.1297 44.021 26.7508 45.9417 27.373Z" fill="#936138"/>
<path d="M60.8036 16.7102C58.2146 22.3992 51.5346 26.8551 46.779 24.6924C42.0235 22.5298 40.9902 14.5668 43.5793 8.87402C46.1683 3.18124 51.3963 1.92129 56.1556 4.08394C60.915 6.24658 63.3926 11.0175 60.8036 16.7102Z" fill="#B57D4B"/>
<path d="M57.3196 1.20269C51.9418 -1.65523 45.3693 0.841608 43.0108 6.02734C42.5345 7.07601 42.2617 8.16694 42.1696 9.2617C42.4999 9.18104 42.8264 9.20024 43.1184 9.33469C43.4257 9.47298 43.66 9.7265 43.8175 10.0453C45.6843 6.02734 50.701 4.29492 54.9879 6.32696C61.326 9.33085 61.5258 13.514 61.8254 13.6523C62.1366 13.7906 66.8921 6.29239 57.3196 1.20269Z" fill="#11003B"/>
<path d="M44.115 11.4634C44.7691 10.1184 44.6172 8.69635 43.7758 8.28723C42.9345 7.8781 41.7222 8.6368 41.0682 9.98184C40.4141 11.3269 40.566 12.7489 41.4073 13.158C42.2487 13.5672 43.461 12.8085 44.115 11.4634Z" fill="#B57D4B"/>
<path d="M46.8021 24.6155C46.0953 24.2736 45.5191 23.8472 45.1734 23.4478C45.1542 23.4708 45.1312 23.49 45.1158 23.5131C44.9314 23.8972 45.5844 24.5963 46.5793 25.0765C47.5742 25.5566 48.5269 25.6373 48.7112 25.2532C48.7228 25.2263 48.7228 25.1955 48.7266 25.1686C48.2004 25.1456 47.5089 24.9574 46.8021 24.6155Z" fill="#11003B"/>
<path d="M48.454 29.5157L47.3285 27.9523C46.8906 27.3454 46.0455 27.2071 45.4386 27.645L43.8752 28.7705C43.2682 29.2084 43.13 30.0535 43.5679 30.6604L44.6934 32.2238C45.1313 32.8307 45.9763 32.969 46.5833 32.5311L48.1467 31.4056C48.7536 30.9677 48.8919 30.1188 48.454 29.5157Z" fill="#1F006E"/>
<path d="M44.6088 31.7126L41.5089 39.376L47.5934 40.3671L46.4603 32.2043L44.6088 31.7126Z" fill="#1F006E"/>
<path d="M65.805 66.3121L72.5119 62.5669C67.4452 32.6625 65.6629 32.0863 60.819 30.3884L53.2094 27.8801L45.8995 36.9609L39.3578 25.1912L31.7482 26.163C26.5125 26.8314 19.9439 29.2284 19.9439 34.5101C19.9439 34.5101 11.4892 49.495 11.8388 60.8037C12.0501 67.6105 13.8094 72.2354 18.0386 73.0843C24.2077 74.325 24.2077 88.9258 24.2077 88.9258C24.2077 88.9258 36.4806 86.5096 48.2695 86.5096C60.0584 86.5096 62.1212 87.3892 62.1212 87.3892L61.7909 64.6412C61.7832 64.0957 62.3939 63.7692 62.8434 64.0765L65.805 66.3121Z" fill="#11003B"/>
<path d="M36.3615 59.117L30.9952 65.2976L26.8312 60.3501L32.4971 55.9748L33.4114 49.9248L39.0849 47.0093L40.0837 50.8275C40.0837 50.8275 40.5869 50.6316 41.2437 50.9351C41.9006 51.2385 41.1093 54.3692 41.1093 54.3692L37.122 57.6804L36.3615 59.117Z" fill="#B57D4B"/>
<path d="M36.9299 51.7189C37.4524 51.9685 38.0823 51.7496 38.332 51.2233L41.0171 45.6189C41.2667 45.0965 41.0478 44.4665 40.5215 44.2168C39.9991 43.9671 39.3692 44.1861 39.1195 44.7123L36.4344 50.3168C36.1847 50.8392 36.4037 51.4692 36.9299 51.7189Z" fill="#B57D4B"/>
<path d="M37.6714 47.735C37.6714 47.735 38.0747 47.7426 38.7277 47.9654C39.3808 48.1882 39.5344 48.7183 39.5344 48.7183L41.021 45.6184L37.6714 47.735Z" fill="#936138"/>
<path d="M40.5062 50.3823C39.9569 50.3516 39.9569 50.3516 39.9569 50.3516L40.0952 52.6909C40.1413 52.979 39.9915 53.2594 39.7264 53.3823C39.7226 53.3823 39.7226 53.3862 39.7188 53.3862L37.1489 54.4771C36.784 54.6308 36.3615 54.527 36.1118 54.2236L34.3371 52.0571C34.2027 51.8919 33.9338 52.0033 33.9607 52.2146C34.1988 54.093 35.5049 56.8433 35.9236 57.2659C35.8852 57.5578 35.9505 57.8536 35.9466 58.1801C35.9428 58.8293 37.2488 58.0802 37.4793 57.9919C37.656 57.9227 41.4243 54.6845 41.5741 54.2236C41.747 53.6858 42.108 50.4706 40.5062 50.3823Z" fill="#936138"/>
<path d="M54.431 49.1723C54.6 48.3464 55.5104 48.089 56.463 48.8342C58.1225 50.1326 59.0713 49.9252 59.5168 53.1941L61.8255 55.4989C61.8255 55.4989 61.8178 57.6193 60.1276 58.8562C58.4374 60.0931 58.1878 60.0316 58.1878 60.0316L56.1442 58.1878C55.2338 58.2723 51.162 56.7012 51.162 56.7012C56.1058 53.2671 53.7395 51.1237 54.431 49.1723Z" fill="#936138"/>
<path d="M55.7754 49.6099C56.198 49.3064 56.294 48.7187 55.9905 48.3L53.5782 44.9389C53.2747 44.5163 52.687 44.4203 52.2683 44.7237C51.8458 45.0272 51.7497 45.6149 52.0532 46.0336L54.4655 49.3947C54.7652 49.8173 55.3529 49.9133 55.7754 49.6099Z" fill="#936138"/>
<path d="M45.9878 55.2491L52.8676 54.5653C53.3477 54.5192 53.6973 54.089 53.6512 53.6088L52.2491 39.496C52.203 39.0158 51.7728 38.6662 51.2926 38.7123L44.4129 39.3961C43.9327 39.4422 43.5832 39.8724 43.6293 40.3526L45.0313 54.4654C45.0813 54.9456 45.5077 55.299 45.9878 55.2491Z" fill="#EBE8F2"/>
<path d="M45.9148 52.9942C45.4692 52.6792 45.1273 52.2336 44.9737 51.7112C44.4551 49.9135 44.7816 47.5357 46.2912 46.852C48.2503 45.9685 51.9994 47.4781 53.1479 47.5511C55.9175 50.1747 55.0301 52.7099 53.1441 55.1184C52.6255 55.783 51.8688 56.2977 51.1735 56.701L45.9148 52.9942Z" fill="#B57D4B"/>
<path d="M48.2734 44.6625C49.0371 44.6625 49.6562 44.0433 49.6562 43.2796C49.6562 42.5159 49.0371 41.8967 48.2734 41.8967C47.5096 41.8967 46.8905 42.5159 46.8905 43.2796C46.8905 44.0433 47.5096 44.6625 48.2734 44.6625Z" fill="#D0CAE1"/>
<path d="M56.4937 60.7579C57.5654 61.9256 62.1634 67.5838 63.9996 68.2868C68.2711 69.9232 71.4632 67.5224 72.4696 64.8872C73.4799 62.2521 70.8371 58.7911 66.5656 57.1547C64.6641 56.4249 63.4618 54.2162 61.8485 54.4005C61.5335 55.745 56.9431 59.836 56.4937 60.7579Z" fill="#11003B"/>
<path d="M40.5063 103.73C40.5063 103.73 44.9737 102.505 45.7612 102.593C46.5486 102.682 46.1991 103.73 46.1991 103.73H40.5063Z" fill="#F39322"/>
<path d="M42.6958 88.926C42.6958 88.926 42.1426 99.3513 42.6958 101.191C43.2489 103.031 43.3911 102.589 43.3911 102.589L42.6958 88.926Z" fill="#F39322"/>
<path d="M41.4666 31.3908L40.0146 25.6711L41.0556 23.5623L46.2067 27.2076L41.4666 31.3908Z" fill="#EBE8F2"/>
<path d="M49.975 32.7781L53.1671 27.8151L52.8483 25.4873L46.806 27.3042L49.975 32.7781Z" fill="#EBE8F2"/>
</g>
<defs>
<clipPath id="clip0">
<rect width="76.0382" height="199.428" fill="white"/>
</clipPath>
</defs>
</svg>
