<svg width="59" height="80" viewBox="0 0 59 80" fill="none" xmlns="http://www.w3.org/2000/svg">
<g opacity="0.8" filter="url(#filter0_d)">
<path d="M24.1061 64.318C11.1937 63.0185 12.8055 70.7544 14.5214 73.0087C17.1958 76.4693 22.4297 75.2057 23.7471 71.6267C24.4148 70.2482 23.9984 65.7323 24.1061 64.318Z" fill="#F39322"/>
</g>
<g filter="url(#filter1_d)">
<path d="M54.8463 27.6366L54.8463 55L27.1755 55C12.1957 55 -5.36822e-07 42.7189 -1.19609e-06 27.6366C-1.86208e-06 12.4006 12.2981 8.53404e-07 27.4146 1.92643e-07C42.5481 -4.68865e-07 54.8463 12.4006 54.8463 27.6366Z" fill="white"/>
<path d="M51.8463 27.6366L51.8463 52L27.1755 52C13.872 52 3 41.0817 3 27.6366C3 14.0344 13.978 3 27.4146 3C40.8695 3 51.8463 14.0356 51.8463 27.6366Z" stroke="#F39322" stroke-width="6"/>
</g>
<circle cx="26.717" cy="22.1907" r="4.84521" stroke="#7E7F90" stroke-width="2"/>
<path d="M16.704 36.7608V36.7608C16.704 33.0562 19.7072 30.053 23.4118 30.053H29.7287C33.3839 30.053 36.3471 33.0161 36.3471 36.6714V36.6714" stroke="#7E7F90" stroke-width="2"/>
<defs>
<filter id="filter0_d" x="13.374" y="64.1719" width="14.7631" height="14.877" filterUnits="userSpaceOnUse" color-interpolation-filters="sRGB">
<feFlood flood-opacity="0" result="BackgroundImageFix"/>
<feColorMatrix in="SourceAlpha" type="matrix" values="0 0 0 0 0 0 0 0 0 0 0 0 0 0 0 0 0 0 127 0"/>
<feOffset dx="4" dy="4"/>
<feColorMatrix type="matrix" values="0 0 0 0 0.815686 0 0 0 0 0.792157 0 0 0 0 0.882353 0 0 0 1 0"/>
<feBlend mode="normal" in2="BackgroundImageFix" result="effect1_dropShadow"/>
<feBlend mode="normal" in="SourceGraphic" in2="effect1_dropShadow" result="shape"/>
</filter>
<filter id="filter1_d" x="0" y="0" width="58.8463" height="59" filterUnits="userSpaceOnUse" color-interpolation-filters="sRGB">
<feFlood flood-opacity="0" result="BackgroundImageFix"/>
<feColorMatrix in="SourceAlpha" type="matrix" values="0 0 0 0 0 0 0 0 0 0 0 0 0 0 0 0 0 0 127 0"/>
<feOffset dx="4" dy="4"/>
<feColorMatrix type="matrix" values="0 0 0 0 0.815686 0 0 0 0 0.792157 0 0 0 0 0.882353 0 0 0 1 0"/>
<feBlend mode="normal" in2="BackgroundImageFix" result="effect1_dropShadow"/>
<feBlend mode="normal" in="SourceGraphic" in2="effect1_dropShadow" result="shape"/>
</filter>
</defs>
</svg>
